<svg id="abd5a2dc-91e7-4576-8d6c-6c93faa05885" data-name="Layer 1" xmlns="http://www.w3.org/2000/svg" viewBox="0 0 461.5 275.99"><defs><style>.e9ebdb24-5e5f-4c60-8da5-da75e1f47508{fill:#221f1f;}</style></defs><path class="e9ebdb24-5e5f-4c60-8da5-da75e1f47508" d="M113,282.29a27.68,27.68,0,0,0,4,10.36,5.19,5.19,0,0,0,2.53,2.45,26.93,26.93,0,0,1,4.59,2.44c.72.43,1.41.85,2.14,1.26a13.38,13.38,0,0,0,3.94,1.28,14.65,14.65,0,0,0,2.64.24A29.34,29.34,0,0,0,143,297.86l.78-.27a12.69,12.69,0,0,0,2.94-1.31,42.52,42.52,0,0,0,4.49-3.42c.86-.7,1.7-1.41,2.88-2.31,4.42-3.32,9-6.75,12.16-11.59.3-.43.62-.85.95-1.27a8.83,8.83,0,0,0,2.18-4.22,10,10,0,0,1,1.84-4.73c1.28-1.76,1-6.08-.41-7.35a5.62,5.62,0,0,0-3.71-1.41,6.53,6.53,0,0,0-4.48,2,5.17,5.17,0,0,0-1.41,2.54,6,6,0,0,1-.42,1.14c-.62,1.08-1.19,2.16-1.8,3.25-.87,1.62-1.74,3.22-2.67,4.8-3.34,5.72-6.55,10.23-11.42,13.62a25.67,25.67,0,0,1-13.6,4.81,1.73,1.73,0,0,1-.88-.4,3.41,3.41,0,0,0-2.09-.67h-.09a3.05,3.05,0,0,1-.74,0c-1.4,0-2.47-.71-3.7-2.42a3.49,3.49,0,0,0-1.57-1.4c-1.88-.67-2.82-2.11-3.07-4.82-.54-5.12,1.49-9.6,3.63-14.34l.53-1.21a19.79,19.79,0,0,1,3.23-4.57,20.48,20.48,0,0,0,3.66-5.27,8.9,8.9,0,0,1,2.25-2.81,74.08,74.08,0,0,0,8.16-9.69,40.67,40.67,0,0,1,6.15-6.36l2.58-2.25c2.19-1.92,4.39-3.84,6.7-5.63,1.11-.86,2.12-1.85,3.15-2.82a34,34,0,0,1,3.51-3.06,161.32,161.32,0,0,1,19.62-12.78c4.6-2.43,9.34-4.93,14.07-7,3.25-1.41,6.41-3.13,9.46-4.76,2.63-1.41,5.26-2.81,8-4.05.4-.2.81-.36,1.22-.54s.59-.15.59-.35c0-.75,0-5-.11-6.55,0-1.29-.51-.76-.93-.61L211.55,189c-2.22.9-4.45,1.79-6.65,2.7-2.68,1.1-5.28,2.39-7.79,3.65l-2.93,1.4a100.27,100.27,0,0,0-14.07,8.45c-1.41,1-2.82,1.86-4.22,2.81a56.73,56.73,0,0,0-7,4.85,39.61,39.61,0,0,1-5,3.37c-1,.61-2,1.23-3,1.86a49.44,49.44,0,0,0-7.38,6.48,46.56,46.56,0,0,1-7.64,6.58,20.4,20.4,0,0,0-4.73,4.68,34.59,34.59,0,0,1-2.46,2.81,64.91,64.91,0,0,0-5.29,5.74c-.73.88-1.41,1.75-2.23,2.59-2.42,2.82-4.7,5.63-6.88,8.45-1,1.24-1.93,2.46-2.9,3.69a27.4,27.4,0,0,0-2.17,3.35,21.75,21.75,0,0,1-2.16,3.43c-1.86,2.17-3.45,4.38-2.55,7.56l-.23.58A14.79,14.79,0,0,0,113,282.29Z" transform="translate(-25.5 -117.66)"/><path class="e9ebdb24-5e5f-4c60-8da5-da75e1f47508" d="M469.35,226.08a34.6,34.6,0,0,0,4.22-5.21c.64-.93,1.28-1.85,2-2.73a31.47,31.47,0,0,0,3.2-5.31c.53-1,1-2,1.8-3.26,3.32-5.54,6.77-11.26,6.42-18.19a15.62,15.62,0,0,0-1.68-8.44c-1.27-2.64-2.31-5.47-3.32-8.2l-.17-.45a28.06,28.06,0,0,0-10.37-13.13,10.86,10.86,0,0,0-1.71-.93,5.25,5.25,0,0,1-1.9-1.22c-2.59-2.93-6.26-4.22-9.51-5.41l-.61-.22A143.39,143.39,0,0,0,441.62,149l-2-.47c-.67-.15-1.4-.35-2-.54s-1.24-.37-1.88-.53a12.59,12.59,0,0,0-3.12-.33h-3.69a12.72,12.72,0,0,1-1.74-.12c-.9-.12-1.8-.29-2.71-.45-1.25-.24-2.5-.46-3.77-.6a50.42,50.42,0,0,0-5.63-.28c-2.09,0-4.22.1-6.29.18-1.55.07-3.12.13-4.91.17-.79,0-1.56-.07-2.35-.14s-1.65-.14-2.47-.14a10.46,10.46,0,0,0-2.08.19,28.37,28.37,0,0,1-5.74.5c-1.41,0-2.89,0-4.34-.13l-2.59-.08c-1.32,0-2.63.11-3.94.24s-2.5.22-3.77.22a14.27,14.27,0,0,1-1.6-.07H373.6a29.44,29.44,0,0,0-5,.55,31.29,31.29,0,0,1-4.83.52,65.29,65.29,0,0,0-14.5,2.2l-3.33.74c-2,.42-3.9.79-5.86,1.16-3.39.63-6.91,1.29-10.33,2.21a6.34,6.34,0,0,0-1.26.53,3.29,3.29,0,0,1-1.09.42,75.75,75.75,0,0,0-10,2.09c-1.68.42-3.34.85-5,1.22-2.81.61-5.63,1.41-8.36,2.18-2.21.61-4.4,1.23-6.63,1.76s-4.22.94-6.3,1.41c-3.24.67-6.59,1.41-9.85,2.31-.81.22-1.62.41-2.44.57a25.48,25.48,0,0,0-3.83,1c-.62.24-1.25.51-1.86.79a15.21,15.21,0,0,1-3.54,1.25,54.62,54.62,0,0,0-6.46,1.66,55.19,55.19,0,0,1-5.63,1.55c-2.2.45-4.34,1.09-6.49,1.72-1.16.34-2.32.67-3.49,1l-3,.78a27,27,0,0,1,2.81,6.54l2.42-.71,1.65-.48c4.79-1.41,9.77-2.73,14.78-3.94,2.08-.5,4.1-1.17,6.11-1.86a49.56,49.56,0,0,1,8.61-2.32,27.6,27.6,0,0,0,4.32-1.09,31,31,0,0,1,3.14-.86,37.37,37.37,0,0,0,5-1.49,36.93,36.93,0,0,1,4.36-1.41l2.19-.46a70.6,70.6,0,0,0,8.44-2.17,111.08,111.08,0,0,1,14.6-3.7l2.92-.61c3-.63,6-1.21,9-1.78l4.91-1c2.18-.42,4.36-.9,6.53-1.4a92.84,92.84,0,0,1,20.1-2.82h0a63.71,63.71,0,0,0,8.16-.7,63.47,63.47,0,0,1,7.9-.68h1.65a9.48,9.48,0,0,0,4.67-1.07,29.81,29.81,0,0,0,4.22.27c2,0,4.06-.16,6.05-.3l1.9-.14c2-.12,3.9-.14,5.85-.14a68.6,68.6,0,0,0,7.85-.31,10.69,10.69,0,0,1,1.27-.07,17.48,17.48,0,0,1,3.94.54,32.38,32.38,0,0,0,7.46,1.15h.59a12.85,12.85,0,0,0,1.52-.17,9.19,9.19,0,0,1,1.48-.17,3.32,3.32,0,0,1,.63,0,124.39,124.39,0,0,1,13.36,3.1c1.24.34,2.47.62,3.73.9a43.43,43.43,0,0,1,6.5,1.87A55.86,55.86,0,0,1,466,164.54c4.59,3.15,8,6.22,9.64,10.87a71.57,71.57,0,0,0,4,8.79,15.07,15.07,0,0,1,.88,11.84,54,54,0,0,1-4.77,10.33l-1.41,2.6a94.06,94.06,0,0,1-8.91,13.21,80.88,80.88,0,0,1-11.73,11.67l-1.59,1.4c-2.62,2.3-5.49,4.37-8.27,6.36-1.52,1.1-3,2.2-4.53,3.34a101,101,0,0,1-10.74,6.83l-2.63,1.52a39.58,39.58,0,0,1-4.15,2,31.52,31.52,0,0,0-5,2.45,114,114,0,0,1-10.87,6.15c-8.45,4.22-16.13,7.81-23.32,11.06a107.09,107.09,0,0,1-15.49,5.28c-1.6.45-3.18,1-4.77,1.49-2.15.72-4.37,1.41-6.63,1.93-2.43.84-4.82,1.56-7.22,2.21-.79.32-1.53.59-2.38,1-.46.18-.93.35-1.4.49-2,.24-4,.38-5.93.52a51.41,51.41,0,0,1-10.3.31H328a7.63,7.63,0,0,1-1.72-.13c-6.17-.6-13.79-2.81-19.38-1.76h-.52a6.55,6.55,0,0,0-.69.27,7.12,7.12,0,0,0-1.15.47,1.47,1.47,0,0,0-.28.14c-3.13,1.73-3.27,5.12-.58,8.84a2.29,2.29,0,0,0,1.15.83c.27.24.55.46.83.67a12.95,12.95,0,0,0,7.7,1.3l3.69-.31c8.76,0,16.89-2.48,25.51-3.82.14,0,.22-.1.35-.12H343a3.37,3.37,0,0,0,1.2-.34l1.84-.58c3.75-1.17,7.6-2.36,11.44-3.29l1.81-.43a29.27,29.27,0,0,0,6.13-1.85c2.4-1.14,4.83-2.16,7.28-3.16,1.67-.69,3.34-1.4,5-2.11,1.19-.52,2.45-.94,3.68-1.4a29.6,29.6,0,0,0,5.45-2.2c2.82-1.58,5.79-3,8.66-4.31,1.52-.7,3-1.4,4.54-2.15,1.06-.51,2.13-1,3.2-1.41a44.1,44.1,0,0,0,5.63-2.81c2.1-1.28,4.22-2.45,6.4-3.62,2.92-1.58,5.93-3.21,8.76-5.12a45.75,45.75,0,0,1,6.15-3.26,47.15,47.15,0,0,0,5.4-2.81,113.38,113.38,0,0,0,12.07-8.32l1.56-1c3.33-2.6,6.78-5.29,10.05-8.1.65-.57,1.32-1.12,2-1.66a35.54,35.54,0,0,0,5.22-4.89l1-1.32A18.16,18.16,0,0,1,469.35,226.08Z" transform="translate(-25.5 -117.66)"/><path class="e9ebdb24-5e5f-4c60-8da5-da75e1f47508" d="M307.47,236.21c.4-.25.79-.48,1.2-.72a10.18,10.18,0,0,0,4.74-4.63,3.78,3.78,0,0,1,.79-1.32,38.56,38.56,0,0,0,6-5.63,45,45,0,0,1,4.8-4.67,25.42,25.42,0,0,0,2.22-2.06,17,17,0,0,1,2.92-2.5A43.87,43.87,0,0,0,337,209l1.18-1.13c.42-.41.84-.83,1.27-1.27a18.5,18.5,0,0,1,3.18-2.81,11.32,11.32,0,0,0,2.71-2.21,25.09,25.09,0,0,1,2.1-2.15l1-1a28.45,28.45,0,0,1,6.56-4.51c1.06-.59,2.11-1.19,3.14-1.83a38.14,38.14,0,0,1,9.85-4l1.94-.51a2.82,2.82,0,0,1,.2-.77c.93-1.92,1.76-3.87,2.73-5.76-1.11.24-2.19.48-3.22.75a60.7,60.7,0,0,0-21,9.24,134.85,134.85,0,0,0-15.6,13.64l-1,1a16.73,16.73,0,0,1-2.82,2.56,73.1,73.1,0,0,0-11.42,9.72l-1.41,1.41c-1.58,1.54-3.06,3.17-4.52,4.8a66.53,66.53,0,0,1-6.8,6.84l-1,.78a51.74,51.74,0,0,0-4.95,4.42l-1,1.05c-3.4,3.58-6.92,7.29-10.53,10.74-2.27,2.15-4.77,4.22-7.2,6.12l-2.25,1.82a24.38,24.38,0,0,0-2.63,2.65,15.6,15.6,0,0,1-3.57,3.26,53.75,53.75,0,0,0-9.86,8.32c-1.21,1.2-2.42,2.38-3.67,3.53a75.65,75.65,0,0,1-10.05,8,28.76,28.76,0,0,0-7.74,6.75,30.49,30.49,0,0,1-6,5.85,97.28,97.28,0,0,0-8.62,7.61l-3.24,3.05c-2.54,2.4-5.19,4.87-7.61,7.49a6.36,6.36,0,0,1-1.41,1.06,6.89,6.89,0,0,0-2.28,2.05,16.92,16.92,0,0,1-3.46,3.61L207,320a49.55,49.55,0,0,1-5.63,4.23c-1.23.83-2.47,1.66-3.67,2.54-3.12,2.33-6,4.89-9.29,7.73a67,67,0,0,1-6.05,4.56c-1.75,1.2-3.46,2.39-5.11,3.73a115.88,115.88,0,0,1-11.11,7.66l-1.4.9a89.77,89.77,0,0,1-13,7l-1.14.49a68.93,68.93,0,0,0-10.68,5.3,33.27,33.27,0,0,1-11.26,4.89,34.34,34.34,0,0,0-7.47,2.81c-1.31.62-2.64,1.26-4,1.78-1,.38-2,.8-3,1.24a44.68,44.68,0,0,1-5.34,2c-1.13.31-2.25.66-3.36,1a46.84,46.84,0,0,1-8.25,2,12.79,12.79,0,0,0-3.51,1.15A10.28,10.28,0,0,1,91,382a19.59,19.59,0,0,0-3.91,1,14.06,14.06,0,0,1-4.79,1h0a3.72,3.72,0,0,0-1,.18,3.37,3.37,0,0,1-.48.12,14.55,14.55,0,0,0-4.13,1.22c-.64.25-1.26.51-1.89.72a23.15,23.15,0,0,1-7.21,1c-1.57,0-3.14-.09-4.7-.17-1,0-2-.12-3.07-.14a32.67,32.67,0,0,1-10.2-2.5,60.74,60.74,0,0,1-11-6l-.41-.26A8.52,8.52,0,0,1,36,375.45c-2.09-3-2.72-6.55-2.09-11.3a14,14,0,0,1,1.13-3.4l.39-.9.4-1a8.34,8.34,0,0,1,1.9-3.38A46.51,46.51,0,0,1,50.44,347a15.92,15.92,0,0,1,6.81-1.91H58c.73,0,1.48.09,2.23.09a17.56,17.56,0,0,0,9.37-2.28A3.85,3.85,0,0,0,71.82,339c-.43-3.45-2.61-5.52-6.55-5.81A10.11,10.11,0,0,0,60.46,332a23.25,23.25,0,0,0-6.34,1.21c-.77.23-1.53.45-2.31.64-4.22,1-7.37,3.7-10.47,6.29L39.18,342c-.46.35-.93.69-1.41,1a15.3,15.3,0,0,0-2.41,1.83,33.68,33.68,0,0,0-8.44,12.66,27.1,27.1,0,0,0-1.31,11.05c.19,3.32,2,6.24,3.59,8.83l.52.83c2,3.23,4.22,6.88,8.54,8.36a24.36,24.36,0,0,1,4.39,1.9c6.1,3.52,12.82,4.22,19.34,4.9l1,.09a26.64,26.64,0,0,0,2.82.15A55,55,0,0,0,80.23,391c1.78-.47,3.56-1,5.35-1.4,4.8-1.1,9.64-2.44,14.33-3.73l4.46-1.24a126.34,126.34,0,0,0,19.26-7.18l1.07-.49a39.48,39.48,0,0,1,7.58-2.89,29,29,0,0,0,8.35-3.4,92.86,92.86,0,0,1,9.06-4.61c1.21-.56,2.44-1.08,3.66-1.6a56.74,56.74,0,0,0,9.22-4.62l3.82-2.48c3.57-2.3,7.26-4.68,10.72-7.31,1.93-1.48,3.94-2.82,5.95-4.23s4.45-3,6.56-4.66,4.38-3.54,6.52-5.36c3-2.49,6-5.08,9.21-7.36a87.51,87.51,0,0,0,11.13-9.85c6.61-6.66,13.62-13.13,20.42-19.4l3.59-3.33c.68-.62,1.31-1.28,1.94-2a26.36,26.36,0,0,1,3-2.82l3.63-2.68c4.23-3.1,8.58-6.31,12.57-9.86l3-2.81a79.19,79.19,0,0,1,8.91-7.55,58,58,0,0,0,8.45-7.67c1.25-1.31,2.52-2.61,3.83-3.85a13,13,0,0,1,2.33-1.64,10.78,10.78,0,0,0,3.75-3.19,15.7,15.7,0,0,1,3.21-3.25l1.21-1a43.07,43.07,0,0,0,6.2-6.39A19.6,19.6,0,0,1,307.47,236.21Z" transform="translate(-25.5 -117.66)"/><path class="e9ebdb24-5e5f-4c60-8da5-da75e1f47508" d="M387.39,205.22a14.08,14.08,0,0,0-1.41,2.29,10.11,10.11,0,0,1-3.63,4.66c-2.07,1.21-4.06,2.53-6.08,3.84a67.65,67.65,0,0,1-12.5,7,25.14,25.14,0,0,1-7.72,2c-1.41.08-2.82.09-4.31.12s-3.27,0-5.12.17a2.32,2.32,0,0,1-2.29-2.35,1.34,1.34,0,0,1,0-.2v-1.4a7.15,7.15,0,0,0-.47-3.85,3.44,3.44,0,0,0-3.36-2.05h0c-1.75.08-2.3,1.65-2.59,2.48a3.72,3.72,0,0,0-.13,1.66,3,3,0,0,1,0,1,12.68,12.68,0,0,0,4.08,10,9.47,9.47,0,0,0,4.09,1.79l1.16.34a17.34,17.34,0,0,0,4.83.91,7.21,7.21,0,0,0,2-.24l.91-.22A86.62,86.62,0,0,0,365.77,230c.76-.29,1.52-.54,2.28-.81a18.09,18.09,0,0,0,6.52-3.18c1-.88,2.07-1.72,3.11-2.56,1.66-1.41,3.39-2.72,5-4.23a19.34,19.34,0,0,1,2.81-2.12,15.57,15.57,0,0,0,4.22-3.62c1.13-1.55,2.16-3.18,3.17-4.81s2.08-3.32,3.25-4.9a16.15,16.15,0,0,0,2.21-3.87L399,198c.23-.56.45-1.14.67-1.71a15.65,15.65,0,0,0-2.4-10.32,23.49,23.49,0,0,0-3.84-4.07,31.51,31.51,0,0,0-8.36-1.84c-.94-.09-1.89-.13-2.81-.13a41.39,41.39,0,0,0-4.31.28,2.67,2.67,0,0,1,.25,3.06c-.63,1.14-1.17,2.31-1.7,3.49h.36c.78.1,1.55.15,2.34.2,2.32.15,4.5.28,6.35,1.71a6.49,6.49,0,0,1,1.41,1.72,11.92,11.92,0,0,0,.94,1.41c2.81,3.43,2.27,7.19,1.18,10.74A8.84,8.84,0,0,1,387.39,205.22Z" transform="translate(-25.5 -117.66)"/><path id="b128b4ff-3dca-4d60-88dc-034bb77ccc51" data-name="2f19a1ca-207b-4033-ab21-54d36390152b" class="e9ebdb24-5e5f-4c60-8da5-da75e1f47508" d="M342.34,385a12.79,12.79,0,0,1-3.77-3.25c-2.12-2.2-4.38-4.22-7.67-4.41a.61.61,0,0,1-.24-.07,26.94,26.94,0,0,1-5.72-4.22,22.38,22.38,0,0,0-4.85-3.45,7.6,7.6,0,0,1-3.64-3.33,15.2,15.2,0,0,0-2.42-3.94,5.62,5.62,0,0,1-1.08-5.86,48,48,0,0,0,1.66-10.66,7.11,7.11,0,0,1,.76-3.65,4.09,4.09,0,0,0,.63-1.85c.2-1.86,1.41-3.31,2-5,.55-1.41,1.63-2.55,1.56-4.11a4.61,4.61,0,0,1,.64-2.35c.67-1.31,2-1.88,3-2.82a9.44,9.44,0,0,0,3.08-4,68.14,68.14,0,0,0,1.73-9.29,7.2,7.2,0,0,1,2-3.72c2-2.35,2.53-5.44,3.92-8.13l.43-.82h-.17l-2.59.72c-.93,1.65-1.48,3.49-2.54,5.08a20.68,20.68,0,0,0-2.33,4.22,12.21,12.21,0,0,0-1.24,3.71,5.58,5.58,0,0,1-.78,3.21.25.25,0,0,0-.09.22c.49,2-.91,3.42-1.33,5.14a1.41,1.41,0,0,1-.62,1,11.83,11.83,0,0,0-3,2.53,6,6,0,0,0-2.37,3.84,12.68,12.68,0,0,1-1.9,5.55,15.2,15.2,0,0,0-1.4,3.76c-.41,1.5-1,3-1.41,4.47a24.1,24.1,0,0,0-.48,4.79,22.57,22.57,0,0,1-1.27,6.6,14.09,14.09,0,0,0-.62,6.6,1.15,1.15,0,0,0,.45,1c1.41.79,1.76,2.31,2.58,3.5a41.37,41.37,0,0,0,2.81,4.23c.2.21.57.49.29.85a.63.63,0,0,1-.88,0l0,0c-1.4-1.15-3.44-1.11-4.85-2.46a4.58,4.58,0,0,1-1.63-2.35,38.72,38.72,0,0,1-.55-3.91,35.8,35.8,0,0,0-.81-4.83,15.62,15.62,0,0,1-.14-2.46c0-.9-.57-1.24-1.4-1.41s-.85.55-1,1.1a9.1,9.1,0,0,0,0,3.45,2.52,2.52,0,0,1,0,1.22c-1,1.83-.58,3.79-.44,5.63a6.47,6.47,0,0,1-.44,3.05c-.62,1.59-2,2.82-2,4.72,0,.27-.19.59,0,.83,1.17,1.69.71,3.7,1.19,5.53.24.93,1.22,1.61.93,2.73,1.25.61,1.59,1.94,2.28,3,.36.56,0,1-.76.84a2.05,2.05,0,0,0-1.1,0c-1.41.75-2.24,0-3-1-.21-.3-.58-.45-.35-.94a.7.7,0,0,0-.34-.86c-1.18-.49-1.84-1.73-3-2.18a1.13,1.13,0,0,1-.8-1.38v0a5.42,5.42,0,0,0-.13-3,1,1,0,0,1,0-.58,13,13,0,0,0,.58-4.39,2.31,2.31,0,0,1,1.83-2.42,3.28,3.28,0,0,0,2.44-2.82c.19-3.23,1.05-6.36,1.4-9.55a7.59,7.59,0,0,0,.09-2.33c-.49-2.13.86-3.39,2-4.75a7.07,7.07,0,0,0,1.88-4.23,4.38,4.38,0,0,1,.69-2.19c.75-1.17.27-2.55.37-3.83a9.06,9.06,0,0,1,.39-2.42h0a4.61,4.61,0,0,1,3-4c1.68-.74,2.42-2.61,3.15-4.23.1-.22,0-.53.19-.71,1.91-2.51,1.8-5.63,2.81-8.45a22.59,22.59,0,0,1,2.82-6.42,7.9,7.9,0,0,0,1.22-2.53,6.61,6.61,0,0,1,2.14-3.27,2.33,2.33,0,0,0,1-2.56c-.14-.45.13-.79.34-1.14s.44-.79.63-1.18c-1,.27-2.09.53-3.15.77a29,29,0,0,1-1.31,2.69c-1.55,2.68-3.45,5.25-4.22,8.38a5.85,5.85,0,0,1-.34,1.29,26.55,26.55,0,0,0-2.33,7.48,12.06,12.06,0,0,1-1.86,4.4,6.08,6.08,0,0,1-1.86,1.56c-.28.21-.59,0-.9-.18-2.21-1-3.22-3.17-4.7-4.83-2.34-2.62-2.38-6.26-2.92-9.54-.32-2-.38-4.15-.7-6.21h0c-.66-.65-.69-1.62-1.24-2.38a40.92,40.92,0,0,1-2.12-3.71c-1.14-2-2.24-4-3.48-5.94a5.68,5.68,0,0,1-.86-1.87,3.77,3.77,0,0,0-1-2,8,8,0,0,1-1.26-2.4,29.17,29.17,0,0,0-1.41-3.12,36.87,36.87,0,0,1-3-6.48,29,29,0,0,1-.92-5.15,33.12,33.12,0,0,0-2.59-9.29q-2.08,2.32-4.35,4.42a4.7,4.7,0,0,1-.93,3,4.76,4.76,0,0,0-.39,3.49,14,14,0,0,1,.18,5.23,26.78,26.78,0,0,1-.55,4c-.66,2.05,0,3.91.26,5.8a7.71,7.71,0,0,0,1.4,3.5c.2.26.48.56.47.83,0,2.82,1.66,5.31,2,8.08a46.27,46.27,0,0,0,1.06,5.08c.21,1-.51,1.55-.89,2.21a4.24,4.24,0,0,0-.3,3c.38,2,.74,4,1,6,.17,1.24-.13,1.41-1.28,1a5.73,5.73,0,0,1-4.3-5.51,9.74,9.74,0,0,0-1.63-5c-.38-.56-.14-1.11-.25-1.73.31-1.69-.87-3.07-1.3-4.64-.67-2.52-1.4-5-1.94-7.61A15,15,0,0,0,270,292c-.38-.58-.74-.8-1.41-.52-.93.38-1.73.39-1.8-1,0-.66-.68-1-1-1.54a24.26,24.26,0,0,1-1.66-5.63c-.69.5-1.32,1-2,1.54a.24.24,0,0,0,.1.24,9.41,9.41,0,0,1,.65,2.82,11.63,11.63,0,0,0,1.56,3.83,24.74,24.74,0,0,0,1.05,2.49,1.72,1.72,0,0,0,1.76.86,2.68,2.68,0,0,1,2.72,2.22c.56,2.41.73,4.9,2,7.15a11.5,11.5,0,0,1,.74,3.8h0a13.35,13.35,0,0,1,1.41,4.9c.48,2.39,1.31,4.67,1.84,7a3.16,3.16,0,0,0,1.95,2.22c1.93.83,2.49,2.58,2.09,4.7a14.18,14.18,0,0,0-.4,4.15,33.08,33.08,0,0,1,0,3.45c0,.17,0,.38-.22.37a.62.62,0,0,1-.39-.24,1.49,1.49,0,0,1-.25-.56,19,19,0,0,0-4.23-8.45c-.95-1.25-1.6-2.7-2.53-4-.65-.92-.24-2.18-.62-3.23-.07-.19,0-.45-.08-.6-1.41-2.38-2-5.11-3.93-7.19a13.05,13.05,0,0,1-3.05-5.39c-.86-3.2-3.45-6.07-3.8-9.41-.13-1.18-2.24-3.94-2.51-5.09a10.2,10.2,0,0,0-1.07-2c-.69.57-1.41,1.19-2.05,1.78a35.86,35.86,0,0,1,2.81,5.86c.14,1.18,1.61,2.17,1.73,3.38a1,1,0,0,1,.38.12c.75,1.54,1.23,3.18,1.94,4.75.41.88.37,2,.85,2.92a16.5,16.5,0,0,1,2.19,4.23,4.66,4.66,0,0,1,1.5,1.59c.6,1,1.19,2,1.81,3,1.2,1.9.89,4.22,1.94,6.09a35.4,35.4,0,0,0,2.26,4.37c1.4,2,3.23,3.64,3.73,6.22s1.63,4.76,2,7.27c.32,2,1.24,3.79,1.41,5.83s1.56,4.06,2.25,6.14a22.39,22.39,0,0,0,2.7,5.88,32.37,32.37,0,0,1,2.7,4.08c.37.75.11,1.72.79,2.31a1.72,1.72,0,0,1,.45,1.68,11.79,11.79,0,0,1-2.11,5.43,4.86,4.86,0,0,1-4.31,2.18,5.37,5.37,0,0,0-4.56,1.66c-.21.2-.38.57-.67.37-1.55-1-2.82.34-4.23.56a3,3,0,0,0-1.4.44,52,52,0,0,0-6,5c-.69.65-1,1.77-1.93,2-2.14.59-2.81,2.81-4.59,3.88a1.85,1.85,0,0,0-.21,2.59c.62.83,1.41.21,2,0,.42-.17.76-.51,1.17-.69,1.08-.49,2.12-1.59,3.21-1.41,2.07.38,3.6-1.23,5.54-1.11a1.7,1.7,0,0,0,1.27-.35,3.42,3.42,0,0,1,4,0,6.77,6.77,0,0,0,6.77.16,3.17,3.17,0,0,1,1.9-.13c1.13.1,1.9,1.17,3.08,1.07h0a2.71,2.71,0,0,0,1.23.11,15.69,15.69,0,0,0,7.78-3.39c1.41-1.14,2-.92,2.59.87s1.9,2.41,3.08,3.41c.26.21.57,0,.83,0,2.09-.83,3.82,0,5.42,1.22a20.1,20.1,0,0,1,3.17,2.34,1.66,1.66,0,0,0,1.27.36c2.33.12,4.68-.53,7,.2a.49.49,0,0,0,.24,0,4,4,0,0,1,3.1.28,1.39,1.39,0,0,0,1.7-.38c.45-.46-.21-.79-.29-1.19s-.45-.69-.68-1a31.78,31.78,0,0,0-3.33-4.07c-.22-.22-.72-.46-.37-.91s.7-.23,1.13-.1a34,34,0,0,0,5.44,1.41,5.29,5.29,0,0,0,3.17-.23,4.82,4.82,0,0,1,5,.18c1.41.74,2.93.26,4.37.92a3,3,0,0,0,3.09-.82C343,386.53,343.3,385.48,342.34,385Zm-56.61-29.12a7.3,7.3,0,0,1-1.41-3.1c-.6-1.88-1.8-3.5-2.28-5.43-.25-1,0-2.08-.69-3h0a55,55,0,0,0,.79-12.15,30,30,0,0,1,.48-6.13c.17-.83.84-1.2,1.41-1.64a5,5,0,0,0,1.52-5.8c-.75-2-1.68-4.35-.79-6.39,1.4-3.29.48-6.25-.35-9.33a7.11,7.11,0,0,1-.24-1.59,11.6,11.6,0,0,0-1.1-3.19,46.16,46.16,0,0,1-2.82-10.45,5.56,5.56,0,0,1,.24-2.43,15.93,15.93,0,0,0,.37-8.05,5,5,0,0,1,.52-3.58,26,26,0,0,0,1.41-3.24,11.69,11.69,0,0,1,1.09,7,2.28,2.28,0,0,0,.16,1.41,20.51,20.51,0,0,1,1.34,3.81c.45,1.32,1.29,2.42,1.83,3.69,1.15,2.81,2.54,5.37,3.84,8.05.11.22.25.51.08.69-1,1.07-.18,2.1.19,3,.77,1.91.57,4,1.08,5.87a61.28,61.28,0,0,1,1,6.75c.16,1-.42,1.78-.44,2.75a22,22,0,0,0,.6,7.32c.19.57.24,1.31-.88,1.29-.88,0-1.87,1.69-1.7,2.69a30.15,30.15,0,0,0,1.6,7.63c.57,1.25,0,2.81.51,4.22a.5.5,0,0,1-.32.61.59.59,0,0,1-.68-.19,3.64,3.64,0,0,0-2.28-1.09,2.45,2.45,0,0,0-3.17,1.43,2,2,0,0,0-.11.35v.26a2.8,2.8,0,0,0,.21,2.81,4.08,4.08,0,0,1,.44,2.49,30,30,0,0,0,1,4.68c.43,2.12,1.12,4.22,1.61,6.3a25.27,25.27,0,0,1,.49,4.15c0,.92.38,1.78.41,2.69,0,.28,0,.64-.3.73s-.42-.24-.59-.46A38.72,38.72,0,0,0,285.73,355.92Zm9.2,15.24a42.58,42.58,0,0,1,0,5.76,16.68,16.68,0,0,1-.64,3.7c-.14.75-.3,1.41-1.19,1.73s-1,1-1.63,1.49c-2.6,2-5.25.89-7.85.4a2.66,2.66,0,0,0-2.51.67c-.25.2-.45.72-.74.55-1.09-.65-2.41-.08-3.42-.77a23.16,23.16,0,0,0-3.3-1.27,1.43,1.43,0,0,0-1.52.21c-.94,1.26-2.48.93-3.64,1.55-.57.3-1.41.58-1.85,0s.42-.87.69-1.29c1.54-2.37,4.1-3.4,6.32-4.86a2.82,2.82,0,0,1,2.82.14c1,.44,2,.31,2.47-.8.57-1.48,1.72-1.59,2.93-1.41a5.68,5.68,0,0,0,2.69-.55,7.51,7.51,0,0,0,4.52-4.22c.31-.75.74-1.41,1.76-1.24.52,0,.73-.37.77-.79.28-2.52,1.66-4.83,1.63-7.34a20.9,20.9,0,0,0-.73-6.86,4.61,4.61,0,0,1-.38-2c.23-1.58-.7-2.93-.77-4.43h0c.2-.3,0-.54,0-.81-1.18-2.53-1.18-5.33-1.87-8-.14-.53-.23-1.16.66-1.28s.88.38,1,.93a17,17,0,0,0,1.82,3.48,1.81,1.81,0,0,0,1.88.65,2,2,0,0,0,1.55-1.41,12.11,12.11,0,0,0-.2-6,22.75,22.75,0,0,1-.84-4.32,9.47,9.47,0,0,0-.85-3.48,6.47,6.47,0,0,1-.17-3.06c0-.25.1-.42.3-.46,2.31-.49,1.82-2.36,1.82-3.87a10.4,10.4,0,0,0-.72-3.48,9,9,0,0,1,.07-4.5,7.58,7.58,0,0,0,0-4.8,4.07,4.07,0,0,1-.11-2c.11-1.62-.67-3.14-.41-4.75V302s.38.12.46.27a15.17,15.17,0,0,0,.71,1.72,26.46,26.46,0,0,1,2.15,3.38,6.77,6.77,0,0,1,.52,1.24,38.71,38.71,0,0,1,.86,7v.24c.72,3.52,1.31,7.15,3.71,10,1.21,1.4,2.27,3,3.57,4.37a2.47,2.47,0,0,1,.16,3.44c-.74,1.11-.73,2.53-1.33,3.71h0c0,.07.11.16.11.23a30,30,0,0,1-1.49,9.15,4.1,4.1,0,0,1-2,2.26c-.91.45-1.07,1.19-1.19,2.2a63.21,63.21,0,0,1-.77,8.35c-.47,1.85-.86,3.73-1.32,5.63a2,2,0,0,1-1.41,1.57A5,5,0,0,0,294.93,371.16Zm40.4,12.47c-.31.48-.7.21-1.09,0a3.44,3.44,0,0,0-4.34.3c-.6.55-1.2.35-1.83.22h0a5.24,5.24,0,0,1-4.11-.56,3.92,3.92,0,0,0-2-.66,8.52,8.52,0,0,1-2.69-.44c-1.69-.63-3.48-.18-5.21-.15a3.1,3.1,0,0,1-.86,0c-.6-.2-.92.15-1.19.6a4,4,0,0,0,.8,3.28c1.3,1.34,3.08,1.41,4.62,2a2.73,2.73,0,0,1,1,.66c.18.21.54.37.35.72s-.45.29-.72.39a8.22,8.22,0,0,1-6.91-.9c-.33-.83-.25-1.74-.62-2.62a10.64,10.64,0,0,0-3.57-4.05,5.48,5.48,0,0,1-1.83-4.48c0-1.4.27-3-.61-4.3-.5-.79.13-1.41.43-2a5.33,5.33,0,0,1,1.95-2.58,22.21,22.21,0,0,1,3.09,2.37c2.67,1.74,5.37,3.4,8.71,3.64,1.1.07,2.21.07,3.31.2a2.81,2.81,0,0,1,2.26,1.41,7.61,7.61,0,0,0,4.77,3.05h0a6.76,6.76,0,0,1,3,.76h0l2.88,2.18C335.27,382.89,335.62,383.18,335.33,383.63Zm23-146.29a45.26,45.26,0,0,0-3.07,9.23c-.17,1.13-.8,2.07-.93,3.28s-.08,2.42-.27,3.63a31.23,31.23,0,0,0-2.18,5.33c-.11.33-.21.67-.31,1a12.25,12.25,0,0,1-.9,1.52,11.82,11.82,0,0,1-1,1.41,8,8,0,0,1-.76.41,3.92,3.92,0,0,0-.79.47c0-.36-.41-.46-.7-.54s-.44.31-.47.56c-.49,2.81-1.87,5.5-2.53,8.34a34.08,34.08,0,0,1-2.37,6.59,17.73,17.73,0,0,0-1.22,5.22,3.88,3.88,0,0,1-.11.61,24.08,24.08,0,0,0-2.55.17,5.12,5.12,0,0,1,.55-2c-.79-2.19.65-4,1.52-5.63a18.46,18.46,0,0,0,1.91-5.08c.61-2.91,2-5.63,2.41-8.44a4,4,0,0,1,.63-1.41,8.15,8.15,0,0,0,1.21-3.86,3.73,3.73,0,0,1,.34-1.31c.31-.62.66-1.29,1.41-1s1.5.77,1.27,1.84c-.12.49-.23,1-.31,1.41,0,.25-.24.65.16.72s.54-.29.53-.58c0-1.68.95-3.06,1.21-4.63a2.93,2.93,0,0,0,.11-1.41,7.65,7.65,0,0,1,.6-4.35c.68-2.45,1.64-4.84,2.28-7.33a19.33,19.33,0,0,1,1.64-3.62C356.51,237.74,357.41,237.55,358.3,237.34Zm-7.35,1c-.55.87-1.11,1.76-1.7,2.63-1.58,2.36-3.24,4.79-3.53,7.77a6.09,6.09,0,0,1-.31.94,5.85,5.85,0,0,1-1.86,2.4c-1.27,1.3-1.52,3.16-2.49,4.64a6.29,6.29,0,0,0-1.41,2.91c-.13,1.89-1.3,3.55-1.07,5.51a3.58,3.58,0,0,1-.76,2.05,12.2,12.2,0,0,0-1.41,2.82c-.69,2.5-.21,5.3-1.81,7.58a.59.59,0,0,0,0,.37,13.32,13.32,0,0,1-1.79,6.94H330a28.89,28.89,0,0,0,2-5.63c.82-3.35,1.34-6.74,2-10.11a8.57,8.57,0,0,1,1.3-2.81,11.16,11.16,0,0,0,1.29-4.58c.23-1.4,1-2.7.79-4.22a.71.71,0,0,1,.25-.53c1.41-1.27,1.69-3.06,2.4-4.65a.43.43,0,0,1,.15-.32c.87-.43,1.13-1.41,1.69-2a4.55,4.55,0,0,0,1.14-2.18,14.88,14.88,0,0,1,2.39-6c.82-1.13,1.58-2.28,2.34-3.43Zm38.84-78.6c-.13.66-.2,1.34-.33,2a29.32,29.32,0,0,1-.55,4.67c-.42,1.17-1.08,2.35-1.52,3.57-.88,2.53-3,4.22-4.43,6.3s-3.38,4.05-4,6.7a.64.64,0,0,1-.1.24,8.32,8.32,0,0,0-1.59,3.59,43.53,43.53,0,0,0-1.91,7.88,13.29,13.29,0,0,1-2.16,5.41,40.24,40.24,0,0,0-3.35,7.74h0c-.55,1,.73,1.78.24,2.81h0c-.55,1.63-.63,3.42-1.31,5-.53,1.24-1,2.52-1.55,3.77a9.55,9.55,0,0,0-3,.58,57.29,57.29,0,0,0,3-7.48c.64-2-.44-4,.56-6,.89-1.76,1-3.8,2.38-5.47a23.49,23.49,0,0,0,2.32-4.55,12.92,12.92,0,0,0,.8-3.94,42.53,42.53,0,0,1,2.37-7.8,40.72,40.72,0,0,1,5.32-9.22c.77-1.12,2.07-1.74,2.67-3.09a34.33,34.33,0,0,0,2.9-7c.3-1.53-.15-3.18.71-4.63h0a5.93,5.93,0,0,1,.12-.83ZM385,160l-.14.31c-1.19,2.24-3.11,4.13-3.35,6.83,0,.21-.26.42-.38.63-.88,1.41-1.82,2.82-2.62,4.31a11.69,11.69,0,0,0-1.32,3.28,10.68,10.68,0,0,1-1.58,4.43,7.31,7.31,0,0,0-1.24,2.42,40.86,40.86,0,0,1-2.48,6.5,14.78,14.78,0,0,1-4.15,5,5.19,5.19,0,0,0-2.29,4.51,18.33,18.33,0,0,1,0,5.23c-.14.79-.54,1.48-.65,2.24-.34,2.24-1.11,4.35-1.6,6.55a5.54,5.54,0,0,0,.07,3.25c.6,1.69-.48,4.22-2.16,4.54a4.76,4.76,0,0,0-3.21,2.2h0a2.69,2.69,0,0,0-1.63-.59h-1.07c.9-1.31,1.51-2.82,3-3.69a2.81,2.81,0,0,1,1.57-.59c.88,0,1-.54.89-1.25a8,8,0,0,1,.31-5.3c.9-2,1.1-4.22,1.8-6.24a16.37,16.37,0,0,0,.38-4.3c0-.31-.21-.42-.43-.52a2.69,2.69,0,0,0,.29-1.65,2.11,2.11,0,0,1,.47-1.74c.08-.1.22-.21.21-.3-.24-2.56,2-3.53,3.36-4.94a21.08,21.08,0,0,0,4.82-8.16,14,14,0,0,1,2.29-5,.48.48,0,0,0,.1-.23c0-1.9,1.19-3.46,1.56-5.25.27-1.32,1.41-2.11,1.69-3.36.55-2.13,2.14-3.72,3.22-5.63.57-1,.86-2,1.41-3l.21-.41a22.44,22.44,0,0,1,2.65-.1Zm42.32-36.82a4.58,4.58,0,0,1-2.81,2.34,5.07,5.07,0,0,0-2.82,1.93c-.94,1.4-2.62,1.21-3.94,1.78-2.59,1.16-5,0-7.56-.22a6.79,6.79,0,0,0-3,.15,11.64,11.64,0,0,1-3.47.44c-1.78.14-2.2,1.29-2.67,2.43-.73,1.79-1.21,3.68-1.82,5.51a27.54,27.54,0,0,1-1.51,4.22c-.17.31-.27.63-.42.94a26.22,26.22,0,0,0-2.66.19c.91-2.52,2.05-5,2.81-7.56.69-2.31,1.68-4.52,2.35-6.84s1.3-2.58,3.55-2.06c1.6.37,3.19,1.56,5,.38.34-.22.87,0,1.32,0,2.11.2,4.22,1.09,6.33.33a27.05,27.05,0,0,0,6.8-3.76c.65-.49.21-.9-.24-.94-1.4-.12-2.67-.84-4.11-.61a2.66,2.66,0,0,1-1.4-.07,20.76,20.76,0,0,0-5.77-1.11,29.85,29.85,0,0,0-10.49.55c-2.82.69-5.42-.19-8.12-.44-1.82-.18-3.49-1.2-5.42-.86-.65.11-1.13.59-1.86.56-1.41,0-2.81.15-4.22.17a1.49,1.49,0,0,0-1.14.64c-.94,1.09-.51,3.32.9,4.59a1.4,1.4,0,0,0,1.56.32,4.5,4.5,0,0,1,2.54-.23,4.08,4.08,0,0,0,3.09-.47c2.16-1.41,4.6-.74,6.94-.85a3.12,3.12,0,0,1,1.3.39c.57.3,1.18.91.73,1.41-1,1.26-.48,3-1.59,4.22-.86.93-.81,2.31-1.3,3.44-1.32,3-2.56,6-3.63,9h-2.81a18.14,18.14,0,0,1,1.12-2.65c1.86-3.58,2.82-7.54,4.51-11.26a1.41,1.41,0,0,0-.29-2,1.36,1.36,0,0,0-1.12-.25,6.62,6.62,0,0,0-3,.71,5.61,5.61,0,0,1-4.09.55,3.82,3.82,0,0,0-2.82,0,5.13,5.13,0,0,1-3.81-.24c-.65-.18-.57-1.21-.57-1.86a2.16,2.16,0,0,0-.5-1.4c-1.65-2.16-.83-4.44,1.64-5.63a18,18,0,0,1,7.58-1.23,15.8,15.8,0,0,0,3.22-.15,2.67,2.67,0,0,1,1.55.2c1.65.6,3.45.15,5.11.7.18,0,.52-.07.6,0,1,1.27,2,.38,3.07.21,1.41-.24,2.93-.45,4.39-.7a5.49,5.49,0,0,1,2.17.26c1.76.41,3.55-.64,5.24.09a6.6,6.6,0,0,0,3.66.14,6.8,6.8,0,0,1,2.85.51,2.67,2.67,0,0,0,1.55.23A6.92,6.92,0,0,1,424,120a5.33,5.33,0,0,0,1.83.48,1.84,1.84,0,0,1,1.66,2A1.75,1.75,0,0,1,427.28,123.13ZM244.94,264.36c.9,2.52,1.79,5,2.46,7.6a14.48,14.48,0,0,0,1,3.52l.15.27c1.06-.75,2.11-1.49,3.18-2.23-.15-1.4-.32-2.81-.56-4.22s0-2.49,1-3a4.27,4.27,0,0,0,1.74-1.83,6.41,6.41,0,0,0,.95-4.22c-.21-1.8.25-3.63,0-5.43a.58.58,0,0,1,.12-.46c.17-.16.26,0,.37.17a2.21,2.21,0,0,0,2.31.65c1.07-.29,1-1.27,1.21-2.08a10.62,10.62,0,0,0-.63-4.22c-.62-3.09-2.19-5.92-2.59-9-.29-2.19-.48-4.39-.79-6.58-.13-.92-1-1.55-.93-2.37,0-2.07-.92-4-.72-6.09a11,11,0,0,0-.62-2.71,38.17,38.17,0,0,1-.5-7.92,28,28,0,0,0-1.05-6.8c-.57-2.42-1.29-4.8-1.88-7.2a7.76,7.76,0,0,0-1.18-2.52c-1.14-1.72-1.81-3.66-2.82-5.44-.51-.93-1-1.83-2.18-1.9-.65,0-.86-.55-1.1-1-.77-1.56-1.22-3.24-1.86-4.84A18.53,18.53,0,0,0,235,177c-1.55-1.32-3.32-1.41-4.22.79a1.42,1.42,0,0,1-1.54.94c-.76,0-1.11-.58-1.41-1.21-1.52-3.9-.86-7.84-.21-11.78a1.12,1.12,0,0,1,.57-.92c2-.8,2.3-2.66,2.47-4.4.34-3.35,1.07-6.67.73-10.08,0-.34,0-.84.4-.93s.55.37.74.69a31.85,31.85,0,0,1,3.23,8.18,9.41,9.41,0,0,1,.57,4.95,8,8,0,0,0,.23,3.77,4.82,4.82,0,0,0,1.79,2.29c1.4,1,1.84,2.81,2.93,4,1.33,1.59,1.4,3.66,2.08,5.52.41,1.15.36,2.62,1.64,3.46.47.3.55,1.07.72,1.68a9.87,9.87,0,0,0,1.66,3.53c1.26,1.59,2.34,3.32,3.61,4.94a30.91,30.91,0,0,1,1.33,3.07c.68,1.15.58,2.6,1.51,3.7a4.29,4.29,0,0,1,.82,2.12,15.34,15.34,0,0,0,1.7,4.58c1,2.21,1.59,4.59,2.69,6.7a51,51,0,0,1,3.31,9.63c.36,1.28,1.3,2.33,1.4,3.78a11.23,11.23,0,0,1,0,4.69,3,3,0,0,0,.13,1.41,2.27,2.27,0,0,1,0,1.7,5.08,5.08,0,0,0,0,3.83,19.45,19.45,0,0,1,.39,4.3,14.16,14.16,0,0,0,.52,2.82c.58,2.39,1.59,4.63,2.36,7a6.64,6.64,0,0,1,.35,4.56,3.8,3.8,0,0,0,0,1.71,4.3,4.3,0,0,1-.83,2.64,6.45,6.45,0,0,0-.69,1.8c1.4-1.31,2.81-2.61,4.22-3.87a27.4,27.4,0,0,0,.15-5,13.69,13.69,0,0,0-1.4-4.54c-.85-2-1.3-4.23-2-6.21-.83-2.48,0-5.12-1-7.53-.35-.79.18-1.62.32-2.42,0-.09,0-.28.16-.2s.1.21.14.33a44.16,44.16,0,0,1,1.22,4.65c.52,1.74.23,3.93,2,5.06s2,3,3.59,4c.58.35.56,1.16.86,1.75a30.18,30.18,0,0,1,2.23,5.5c.66-.41,1.33-.79,2-1.13h.28a26.83,26.83,0,0,1-1.23-3,17.43,17.43,0,0,0-4.13-7.3c-.93-1-2.19-1.73-2.72-3.15a67.77,67.77,0,0,1-1.8-7.41,7.74,7.74,0,0,0-.47-2,23.75,23.75,0,0,1-2.15-5.83c-.34-1.31-.38-2.81-1.56-3.78a6.19,6.19,0,0,1-1-1.5c-.38-.6,0-1.21-.28-1.8-1.06-2.53-2-5.12-3.07-7.67-.55-1.32-1.14-2.63-1.8-3.91-1.05-2-1.1-4.41-2.16-6.45a20.27,20.27,0,0,1-1.9-4.22,21.6,21.6,0,0,0-3.19-6c-.71-1.15-1.86-2-2.26-3.32-.47-1.62-1.4-3-2-4.59a48.67,48.67,0,0,1-2.42-5.78c-.21-.89.13-2-.75-2.66A10.42,10.42,0,0,1,242,170.2a13.22,13.22,0,0,0-1-1.55c-1.48-1.41-3-2.69-2.12-5.07a1,1,0,0,0,0-.6c-.36-2-.8-4-1.09-6a32,32,0,0,0-1.86-5.91,8.16,8.16,0,0,0-2.14-3.95,14.05,14.05,0,0,1-4-6.4c-.56-1.53-.89-3.24-1.41-4.87a7.43,7.43,0,0,1-.21-2.57c.09-1.05.49-2.21,1.56-2.44a6.94,6.94,0,0,0,3.33-1.73,2.32,2.32,0,0,1,3.28-.14,1.89,1.89,0,0,0,1.49.49,7.31,7.31,0,0,1,3.54,0c1.48.35,2.82-.37,4.23-.42a16,16,0,0,0,4.78-.24c.83-.28,1.62-.62,1.41-1.68a6,6,0,0,1,.1-2.19,2.83,2.83,0,0,0-2-2.82c-.44-.07-.87-.15-.54-.77a.51.51,0,0,0,0-.58c-.43-.94-3.3-2.28-4.11-1.67-1.07.81-1.84.29-2.7-.12a5.56,5.56,0,0,0-1.64-.5c-2.82-.45-5.83.32-8.69-.56a.33.33,0,0,0-.24,0,18,18,0,0,1-5.25.9,8.62,8.62,0,0,1-3.53.38,5.65,5.65,0,0,0-4.07.54,3.12,3.12,0,0,1-2.64,0c-1-.36-2-.87-3-1.25a9.53,9.53,0,0,0-6.43-.14c-1.31.42-2.33,1.49-4.23,1a8.43,8.43,0,0,0-5.63,1.15,3.93,3.93,0,0,1-3.46.14,6.55,6.55,0,0,0-3.87-.1,5.45,5.45,0,0,1-3.93-.26,4.42,4.42,0,0,0-2.6-1,30,30,0,0,0-7,1.17c-2.6.93-5.33,1.58-7.61,3.42-1.94,1.58-2.37,4-.47,5.75a13.44,13.44,0,0,0,7.42,2.91,2.9,2.9,0,0,1,1,.11c1.72.9,3.69.44,5.48,1a1,1,0,0,0,.6-.08,10.52,10.52,0,0,1,3.87-.78,3.26,3.26,0,0,1,2.26.63,13.27,13.27,0,0,0,1.64,1,12.78,12.78,0,0,1,3.83,3,28.28,28.28,0,0,1,4.72,9.67c.18.81.09,1.61.33,2.42a47.22,47.22,0,0,0,2.3,7.39c.22.47.27,1.09.66,1.41a4.53,4.53,0,0,1,1.41,3.58,5,5,0,0,0,.12,1.09q.85,3,1.72,6c.16.55.37,1.07.56,1.61s1.17,1,1.19,1.66a5.78,5.78,0,0,0,1.92,4.22,1,1,0,0,1,.2.58c.21,2.81,2,5,3.35,7.23a39.47,39.47,0,0,0,2.27,4.07.79.79,0,0,1,.1.48c0,1.77.07,3.53,0,5.32a5.68,5.68,0,0,0,.88,3.43,4.21,4.21,0,0,1,.71,3,17.57,17.57,0,0,1-.61,1.86,2.22,2.22,0,0,0,1.16,2.92,1.06,1.06,0,0,0,.25.09c.59.21.66.69.81,1.15A97.1,97.1,0,0,1,220.52,217a6.23,6.23,0,0,0,2.22,3.8c.37.31.75.52.66,1.19a2,2,0,0,0,.85,1.58,4.7,4.7,0,0,1,1.17,1.52,5.57,5.57,0,0,0,1.91,2.53,3.37,3.37,0,0,1,1.8,3.08c.14,1.89,1.41,3.26,2.14,4.79a5.05,5.05,0,0,1,.85,1.8c0,.42.36.73.53,1.09.38.88,1.61,1.32,1.54,2.3s-.29,1.78.69,2.73,1.29,2.82,1.91,4.23a12.15,12.15,0,0,0,2.81,4.22,10.18,10.18,0,0,1,3.44,5.78A33.82,33.82,0,0,0,244.94,264.36ZM228.19,121a6.48,6.48,0,0,1,3.94-.35c2.18.67,4.43.17,6.66.34a3.88,3.88,0,0,1,1.17.15,9.71,9.71,0,0,0,4.46.75,2,2,0,0,1,2.19,1,2,2,0,0,0,.83.72,1.41,1.41,0,0,1,.81,1.4,1.6,1.6,0,0,1-1.1,1.41,17.08,17.08,0,0,1-3.75.75,6.47,6.47,0,0,0-3.7,0,2.13,2.13,0,0,1-1.94-.6c-1.13-1.28-2.52-.61-3.76-.38a9.27,9.27,0,0,0-3,1.53c-1.22.81-2.05.38-2.33-1.06a21.11,21.11,0,0,0-1.16-4C227.2,121.79,227.39,121.22,228.19,121Zm-23.37,32.37a.82.82,0,0,1,0,.49c-.18.48,0,1.3-.53,1.41s-.61-.74-.9-1.15c-1.65-2.3-1.51-5.1-2.15-7.66a28,28,0,0,0-3.85-8.61,33.23,33.23,0,0,0-4.66-5.18,10.67,10.67,0,0,0-4.88-2.51,5.5,5.5,0,0,0-3.38-.15c-2.53,1.49-4.9-.07-7.27.12a10.2,10.2,0,0,1-4.92-1.32,5.7,5.7,0,0,1-2.45-1.21c-.7-.76-.56-1.55.43-1.77a2.19,2.19,0,0,0,2-1.82c.19-.89,1.4-1,2.18-1.08a9.14,9.14,0,0,0,3.22-.64,2.54,2.54,0,0,1,2.35-.14,1.55,1.55,0,0,0,1.23,0,3.55,3.55,0,0,1,2.66.14,13.89,13.89,0,0,0,3.42.83,8.07,8.07,0,0,0,3.49-.16,4.71,4.71,0,0,1,2.81.5,4.75,4.75,0,0,0,4.83-.86,4.5,4.5,0,0,1,4.22,0c1.41,1.2,1.65,1.41,1.65,1.89,0,0-.08.28-.17.3-.69.09-.49.29-.14.63a3.17,3.17,0,0,1,.75,3.45A5.72,5.72,0,0,0,206,134.1a12.23,12.23,0,0,1,3.88,12.47c0,.31-.25.8-.45.83a4,4,0,0,0-2.36,1.87c-.83,1.25-2.58,2.21-2.2,4.11Zm4.48,14.4a13.43,13.43,0,0,0-.13,1.41c0,.38.16.93-.31,1s-.5-.47-.62-.83a40.86,40.86,0,0,1-1.85-6.77c-.12-.88.29-1.81.22-2.69a14.94,14.94,0,0,1,.24-4.9h0a5.19,5.19,0,0,1,1.75-3.79,4.37,4.37,0,0,1,1.4-1,3.4,3.4,0,0,0,2.12-2.71c.23-1.21.36-2.45.57-3.68a8.92,8.92,0,0,0-.42-4.66,18,18,0,0,0-2.59-5.43c-.38-.45-.66-1-1.13-1.31-1.4-.77-1.28-2-1.29-3.32,0-2.34.21-4.73-.8-7-.31-.67-.09-.93.55-1.16a7.73,7.73,0,0,1,5.63.38,10.88,10.88,0,0,0,6.56.83,8.62,8.62,0,0,1,2.6-.64c2,0,2.52.4,3.19,2.3a22,22,0,0,1,.93,3.74c.31,1.61-.66,2.9-1.18,4.22a10.56,10.56,0,0,0-.77,3.8c0,1,.36,2.38-1.41,2.73-.62.12-.94,1-1.08,1.58-.33,1.3-1.79,2.08-1.52,3.59a.49.49,0,0,1,0,.24c-1.34,2.31-1.72,5-3.47,7.21a4.22,4.22,0,0,0-.39,3.77,3.37,3.37,0,0,1,0,1.94,10.15,10.15,0,0,0,.27,6.07c.15.35.36.63.14,1a4.14,4.14,0,0,0-.19,3.66c.12.33.24.69-.09.9s-.53-.17-.74-.33c-.64-.55-.9-1.41-1.57-2a2.31,2.31,0,0,0-2.69-.62,3.39,3.39,0,0,0-1.87,2.44Zm8.45,26.62c-.17-.09-.23-.51-.24-.79v-2.23a10.19,10.19,0,0,0-1.12-5.17c-1.19-2.64-3.16-4.82-4.12-7.56a3.9,3.9,0,0,1-.38-2,15.44,15.44,0,0,0-.38-6.59c-.18-.72-.11-1.41.46-1.61s1,.47,1.22.93a23.67,23.67,0,0,1,1.28,2.38c.26.86,1.12,1,1.91.47a5.11,5.11,0,0,0,2.2-3.76,26.63,26.63,0,0,0-.2-8,17.58,17.58,0,0,1,.14-2.81v-4.34a4.14,4.14,0,0,1,1.56-3.36c.87-.62.49-1.68.87-2.49.67-1.41,1-2.93,1.62-4.37a12.34,12.34,0,0,1,3.44-4.09.67.67,0,0,1,.21-.09c0,.12.08.26,0,.33a4.59,4.59,0,0,0-.38,2.53c0,.72,0,1.52,1,1.69.38.07.54.48.68.83a20,20,0,0,1,1.31,7.46c.08,3.08-1,6-.68,9.09,0,.34,0,.73-.32.86-2.11.65-2.15,2.55-2.66,4.22s-.35,3.51-.92,5.18a5.4,5.4,0,0,0,0,2.82,32.81,32.81,0,0,0,1.67,6.46,1.8,1.8,0,0,0,1.29,1.19,7,7,0,0,0,4.93-.35c.46-.21.5-.72.73-1.11.34-.62.7-.69,1,0a5.24,5.24,0,0,0,1.09,1.3,14.49,14.49,0,0,1,2.82,5.15c.77,2.19,1.76,4.32,2.69,6.46.19.46.73.52,1.18.52a1.67,1.67,0,0,1,1.66,1.15c.75,1.58,1.67,3.08,2.36,4.7a33.67,33.67,0,0,1,2.74,8.87,24.38,24.38,0,0,0,.81,3.13,14.76,14.76,0,0,1,.14,5.81,15.61,15.61,0,0,0,.61,5.56,33.6,33.6,0,0,1,1.32,7.64,2.51,2.51,0,0,0,.1.86,35.57,35.57,0,0,1,1.63,8.16,47.06,47.06,0,0,0,1.48,5.63,19.66,19.66,0,0,0,.87,3.2c.16.36.4,1-.07,1.25s-.79-.35-1.1-.63c-.94-.86-2.52-.85-2.56.08a15.54,15.54,0,0,0,0,1.93,17.71,17.71,0,0,0,1.18,6s.1.19,0,.23c-1.26,1.73.22,4-1.16,5.73-.69.87-1.69,1.41-2.34,2.35a2.21,2.21,0,0,0-.59,1.18c0,.28.36.72-.14.82-.16,0-.56-.4-.64-.68-.52-2.17-1.47-4.22-2.15-6.32a3.27,3.27,0,0,0-.63-1.41c-.44-.42.11-1,0-1.21-.89-1.4.29-2,.86-2.9,1.4-2.32,1.21-4.81,1-7.44-.14-2.21-1.06-4.22-.83-6.53a5.76,5.76,0,0,0-.85-2.55,31.33,31.33,0,0,1-1.73-5.25,5.62,5.62,0,0,1,.37-2.66,6.3,6.3,0,0,0-.2-3.86,38.69,38.69,0,0,1-.69-4c-.84-2.82-2-5.63-3-8.38-.52-1.41-.22-2.91-.65-4.36s-.38-3.2-.67-4.76c-.4-2.14-.48-4.49-2.68-5.94-.62-.41-.84-1.41-1.33-2a4.23,4.23,0,0,0-4.9-1.91c-.69.21-2.23-.83-2.65-1.75a19.83,19.83,0,0,0-2.25-3.07c-.58-.79-1.41-.83-2.51-.46-2.2.7-2.89,2.57-4,4.22-.1.2-.2.68-.62.49ZM232.43,231c0,.24.07.69-.27.73s-.33-.39-.45-.64a22.14,22.14,0,0,0-2-4.11c-1.56-2.11-3.09-4.23-4.63-6.36-.39-.57-.94-1.26,0-1.91a.75.75,0,0,0,.2-.67c-.4-1.41-.07-3-.42-4.46a5.8,5.8,0,0,1,.14-3c0-.23.42-.81.6-.24.42,1.23,1.41,2.11,1.89,3.3a29.26,29.26,0,0,0,1.62,4.23c.32.52.62,1,1.22,1.09,1.49.2,1.94,1.2,2.08,2.51a7,7,0,0,0,.43,2.72c-.86,2.26-.29,4.58-.38,6.88Zm6.5,15.41c-.78-2.06-1.87-4-2.51-6.12a7.43,7.43,0,0,1,.37-3.59c.27-1.4.49-2.66-.85-3.67a.81.81,0,0,1-.26-1.12.62.62,0,0,1,.14-.18c.35-.42-.55-1.16.29-1.56l-.73-.52c-1.41-1-.67-2.42-.56-3.63.31-3.11.42-6.15-1.41-8.91a2,2,0,0,0-1-.8c-2-.51-2.27-2.32-2.82-3.82a36.87,36.87,0,0,0-3.28-5.89,1.41,1.41,0,0,0-1.59-.43,1.72,1.72,0,0,0-1.18,1.59c-.26,1.79-1.1,3.54-.38,5.4a.79.79,0,0,1-.11.47c-.16.38-.26.88-.81.78s-.32-.59-.35-.95a26.3,26.3,0,0,0-1.76-9,15.67,15.67,0,0,1-1-4.22,5.33,5.33,0,0,1,.93-4,10.73,10.73,0,0,0,.9-2c.69-1.66,1.8-1.82,3.14-.62a20.82,20.82,0,0,1,2.81,3.47,2.82,2.82,0,0,0,3.31,1,2.72,2.72,0,0,1,3.35,1.72,4.32,4.32,0,0,0,1.72,2.25,4.59,4.59,0,0,1,1.29,4.22c-.31.78.41,1.23.34,1.87-.2,2,.79,3.78.69,5.63s.91,3.23,1.52,4.8a34,34,0,0,1,2.48,7.93,7,7,0,0,1-.58,4.33c-.63,1.16.15,2.27.52,3.3.76,2.15,1.41,4.33,2.2,6.46s.56,4.22,1.26,6.2a5.76,5.76,0,0,1,0,2.34,7,7,0,0,0,0,1.59c.1.68.1,1.41-.73,1.75a.7.7,0,0,1-1-.14,16.27,16.27,0,0,1-4.26-5.79Zm-3.7-16.31c.08-.11.18-.22.26-.35l-.09.42ZM307,369l-.2-.45C307,368.61,307,368.8,307,369Zm80.23-208.28v0Zm-24.65,39-.15.08h.1ZM287.3,388.14l-.25.25h0Zm-.26.24Zm83-177.79Zm-.25-2.73ZM259.79,300Zm5,12Zm39.41,70.24ZM308.66,337Zm-2.73.24Zm-19.36.49ZM235.9,229.48h.21l-.19-.1Zm0,0Zm.26.76Zm92.89,149.47Zm-1,4.49Z" transform="translate(-25.5 -117.66)"/></svg>