<svg id="b7556b4a-ecb6-4d39-a6a6-43d71eb3e565" data-name="Layer 1" xmlns="http://www.w3.org/2000/svg" viewBox="0 0 304 245.5"><title>cart</title><path d="M285,93.5a19,19,0,0,1,13.43,32.43A18.27,18.27,0,0,1,285,131.5h-2.23L265.7,229.77A19.07,19.07,0,0,1,247,245.5H57a19.07,19.07,0,0,1-18.7-15.73L21.23,131.5H19a18.26,18.26,0,0,1-13.43-5.57,19,19,0,0,1,0-26.86A18.29,18.29,0,0,1,19,93.5ZM114,19H89.21a18.19,18.19,0,0,0-11.8,4.16,19.44,19.44,0,0,0-6.75,10.68L56.85,95H37.26l15-65.46A36.09,36.09,0,0,1,65.46,8.24,37.19,37.19,0,0,1,89.21,0H214.79a37.19,37.19,0,0,1,23.75,8.24,36.14,36.14,0,0,1,13.21,21.3l15,65.46H247.15L233.34,33.84a19.49,19.49,0,0,0-6.75-10.68A18.19,18.19,0,0,0,214.79,19H114ZM72,212.25A9.66,9.66,0,0,0,80.75,202L76,140.26a9.48,9.48,0,0,0-16.7-5.42,9.18,9.18,0,0,0-2.3,6.9l4.75,61.75a9.52,9.52,0,0,0,9.5,8.76Zm61-9.5V141a9.5,9.5,0,0,0-19,0v61.75a9.5,9.5,0,0,0,19,0Zm57,0V141a9.5,9.5,0,0,0-19,0v61.75a9.5,9.5,0,0,0,19,0Zm52.25.74L247,141.74a9.53,9.53,0,0,0-19-1.48L223.25,202A9.66,9.66,0,0,0,232,212.25h.74a9.52,9.52,0,0,0,9.5-8.76Z" style="fill:#2d2926"/></svg>