<svg id="9dc5e1fd-c27d-4b81-adca-262e57f7fcd4" data-name="Layer 1" xmlns="http://www.w3.org/2000/svg" viewBox="0 0 317.91 79.52">
  <title>logo-noseal</title>
  <g>
    <path d="M6.16,20.07v10.7H0V.4H10.87c7,0,11.36,3.21,11.36,9.72s-4.32,10-11.36,10ZM10,14.88c4.27,0,6.08-1.5,6.08-4.76,0-2.9-1.81-4.49-6.08-4.49H6.16v9.25Z"/>
    <path d="M60.12,30.77,54.66,18.84H49.73V30.77H43.57V.4H54.44c7,0,11.36,3.12,11.36,9.28,0,4.1-1.89,6.78-5.19,8.15L66.9,30.77ZM53.87,13.65c3.65,0,5.77-.8,5.77-4s-2.12-4-5.77-4H49.73v8Z"/>
    <path d="M107.26.4V5.63H94.49v6.83h11.45v5.19H94.49v7.92h12.77v5.2H88.33V.4Z"/>
    <path d="M144.93,8.27c-1.32-2.06-2.9-3.08-6-3.08-2.77,0-4.27,1.28-4.27,3.35,0,2.38,1.94,3.43,6,4.45,6.34,1.58,9.2,4,9.2,9.33,0,5-3.34,8.84-10.47,8.84-5.33,0-9-1.45-11.71-5l4.71-3.26a7.58,7.58,0,0,0,6.6,3c3.52,0,4.71-1.54,4.71-3.39,0-2.11-1.27-3.3-6.2-4.58-6-1.58-9-4.44-9-9.46,0-4.8,3.17-8.54,10.38-8.54,4.85,0,8.5,1.63,10.66,5Z"/>
    <path d="M187.85,8.27c-1.32-2.06-2.91-3.08-6-3.08-2.77,0-4.27,1.28-4.27,3.35,0,2.38,1.94,3.43,6,4.45,6.34,1.58,9.2,4,9.2,9.33,0,5-3.35,8.84-10.48,8.84-5.32,0-9-1.45-11.7-5l4.7-3.26a7.59,7.59,0,0,0,6.61,3c3.52,0,4.71-1.54,4.71-3.39,0-2.11-1.28-3.3-6.21-4.58-6-1.58-9-4.44-9-9.46,0-4.8,3.17-8.54,10.39-8.54,4.84,0,8.49,1.63,10.65,5Z"/>
    <path d="M221.12,25.57h12.76v5.2H215V.4h6.16Z"/>
    <path d="M273.67.4V5.63H260.91v6.83h11.44v5.19H260.91v7.92h12.76v5.2H254.75V.4Z"/>
    <path d="M300,.4l5.41,11.31L310.82.4h7.09l-9.47,18V30.77h-6.16V18.35L292.82.4Z"/>
    <path d="M69.76,79.3H66.71l-4-15.14H66l2.25,10.13,2.2-10.13h3.29Z"/>
    <path d="M89.62,64.16V79.3H86.41V64.16Z"/>
    <path d="M110.81,79.3l-4.07-8.48V79.3h-3.21V64.16h2.88l4,8.44V64.16h3.21V79.3Z"/>
    <path d="M136.11,64.16v2.9h-5.39v3.27h4.66v2.91h-4.66V76.4h5.52v2.9h-8.73V64.16Z"/>
    <path d="M155.74,72.58V79.3h-3.19V72.66l-4.75-8.5h3.79l2.55,5.1,2.53-5.1h3.78Z"/>
    <path d="M178.32,75.74h-4L173.2,79.3h-3.32l4.83-15.14h3.17l4.84,15.14H179.4Zm-3.16-2.88h2.3l-1.14-4.79Z"/>
    <path d="M200.42,64.16c3.14,0,4.42,2.52,4.42,5,0,2-.77,4-2.86,4.55l3.21,5.6h-3.45l-2.84-5.14h-.66V79.3H195V64.16Zm-2.18,2.9v4.2h1.56c1.52,0,1.83-1.15,1.83-2.11s-.31-2.09-1.83-2.09Z"/>
    <path d="M218.22,79.3V64.16h5.37c3.87,0,6.11,3.29,6.11,7.6s-2.24,7.54-6.11,7.54Zm5.37-2.9c1.87,0,2.9-2,2.9-4.64s-1-4.7-2.9-4.7h-2.16V76.4Z"/>
    <path d="M245.31,74.33c0,1.15.42,2.27,1.83,2.27a1.42,1.42,0,0,0,1.65-1.28,1.8,1.8,0,0,0-1.5-1.91L245.88,73a4.5,4.5,0,0,1-3.4-4.49A4.27,4.27,0,0,1,247.12,64c2.59,0,4.5,1.49,4.5,4.75h-3.21c0-1.19-.44-1.83-1.45-1.83a1.26,1.26,0,0,0-1.27,1.39,1.64,1.64,0,0,0,1.1,1.58l1.51.46A4.74,4.74,0,0,1,252,75.48c-.26,2.13-1.58,4-5,4-3.6,0-5-2.59-5-5.21h3.19Z"/>
  </g>
</svg>
