<svg id="fd5456d2-c3c2-48c7-863c-8ff13450cf53" data-name="Layer 1" xmlns="http://www.w3.org/2000/svg" xmlns:xlink="http://www.w3.org/1999/xlink" viewBox="0 0 146.38 147.8">
  <defs>
    <linearGradient id="069fab57-3e2d-4a62-8965-3492bef1176f" x1="20.45" y1="127.3" x2="125.21" y2="22.53" gradientUnits="userSpaceOnUse">
      <stop offset="0" stop-color="#988447"/>
      <stop offset="0.05" stop-color="#9e8a4f"/>
      <stop offset="0.33" stop-color="#b9a775"/>
      <stop offset="0.59" stop-color="#ccbc90"/>
      <stop offset="0.82" stop-color="#d8c9a0"/>
      <stop offset="1" stop-color="#dccda6"/>
    </linearGradient>
  </defs>
  <title>logo-monogram</title>
  <path d="M6.42,102a1.8,1.8,0,1,1,2.37.94A1.8,1.8,0,0,1,6.42,102ZM4,82.87A1.78,1.78,0,0,0,2.7,85c.21,1.25,1.17,1.76,3.2,1.41l1.5-.26c2-.33,2.75-1.15,2.54-2.39A1.73,1.73,0,0,0,8,82.18l-.35-2c2.44,0,3.71,1.1,4.08,3.28.41,2.38-.75,4.3-4,4.85l-1.51.26c-3.26.56-5-.87-5.37-3.25a3.68,3.68,0,0,1,2.76-4.47Zm6.67-5.48L0,73.49,0,71.4l10.79-3.55,0,2.31-2,.62-.06,3.6,2,.68ZM6.85,73.77l0-2.42L3.1,72.5ZM9.76,62.54l.77-4.45,1.81.31L11.19,65,.6,63.16,1,61ZM14,53.09l-.66,2.08L3.09,51.93l.65-2.08ZM8.55,38.49l1.68.79L8.29,43.37l2.41,1.14,1.73-3.66,1.67.78L12.36,45.3l4,1.87-.94,2-9.72-4.6Zm13.69-1.3c-1.39,2-3.57,2.52-6.25.62l-1.25-.88c-2.7-1.91-2.9-4.13-1.5-6.1s3.55-2.54,6.26-.63l1.24.88C23.43,33,23.64,35.21,22.24,37.19Zm-5-1.16c1.68,1.19,2.76,1.13,3.49.1s.43-2.08-1.25-3.27L18.24,32c-1.68-1.19-2.77-1.12-3.5-.09S14.32,34,16,35.15ZM31.1,26.91l-4.32-1.68-1.25,1.22,2.94,3L26.91,31l-7.49-7.7,2.76-2.69c1.77-1.72,3.64-2,5.17-.44A2.87,2.87,0,0,1,28,23.51l4.78,1.73Zm-5.8-2.8c.93-.9,1.26-1.62.48-2.42s-1.53-.51-2.46.39l-1.05,1,2,2ZM36.19,9.83l5.92,9-1.52,1-7.15-3.23,3.66,5.54-1.72,1.14-5.93-9,1.51-1,7.22,3.31L34.46,11ZM47.88,16l-2,.92L41.37,7.17l2-.92Zm2.78-1.33.52-11.38,2-.59,6.65,9.24-2.22.66L56.4,10.83l-3.45,1L52.9,14ZM53,9.93l2.34-.69L53.06,6Zm15.66.86L68.45.06,72.26,0c2.43,0,4.15,1.18,4.2,4.6l0,1.4c.06,3.4-1.62,4.69-4,4.73ZM74.31,6l0-1.4c0-1.85-.54-2.8-2-2.78l-1.64,0,.12,7,1.63,0C73.86,8.87,74.34,7.88,74.31,6ZM88.54,1.55l-.3,1.83-4.46-.73L83.39,5l4,.65-.29,1.81-4-.65L82.64,9.6l4.45.73-.29,1.81-6.6-1.08L81.94.47ZM92.77,12,97,13.42l-.58,1.74L90.12,13,93.53,2.86l2.07.69Zm17.16-2.16-.85,1.65-2.64-1.35-4.06,7.93-1.95-1,4.07-7.92-2.64-1.36.85-1.65ZM106.16,20l9.38-6.43,1.68,1.24-3.37,10.86L112,24.33l.68-2-2.89-2.13L108,21.42Zm5.17-1,2,1.45,1.27-3.77Zm17.93,15.75-.78.6c-2.59,2-4.68,1.69-6.16-.24S121,31,123.57,29l1.08-.84c2.75-2.11,4.92-1.65,6.39.26a3.7,3.7,0,0,1-.35,5.24L129.42,32a1.79,1.79,0,0,0,.17-2.47c-.77-1-1.86-1-3.49.25l-1.2.93C123.27,32,123,33,123.77,34s1.66.91,2.76.22l-1.1-1.43,1.45-1.12Zm.22,11.77,2.88-3.65-.79-1.56-3.77,1.93-1-1.94,9.58-4.91,1.76,3.42c1.13,2.21.85,4.09-1.1,5.09a2.88,2.88,0,0,1-3.41-.32l-3.06,4.08Zm4.39-4.74c.6,1.15,1.19,1.69,2.18,1.18s.94-1.33.35-2.48l-.67-1.3-2.52,1.29Zm-1.26,13.46c-.68-2.32.24-4.37,3.39-5.31l1.46-.43c3.19-1,5,.27,5.74,2.59s-.21,4.37-3.39,5.31l-1.46.44C135.2,58.81,133.31,57.6,132.61,55.27Zm4-3.21c-2,.58-2.6,1.47-2.24,2.68s1.37,1.62,3.35,1l1.46-.44c2-.58,2.6-1.49,2.24-2.69s-1.37-1.61-3.35-1ZM135,66.25l-.14-2.07L145.41,61l.17,2.33-7,1.94,7.21,1.53.14,2-7,2.61,7.21.91.16,2.34-10.9-1.71-.15-2.08,7.23-2.8Zm9.65,21.65L134,86.29l.27-1.8,7.2-3.15-6.57-1,.3-2,10.63,1.61-.27,1.78-7.3,3.15,6.67,1ZM140.08,101a1.81,1.81,0,1,1-1-2.37A1.81,1.81,0,0,1,140.08,101ZM14,120,16.19,116l-1-1.4-3.37,2.54-1.31-1.74L19,108.91,21.35,112c1.48,2,1.53,3.87-.21,5.17a2.86,2.86,0,0,1-3.4.27l-2.32,4.52Zm3.51-5.4c.77,1,1.45,1.46,2.34.79s.7-1.46-.08-2.49l-.88-1.17-2.26,1.7Zm3.31,13c-1.74-1.67-2-3.9.31-6.28l1.05-1.1c2.29-2.4,4.51-2.26,6.25-.6s2,3.89-.29,6.29l-1.06,1.1C24.79,129.44,22.56,129.33,20.8,127.65Zm1.88-4.77c-1.42,1.49-1.52,2.57-.61,3.44s2,.72,3.42-.76l1.05-1.11c1.42-1.48,1.52-2.57.6-3.44s-2-.72-3.4.77Zm7.81,12.62c-2-1.36-2.58-3.53-.72-6.25l.86-1.26c1.87-2.74,4.08-3,6.08-1.61s2.6,3.51.73,6.26l-.86,1.26C34.72,136.61,32.49,136.87,30.49,135.5Zm1.08-5c-1.16,1.7-1.09,2.79-.05,3.5s2.09.39,3.25-1.31l.86-1.26c1.16-1.7,1.08-2.8,0-3.51s-2.08-.38-3.24,1.32Zm17.23,2.7L48,134.85l-2.67-1.28-3.84,8-2-.94,3.84-8-2.67-1.27.8-1.67Zm6.54,5a2.17,2.17,0,0,0-1.71-1.66c-.93-.28-1.57,0-1.79.69s.31,1.36,1.57,2.12c2,1.19,2.7,2.3,2.15,4.11s-2.05,2.65-4.46,1.91a4.71,4.71,0,0,1-3.44-2.89l1.93-.61a2.67,2.67,0,0,0,1.91,1.7c1.2.37,1.76,0,2-.65s-.09-1.25-1.63-2.2c-1.86-1.15-2.58-2.42-2.06-4.12s2-2.57,4.4-1.82a4.18,4.18,0,0,1,3.09,2.78Zm9.43,3.5,2.16.16.16-2.19,1.71.12L68.64,142l2.18.16-.12,1.68-2.18-.16-.16,2.18-1.71-.12.16-2.18-2.16-.16Zm20.68-2.3a2.18,2.18,0,0,0-2.26-.75c-1,.15-1.42.68-1.31,1.4s.86,1.09,2.33,1.23c2.3.21,3.43.89,3.72,2.77s-.69,3.28-3.19,3.66a4.72,4.72,0,0,1-4.36-1.11l1.47-1.39a2.69,2.69,0,0,0,2.48.7c1.23-.19,1.56-.79,1.46-1.43s-.62-1.09-2.42-1.27c-2.18-.23-3.38-1.07-3.65-2.83s.65-3.16,3.18-3.55a4.16,4.16,0,0,1,4,1.17Zm7.13-.17,3.54-1.15-1.32-4,2.07-.67,3.31,10.2-2.07.67-1.43-4.4L93.15,141l1.43,4.41-2.07.67-3.31-10.2,2.07-.68Zm15.58.74c-2.13,1.12-4.32.62-5.86-2.29l-.71-1.35c-1.54-2.93-.71-5,1.43-6.12s4.32-.66,5.86,2.28l.72,1.35C111.13,136.73,110.31,138.82,108.16,140Zm-3.92-3.3c1,1.82,2,2.26,3.06,1.67s1.33-1.67.37-3.49l-.72-1.35c-1-1.82-2-2.25-3.08-1.66s-1.31,1.66-.35,3.48Zm14.39-3.34c-1.93,1.45-4.16,1.31-6.15-1.31l-.92-1.22c-2-2.65-1.51-4.81.42-6.27s4.15-1.34,6.15,1.3l.92,1.22C121,129.66,120.56,131.85,118.63,133.32Zm-4.41-2.63c1.24,1.64,2.29,1.92,3.3,1.16s1-1.86-.2-3.5l-.93-1.21c-1.24-1.64-2.3-1.91-3.3-1.15s-1,1.85.21,3.48Zm8.09-15.51,1.33,1.29-2.07,2.12,6.37,6.2-1.52,1.56-6.37-6.2L118,122.27,116.66,121Zm6.85-4.62a2.21,2.21,0,0,0-2.13,1.09c-.57.8-.51,1.49.08,1.92s1.39.15,2.52-.81c1.77-1.5,3-1.83,4.59-.72s1.85,2.79.38,4.84a4.76,4.76,0,0,1-3.85,2.35l0-2a2.65,2.65,0,0,0,2.23-1.28c.73-1,.53-1.67,0-2s-1.21-.31-2.6.84c-1.69,1.4-3.13,1.67-4.58.63s-1.8-2.67-.31-4.75a4.16,4.16,0,0,1,3.63-2ZM55.32,64.16a2,2,0,0,0-.5.65,13.54,13.54,0,0,1-1.73,2.13c-1.28,1.32-2.65,2.54-3.92,3.87a14.56,14.56,0,0,1-2.23,2.07c-.65.46-1.3.93-1.92,1.43a2.94,2.94,0,0,1-.78.42,20.85,20.85,0,0,0-2,1.2c-.45.25-1,.33-1.42.56-1.1.53-2.21,1.06-3.29,1.62a7.81,7.81,0,0,1-2.45.7,21.18,21.18,0,0,1-2.4.19,4,4,0,0,1-.92-.2,8,8,0,0,1-3.73-1.13,4.64,4.64,0,0,1-1.4-1.89,13.68,13.68,0,0,1-.55-2.09.5.5,0,0,1,.15-.59s.08-.07.09-.11a7.81,7.81,0,0,1,1.4-2.88A3.52,3.52,0,0,1,31,68.37a1.86,1.86,0,0,1,1.36,1.31,1.15,1.15,0,0,1-.74,1.07,3.33,3.33,0,0,1-1.27.17c-.68,0-1,.43-1.27.81a2.85,2.85,0,0,0-.61,2,2.89,2.89,0,0,0,1.59,2c.3.09.55.29.84.39a5,5,0,0,0,1.5.23,7.72,7.72,0,0,0,3.33-.66,4.89,4.89,0,0,1,.86-.2,14,14,0,0,0,3.75-1.72c1.43-.8,2.71-1.85,4.11-2.7a18.61,18.61,0,0,0,1.89-1.61c.83-.67,1.45-1.53,2.23-2.24.43-.39.74-1,1.18-1.37.73-.71,1.26-1.59,2-2.35s1.44-1.81,2.2-2.69a5.29,5.29,0,0,1,1.33-1.21,1.93,1.93,0,0,0,.58-.65,4,4,0,0,1,1-1,22,22,0,0,0,2.63-2.74,11.82,11.82,0,0,1,1.72-1.36,4.15,4.15,0,0,0,.87-.74,3.71,3.71,0,0,1,1.5-1.28,8.79,8.79,0,0,0,1.88-1.36c1.12-.9,2.45-1.46,3.52-2.42a3.26,3.26,0,0,1,1.5-.67,3.79,3.79,0,0,0,1.33-.71A12.67,12.67,0,0,1,74,45.63a7.49,7.49,0,0,0,1.41-.72,1.28,1.28,0,0,1,.42-.17A12.6,12.6,0,0,0,78.37,44a10.31,10.31,0,0,1,2.25-.57c.06,0,.13,0,.18,0,.91-.55,2-.47,3-.8.21-.07.15-.16.14-.3,0-.53-.5-.75-.77-1.1a4.26,4.26,0,0,0-3.26-1.41,13.22,13.22,0,0,1-1.38-.15,7.22,7.22,0,0,0-2.78,0c-1.57.32-3.18.42-4.75.71a38.88,38.88,0,0,0-4.51,1.07c-1.08.34-2.11.84-3.2,1.09-1.38.3-2.58,1-3.93,1.39A16.51,16.51,0,0,0,57,45a32.52,32.52,0,0,0-4.65,2.67A16.55,16.55,0,0,1,50,49.09a11.57,11.57,0,0,0-2.76,2.08,7.48,7.48,0,0,0-1.55,1.58c-.58,1-1.53,1.59-2.1,2.57-.35.59-.82,1.15-1.2,1.74a3,3,0,0,0-.63,2.34c.23.94.5,1.15,1.42.87a11.24,11.24,0,0,0,2.19-.65,7,7,0,0,0,1.22-.88A14.5,14.5,0,0,0,48.22,57,9.49,9.49,0,0,0,50,53.44c.11-.37.07-.77.37-1.11A1,1,0,0,1,51.54,52c.86.47,1,1,.56,1.93s-.73,1.74-1.14,2.59a6.5,6.5,0,0,1-1.53,2.22s-.09,0-.11.08c-.42,1.1-1.51,1.51-2.31,2.21a6.35,6.35,0,0,1-2.39,1.49,5.18,5.18,0,0,1-4-.13,3.08,3.08,0,0,0-.83-.31,1.22,1.22,0,0,1-.93-1.1,2.49,2.49,0,0,1-.09-1.53,11.46,11.46,0,0,1,1.31-2.73,5.6,5.6,0,0,1,1.06-1.37c.22-.16.21-.47.39-.68.34-.4.83-.7,1.06-1.12.32-.59.84-1,1.17-1.57a2.11,2.11,0,0,1,1-1,1.27,1.27,0,0,0,.45-.38,12.24,12.24,0,0,1,2.24-2,10.93,10.93,0,0,1,1.24-.94,29.89,29.89,0,0,0,3.2-2.1A10.56,10.56,0,0,1,54,44.35a14,14,0,0,0,2.76-1.58,4.29,4.29,0,0,1,1.63-.62,3.3,3.3,0,0,0,1.07-.43c.69-.39,1.45-.62,2.15-1a3.5,3.5,0,0,1,1-.2c.52-.1.82-.55,1.3-.67a4.84,4.84,0,0,1,1.47-.33c.18,0,.36-.15.54-.23a2.39,2.39,0,0,1,.88-.23,7,7,0,0,0,1-.31c.59-.15,1.17-.33,1.75-.51a8.67,8.67,0,0,1,2-.24,2.52,2.52,0,0,0,1.08-.25,2.78,2.78,0,0,1,1.28-.2c1.46-.16,2.92-.31,4.38-.42a7.89,7.89,0,0,1,1.91.29,10,10,0,0,0,1.71.27,6.59,6.59,0,0,1,1.75.6c.37.12.53.69,1,.88A4.3,4.3,0,0,1,86,40.24c.34.36.33.86.63,1.22a1.48,1.48,0,0,1,.27.58.55.55,0,0,0,.64.35c1-.09,2.06-.28,3.08-.45a8.85,8.85,0,0,1,2.68-.13,16,16,0,0,0,2.61.21,4.09,4.09,0,0,1,1.14.33,5,5,0,0,1,1.86.67c.1.08.3,0,.45,0a2.7,2.7,0,0,1,1.83.91,1.16,1.16,0,0,1,.33,1.27,1.27,1.27,0,0,1-1.16.55,10,10,0,0,1-2.8-.75A9.06,9.06,0,0,0,94,44.33a9.25,9.25,0,0,1-1.8-.19,10.94,10.94,0,0,0-2.62,0c-.56.07-1.12.09-1.68.12a.51.51,0,0,0-.57.42A4.42,4.42,0,0,0,87,45.9a6.75,6.75,0,0,1-.84,2.82,14.63,14.63,0,0,1-2.76,4,44.47,44.47,0,0,1-3.76,3.76,15.76,15.76,0,0,1-2.84,2.16,1.24,1.24,0,0,0-.62,1.18c-.07,1.33.05,2.72-.66,3.91A8.27,8.27,0,0,1,74.17,66a4.46,4.46,0,0,0-.49.77c-.66,1.06-1.81,1.57-2.67,2.4l-.87.82a16.75,16.75,0,0,1-3.63,2.5,4.24,4.24,0,0,0-1.73,1.12c-.11.16-.38.06-.57.1a25,25,0,0,1-3.07.76,8.69,8.69,0,0,1-2.74-.15,7.22,7.22,0,0,1-1.5-.46,1.46,1.46,0,0,1-.82-.85,3.1,3.1,0,0,0-.39-.77,1.4,1.4,0,0,1-.24-1.11c.09-.41-.08-.82,0-1.27a2,2,0,0,1,1-1.41c.34-.2.94,0,1.28.52s.49.68.73,1A2.59,2.59,0,0,0,60,71.14a1.07,1.07,0,0,1,.4.23,2.49,2.49,0,0,0,1.77.3,9.18,9.18,0,0,0,3.34-1,16.9,16.9,0,0,0,4-2.5,34,34,0,0,0,2.67-2.43,5.7,5.7,0,0,0,1.71-3.23,9.68,9.68,0,0,0,.07-1.78c0-.31-.09-.39-.39-.23a13.78,13.78,0,0,1-2.82,1.21,25,25,0,0,1-3.31.71A5,5,0,0,1,65,62.31a2.3,2.3,0,0,1-1.52-3.49,4.18,4.18,0,0,1,1.73-1.58c.3-.21.59-.45.9-.66a1.51,1.51,0,0,1,1.13-.24c.41.07.7-.26,1.09-.3.88-.1,1.71-.47,2.6-.53a3.18,3.18,0,0,1,1.11.11,7.07,7.07,0,0,1,2.34.67c.47.34,1.06.51,1.37,1.06.11.19.28.17.44,0,1-.77,2.1-1.4,3-2.28a32.79,32.79,0,0,0,2.45-2.41,10.21,10.21,0,0,0,1.19-1.58,3.26,3.26,0,0,1,.46-.58c.23-.22.46-.42.39-.78a.19.19,0,0,1,.1-.2c.45-.21.5-.62.54-1a.8.8,0,0,1,.15-.43c.81-.92.75-2.12,1.08-3.19.09-.32-.11-.44-.4-.39-.6.1-1.19.22-1.78.34-1,.2-2,.5-3.08.69a5.89,5.89,0,0,0-1.49.6A34.29,34.29,0,0,1,75.3,47.6c-.83.32-1.64.72-2.47,1a26.14,26.14,0,0,0-3.49,2.18,3.69,3.69,0,0,1-1,.48c-.34.08-.49.4-.73.6-.84.7-1.87,1.12-2.66,1.89-.49.49-1,1-1.52,1.41-1.12,1-2.14,2.14-3.33,3.08a3.43,3.43,0,0,0-.88,1,4.83,4.83,0,0,1-.87,1,7.66,7.66,0,0,0-1.1,1.65,15.83,15.83,0,0,1-1.94,2.23Zm-1.21.56-.23.14,0,0v0c.11,0,.2,0,.21-.14Zm15.65-7.23a4.82,4.82,0,0,0-4,1.75c-.22.24-.45.6-.11.9a1,1,0,0,0,1.27.27,1,1,0,0,1,.89,0,2.09,2.09,0,0,0,1.05.11c.7-.17,1.41-.35,2.1-.59a4.92,4.92,0,0,0,.92-.29,7.16,7.16,0,0,1,1.52-.75c.15-.05.33-.05.28-.28s-.18-.35-.39-.29-.29,0-.44-.07c-.6-.18-1.09-.66-1.77-.65S70,57.51,69.76,57.49Zm49.49,25.77a3.53,3.53,0,0,0-1.91-1.17,11,11,0,0,0-4.28-.37,2.09,2.09,0,0,1-.66,0,.47.47,0,0,1-.47-.58,4.32,4.32,0,0,0,.06-1.86,1.44,1.44,0,0,1,0-1,.85.85,0,0,0-.26-1c-.39-.35-.62-.91-1.16-1.07a24,24,0,0,0-3.27-.54,3.48,3.48,0,0,0-2.35.4,2,2,0,0,1-.81.25,9.23,9.23,0,0,0-1.54.5c-.32.09-.59.46-.83.41a1,1,0,0,0-.81.16c-.49.31-1.07.36-1.58.66s-1.22.61-1.82.94a9.78,9.78,0,0,1-2.34,1.26c-.28.06-.43.34-.65.49a6.1,6.1,0,0,0-1.65,1.1.21.21,0,0,1-.17.06c-.51-.09-.82.31-1.19.52a3.28,3.28,0,0,1-.66.39,5,5,0,0,0-1.55,1,18.12,18.12,0,0,1-2.46,1.55,14.17,14.17,0,0,0-2,1.25c-.44.35-.93.62-1.36,1s-1.34.62-1.71,1.35a1.31,1.31,0,0,1-.66.55,4,4,0,0,0-1.26.64,21.67,21.67,0,0,0-1.74,1.33,5.68,5.68,0,0,1-1.39,1.1,4.24,4.24,0,0,0-1.22,1c-.4.51-1,.76-1.37,1.26s-.94.59-1.35.95c-1.06.94-2.13,1.89-3.13,2.9a14.59,14.59,0,0,0-1.87,1.81c-.78,1.12-1.9,1.89-2.72,3-.31.4-.8.7-1,1.13-.68,1.23-1.56,2.31-2.31,3.48-.32.49-.5,1.05-.81,1.53A6.27,6.27,0,0,0,59.9,113a4.12,4.12,0,0,0,1.27,3.48,5,5,0,0,0,2.75,1.08c3.2.32,6.84-1.24,9.73-2.47a75.36,75.36,0,0,0,8.89-4.58c4.14-2.44,8.28-5.57,13.11-6.31a2.24,2.24,0,0,1,.37-.1,5,5,0,0,1,3.32.23,3.9,3.9,0,0,0,2.28.28,2.7,2.7,0,0,0,1.91-.88,1,1,0,0,0,.1-1.41,1.45,1.45,0,0,0-.89-.6,12.55,12.55,0,0,0-1.73-.58c-.74-.1-1.49,0-2.25-.14-1.05-.22-2,.34-3,.56a17.18,17.18,0,0,0-2,.82,5.15,5.15,0,0,0-1.43.42,16.61,16.61,0,0,1-1.81,1,27.14,27.14,0,0,0-2.7,1.46,27.9,27.9,0,0,1-3.23,1.94c-1.46.71-2.76,1.67-4.19,2.41-1.12.58-2.16,1.3-3.27,1.89-.51.28-1.12.37-1.66.62-1.27.58-2.5,1.24-3.79,1.79-.81.35-1.66.65-2.42,1.06a9.42,9.42,0,0,1-3.5.85c-.71.08-1.64-.47-1.71-1a7.28,7.28,0,0,1,0-3.41c.1-.32.15-.66.22-1a6.6,6.6,0,0,1,.88-2.2c.13-.2.17-.45.35-.6a3.09,3.09,0,0,0,.87-1.07,4.92,4.92,0,0,1,.77-1,20.28,20.28,0,0,0,1.58-1.89,14.08,14.08,0,0,1,1-1.19c.69-.78,1.63-1.3,2.33-2.09a6,6,0,0,1,1-1,4.22,4.22,0,0,0,1.14-1,9.22,9.22,0,0,1,2.1-2c1.35-.92,2.28-2.3,3.72-3.07a.92.92,0,0,0,.34-.34,2.51,2.51,0,0,1,1-.84l.36-.24c.67-.43,1.15-1.14,2-1.28a.45.45,0,0,0,.26-.21A3.67,3.67,0,0,1,85.52,89a3.81,3.81,0,0,0,1.35-1,3.84,3.84,0,0,1,1.19-.93,8.9,8.9,0,0,0,1.37-.85c.75-.67,1.78-.87,2.54-1.51a5,5,0,0,1,.65-.49,13,13,0,0,1,2.46-1.13,3.32,3.32,0,0,0,1-.57,5.7,5.7,0,0,1,2-1.36A7.71,7.71,0,0,0,100.32,80a2.18,2.18,0,0,1,.87-.41c.89-.16,1.71-.56,2.6-.74a9,9,0,0,1,3.46-.35,2.18,2.18,0,0,1,1.58,1.64c0,.33.06.65.12,1a.37.37,0,0,1-.39.48c-.49,0-1,.05-1.55.08a1.6,1.6,0,0,0-1.36.32,4,4,0,0,1-1.08.42A10.18,10.18,0,0,0,103,83c-.68.3-1.35.65-2,1-.21.1-.47.09-.63.3a1.41,1.41,0,0,1-.81.51c-.72.16-1.16.74-1.73,1.11a7.93,7.93,0,0,0-2,1.57s-.12.11-.17.1c-.68-.11-.81.56-1.09.89a14.79,14.79,0,0,1-1.1,1.38,2.45,2.45,0,0,0-.71,1.26,2.16,2.16,0,0,0,.55,2.45c.1.07.09.21.15.29.32.37.46.94,1,1a5.8,5.8,0,0,0,1.5,0,11,11,0,0,0,2.85-.4,8.21,8.21,0,0,0,2-.82,16.2,16.2,0,0,1,1.73-.94A8.55,8.55,0,0,0,105,90.8a1.89,1.89,0,0,1,.47-.42,2.82,2.82,0,0,0,1-.82c.71-1,1.85-1.68,2.51-2.78.49-.82,1.34-1.39,1.69-2.33a.49.49,0,0,1,.39-.33,13.15,13.15,0,0,1,1.54,0,14.57,14.57,0,0,1,1.67.43,6.32,6.32,0,0,1,2.88,1.22,1,1,0,0,0,1.18.06.57.57,0,0,1,.22-.07c.3,0,1.17-.93,1.14-1.22A2,2,0,0,0,119.25,83.26ZM108,84.74a5.59,5.59,0,0,1-.41.66c-.73.86-1.35,1.8-2.15,2.61a6.79,6.79,0,0,1-1.15.7c-.45.28-.75.72-1.23,1-.85.43-1.51,1.14-2.37,1.59a9.57,9.57,0,0,1-2,.76c-.4.1-.76.31-1.17.38-.16,0-.28.06-.36-.11h0a1.31,1.31,0,0,1-.82.1.38.38,0,0,1-.34-.49,2.16,2.16,0,0,1,.3-.8,13.56,13.56,0,0,1,1.55-1.76,23.78,23.78,0,0,1,3.77-2.73,13.54,13.54,0,0,1,4.74-1.82c.45-.07.9-.23,1.35-.34C108,84.38,108.13,84.48,108,84.74ZM90,69.17h0l0,0h0Zm5-1.71a1.06,1.06,0,0,0-1,.71,1.79,1.79,0,0,1-.3.58c-.29.42-.58.84-.91,1.23a.68.68,0,0,0-.18.44,2.58,2.58,0,0,0-1,.75l.11.11h0l-.47.23a2.53,2.53,0,0,1-1.74.69l-.21,0a.17.17,0,0,0-.17.08,3.93,3.93,0,0,1,.2-1.25,16.77,16.77,0,0,1,.55-1.74l.36-1,.18-.66a5.25,5.25,0,0,1,.32-1,21.61,21.61,0,0,0,1.37-4.51.9.9,0,0,0-.09-.69L91.44,61a.78.78,0,0,0-.72.73l-.11.46a3.3,3.3,0,0,0-.12.58A4.2,4.2,0,0,1,90.16,64c-.1.29-.2.59-.28.89a3.51,3.51,0,0,1-.24.63,4.12,4.12,0,0,0-.32.9A5.67,5.67,0,0,1,89,67.6l-.2.5-.33,1.1-.52-.06a11.65,11.65,0,0,0-1.19.26,2.14,2.14,0,0,0-.65.31,2.78,2.78,0,0,1-.52.25,3.3,3.3,0,0,0-1.27.78l-.7.69a13.51,13.51,0,0,0-1.15,1.24,4.28,4.28,0,0,0-.86,2.27A1.94,1.94,0,0,1,81,76.26,5.65,5.65,0,0,1,79,78.72a4.81,4.81,0,0,1-1.61,1.08l-.38.16a1.68,1.68,0,0,1-.61-.23,3.25,3.25,0,0,1-.06-.86,4.17,4.17,0,0,1,.21-.92,6.35,6.35,0,0,0,.24-1,2.66,2.66,0,0,0-.38-1.78l-.62-.31a2.7,2.7,0,0,0-1.63.72c-.28.28-.53.59-.78.89a8.29,8.29,0,0,1-.89,1,2.25,2.25,0,0,0-.48.7l-.24.4a11,11,0,0,0-1,1.45c-.2.31-.4.63-.62.93s-.25.36-.38.56a1.86,1.86,0,0,0-.22-1.68.92.92,0,0,0-.7-.48,1,1,0,0,0-.66.32,9.72,9.72,0,0,0-.66.78l-.43.5a7.43,7.43,0,0,0-.81,1l-.57.93L65,84.23c-.48.14-.66.52-1,1.13a1.67,1.67,0,0,1-.22.4A5.66,5.66,0,0,0,63,86.92a12.76,12.76,0,0,1-.75,1.16l-.36.56a3.1,3.1,0,0,0-.85.4l.08.14-.65-.09c-.08,0-.19-.14-.07-.45a2,2,0,0,0,.09-.83l0-.58a5,5,0,0,1,.11-1,7.21,7.21,0,0,1,.3-1.3c.17-.47-.07-.91-.71-1.12-.4,0-.57.38-.82.87-.14.23-.29.5-.14.62a4.84,4.84,0,0,0-.82-.09,1.92,1.92,0,0,0-1.26.44l-.42.31a3.45,3.45,0,0,0-1.28,1.48,12.46,12.46,0,0,0-1.14,3l-.12.53A6.67,6.67,0,0,0,54,92.39c0,.54.36,1.17.86,1.21h0l.56-.15A2.66,2.66,0,0,0,57,92.35a6.33,6.33,0,0,0,.74-1.09c.15-.3.33-.59.5-.87a13.3,13.3,0,0,0,.66-1.16l0-.06a1.5,1.5,0,0,0,1.2,1.35l.65.06a1.64,1.64,0,0,0,1.17-.44,2.64,2.64,0,0,1,.44-.35,4.11,4.11,0,0,0,1.49-1.72,3.74,3.74,0,0,0,.22-.45,2.56,2.56,0,0,1,.34-.6A4,4,0,0,0,65,85.94a1.72,1.72,0,0,1,.75-.89l.32-.33.17-.45,0-.08c.2-.28.43-.55.85-1s.8-1,1.17-1.57l.29-.39A3.36,3.36,0,0,0,68,82.87l-.06.45a10.39,10.39,0,0,1-.58,1.83L67,86.21l.32.43,0,0,0,0,.18.24a.85.85,0,0,0,.66-.41,3.91,3.91,0,0,0,.57-.91,5.71,5.71,0,0,1,.66-1.14s.49-.74.62-.92a5.78,5.78,0,0,0,.69-1.13A6,6,0,0,1,72,80.51a1.28,1.28,0,0,0,.41-.57,4,4,0,0,1,.37-.7,7.79,7.79,0,0,1,.65-.9,1.35,1.35,0,0,0,.48-.52A3.08,3.08,0,0,1,75,76.67a4.48,4.48,0,0,1,.44-.2,3.51,3.51,0,0,0-.21.91,2.49,2.49,0,0,1-.15.73,3.6,3.6,0,0,0-.17,1.39,1.7,1.7,0,0,0,1.25,1.79,1.21,1.21,0,0,0,.82.29.94.94,0,0,0,.71-.26c.1-.12.23-.15.49-.21l.49-.27a3.56,3.56,0,0,1,.71-.67c.15-.12.31-.24.46-.38a6.76,6.76,0,0,0,.55-.6,5.28,5.28,0,0,1,.62-.63,3.81,3.81,0,0,0,1-1.35,1.58,1.58,0,0,0,.77.27h.56l.32-.18h0l.13.16.4-.19,0,0a3.06,3.06,0,0,1,.58-.52l.39-.31a14.72,14.72,0,0,0,1.92-2.24l.64-.92,0-.09a1.29,1.29,0,0,0,.67.69,2.59,2.59,0,0,0,.81.16,1.9,1.9,0,0,0,.5-.06,7.52,7.52,0,0,0,1.53-.66,5.27,5.27,0,0,0,1.59-1.42,1.6,1.6,0,0,1,.35-.28,2.48,2.48,0,0,0,.52-.45c.21-.26.41-.54.62-.85l.36-.52.36-.35a7.85,7.85,0,0,0,.52-.76.71.71,0,0,0,.07-.58C95.64,67.83,95.44,67.63,95,67.46ZM83.19,76a.68.68,0,0,1-.23-.81l.1-.52a3.47,3.47,0,0,1,.65-1.4,4.9,4.9,0,0,1,1.43-1.52l.36-.29a6.2,6.2,0,0,1,2.4-.85l0,0,0,.15a3,3,0,0,1-.3.6,2.9,2.9,0,0,0-.39.79A6.94,6.94,0,0,0,86,73.52c-.15.23-.31.46-.48.68a3.84,3.84,0,0,1-1.1,1.06,3.43,3.43,0,0,0-.81.67l-.13.15,0-.16ZM58.88,86.86c-.45.28-.58.72-.81,1.44-.21.4-.44.78-.73,1.27a13.79,13.79,0,0,0-.81,1.4,3,3,0,0,1-1.15,1.17l.11-.26a1.77,1.77,0,0,1,.13-.78A3.89,3.89,0,0,0,56,89.54c.18-.31.33-.65.5-1A8.81,8.81,0,0,1,57,87.47a1.32,1.32,0,0,1,.55-.46,1.33,1.33,0,0,0,.49-.34l.24-.17h0v.14h.09l.28-.11a1.79,1.79,0,0,1,.17.32Z" style="fill: url(#069fab57-3e2d-4a62-8965-3492bef1176f)"/>
</svg>
