<svg id="0b051f9b-deec-4aeb-af75-4102700c4c5b" data-name="Layer 1" xmlns="http://www.w3.org/2000/svg" viewBox="0 0 44.1 21.43"><title>pair-sun</title><path d="M34,18.41a1,1,0,0,0,1.34.19L37.45,17a1,1,0,0,0,.19-1.34l0,0a1,1,0,0,0-1.35-.19l-2.11,1.6A1,1,0,0,0,34,18.4Z" transform="translate(0 -7.84)" style="fill:#2d2a26"/><path d="M36.73,24.56a1,1,0,0,0,1.11.76l2.61-.45a1,1,0,0,0,.78-1.13l0-.06a1,1,0,0,0-1.13-.76l-2.59.52A1,1,0,0,0,36.73,24.56Z" transform="translate(0 -7.84)" style="fill:#2d2a26"/><path d="M22.26,12.41h0a1,1,0,0,0,1-.94l0-2.65a1,1,0,0,0-.94-1h0a1,1,0,0,0-1,1l0,2.64A1,1,0,0,0,22.26,12.41Z" transform="translate(0 -7.84)" style="fill:#2d2a26"/><path d="M28.8,14.05h0a1,1,0,0,0,1.29-.4l1.23-2.35a1,1,0,0,0-.42-1.3l-.05,0a1,1,0,0,0-1.29.43l-1.19,2.37A1,1,0,0,0,28.8,14.05Z" transform="translate(0 -7.84)" style="fill:#2d2a26"/><path d="M14.38,13.35a1,1,0,0,0,1.27.46h0a1,1,0,0,0,.47-1.27L15,10.13a1,1,0,0,0-1.28-.48l-.05,0A.94.94,0,0,0,13.24,11Z" transform="translate(0 -7.84)" style="fill:#2d2a26"/><path d="M3.61,24.16l2.57.59A1,1,0,0,0,7.34,24v0a1,1,0,0,0-.71-1.15l-2.57-.63A1,1,0,0,0,2.9,23V23A1,1,0,0,0,3.61,24.16Z" transform="translate(0 -7.84)" style="fill:#2d2a26"/><path d="M9,18.11A1,1,0,0,0,10.32,18v0a1,1,0,0,0-.14-1.35l-2-1.67a1,1,0,0,0-1.35.14l0,0a1,1,0,0,0,.15,1.35Z" transform="translate(0 -7.84)" style="fill:#2d2a26"/><path d="M43.35,27.77H33.93a11.9,11.9,0,0,0-23.75,0H.75a.75.75,0,0,0,0,1.5h42.6a.75.75,0,0,0,0-1.5Zm-31.68,0a10.41,10.41,0,0,1,20.77,0Z" transform="translate(0 -7.84)" style="fill:#2d2a26"/></svg>