<svg id="e28a72a5-c95e-4761-a4d9-ad0ca265fe95" data-name="Layer 1" xmlns="http://www.w3.org/2000/svg" viewBox="0 0 27.96 33"><title>pair-backpack</title><path d="M35.87,4.91a3.93,3.93,0,0,0-4-2.85H11.79A4,4,0,0,0,8.14,5.42a10.7,10.7,0,0,0-.06,1.69c0,.2,0,.4,0,.6V30.82A4,4,0,0,0,12.34,35H29.58l1.68,0c.28,0,.55,0,.82,0a4,4,0,0,0,4-4.15V6.17A4.48,4.48,0,0,0,35.87,4.91ZM28.34,12V10.09c0-2.13,0-4.27,0-6.4a.38.38,0,0,1,.05-.24.38.38,0,0,1,.19,0h.09c.62,0,.62,0,.62.66V9.36c0,1,0,2,0,2.92,0,0,0,2.34,0,2.58v.76c0,.69,0,1.38,0,2.07,0,.12,0,.14,0,.15s0,0-.15,0H29c-.65,0-.65,0-.65-.76V15.43C28.35,15.1,28.34,12.07,28.34,12ZM17.25,3.45s.06,0,.18,0h9.34c.12,0,.17,0,.18,0s0,0,0,.18c0,3,0,6,0,8.93,0,.11,0,.14,0,.15s0,0-.16,0H17.4c-.17,0-.18,0-.18-.22q0-4.44,0-8.89C17.22,3.5,17.24,3.46,17.25,3.45Zm-2.33.3a2.12,2.12,0,0,1,0-.31.65.65,0,0,1,.2,0h.1c.62,0,.62,0,.62.61v8c0,1.87,0,3.74,0,5.61a.36.36,0,0,1,0,.21s-.05,0-.23,0h0c-.66,0-.66,0-.66-.71Zm-2.67-.33H13.4c.06,0,.11,0,.13,0a.38.38,0,0,1,0,.19c0,1.1,0,2.19,0,3.29V9.31c0,1,0,2.1,0,3.14a.34.34,0,0,1-.05.26s-.07,0-.21,0h0c-.2,0-.4,0-.6,0H11.9a2.56,2.56,0,0,1-2.44-2.56c0-1.33,0-2.65,0-4A2.61,2.61,0,0,1,12.25,3.42Zm17,29.5a.16.16,0,0,1-.22.22H15.22c-.14,0-.22,0-.25,0s-.06-.11-.06-.24c0-1.44,0-2.89,0-4.33V25.26c0-.42,0-.42.45-.42H29.06a.38.38,0,0,1,.19,0s0,.07,0,.21C29.28,27.69,29.28,30.31,29.29,32.92Zm5.38-2.05a2.66,2.66,0,0,1-1.39,2.51,2.43,2.43,0,0,1-1.08.28H30.61a8.23,8.23,0,0,0,0-1.31v-.55c0-.88,0-1.75,0-2.62,0-1.36,0-2.76,0-4.14a3,3,0,0,0,0-.42c-.1-.84-.46-1.17-1.3-1.17H14.91c-1,0-1.36.38-1.36,1.39,0,1.46,0,7.56,0,7.56,0,.39,0,.78,0,1.17,0,0,0,.08,0,.08h-.92a5.61,5.61,0,0,1-.87-.06A2.55,2.55,0,0,1,9.46,31c0-.2,0-.4,0-.61V13.15a4.26,4.26,0,0,0,3,1h.78c.27,0,.27,0,.27.52v3.73c0,.65.22.87.88.87h1.91c.68,0,.88-.22.88-.9V17.4c0-1,0-2,0-3.06,0-.14,0-.19,0-.21a.46.46,0,0,1,.23,0h9.26c.14,0,.19,0,.21,0s0,.1,0,.22c0,1,0,1.91,0,2.87v1.1a1,1,0,0,0,.19.7.92.92,0,0,0,.73.21h2a.67.67,0,0,0,.76-.77c0-1.37,0-2.74,0-4.12,0-.14,0-.19,0-.21s.06,0,.17,0h0l.63,0,.83,0a4,4,0,0,0,2.27-.89l.08-.08V30.87Zm0-20.67a2.57,2.57,0,0,1-2.47,2.53h-1.4a.29.29,0,0,1-.12,0s0,0,0-.17c0-1.13,0-2.27,0-3.41V6.82c0-1,0-2.08,0-3.12,0-.17,0-.23.05-.25a.26.26,0,0,1,.16,0h1.06a3.21,3.21,0,0,1,.66.05A2.59,2.59,0,0,1,34.66,6C34.69,7.45,34.69,8.85,34.66,10.2Z" transform="translate(-8.07 -2.06)" style="fill:#2d2a26"/></svg>