<svg id="caa288a4-eae4-4133-9762-b19777b27e08" data-name="Layer 1" xmlns="http://www.w3.org/2000/svg" viewBox="0 0 31.24 42.71"><title>pair-movie</title><path d="M9,22.83a10.67,10.67,0,0,0,7.05,2.37,7.85,7.85,0,0,0,1.18-.11,10.66,10.66,0,0,0,4.34-1.66,10,10,0,0,0,3.67-4.84,10.27,10.27,0,0,0,.05-7A10.14,10.14,0,0,0,23.2,8.15c-.53-.59-1-.51-1.32.2a8.44,8.44,0,0,1-1.8,2.72c-.1.1-.17.24-.33.25a1.36,1.36,0,0,1,0-.53A10.27,10.27,0,0,0,18,3,9.68,9.68,0,0,0,14.81.17c-.54-.31-.93-.19-1.1.34A13.91,13.91,0,0,1,9,7.17a8.9,8.9,0,0,0-1.9,2.11,10.52,10.52,0,0,0-1.54,7.43A10.27,10.27,0,0,0,9,22.83Zm9.85-.27A4.34,4.34,0,0,1,14,23.66a4.48,4.48,0,0,1-2.76-4.32,4,4,0,0,1,1.44-3,8.21,8.21,0,0,0,2.55-3.17c.09-.23.19-.07.28,0a4.13,4.13,0,0,1,1.42,3,5.39,5.39,0,0,1-.36,2.1c-.11.29-.18.57.11.82a.71.71,0,0,0,.94,0,5.8,5.8,0,0,0,1.64-1.52c.15-.21.22-.26.35,0A4.36,4.36,0,0,1,18.85,22.56ZM9.91,8a17.62,17.62,0,0,0,3.22-3.35,14.45,14.45,0,0,0,1.52-2.95c.09-.23.15-.26.35-.12a8.81,8.81,0,0,1,3.71,6.15,8.29,8.29,0,0,1-.79,4.92.64.64,0,0,0,.12.8.63.63,0,0,0,.82.09A9.4,9.4,0,0,0,22.64,9.9c.18-.31.25-.3.43,0a9.06,9.06,0,0,1-.43,10.71,8.57,8.57,0,0,1-1.76,1.64c-.07.05-.14.15-.26.11a2.5,2.5,0,0,1,.09-.25,5.89,5.89,0,0,0,.46-4,5.17,5.17,0,0,0-1.28-2.38c-.52-.56-1-.47-1.29.23a1.44,1.44,0,0,1-.37.6c-.15-.2-.05-.42-.07-.63a5.77,5.77,0,0,0-2.74-4.49c-.46-.3-.92-.17-1.06.3A7.32,7.32,0,0,1,12,15.1a5.78,5.78,0,0,0-2,4.82,6.54,6.54,0,0,0,.7,2.48c-.22,0-.34-.17-.48-.28A9,9,0,0,1,9.91,8Z" style="fill:#332e20"/><path d="M29.33,36.19h0l-5.73-2.76,5.75-2.77a3.44,3.44,0,1,0-3-6.2L15.62,29.59,4.93,24.44a3.41,3.41,0,0,0-2.62-.15A3.44,3.44,0,0,0,2,30.64l5.74,2.77L2,36.17H1.92A3.38,3.38,0,0,0,.34,40.71v0a0,0,0,0,0,0,0A1.64,1.64,0,0,0,.52,41l.09.16a3.39,3.39,0,0,0,1.71,1.34,3.5,3.5,0,0,0,1.14.19A3.38,3.38,0,0,0,5,42.37l10.67-5.14,10.67,5.14a3.38,3.38,0,0,0,1.49.34,3.45,3.45,0,0,0,1.14-.19,3.39,3.39,0,0,0,1.7-1.33,3,3,0,0,0,.23-.38h0a.73.73,0,0,0,.05-.09A3.39,3.39,0,0,0,29.33,36.19Zm-3.4,2.13a2.47,2.47,0,0,1,.31-.46l.1-.1a1.93,1.93,0,0,1,.35-.29l.06,0a2.58,2.58,0,0,1,.48-.21l.13,0,.42-.06h.12a1.33,1.33,0,0,1,.28,0l.16,0,.37.12.05,0,.19.12.17.11a1.54,1.54,0,0,1,.19.17l.12.12a2.08,2.08,0,0,1,.11,2.72,2.13,2.13,0,0,1-3.61-2.23ZM1.48,40.19h0a2.2,2.2,0,0,1,1-2.87,2.3,2.3,0,0,1,.42-.14l.16,0a1.33,1.33,0,0,1,.28,0h.13a2.7,2.7,0,0,1,.41.06l.14,0a2.14,2.14,0,0,1,.47.2l.07,0a2.34,2.34,0,0,1,.35.29l.09.1a2.06,2.06,0,0,1,.31.46,2.14,2.14,0,0,1-1,2.85A2.14,2.14,0,0,1,1.48,40.19ZM27.29,25.41l.15,0a1.55,1.55,0,0,1,.31,0,1.15,1.15,0,0,1,.26,0h.12a2.88,2.88,0,0,1,.4.09,2.19,2.19,0,0,1,.22,4.05L6.64,40.17a1.32,1.32,0,0,0,.05-.26,1.46,1.46,0,0,0,0-.2v-.07a2.42,2.42,0,0,0,0-.38c0-.07,0-.14,0-.21a.43.43,0,0,1,0,0c0-.13,0-.27-.06-.4s0-.15,0-.22a4.07,4.07,0,0,0-.22-.58v0h0a4,4,0,0,0-.33-.53,1.37,1.37,0,0,0-.16-.18,3.33,3.33,0,0,0-.25-.28l-.23-.18a1.44,1.44,0,0,0-.25-.18l-.28-.16-.11-.07L9.4,34h0l2.41-1.16,15-7.24A2.32,2.32,0,0,1,27.29,25.41ZM2.49,29.52a2.19,2.19,0,0,1-1-2.93,2.16,2.16,0,0,1,1.25-1.12,2.22,2.22,0,0,1,.72-.12,2.1,2.1,0,0,1,.95.22l9.79,4.71L9.51,32.53l-.38.19Zm14.57,7,.19-.1,4.86-2.34,4.32,2.08-.16.09-.22.13-.3.21-.19.16a3.83,3.83,0,0,0-.28.29c0,.06-.1.11-.14.17a3.71,3.71,0,0,0-.33.54,3.89,3.89,0,0,0-.23.62c0,.08,0,.15,0,.22s-.05.28-.06.42,0,.17,0,.25,0,.25,0,.38l.06.27a2,2,0,0,0,0,.24Z" style="fill:#332e20"/></svg>