<svg id="82272636-97c6-4b3c-a2ff-f55688d7ca22" data-name="Layer 1" xmlns="http://www.w3.org/2000/svg" viewBox="0 0 37.68 28.09"><title>pair-plates</title><path d="M3.21,5.25a.85.85,0,0,1,1-.5c.5.16.54.58.53,1,0,1,0,2,0,2.93,0,.28,0,.56.4.57s.39-.3.39-.56V5.78c0-.55.13-1,.8-1s.79.5.79,1V8.7c0,.28,0,.57.41.56S8,8.94,8,8.68c0-1,0-2.07,0-3.1,0-.5.24-.87.81-.86a.75.75,0,0,1,.76.83c0,2.31.23,4.63-.3,6.92a4.57,4.57,0,0,1-1.8,3c-.4.26-.27.64-.27,1,0,4.82,0,9.65,0,14.47,0,.61.18,1.45-.79,1.45s-.8-.82-.8-1.44c0-4.85,0-9.71,0-14.56a1.22,1.22,0,0,0-.53-1.11A5.29,5.29,0,0,1,3.38,11.9c0-.21,0-.45-.17-.62ZM6.38,10.8c-1.75,0-1.8,0-1.22,1.73.23.67.4,1.62,1.22,1.61s1-.94,1.21-1.61C8.18,10.8,8.16,10.8,6.38,10.8Z" transform="translate(-3.21 -4.51)" style="fill:#2d2a26"/><path d="M40.89,32.21c-.35.27-.72.56-1.19.29s-.37-.71-.37-1.12c0-3.57,0-7.13,0-10.69,0-.58-.09-.9-.74-1a2.44,2.44,0,0,1-2.06-2.24c-.63-4.41-.12-8.6,2.65-12.28.59-.8.91-.83,1.7-.25Zm-1.56-19V8.7c0-.12.08-.31-.09-.36s-.18.16-.23.27a15.33,15.33,0,0,0-.94,8.57,1.16,1.16,0,0,0,.51.83.68.68,0,0,0,.62.15c.21-.1.13-.35.13-.53Z" transform="translate(-3.21 -4.51)" style="fill:#2d2a26"/><path d="M22.33,31.21A12.65,12.65,0,1,1,35,18.7,12.64,12.64,0,0,1,22.33,31.21Zm0-1.54a11.2,11.2,0,0,0,11.19-11,11.11,11.11,0,1,0-11.19,11Z" transform="translate(-3.21 -4.51)" style="fill:#2d2a26"/><path d="M22.38,27.53a9,9,0,1,1,9-8.92A9,9,0,0,1,22.38,27.53Zm-7.4-9a7.41,7.41,0,1,0,7.39-7.34A7.47,7.47,0,0,0,15,18.49Z" transform="translate(-3.21 -4.51)" style="fill:#2d2a26"/></svg>