<svg id="3a302c8f-19aa-4f85-b4ec-c4c1235a1da3" data-name="Layer 1" xmlns="http://www.w3.org/2000/svg" xmlns:xlink="http://www.w3.org/1999/xlink" viewBox="0 0 25.86 32.69"><defs><linearGradient id="7f42a860-c69a-422a-a560-95591acde7e3" x1="19.2" y1="23.89" x2="19.2" y2="23.89" gradientUnits="userSpaceOnUse"><stop offset="0" stop-color="#988447"/><stop offset="0.05" stop-color="#9e8a4f"/><stop offset="0.33" stop-color="#b9a775"/><stop offset="0.59" stop-color="#ccbc90"/><stop offset="0.82" stop-color="#d8c9a0"/><stop offset="1" stop-color="#dccda6"/></linearGradient></defs><title>pair-boat</title><path d="M19.2,23.89" transform="translate(-9.12 -2.22)" style="fill:#2d2a26;stroke-miterlimit:10;stroke:url(#7f42a860-c69a-422a-a560-95591acde7e3)"/><path d="M21.35,22.22c0-3.13,0-6.27,0-9.41,0-.66-.15-.94-.87-.9-1,.06-2,0-2.95,0-.49,0-1-.12-.94-.75s.5-.62,1-.62c1,0,2,0,3,0,.32,0,.86.2.82-.41s.36-1.2-.48-1.49A3.13,3.13,0,0,1,19,7a3.28,3.28,0,0,1,1.62-4.42,3.4,3.4,0,0,1,4.48,1.58,3.29,3.29,0,0,1-1.62,4.43c-.34.17-.74.19-.78.76-.08,1.17,0,1.25,1.15,1.25H26.6c.45,0,.83.13.86.63s-.37.74-.85.74c-1.05,0-2.09,0-3.14,0-.53,0-.77.13-.77.72,0,6.42,0,12.85,0,19.27,0,.48.06.77.66.69A11.91,11.91,0,0,0,31.89,28a8,8,0,0,0,1.67-4.51c0-.54,0-1.17.75-1.12s.69.73.64,1.28a10.58,10.58,0,0,1-5.37,8.26,13.6,13.6,0,0,1-6,2c-.42,0-.79,0-1,.57a.6.6,0,0,1-1.14,0c-.21-.57-.58-.53-1-.58a13,13,0,0,1-9.64-5.43,9.2,9.2,0,0,1-1.71-5.27c0-.45.13-.82.64-.85s.69.3.72.76c.36,4.88,3.38,7.48,7.69,9a15.67,15.67,0,0,0,2.34.48c.68.12.86-.1.85-.75C21.34,28.62,21.35,25.42,21.35,22.22ZM22,7.5A2,2,0,0,0,24,5.57a2,2,0,0,0-4-.12A2,2,0,0,0,22,7.5Z" transform="translate(-9.12 -2.22)" style="fill:#2d2a26"/></svg>