<svg id="50b054c2-f709-4be7-8270-b04bb8db5e39" data-name="Layer 1" xmlns="http://www.w3.org/2000/svg" viewBox="0 0 34.94 34.94"><title>pair-game</title><path d="M36.05,1.09H19.39a3.47,3.47,0,0,0-3.47,3.47V4.8L7.4,6.44a3.48,3.48,0,0,0-2.76,4.07L9,33.21A3.47,3.47,0,0,0,12.41,36a3.05,3.05,0,0,0,.67-.07l16.36-3.15a3.41,3.41,0,0,0,2.31-1.65h4.3a3.47,3.47,0,0,0,3.47-3.48V4.56A3.47,3.47,0,0,0,36.05,1.09ZM29.16,31.34,12.79,34.49a2,2,0,0,1-1.47-.3,2,2,0,0,1-.84-1.26L6.12,10.22A2,2,0,0,1,7.68,7.91l8.24-1.58V27.68a3.47,3.47,0,0,0,3.47,3.48h10.3A2.07,2.07,0,0,1,29.16,31.34ZM38,27.68a2,2,0,0,1-2,2H19.39a2,2,0,0,1-2-2V4.56a2,2,0,0,1,2-2H36.05a2,2,0,0,1,2,2Z" transform="translate(-4.58 -1.09)" style="fill:#2d2a26"/><g id="f9a6ee06-9003-4e24-ac28-b916d81685fe" data-name="vi20RU"><path d="M9.67,9.87A1.4,1.4,0,0,0,8.59,11a1.44,1.44,0,0,0,.58,1.51l2.64,1.79c.06,0,.08,0,.11,0l1.8-2.65A1.47,1.47,0,0,0,11.24,10c-.05.07-.08.18-.15.19s-.15-.07-.22-.12A1.48,1.48,0,0,0,9.67,9.87Z" transform="translate(-4.58 -1.09)" style="fill:#332e20"/></g><g id="888964a4-5399-4816-afda-48117270211e" data-name="vi20RU"><path d="M21,4.89a1.47,1.47,0,0,0-1,2.49l2.25,2.26c.05,0,.07,0,.11,0l2.27-2.27a1.47,1.47,0,0,0-2.13-2c-.06.06-.12.16-.19.17s-.13-.11-.19-.17A1.58,1.58,0,0,0,21,4.89Z" transform="translate(-4.58 -1.09)" style="fill:#332e20"/></g><g id="dd22451e-c458-4f21-b42b-0a875ad21a27" data-name="vi20RU"><path d="M34.55,27.55a1.41,1.41,0,0,0,1.27-.89,1.44,1.44,0,0,0-.28-1.59c-.75-.76-1.51-1.51-2.26-2.26-.05,0-.07,0-.11,0-.76.75-1.52,1.51-2.27,2.27a1.47,1.47,0,0,0,2.13,2c.06-.06.12-.16.19-.16s.13.1.19.16A1.5,1.5,0,0,0,34.55,27.55Z" transform="translate(-4.58 -1.09)" style="fill:#332e20"/></g></svg>