<svg id="93e6430e-63ad-480e-9eef-648d0fa4b447" data-name="Layer 1" xmlns="http://www.w3.org/2000/svg" viewBox="0 0 25.19 28.38"><title>pair-picnic</title><g id="52b3eee8-94f0-4bbd-981f-128a8e9950a6" data-name="9SpbCl"><path d="M13.06,28.38A24.92,24.92,0,0,1,.59,24.88c-.66-.39-.74-.67-.38-1.35q6-11.46,12-22.9C12.34.3,12.5,0,13,0s.6.32.76.65Q19.35,12.1,25,23.54c.35.7.29.9-.39,1.35A20.32,20.32,0,0,1,13.06,28.38Zm0-5.16a19.21,19.21,0,0,0,8.61-2c.33-.17.48-.28.27-.69q-4.39-8.88-8.77-17.77c-.07-.14-.08-.37-.27-.36s-.17.22-.24.34Q8,11.59,3.39,20.45c-.18.34-.15.49.22.65A24.07,24.07,0,0,0,13.06,23.22Zm0,3.76a18.69,18.69,0,0,0,9.33-2.42c1.17-.65,1.14-.65.6-1.83-.2-.42-.35-.5-.79-.27a18.7,18.7,0,0,1-6.05,1.93A23.5,23.5,0,0,1,3.81,22.7c-1.34-.55-1.32-.54-2,.77-.18.35-.06.46.22.61A23.73,23.73,0,0,0,13.11,27Z" style="fill:#2d2a26"/><path d="M13.27,8.15c0,.31,0,.63,0,.94a.63.63,0,0,1-.62.67.6.6,0,0,1-.72-.55,16.15,16.15,0,0,1,0-2.2c0-.38.33-.57.73-.54a.61.61,0,0,1,.61.6c0,.36,0,.72,0,1.08Z" style="fill:#2d2a26"/><path d="M14.36,12.56a2.52,2.52,0,0,1,.05-.6.68.68,0,0,1,1.28.08A18,18,0,0,1,15.9,14a.61.61,0,0,1-.62.67.64.64,0,0,1-.75-.61C14.46,13.56,14.42,13.07,14.36,12.56Z" style="fill:#2d2a26"/><path d="M7.69,18.82c0,.27,0,.55,0,.82a.6.6,0,0,1-.61.6.61.61,0,0,1-.73-.53,12.42,12.42,0,0,1,0-1.83A.6.6,0,0,1,7,17.3a.63.63,0,0,1,.65.64c0,.29,0,.59,0,.88Z" style="fill:#2d2a26"/><path d="M17.68,18.76c0-.28,0-.55,0-.82a.63.63,0,0,1,.65-.64.6.6,0,0,1,.69.52,5.93,5.93,0,0,1,0,1.88.69.69,0,0,1-1.36-.12c0-.28,0-.55,0-.82Z" style="fill:#2d2a26"/><path d="M14.39,18.24a5.26,5.26,0,0,1,0,.9.64.64,0,0,1-.7.58A.63.63,0,0,1,13,19.1c0-.54,0-1.09,0-1.63a.68.68,0,0,1,1.36-.09C14.36,17.69,14.37,18,14.39,18.24Z" style="fill:#2d2a26"/><path d="M11,20.32c-.05.41-.09.83-.16,1.25a.66.66,0,0,1-.78.63.63.63,0,0,1-.6-.74c0-.44.09-.88.15-1.31s.31-.73.76-.68S11,19.84,11,20.32Z" style="fill:#2d2a26"/><path d="M11,13.11a13,13,0,0,1-.41,1.36.61.61,0,0,1-.77.39.62.62,0,0,1-.51-.75,14.25,14.25,0,0,1,.39-1.46.59.59,0,0,1,.75-.41C10.81,12.31,11,12.56,11,13.11Z" style="fill:#2d2a26"/></g></svg>