<svg id="20b6dd7a-b743-48b8-b9dd-6ae6d62c68f3" data-name="Layer 1" xmlns="http://www.w3.org/2000/svg" viewBox="0 0 26.17 36.22"><title>pair-popcorn</title><path d="M35.14,11.92a4.88,4.88,0,0,0-3.67-4.74,3.88,3.88,0,0,0-5.78-3.32,4.49,4.49,0,0,0-8.77.21,6.25,6.25,0,0,0-1.49-.17A6.46,6.46,0,0,0,9,10.36a6.78,6.78,0,0,0,3.19,5.7.69.69,0,0,0,0,.32L15.23,36a.76.76,0,0,0,.74.63H29.05a.74.74,0,0,0,.74-.63l3.1-19.66a.74.74,0,0,0,0-.21A5.19,5.19,0,0,0,35.14,11.92ZM16.62,35.17,13.75,17h3.18l1.59,18.16Zm5.14,0H20L18.44,17h3.32Zm1.5,0V17h3.53L25.21,35.17Zm5.15,0H26.72L28.3,17h3Zm1.83-19.66H15.43a5.13,5.13,0,0,1-5-5.15,5,5,0,0,1,5-5,4.85,4.85,0,0,1,1.88.37A.74.74,0,0,0,18,5.69.73.73,0,0,0,18.34,5a.25.25,0,0,0,0-.1,3,3,0,0,1,6,0,2.47,2.47,0,0,1-.05.43.76.76,0,0,0,.47.81.75.75,0,0,0,.89-.28,2.39,2.39,0,0,1,2-1A2.37,2.37,0,0,1,30,7.23a3,3,0,0,1,0,.43.71.71,0,0,0,.14.58.72.72,0,0,0,.52.3,3.39,3.39,0,0,1,3.05,3.38A3.59,3.59,0,0,1,30.24,15.51Z" transform="translate(-8.97 -0.45)" style="fill:#2d2a26"/><path d="M20.88,10.61a2.24,2.24,0,0,0-1,0,3,3,0,0,0-6,.55.63.63,0,0,0,1.25,0,1.79,1.79,0,1,1,3.58,0,.4.4,0,0,0,0,.15,2.23,2.23,0,0,0-.54,1.07.62.62,0,0,0,.49.73.63.63,0,0,0,.74-.49,1,1,0,0,1,.44-.66,1,1,0,0,1,1.6,1.07.64.64,0,0,0,.49.74h.13a.63.63,0,0,0,.61-.5A2.3,2.3,0,0,0,20.88,10.61Z" transform="translate(-8.97 -0.45)" style="fill:#2d2a26"/><path d="M27.84,9.38a1.92,1.92,0,0,0-2.32,1.41.62.62,0,1,0,1.21.29.68.68,0,0,1,.81-.49.67.67,0,0,1,.41.31.65.65,0,0,1,.08.51.62.62,0,0,0,.46.75l.15,0a.63.63,0,0,0,.61-.48A1.9,1.9,0,0,0,29,10.25,1.87,1.87,0,0,0,27.84,9.38Z" transform="translate(-8.97 -0.45)" style="fill:#2d2a26"/></svg>