<svg id="f954ecce-2a30-44ce-9149-55ab144d832d" data-name="Layer 1" xmlns="http://www.w3.org/2000/svg" viewBox="0 0 28.26 37.12"><title>pair-grill</title><path d="M14,37.12c-.63-.37-.61-.87-.37-1.48,1.4-3.54,2.77-7.09,4.18-10.63.21-.51.19-.78-.31-1.11a11.64,11.64,0,0,1-4.72-6.34.79.79,0,0,0-.93-.66c-1,0-2,0-3,0-.55,0-1-.16-1-.81s.47-.79,1-.79c.88,0,1.76,0,2.64,0,.48,0,.67-.08.65-.62-.05-1.84,0-1.84,1.84-1.84H34.43c1.21,0,1.46.27,1.35,1.46a12.34,12.34,0,0,1-5.62,9.75c-.31.2-.41.37-.26.72.63,1.52,1.24,3,1.85,4.57a.6.6,0,0,0,.58.45C34.54,30,36,31.16,36.15,33c.22,2-.82,3.41-3.07,4.12l-.06,0H31.7a3.94,3.94,0,0,1-2.81-2.5c-.16-.56-.42-.7-1-.69-3.62,0-7.24,0-10.85,0a1.21,1.21,0,0,0-1.37.91c-.29.8-.39,1.73-1.16,2.29ZM24,14.49c-3.15,0-6.31,0-9.47,0-.62,0-.74.21-.66.75.76,4.63,4.28,8.83,9.82,9A10.18,10.18,0,0,0,34,15.52c.16-1,.16-1-.92-1ZM22.79,32.32c1.56,0,3.13,0,4.7,0,.85,0,1.52-.05,1.86-1a1.69,1.69,0,0,1,.67-.71c.35-.24.33-.47.19-.82-.6-1.42-1.17-2.84-1.73-4.27-.15-.37-.27-.48-.71-.34a11.68,11.68,0,0,1-7.59,0c-.5-.17-.67-.06-.84.39-.77,2-1.54,4-2.36,6-.22.54-.18.7.45.69C19.22,32.3,21,32.32,22.79,32.32Zm11.77,1.13a2.14,2.14,0,0,0-2.12-2.07,2.18,2.18,0,0,0-2.16,2.05,2.1,2.1,0,0,0,2.14,2A2.07,2.07,0,0,0,34.56,33.45Z" transform="translate(-7.92)" style="fill:#2d2a26"/><path d="M24.93,0c.62.81.58,1.08-.24,1.73-1.26,1-1.42,1.79-.62,3.2a7.76,7.76,0,0,1,1.28,3,4.1,4.1,0,0,1-2.29,3.71.77.77,0,0,1-.93-.31.67.67,0,0,1,0-.91,4.15,4.15,0,0,1,.49-.44c1.3-1.07,1.43-1.77.6-3.27-.27-.48-.57-.94-.81-1.43a3.46,3.46,0,0,1,.9-4.51c.3-.28.63-.52.95-.77Z" transform="translate(-7.92)" style="fill:#2d2a26"/><path d="M20,8.93a3.32,3.32,0,0,1-1.86,2.71.76.76,0,0,1-.93-.32.68.68,0,0,1,.07-1c.41-.45,1.09-.72,1.06-1.47a3.83,3.83,0,0,0-.79-1.68,3,3,0,0,1,1-4.22c.44-.29.9-.39,1.25,0s.17.89-.26,1.26c-1,.9-1.08,1.2-.38,2.37A4.83,4.83,0,0,1,20,8.93Z" transform="translate(-7.92)" style="fill:#2d2a26"/><path d="M31.05,8.93a3.29,3.29,0,0,1-1.77,2.68.76.76,0,0,1-1-.22.74.74,0,0,1,0-1c.41-.45,1.08-.72,1-1.48a4,4,0,0,0-.78-1.69A2.91,2.91,0,0,1,29.54,3c.44-.32.91-.46,1.31,0s.15.9-.28,1.26c-1,.84-1.06,1.16-.41,2.29C30.91,7.9,31,8.25,31.05,8.93Z" transform="translate(-7.92)" style="fill:#2d2a26"/><path d="M15.83,16.66c0-.52.12-.95.73-1s.81.31.87.85A2.71,2.71,0,0,0,19,18.78a.79.79,0,0,1,.47,1.14c-.24.54-.74.49-1.21.33A4.48,4.48,0,0,1,15.83,16.66Z" transform="translate(-7.92)" style="fill:#2d2a26"/></svg>