<svg id="59a4e806-1254-4c0a-b4ca-e9f8398fc70b" data-name="Layer 1" xmlns="http://www.w3.org/2000/svg" viewBox="0 0 25.19 28.38"><title>pair-pizza</title><path d="M22.52,32.75a24.82,24.82,0,0,1-12.47-3.5c-.66-.39-.74-.67-.38-1.35L21.62,5c.17-.32.34-.63.79-.63s.6.32.76.65L34.44,27.91c.35.7.29.9-.39,1.35A20.32,20.32,0,0,1,22.52,32.75Zm0-5.16a19.21,19.21,0,0,0,8.61-2c.33-.17.47-.28.27-.69Q27,16,22.63,7.11c-.07-.14-.08-.37-.27-.36s-.18.22-.24.35L12.85,24.83c-.18.34-.16.48.22.64A24.07,24.07,0,0,0,22.52,27.59Zm.05,3.76a18.65,18.65,0,0,0,9.32-2.42c1.17-.65,1.15-.65.6-1.83-.19-.42-.34-.5-.78-.27a18.7,18.7,0,0,1-6.05,1.93,23.47,23.47,0,0,1-12.39-1.69c-1.35-.55-1.33-.54-2,.77-.18.35-.07.46.22.61A23.73,23.73,0,0,0,22.57,31.35Z" transform="translate(-9.46 -4.37)" style="fill:#2d2a26"/><path d="M22.73,12.52c0,.31,0,.63,0,.94a.63.63,0,0,1-.62.67.62.62,0,0,1-.73-.55,16.15,16.15,0,0,1,0-2.2.67.67,0,0,1,1.33.07c0,.35,0,.71,0,1.07Z" transform="translate(-9.46 -4.37)" style="fill:#2d2a26"/><path d="M23.82,16.93a2.52,2.52,0,0,1,.05-.6.57.57,0,0,1,.63-.41.58.58,0,0,1,.65.49,17.89,17.89,0,0,1,.21,1.95.62.62,0,0,1-.63.66.64.64,0,0,1-.74-.61C23.92,17.93,23.88,17.44,23.82,16.93Z" transform="translate(-9.46 -4.37)" style="fill:#2d2a26"/><path d="M17.15,23.19c0,.27,0,.55,0,.82a.6.6,0,0,1-.61.6c-.4,0-.7-.16-.73-.53a12.42,12.42,0,0,1,0-1.83.61.61,0,0,1,.7-.58.64.64,0,0,1,.65.64c0,.29,0,.59,0,.88Z" transform="translate(-9.46 -4.37)" style="fill:#2d2a26"/><path d="M27.14,23.13c0-.28,0-.55,0-.82a.65.65,0,0,1,.66-.64.62.62,0,0,1,.69.52,6.24,6.24,0,0,1,0,1.88A.68.68,0,0,1,27.14,24c0-.27,0-.55,0-.82Z" transform="translate(-9.46 -4.37)" style="fill:#2d2a26"/><path d="M23.85,22.61a5.26,5.26,0,0,1,0,.9.64.64,0,0,1-.71.58.63.63,0,0,1-.67-.61c0-.55-.05-1.1,0-1.64a.68.68,0,0,1,1.35-.09C23.82,22.06,23.83,22.38,23.85,22.61Z" transform="translate(-9.46 -4.37)" style="fill:#2d2a26"/><path d="M20.46,24.69c-.05.41-.1.83-.16,1.25a.66.66,0,0,1-.78.63.64.64,0,0,1-.61-.74c0-.44.1-.88.16-1.31s.3-.72.75-.68S20.5,24.21,20.46,24.69Z" transform="translate(-9.46 -4.37)" style="fill:#2d2a26"/><path d="M20.45,17.48c-.11.37-.23.88-.41,1.36a.61.61,0,0,1-.77.39.62.62,0,0,1-.51-.75A12.58,12.58,0,0,1,19.15,17a.59.59,0,0,1,.75-.41C20.26,16.69,20.48,16.93,20.45,17.48Z" transform="translate(-9.46 -4.37)" style="fill:#2d2a26"/></svg>