<svg id="e87ac802-52e5-45a8-bdba-d31323a855fa" data-name="Layer 1" xmlns="http://www.w3.org/2000/svg" viewBox="0 0 961.65 172.32"><title>sig-charlie</title><path d="M107,86.83c1.22-1.9,3.27-3,4.68-4.72,2.38-3,4.94-5.78,7.2-8.88,1.55-2.13,3-4.32,4.66-6.42,2-2.63,4.32-5,6.08-7.86v0c.58-1.52,2.19-2.51,2.65-3.84,1.25-3.53,3.74-6.35,4.94-9.89.95-2.81,2.77-5.3,3.63-8.16,1-3.26,1.82-6.58,2.54-9.92a20.63,20.63,0,0,0,.26-5.94c-.3-3.92-2.42-5.19-6.36-5.8-3.36-.52-6.71.57-10,1.28a66.54,66.54,0,0,0-20.51,8.46c-2.82,1.71-5.5,3.63-8.43,5.18A87.41,87.41,0,0,0,82,41,175.35,175.35,0,0,1,67.49,51.87c-4.26,3-8.29,6.2-12.28,9.51-5.82,4.86-11.47,9.91-16.86,15.22-3.25,3.19-6.27,6.63-9.39,10-4,4.27-7.55,8.92-11.56,13.19a31.48,31.48,0,0,0-5.85,8.61c-1.4,3.12-3.39,6-4.22,9.36-1.11,4.52-1.78,9.05-1,13.68.29,1.66.82,3.28,1.12,4.94.71,4.06,6.17,8.9,6.87,9.38,1.7,1.14,3.51,2.16,5.11,3.37,2.29,1.75,4.9,2.33,7.49,3.06a74,74,0,0,0,25.88,2.27c4.31-.32,8.61-.68,12.88-1.39a112.54,112.54,0,0,0,16.17-4.17,88.15,88.15,0,0,0,9.23-4.06c2.33-1.07,2.71-1.42,1.46-3.45-1.58-2.57-.9-5.21-1.09-7.83a23.48,23.48,0,0,1,.13-3l0,0a1.79,1.79,0,0,0,.94-1.34c1.29-4.52,3.92-8.25,6.7-12,5.12-6.82,11.38-12.51,17.37-18.49a104.67,104.67,0,0,1,8.48-7.88c3.65-2.89,7.06-6.08,10.78-8.9,3-2.28,5.66-5,8.47-7.55l0,0c1.95-.48,3.06-2.14,4.46-3.33,3.59-3,7.4-5.8,11-8.77s7.26-6,10.88-9v0a138.34,138.34,0,0,0,10.93-8.69l0,0c4.45-3.34,8.64-7,13.33-10.11,2.92-1.93,6.15-3.53,8.7-6.13a10.63,10.63,0,0,1,4.29-2.55l.1-.1c3.3-2.41,6.71-4.66,10.1-7a67.18,67.18,0,0,1,7.51-4.5c1.47-.74,3-.53,4.59-.65.68-.05.94.42,1.24.94,1.59,2.83,0,5.16-1.34,7.33-2.45,3.95-5.55,7.53-7.67,11.63-1.39,2.68-3.85,4.7-4.56,7.73a1,1,0,0,1-.24.51c-3.53,3.22-5.15,8-9.11,11-2,1.5-3.46,3.77-5,5.81-2.61,3.45-5.83,6.35-8.64,9.61-1.72,2-3.21,4.18-5,6-2.15,2.16-3.8,4.73-6,6.86-1.29,1.24-1.9,3.19-3.29,4.49-1.95,1.81-3.45,4.08-5.91,5.37-1.1.58-1.62,1.91-2.53,2.73-2.2,2-4.38,4-6.69,5.93-3,2.47-5.77,5.32-8.81,7.83-4.05,3.35-7.23,7.68-11.77,10.5a17.94,17.94,0,0,0-2.6,2.42c-2.61,2.45-5.71,4.2-8.6,6.25-2.59,1.83-5.23,3.59-7.86,5.35-3.19,2.14-6.33,4.36-9.59,6.42-3,1.92-6.29,3.19-9.43,4.78-.61.31-1.44.59-1.22,1.43s1,.59,1.62.52a61.62,61.62,0,0,0,9.69-2.24,139.82,139.82,0,0,0,14.32-4.31c4.1-1.62,8.33-2.86,12.41-4.53,1.49-.62,3.24-.48,4.54-1.61l0,0c6.95-2.94,14.38-4.73,20.89-8.73,1.83-1.12,4-1.53,5.79-2.83,1.31-.95,4.23.69,4.72,2.33.66,2.23,0,3.26-2.42,3.95s-4.14,2.06-6.24,3c-2.94,1.33-5.72,3-8.54,4.48a19.88,19.88,0,0,0-5.23,3.94c-.77.84-.45,1.51.5,1.89a5.66,5.66,0,0,0,2.55.52c5.79-.43,11.28-2.12,16.8-3.8,4.06-1.24,8.07-2.61,12-4.2,1.66-.67,3.2-1.62,4.8-2.44.83-.42.67-1.11.52-1.79a23.06,23.06,0,0,1,1-13.21,43.91,43.91,0,0,1,7.67-12.31,77.29,77.29,0,0,1,13.77-12.54c1.45-1.08,3-2.06,4.47-3.08l0,0,.16.07.17,0,.14-.09c2.17-1.68,4.78-2.6,7.06-4.07,4.64-3,9.41-5.77,14-8.89A69,69,0,0,1,253.92,68l0,0c6.75-3.47,13.63-6.7,20-10.93l0,0c4.42-3,9.43-5,13.94-7.9l0,0,10.94-5.67,0,0,3-1.53,0,0A137.4,137.4,0,0,1,320,31.5c4.81-2.18,9.68-4.28,15-4.8a16.14,16.14,0,0,1,3.74,0c2.4.32,4.95,4.44,3.62,6.34-1.15,1.65-2.38,3.3-3.45,5-2.05,3.26-5.06,5.68-7.36,8.67-3.3,4.31-7.57,7.59-11.28,11.46-1.74,1.83-4,3.11-5.9,4.83-3.22,3-6.32,6.05-9.44,9.12a67,67,0,0,1-13.68,10.66C283.81,87,277,92.1,270.06,97.07c-2.73,2-5.81,3.41-8.65,5.21-3.53,2.22-7.44,3.89-10.76,6.28-4.44,3.2-9.36,5.54-13.86,8.6a62,62,0,0,1-10.89,5.4c-4.8,2.06-9.61,4.08-14.36,6.26-2.19,1-4.23,2.34-6.34,3.52-.39.22-.79.45-.72,1s.53.78,1,1a25.77,25.77,0,0,0,13.31,1.13,98.43,98.43,0,0,0,12.58-2.68,123.55,123.55,0,0,0,12.87-4.41c3.07-1.24,6.37-1.78,9.37-3.23a8.06,8.06,0,0,0,1-.42c.37-.25,1.15-.28.91-1-.17-.49-.76-.28-1.18-.25a22.66,22.66,0,0,1-4.87,0c-1.88-.28-3.24-1.15-3.71-2.91-.56-2.06.47-3.66,2.63-4.52,3.66-1.46,7.29-3,11-4.25,4.8-1.53,9.59-1.61,14.09,1.2.95.6,2.19.63,2.82,1.87.26.51,1.16.13,1.78.12,3.57-.09,6.78-1.53,10.1-2.58,5.77-1.81,11.41-4,17.41-5.07,2.52-.44,4.83.76,5.1,2.76a3.18,3.18,0,0,1-3.24,3.84,22.3,22.3,0,0,0-10.9,2.76,21.44,21.44,0,0,1-3.22,1c-.23.07-.56.17-.62.34-.14.39.26.54.52.66,1.48.67,3,1.32,4.45,2,3.35,1.46,4.64,4.3,5.06,7.68.12,1-.51,1.66-.92,2.49-1.81,3.66-5.47,4.75-8.59,6.49s-6.63,2-9.94,3-6.79.61-10.2.57c-2.88,0-5.13-1.49-7.26-3.17-1.78-1.42-2.13-4.47-.86-6.75,1.52-2.74,3.85-4.56,6.17-6.41a18.42,18.42,0,0,1,4.13-2c.53-.24.94-.19,1.05.57.23,1.57-1.33,4.58-2.93,5.5l0,0c-.63.86-1.24,1.72-1.88,2.58-1.48,2-1.05,3.37,1.35,3.62,5.42.57,10.71.22,15.75-2.24a40.92,40.92,0,0,0,5.89-3.21c1.57-1.12,1.67-2.52.08-3.59a19.2,19.2,0,0,0-2.68-1.35,60.38,60.38,0,0,1-9.75-5c-1.74-1.22-3.73-.05-5.54.5-6,1.86-10.76,6.29-16.58,8.59-2.45,1-4.8,2.14-7.31,3a90,90,0,0,0-9.81,3.58c-3.5,1.71-7.44,2.15-11.16,3.24a59.44,59.44,0,0,1-20.55,2.73,23.41,23.41,0,0,1-12.25-4.14,3.15,3.15,0,0,0-3.13-.47c-4.41,1.52-8.65,3.42-13.15,4.72-5.61,1.63-11.12,3.73-16.83,4.88a23,23,0,0,1-11.13-.8c-2.85-.85-4.66-2.47-5.27-5.38-.31-1.47-.94-1.86-2.51-1.32-6.49,2.25-13,4.54-19.57,6.41-5.18,1.46-10.24,3.42-15.52,4.38-4.61.83-9.37.86-13.86-1a3.35,3.35,0,0,0-3,.39,101.16,101.16,0,0,1-14.49,5.91A98.44,98.44,0,0,1,65.18,158a102.33,102.33,0,0,1-17.41,1.09,27.06,27.06,0,0,0-3.71.21c-8.2.81-16.12-.75-23.76-3.29a27.15,27.15,0,0,1-13-9.62c-1-1.39-2.43-2.51-3.42-4C.72,137.82.25,132.58,0,127.24c-.29-6.87,1.87-13,5-19a85.82,85.82,0,0,1,5.69-9.32,52.22,52.22,0,0,1,4.92-6c1.14-1.19,2.49-2.4,2.88-4.19v0c2.26-1.41,3.81-3.6,5.52-5.52C26,81,27.88,78.82,29.87,76.69c7.72-8.32,16.46-15.48,25.28-22.55A107.4,107.4,0,0,1,68.72,44.3a45.21,45.21,0,0,0,7.68-6.16,36.75,36.75,0,0,1,6.35-4.75c4.38-2.51,8.43-5.54,12.85-8,5.44-3,10.64-6.5,16.16-9.37a47,47,0,0,1,10-4.14h0a56.88,56.88,0,0,1,11.93-2.54C137.21,9,141,9.22,144,11.12c2.15,1.37,4.36,3.61,4.89,6.38,1.32,6.94,0,13.6-2.43,20.18-.92,2.5-1.9,5-2.76,7.54-.77,2.28-2,4.41-2.89,6.65s-2.22,4-3.28,6a73.1,73.1,0,0,1-4.42,6.47c-2.57,3.82-5.49,7.38-8,11.25-1.46,2.22-3.43,4.28-4.94,6.51-2.84,4.2-7,7.12-10,11.13-1.1,1.47-2.28,3.08-4.26,3.8a2.71,2.71,0,0,1-3-.76c-.7-.61-1.74-.73-1.38-2.42s.51-2.83,2.25-3.6c1.47-.65,2.38-2.15,3.4-3.41Zm-1.11,50.84a30.6,30.6,0,0,0,4.76-2.45c2.49-1.73,5.28-3,7.73-4.8,6-4.35,12.4-8.16,18-13,2.76-2.4,6-4.28,8.28-7.21h0c2.32-.93,3.64-3.1,5.6-4.48l.1-.1c3.54-3.44,7.17-6.79,11-9.95,4.3-3.59,7.9-7.91,11.88-11.84,4.27-4.23,8.22-8.74,12.06-13.36,2.55-3.07,5.38-5.91,7.61-9.24v0a1,1,0,0,0,.77-.77h0c3.66-3.74,6.93-7.83,10.39-11.75a1.11,1.11,0,0,0,.17-1.07l0,0c1.37-.31,1.89-1.53,2.63-2.5,1.41-1.82,2.57-3.9,4.24-5.44,2.3-2.11,3.24-4.93,4.69-7.49.15-.27-.12-.75.36-.94,2.25-.86,2.57-3.27,3.9-4.88a.9.9,0,0,0,.13-.85c-.25-.34-.58,0-.81.17-3.66,2.11-7.36,4.17-10.93,6.43-2.57,1.62-4.94,3.53-7.51,5.17a64.14,64.14,0,0,0-7.08,4.73c-1.71,1.44-3.48,2.82-5.22,4.23-4.25,3.42-8.52,6.83-12.75,10.27-2.89,2.34-5.85,4.58-8.68,7C162,68,156.38,71.79,151.22,76.18c-2.87,2.43-6.14,4.49-8.42,7.57-1.44,2-3.7,2.79-5.43,4.37-2.29,2.09-4.84,3.91-7.21,5.92a90.45,90.45,0,0,0-9.17,8.21l0,0c-1.94,1.68-3.51,3.74-5.37,5.45a95.75,95.75,0,0,0-13.17,14.69c-3.28,4.56-5.52,9.32-5.68,15a9.88,9.88,0,0,0,.08,2.43c.29,1.34.82,1.85,2.37,1.4,2.52-.73,4.28-2.77,6.72-3.56Zm94.85-14.07c0,3.4,0,3.4,3.19,2.07.17-.08.33-.19.49-.27,3-1.46,6-3.11,9.06-4.34,6.28-2.5,12.5-5.14,18.49-8.24,4.16-2.16,8-5,12.09-7.21,7.6-4.12,14.74-9,22.08-13.52,4.5-2.78,8.66-6.12,13.15-8.92,6.77-4.23,13.55-8.37,19.39-13.93,5.14-4.9,10.26-9.83,15.84-14.25,5.12-4.05,9.12-9.21,13.49-14,1.59-1.75,3-3.62,4.56-5.43A1.33,1.33,0,0,0,333,34.2c-.24-.45-.8-.19-1.21-.09-1.45.38-2.92.7-4.34,1.18-2.71.93-5.21,2.48-7.87,3.37-4.35,1.46-7.81,4.34-11.75,6.42a80.35,80.35,0,0,0-7.56,4c-2.19,1.49-4.9,1.79-7,3.43a20.75,20.75,0,0,1-4.39,2.52c-4.82,2.15-9.6,4.35-13.63,7.87-.6.53-1.27,1.27-2,1.34-3.6.36-6,3.18-9.11,4.43a85.77,85.77,0,0,0-7.72,3.89c-3.22,1.68-6.6,3.13-9,6a4.2,4.2,0,0,1-1,.8c-2.84,1.84-5.81,3.52-8.5,5.56-2.3,1.75-5.07,2.52-7.43,4.15-4,2.76-8.43,4.91-12,8.3-1.32,1.25-3.2,1.84-4.24,3.25-2.07,2.81-4.83,5-6.81,7.89a42.24,42.24,0,0,1-2.35,3.52A18,18,0,0,0,200.76,123.6Zm513-11.54c-4.22,3.42-8.83,6.31-13,9.75-2.55,2.08-5.46,3.72-8.16,5.62s-5.29,3.51-7,6.35c-.71,1.22-.64,2,.94,2.16.87.11,1.72.37,2.58.44a121.18,121.18,0,0,0,19.89-.07c5.19-.44,10.4-1.13,15.58-1.86,6-.86,12.14-1.52,18.09-2.92,4.91-1.15,9.9-2,14.74-3.47,2.27-.7,3.54-.08,4.94,1.89a3.37,3.37,0,0,1,.67,3.17c-.75,2.88.68,5.22,2.57,7.43,1.61,1.89,3.78,2.92,5.66,4.38a2,2,0,0,0,.64.39c3.15.8,6.27,1.79,9.46,2.35,8,1.39,16.12,1.83,24.22,2.43,3.24.23,6.5.07,9.75.27,6.62.41,13.27.41,19.89,1,4.18.35,8.39.28,12.57.57,6.68.47,13.4.59,20,1.29,11,1.17,22,1.1,33,2.2,7.22.73,14.49.83,21.72,1.49,4.21.38,8.45.63,12.65,1.36,3.24.56,6.62.35,9.9.87a141.78,141.78,0,0,0,15.09,1.93c.64,0,1.61,0,1.52,1s-1.1.86-1.79.72c-1.16-.25-2.32-.76-3.15.62a.4.4,0,0,1-.34.11c-3.29-1.49-6.51.81-9.78.19-.54-.11-1.08-.27-1.6-.4-3.2.34-6.37-.24-9.56-.2-4.72,0-9.38-.86-14.17-.49s-9.5-.32-14.25-.57c-6.1-.34-12.19-.75-18.29-1-4.66-.2-9.37-.09-14-.87a48.18,48.18,0,0,0-11.82-.08,69.14,69.14,0,0,1-10.68-.33c-7.3-.51-14.57-1.46-21.91-1.48a78.53,78.53,0,0,0-9.94.11c-4.35.54-8.55-1-12.84-1.08-5.58-.09-11.06-1.2-16.65-1.14-6.05.07-11.87-1.59-17.76-2.82-4.61-1-7.49-4.09-10.74-6.94a19,19,0,0,1-5.72-9.29c-.52-1.75-1.74-1.59-2.91-1.2-3.09,1.05-6.33,1.38-9.48,2.07-7.16,1.57-14.49,2.15-21.74,3.2-5.13.74-10.29,1.32-15.46,1.57a96.43,96.43,0,0,1-21.34-.84,8,8,0,0,1-6.16-4.15c-.34-.69-.68-1-1.44-.57a44.73,44.73,0,0,0-4.55,2.57,58.7,58.7,0,0,1-11.3,6.51c-2.91,1.29-5.88,2.47-8.77,3.79a19.42,19.42,0,0,1-4.67,1.39c-1.45.27-2.84.34-3.84-1.15-1.25-1.85-2.06-3.7-1-5.92a75.55,75.55,0,0,1,3.87-7.81c.6-.94,1.24-1.87,1.84-2.81.23-.37.5-.85.08-1.2s-.69.09-1,.28c-2,1.17-4,2.29-5.95,3.56-5.33,3.52-11.18,6.11-16.68,9.32-2.55,1.49-5.19,2.92-7.19,5.24a2.51,2.51,0,0,1-3.91-.46c-1.81-2.4-1.64-5-.61-7.61.73-1.83,1-3.83,2.29-5.45a1.34,1.34,0,0,0,0-1.6,1.54,1.54,0,0,0-1.94-.07c-2.62,1.47-5.64,2.15-8.15,3.75a58.62,58.62,0,0,1-8.29,4.11c-2.69,1.15-5.18,2.76-8.16,3.25a2.81,2.81,0,0,1-3-1.17,6.36,6.36,0,0,1-1.34-5.29c.15-.8.22-1.61.37-2.41s-.14-1-.91-.77a82,82,0,0,0-13.75,4.92c-2.51,1.22-5,2.85-8.09,2.74-2.91-.1-4.4-1.18-4.65-4-.13-1.47-.63-1.38-1.62-.92a17.74,17.74,0,0,0-2.89,1.35c-3.16,2.28-7,2.42-10.54,3a13.66,13.66,0,0,1-6.81-.9c-2.4-.91-3.47-3.44-3.71-5.84a11.65,11.65,0,0,1,3.67-9.9s.12-.08.13-.13c.36-2.65,3.11-3.39,4.34-5.44,1.1-1.84,3.44-2.71,5.4-3.54,3.83-1.63,7.8-2.93,11.76-4.23,2.15-.71,4.44-.27,6.66-.4,1.25-.08,2.51-.08,3.76-.14.44,0,.92-.15,1.16.36a3.75,3.75,0,0,0,1.69,1.44,9.73,9.73,0,0,1,4.15,6,3.9,3.9,0,0,0,.52,1.18c1.8,2.64,1.5,4.4-1.09,6.35a25.33,25.33,0,0,0-5.31,5.53c-.18.24-.52.45-.34.8a.75.75,0,0,0,1,.32c3.06-1.36,6.67-1.24,9.39-3.44.92-.75,1.69.27,2.65-.09,2-.76,4.22-1.1,6.29-1.79a16.93,16.93,0,0,1,6.11-.67c2.14.72,3.16,2.81,1.79,5.15-.29.49-.82,1-.37,1.5s1.26.14,1.73-.12c4.22-2.35,8.83-3.8,13.21-5.77a23,23,0,0,1,3.94-1.18,22.13,22.13,0,0,0,5-1.7,3.92,3.92,0,0,1,5.63,3.53,14.07,14.07,0,0,1-.77,5c-.35,1-.2,1.42,1.15,1.18,2-.36,3.44-1.75,5.19-2.55,4.53-2.08,9-4.41,13.37-6.73a118.14,118.14,0,0,1,11.6-5.22,2.45,2.45,0,0,0,1-.51,174,174,0,0,0,11.41-13.63,72.17,72.17,0,0,0,7.76-7.88c5.72-6.31,12.07-11.94,18.34-17.67,2.73-2.5,5.31-5.15,8.14-7.51,3.7-3.08,7.09-6.49,10.88-9.49,2.63-2.07,5.12-4.4,7.72-6.53q6.65-5.43,13.64-10.42c3.3-2.34,6.64-4.71,10.06-6.77,3.66-2.21,7.07-4.8,10.77-6.95,2.94-1.7,5.66-3.86,8.78-5.26,4.79-2.17,9.63-4.13,15.11-3.85a6.23,6.23,0,0,1,5.32,8.43c-1.77,4.62-4.47,8.64-6.93,12.83-1,1.63-2.14,3.06-3.2,4.61a19.71,19.71,0,0,1-2.21,3.29c-2.74,2.72-5.67,5.26-8.59,7.76-5.85,5-12,9.74-18.21,14.23-12.59,9-25.82,17.09-39.22,24.83-6.88,4-13.79,7.9-20.85,11.43-3.45,1.8-7.09,3.32-10.32,5.56a40.89,40.89,0,0,1-8.26,4,15.16,15.16,0,0,0-6.86,5.89c-2.95,4.26-5.84,8.57-8.72,12.88a7.54,7.54,0,0,0-1.23,2.72c1.51.59,2.77-.47,3.85-1,3.29-1.69,6.78-2.9,9.95-5a77.37,77.37,0,0,1,8.89-5.32c4.22-2.07,7.42-5.33,10.7-8.63a127.27,127.27,0,0,1,13.65-11.71c4.75-3.57,9.94-6.44,14.92-9.64,4.72-3,9.33-6.26,14.21-9,4.32-2.44,8-5.83,12.26-8.26,3.41-1.92,6.63-4.18,10-6.16,1.89-1.1,3.87-2,5.68-3.27a4.84,4.84,0,0,1,5.47,0,2.35,2.35,0,0,1,1,2.79c-.19,1-.17,2.12-1.54,2.73-3.19,1.4-6.67,2.57-9.28,4.74s-5.47,3.33-8.08,5.2c-3.31,2.36-6.65,4.77-10.15,6.91s-6.76,4.83-10.21,7.14C719.36,108.13,716.45,110,713.74,112.06Zm-160.4,23.69c1.22-.63,2.43-1.27,3.67-1.87,1-.46,1.16-.89.35-1.79-1.19-1.31-.89-2.28.71-2.91a7,7,0,0,0,2.49-1.63c1.75-1.78,3.53-3.54,5.3-5.31.38-.39,1.08-.7.92-1.3s-.94-.51-1.45-.72a2.29,2.29,0,0,0-1.1-.15c-3.55.54-7.17.87-10.35,2.76a4.08,4.08,0,0,1-1.34.57,13.09,13.09,0,0,0-5.33,2.49,25.78,25.78,0,0,0-7.87,9.76c-1.09,2.49-.56,3.32,2.12,3.24,4.17-.13,8-1.65,11.81-3.07ZM722.09,90l.23-.14Q733,83,743.41,75.74a64.84,64.84,0,0,0,9.53-7.41c2.93-3,5.94-5.86,8.9-8.8,1.65-1.65,3.33-3.29,4.9-5a73,73,0,0,0,11.79-17.81,8.09,8.09,0,0,0,1-2.23c.23-1.41-.2-2.11-1.67-1.82A39.76,39.76,0,0,0,772,34c-7.34,2.66-13.62,7.27-20.18,11.36-2.69,1.67-5.32,3.46-7.91,5.3q-6.54,4.66-13,9.49c-1.89,1.42-3.63,3.06-5.48,4.55-3.28,2.64-6.63,5.22-9.91,7.88-3,2.48-5.63,5.49-8.58,8.08-4.61,4-8.86,8.46-13.27,12.7s-8.79,8.76-13.14,13.18c-2.28,2.32-4.51,4.69-6.74,7.07-.27.29-.76.62-.54,1.06.07.13.79-.06,1.2-.14a1.45,1.45,0,0,0,.7-.22c2.26-1.86,5.2-2.36,7.64-3.76,1.49-.86,3.29-1,4.74-1.91,1.62-1,3.3-1.88,5-2.76,3.73-1.9,7.46-3.81,11.17-5.77Q713,95.21,722.09,90Zm-15.61,9.68.12-.09-.12-.05ZM479.26,96.84c5.39-6.58,10.84-13.08,16.8-19.17,3.87-4,7.28-8.36,11-12.46,1.89-2.07,4.15-3.8,6.06-5.86,2.3-2.47,4.41-5.12,6.61-7.68,5.51-6.41,11.13-12.72,16.49-19.25s10.87-12.92,16.53-19.18a59.1,59.1,0,0,1,10.9-9.93,2.72,2.72,0,0,1,3.46-.11,2.78,2.78,0,0,1,1,3.66c-.83,1.76-1.55,3.55-2.29,5.35a4.39,4.39,0,0,1-2.68,2.71c-1.29.44-2.06,1.59-3.08,2.39-2.48,1.94-4.61,4.31-7.42,5.85-1.46.8-2.25,2.35-3.28,3.6-7.74,9.4-15.62,18.69-23.88,27.63q-7,7.55-14.16,15c-3.94,4.08-7.66,8.42-11.44,12.68-4.4,5-8.74,10-13.19,14.9-2.51,2.78-5.19,5.41-7.76,8.13-.48.51-1.35,1-.92,1.84s1.26.29,1.92.27c5.32-.18,10.61-.93,15.9-1.17,7.6-.34,14.95-2.4,22.52-2.72,2.86-.13,4.14-2.49,5.69-4.22,3.29-3.65,6.21-7.62,10.38-10.43,1.16-.78,1.85-2.18,3-3.1,1.94-1.57,14.45-13.87,18.52-18.27,1-1.12,4.71-4,5.64-4.78,3.24-2.63,6.11-5.68,9.78-7.86,2-1.17,3.13-3.51,5.17-4.83,4.25-2.76,7.59-6.64,11.78-9.52,4.62-3.18,8.85-6.93,13.39-10.24a245.34,245.34,0,0,1,20.59-13.41c6-3.52,12.41-6.25,18.43-9.67a67.79,67.79,0,0,1,11.92-5.3A27.11,27.11,0,0,1,666,.34c3.69.67,6.74,3.08,9.33,5.85a4.9,4.9,0,0,1,1.06,3.17c.11,2.16.26,4.33-.91,6.45-2,3.64-3.57,7.54-5.58,11.18-1.36,2.48-3.19,4.7-4.79,7-2.4,3.52-5.37,6.56-8,9.87-2.31,2.89-5.35,5.1-7.67,7.94-2,2.51-4.88,4.17-6.78,6.83a14.62,14.62,0,0,1-4,3.36,18,18,0,0,0-3.82,3.3A6,6,0,0,1,632,67.19a3.59,3.59,0,0,0-1.17.55c-3.27,2.55-6.94,4.54-10.23,7.06-4.14,3.18-8.87,5.37-13.51,7.48-4.81,2.18-9.25,5.24-14.65,6.3-2.83.55-5.43,2.41-8.3,3.24-5.81,1.68-11.07,4.89-16.91,6.28-3.19.76-6.26,2-9.56,2.46a79,79,0,0,0-11.43,2.78,49,49,0,0,1-5.42,1.09c-4.94,1-9.83,2.2-14.83,2.85a3.78,3.78,0,0,0-2.43,1.65c-5.21,6.63-10.47,13.23-15.07,20.32-1.95,3-4.12,5.83-5,9.47-.69,2.94.13,4.56,3.19,4.45,4-.16,8,0,12-.84a45.83,45.83,0,0,1,5.72-.71,3.41,3.41,0,0,0,1.2-.35c1.4-.63,2.77-1.56,4.44-.76a1.21,1.21,0,0,0,.89-.15c.48-.22,1-.86,1.38,0s.54,1.58-.37,2.18c-1.88,1.26-4.12,1.38-6.23,1.85a11.54,11.54,0,0,0-2.7.7,11.84,11.84,0,0,1-5.06,1c-3.11.06-6,1.47-9.16,1.37-3.29-.1-6.57,0-8.93-3.21a10.61,10.61,0,0,1-1.18-10.2A89.26,89.26,0,0,1,506.93,121c2.47-3.44,5.24-6.67,7.5-10.26.23-.37.86-.81.39-1.28-.2-.21-.82-.07-1.24,0-8.55,1.26-17.14,2-25.76,2.64-5.06.34-10.11.77-15.18.85a4.1,4.1,0,0,0-3,1.45c-5.17,5.41-10.33,10.83-15.54,16.2-3.61,3.73-7.22,7.47-11,11.06-2,1.95-4.6,3.38-6.47,5.45-4.41,4.88-10,8.27-15.2,12a22.18,22.18,0,0,1-11.91,4.48,8.67,8.67,0,0,1-7.26-4.49c-.48-1.09-.92-2.19-1.38-3.29a3.65,3.65,0,0,1-.08-2.93c.17-.43.22-1,.92-1a1.16,1.16,0,0,1,1.11.88c.53,1.7,1.93,2.9,2.54,4.59a2.58,2.58,0,0,0,3,1.5,19.52,19.52,0,0,0,7.9-2.54c5.55-3.23,10.33-7.4,15.19-11.53s9.71-8.6,14.38-13.1a124.62,124.62,0,0,0,9.17-9.77,24.44,24.44,0,0,1,4.83-4.42,5.07,5.07,0,0,0,1.33-1.28,11.88,11.88,0,0,1,1.26-1.39c.36-.35.25-1.32-.48-1.31q-6.92.06-13.84.1c-4.63,0-9.25-.13-13.87,0-6,.18-12.06-.41-18,.32-5,.6-10,1.06-14.43,4-1.74,1.17-1.92,2.78-2.44,4.38a10.16,10.16,0,0,0-.32,2.22c-.05.5,0,1.11-.74,1-.58-.07-1.24-.45-1.11-1.06.36-1.7-.87-2.67-1.59-3.85a4.38,4.38,0,0,1,.58-5.46c2.68-3.09,6.29-4.34,10.05-5.34,4.65-1.23,9.42-1.33,14.16-1.51,6.2-.25,12.41-.55,18.61-.39,5.49.15,11,.06,16.46.1,3.68,0,7.38-.21,11.07-.2,2.5,0,3.77-1.89,5.13-3.44S478.36,97.93,479.26,96.84Zm191.87-86.1a4.6,4.6,0,0,0-2.75-3.49A13.65,13.65,0,0,0,660.19,6,51.76,51.76,0,0,0,652,8.15c-6.74,2.2-12.39,6.58-18.89,9.31a66.9,66.9,0,0,0-9.87,5.66c-5.51,3.52-10.94,7.18-16.38,10.81-5.07,3.38-9.65,7.41-14.57,11-1.71,1.25-3.15,2.87-4.89,4.08-5.43,3.79-10.58,8-15.64,12.18-5.94,5-11.62,10.23-17.26,15.52-4.25,4-8.25,8.22-12.38,12.33-3.36,3.34-6.74,6.65-9.8,10.28-.31.37-.87.74-.56,1.25s.8.16,1.23.1c1.18-.17,2.38-.24,3.53-.52,10.2-2.48,20.53-4.44,30.5-7.85,4.9-1.67,9.83-3.23,14.7-5q6.59-2.38,13-5.34c4.64-2.15,9.39-4.1,13.93-6.44A122,122,0,0,0,628.7,63.13a108.74,108.74,0,0,0,10-8.42c4.54-4.56,9.17-9,13.67-13.63a121.08,121.08,0,0,0,10.48-12.93,77.35,77.35,0,0,0,4.85-8.22A26.24,26.24,0,0,0,671.13,10.74Zm-78.64,31.8s.11,0,.13-.06,0-.08,0-.13-.11,0-.13.06S592.47,42.5,592.49,42.54Zm-7.55,6,.12,0,0-.11ZM564.84,61.2l.12-.08-.11,0ZM488,12.08c-2.39-5.34-6.84-7.24-11.95-8.09-4.63-.78-9.07.74-13.38,2.26a15,15,0,0,0-4.76,2.11c-3.13,2.59-6.83,4.31-10,6.84-2.39,1.89-4.88,3.7-7.16,5.71-3.85,3.38-7.67,6.8-11.21,10.52s-7.43,7.22-11,11c-2.67,2.88-5.16,5.93-7.92,8.73-1.88,1.91-3.54,4-5.38,6-2.07,2.18-3.76,4.68-5.79,6.86-1.75,1.88-3.4,3.85-5,5.85-3.38,4.26-7,8.35-10,12.91a2,2,0,0,1-2.34,1.13,48.86,48.86,0,0,1-5.75-1.87A14.17,14.17,0,0,1,372.19,80,3.43,3.43,0,0,1,370,77.16c0-.12,0-.24,0-.37a4.07,4.07,0,0,1,.36-2.31.43.43,0,0,1,0-.22,4.64,4.64,0,0,1,1.48-1.88c1.05-.76,2.08-1.59,1.27-3a2.5,2.5,0,0,0-.59-.7,2.35,2.35,0,0,0-.69-.13c-3.34-.06-4.8,3.65-5.55,6.31a8.33,8.33,0,0,0,1.17,7c2.27,3.27,5.74,4.67,9.15,6.19.56.25,1.21.3,1.79.54.84.33,1.17.79.48,1.69-5.23,6.84-10.4,13.72-15.65,20.55-3.36,4.38-7,8.57-10.2,13.08s-6,9.29-8.95,14a3.09,3.09,0,0,0,.8,4.05c1.29.77,2.31,2.69,4.36,1.13,4.17-3.15,8.23-6.43,12.12-9.91,2.43-2.16,4.62-4.61,7.18-6.57a132.22,132.22,0,0,0,11-9.76c4.3-4.1,7.8-8.94,11.88-13.23,2.84-3,5.73-5.93,8.28-9.16,1.55-2,3.14-3.33,6-3.46,5.48-.24,10.9-1.4,18.87-1.39A47.57,47.57,0,0,0,439,86.29c2.09-.8,4.34-.7,6.3-1.6,2.95-1.36,6.12-2.29,8.82-4.16,3.17-2.19,6.89-3.42,9.77-6.18a102.42,102.42,0,0,0,8.13-8,1.53,1.53,0,0,1,.59-.42,7.8,7.8,0,0,0,3.53-3.16,73.41,73.41,0,0,0,9.56-19.41A106.57,106.57,0,0,0,489.63,26,24.51,24.51,0,0,0,488,12.08ZM392.91,92.44c-2.63,3.18-5.56,6.1-8.12,9.3-3.35,4.19-7.35,7.69-11.05,11.5a71.08,71.08,0,0,1-8.22,7.07c-.29.22-.57.64-1,.41s-.35-.81-.13-1.18a17,17,0,0,1,2-3.14c3.72-3.93,6.45-8.64,10-12.73a64.85,64.85,0,0,0,5.41-7.58c1.26-2,2.81-3.75,4.2-5.63.54-.74,1.33-.56,2.33-.7,1.15.25,2.56.53,4,.86C393.56,90.89,393.75,91.43,392.91,92.44ZM484,21a73.21,73.21,0,0,1-2.87,16.12,84.71,84.71,0,0,1-3.28,9.76A43.49,43.49,0,0,1,472,57.45a68.39,68.39,0,0,1-11.61,11.64A63.24,63.24,0,0,1,443,78.57a95.84,95.84,0,0,1-16.68,4.86,62.73,62.73,0,0,1-9,.94c-2.78.08-5.44,1-8.22.86-.53,0-1.26.23-1.52-.4s.27-1,.6-1.49c2.4-3.28,4.79-6.56,7.22-9.82.33-.44,8.82-14.81,10.28-16.56a4,4,0,0,0-.06-4.8c-.93-1.25-2.46-1.5-4.08-1.31a2.62,2.62,0,0,0-2.21,2c-3.83,10.22-8.72,16.08-9.66,17.78-.36.64-3.62,4.76-4.1,5.43a95.89,95.89,0,0,1-6.53,8.37c-.47.51-.93,1.08-1.69,1.1a18.57,18.57,0,0,1-6.11-.69c-.72-.23-.86-.33-.45-1.25,1.52-3.34,4.28-5.69,6.5-8.44,2.89-3.58,5.83-7.13,8.76-10.67,2.26-2.72,9.11-11,10.23-12.48,1.66-2.13,3.64-3.92,5.44-5.9,6.26-6.91,13.59-12.73,20.16-19.33,1.35-1.35,3.27-2,4.78-3.23,3.29-2.73,6.45-5.58,10.51-7.41,4.51-2.05,8.87-4.37,13.75-5.48a13.06,13.06,0,0,1,8.47.5,6,6,0,0,1,3.85,4.45C483.59,17.4,484.18,19.14,484,21Zm-244,103.65s.06-.09.05-.11-.08-.05-.12-.07l-.05.12ZM624.1,172.27l.11,0v-.12Zm-476-39.86,0,0Zm-56.49-1.89,0,0Zm207.13-87,0,0Zm3-1.53,0,0ZM208,25.76h-.12l0,.11ZM121.72,11.89h0ZM129.63,59v0ZM18.53,88.72v0Zm202.59-1.15.33.05.14-.09-.45.06ZM144.31,74.41l0,0ZM253.9,68l0,0Zm341.2,61.74v0ZM287.8,49.18l0,0ZM170.68,53.32v0Zm543.06,58.74Zm-44.82-3.38v0ZM273.86,57.08h0Zm-168,80.59Zm98.28-90,0,0ZM121,102.25l0,0Zm72.66-41.78h0Zm-.75.76v0Zm-48.21,49h0Zm5.7-4.58h-.12l0,.11Zm403,30.15-.09,0,0,.09Z"/></svg>