<svg id="3b26e498-3b8b-4ac8-a553-4fc55db594cd" data-name="Layer 1" xmlns="http://www.w3.org/2000/svg" viewBox="0 0 132.15 89.12">
  <title>sig-brit</title>
  <g id="c82aa7b3-fac0-4e2d-a774-2f1c1d829c31" data-name="oCOrAR">
    <g>
      <path d="M109.21,7.35a12,12,0,0,1,.63-1.77c.32-.49.68-.94,1-1.41.06-.08.11-.22.22-.13a.3.3,0,0,1,.08.28A5,5,0,0,1,111,5.5c-.36.88-.5,1.83-.8,2.71-.37,1.1-.64,2.22-1.07,3.3s-.73,2.15-1.18,3.18c-.54,1.24-.86,2.55-1.48,3.77A30.15,30.15,0,0,0,105,22.19c-.52,1.44-1.36,2.74-1.82,4.2a14.42,14.42,0,0,1-1.06,2.07,13.13,13.13,0,0,0-.61,1.66,6.77,6.77,0,0,1-.57,1.26c-.05.08-.16.2-.05.27s.2,0,.28-.06c.73-.45,1.47-.89,2.18-1.38a35.78,35.78,0,0,1,4.77-2.55c1.21-.59,2.52-.93,3.72-1.51a26.23,26.23,0,0,1,5.49-1.95c2.06-.46,4-1.17,6.08-1.61,1.29-.27,2.5-.84,3.78-1.16a31.48,31.48,0,0,0,3.71-.94c.39-.15.42.43.77.39h0A16.8,16.8,0,0,1,127,22.54c-.86.16-1.59.6-2.43.81-2,.5-3.89,1.23-5.89,1.71a40.91,40.91,0,0,0-4.92,1.7c-1.77.66-3.48,1.46-5.26,2.1-.82.3-1.55.84-2.36,1.17A18,18,0,0,0,104,31.18a27.67,27.67,0,0,0-2.82,1.69c-.32.24-.74.27-1,.6a23.46,23.46,0,0,0-1.2,2c-.42.61-.38,1.4-.94,1.93-.28.26-.15.73-.35,1.07,0,0,0,.1.07.15a.72.72,0,0,0,.21-.12,2.3,2.3,0,0,1,1.27-.61c.1,0,.22-.07.27.07a.22.22,0,0,1,0,.17A22.17,22.17,0,0,1,97.8,40,10.56,10.56,0,0,0,95,43.83c-.76,1.63-1.51,3.26-2.22,4.9-.13.31-.26.69-.65.81l0,0,0-.06c.4.43-.07.8-.2,1.07-.41.86-.66,1.79-1.15,2.61a43.64,43.64,0,0,0-2.51,5.2c-.76,1.74-1.91,3.27-2.55,5.08a23.4,23.4,0,0,1-1.85,3.35c-.38.69-.72,1.41-1.12,2.1a38.4,38.4,0,0,1-2.15,3.37c-.8,1.13-1.46,2.37-2.19,3.55a9.86,9.86,0,0,0-.91,1.57l0,0c-.4.6-.76,1.23-1.21,1.78a13.49,13.49,0,0,1-2.5,2.94c-.69.48-.82,1.41-1.4,2A25.24,25.24,0,0,1,69.35,87a4.55,4.55,0,0,0-.58.49,6.44,6.44,0,0,1-3,1.55,2.89,2.89,0,0,1-3.05-2,11.51,11.51,0,0,1-.27-3.65c0-.26.86-.86,1.07-.75a.53.53,0,0,1,.22.7c-.28.52,0,.92.21,1.3a2.73,2.73,0,0,1,.21,2A1.24,1.24,0,0,0,65.27,88c1,.16,1.55-.58,2.23-1,.84-.58,1.63-1.22,2.43-1.85.17-.14.25-.39.4-.56,1.16-1.39,2.27-2.83,3.54-4.12.51-.53.67-1.21,1.17-1.71a6.29,6.29,0,0,0,1.38-1.62,33.1,33.1,0,0,1,2-3.35c.6-1,1.2-2,1.89-3a13.82,13.82,0,0,0,1.27-2.15,16.52,16.52,0,0,1,1.56-2.75c.62-.81.75-1.81,1.34-2.62a27.58,27.58,0,0,0,1.64-3c.34-.59.65-1.17,1-1.73A11.94,11.94,0,0,0,87.71,57a23.78,23.78,0,0,1,1.2-2.14,7.82,7.82,0,0,0,.37-1.06,10.59,10.59,0,0,0,1-2.05c.1-.52.53-.87.72-1.39a26.42,26.42,0,0,1,1.2-3.17,20,20,0,0,0,1.15-2.48,2,2,0,0,1,.33-.45c.08-.11.32-.14.16-.34a.28.28,0,0,0-.4,0,2.73,2.73,0,0,1-2.08.4,1.94,1.94,0,0,1-1.59-1.35c-.11-.31-.19-.64-.28-1-.05-.17-.13-.34-.32-.33s-.2.18-.25.33c-.23.72-.47,1.44-.71,2.16a16.47,16.47,0,0,0-1.07,3,.8.8,0,0,1-.38.56.5.5,0,0,1-.71-.49,9.7,9.7,0,0,1,.43-2.61c0-.14.21-.34,0-.44s-.32.05-.44.18c-1.42,1.57-3.06,2.9-4.55,4.39-1.18,1.19-2.26,2.48-3.38,3.72s-2,2.68-3.08,4c-.71.85-1.23,1.87-1.88,2.79a22.53,22.53,0,0,1-2,3.11,7,7,0,0,0-.88,1.54,44.09,44.09,0,0,0-3.5,7.65,14.64,14.64,0,0,1-.86,2c-.26.5-.28,1.15-.52,1.71-.47,1.11-.53,2.36-1,3.43a22.06,22.06,0,0,1-1.25,3.1c-.1.16-.21.43-.46.34s-.18-.35-.12-.51c.44-1.25.48-2.59.83-3.87.52-1.91,1.17-3.78,1.61-5.72a8.69,8.69,0,0,1,1.13-2.31,4.8,4.8,0,0,0,.44-1.36,4.84,4.84,0,0,1,1-2,1.47,1.47,0,0,0,.24-.71c.17-.71.78-1.12,1.07-1.77a19.31,19.31,0,0,1,1.26-2.59c.62-1,1.31-1.9,1.94-2.87.8-1.22,1.64-2.42,2.47-3.63.32-.46.77-.84,1.08-1.29.77-1.11,1.83-2,2-3.56a16.07,16.07,0,0,1,.66-2.49c.28-1.09.55-2.18.92-3.25.07-.2,0-.49.35-.48,0,0,.12-.1.11-.13-.32-.83.3-1.43.48-2.14.25-1,1.3-1.32,1.64-2.2h0c-.07.33-.15.66-.2,1s-.06.52-.48.48-.37.22-.21.47.2.17.16.32-.24.34.06.37.23-.2.3-.35c.6-1.27,1.17-2.54,1.75-3.82A12.28,12.28,0,0,1,84,35.85c.1-.16.3-.44,0-.51a.58.58,0,0,0-.72.18,9.12,9.12,0,0,0-.63,1.72c-.09.24-.15.48-.24.72a.83.83,0,0,1-.12.21c-.65-.33-.69.32-1,.59-.09.09-.2.2-.33.1s0-.18,0-.28a3.29,3.29,0,0,1,.74-1.45A1.64,1.64,0,0,0,82.2,36c0-.24.22-.58-.11-.66a.92.92,0,0,0-1,.3c-1,1.52-1.87,3.06-2.87,4.55a11.73,11.73,0,0,1-1.44,1.56.26.26,0,0,1-.39,0c-.12-.12,0-.21.1-.32.34-.8.93-1.48,1.31-2.26a29.46,29.46,0,0,1,1.51-2.61c.14-.23.33-.43.49-.65a.68.68,0,0,0,.11-.53c-.07-.22-.34-.14-.51-.12-.83.11-1.67.2-2.48.38a11.64,11.64,0,0,0-5.51,2.61c-1,.94-2.06,1.92-3,2.93a7.61,7.61,0,0,0-1.82,2.31A4.58,4.58,0,0,0,66.71,47c.13.32,1.71.7,2.1.6a12.3,12.3,0,0,0,4-2.19,11.4,11.4,0,0,0,1.93-2c.21-.26.53-.4.68-.72.08-.17.22-.13.24.05.09.6.36.36.63.14a.48.48,0,0,1,.21-.1c.1.12,0,.19-.09.25a36,36,0,0,1-3.62,3.69c-1.42,1-2.82,2.12-4.7,2.22a3.25,3.25,0,0,1-2.76-2.09,9.89,9.89,0,0,1-.29-1.31c-.08-.59-.33-.29-.51-.14a6,6,0,0,0-.68.74,29.12,29.12,0,0,0-2.76,4.1A7.83,7.83,0,0,1,59.53,52c-.45.42-.94.15-1.08-.46a7.88,7.88,0,0,1,.3-3.55c.34-1.58.63-3.17,1-4.74a25.83,25.83,0,0,1,1.33-4.39.91.91,0,0,0,.07-.43c0-.23.19-.56,0-.64s-.09.33-.22.49-.48.48-.84.19h0c.21-.15.39-.3.35-.61a.38.38,0,0,1,.16-.45c.73-.3.82-1,1.18-1.61s.27-1.45.57-2c.49-.94.7-2,1.14-2.91.25-.52.32-1.12.62-1.63.08-.13.15-.34,0-.47s-.28,0-.39.1a7.17,7.17,0,0,1-2.07.67A27.45,27.45,0,0,0,55.89,32a1.53,1.53,0,0,1-.32.13c-1.56.42-2.88,1-3.49,2.8a30.79,30.79,0,0,1-1.42,3.69,25.25,25.25,0,0,0-.95,3.1c-.4,1.25-.39,2.53-.7,3.77-.07.26-.27.69,0,.79s.37-.39.49-.65c.61-1.27,1.16-2.57,1.83-3.8.21-.38.22-1,.91-1.08.17,0,.15-.35.06-.5-.18-.31,0-.46.21-.6l0,0,0,0a5,5,0,0,1,1-2.51c.06-.08.17-.16.27-.09a.36.36,0,0,1,.1.46c-.5,1.41-1.12,2.77-1.73,4.13-.86,1.93-1.93,3.74-2.86,5.63a4.58,4.58,0,0,0-.6,2,4.82,4.82,0,0,0,.49,1.79.86.86,0,0,0,1.28.27c.89-.74,1.8-1.47,2.66-2.25a4.7,4.7,0,0,0,.55-.9,1.09,1.09,0,0,1,.36-.35c.52-.26,1-.5,1-1.24,0-.42.62-.58.85-1s.74-1,1.07-1.56.6-.27.87-.11,0,.42-.11.57c-1.18,1.5-2.25,3.07-3.4,4.59-.68.91-1.52,1.67-2.24,2.53a2.91,2.91,0,0,1-2.39,1.1,1.67,1.67,0,0,1-1.41-.86c-.12-.22-.25-.51-.49-.5s-.32.3-.45.49c0,0,0,.07,0,.11-.11.27-.14.75-.42.69s-.41-.51-.55-.79.18-.54.42-.69.46-.1.19-.47c-.1-.14.18-.57.3-.86a3.65,3.65,0,0,0,.25-1.54,11.74,11.74,0,0,1,.5-3.67c.28-.94.23-1.93.46-2.86a24.68,24.68,0,0,1,1.35-4,20,20,0,0,0,1.23-3.15c.06-.24,0-.39-.27-.27a3.24,3.24,0,0,0-.64.22,36.4,36.4,0,0,1-3.67,2c-.29.13-.83.38-.24.87.17.13,0,.31-.08.45a16.94,16.94,0,0,1-1,1.92,1.39,1.39,0,0,0-.2,1,.56.56,0,0,1-.36.61c-.31.13-.42-.23-.64-.32s0-.29.11-.43c.44-.89.78-1.82,1.3-2.68.1-.17.18-.42-.13-.5s-.5.12-.47-.23a1,1,0,0,1,.43-.86c.65-.4,1.26-.84,1.91-1.23,1.18-.7,2.38-1.39,3.58-2.07a2.72,2.72,0,0,1,.59-.19s0,0,0,0h0A2.45,2.45,0,0,0,52.62,31a8,8,0,0,1,.56-1.3c.64-1.35,1.4-2.65,2.08-4,.57-1.11,1.1-2.24,1.66-3.36a30.15,30.15,0,0,1,2.36-4.09A6.19,6.19,0,0,0,59.7,17c.07-.18.21-.43.46-.32s.11.35.06.51a5.55,5.55,0,0,1-.44,1.24,9.91,9.91,0,0,0-1,2.23,8.3,8.3,0,0,1-1,1.88,15.75,15.75,0,0,0-1.21,2.84h0c-.59,1-.9,2.13-1.59,3.09a8.58,8.58,0,0,0-1,2c-.1.28-.67.51-.29.84s.6-.23.91-.35.69-.26,1-.41a.54.54,0,0,0,.25-.19c.22-.38.4-.82,1-.44.05,0,.21,0,.29-.07,1.36-.89,3-1.07,4.47-1.55,1.08-.35,2.06-.94,3.1-1.37.4-.16.32-.66.43-1a2.5,2.5,0,0,1,.45-1,.58.58,0,0,0,.17-.39,8.62,8.62,0,0,1,.88-3.06c.58-1.51,1-3.1,1.6-4.58.72-1.68,1.14-3.45,1.71-5.17.06-.17.06-.41.32-.41a.25.25,0,0,1,.25.17c.05.2.15.46,0,.6-.51.39-.78.82-.46,1.45-.51.27,0,.73-.19,1.08-.1.16.16.09.26.13h0c-.08.28-.09.61-.45.69a.18.18,0,0,0-.13.29,1,1,0,0,1-.09,1,20,20,0,0,1-.73,2.34c-.64,1.2-.61,2.59-1.32,3.74a1,1,0,0,0-.12.36c-.05,1-.67,1.77-.85,2.71,0,.14-.14.29,0,.41s.26,0,.4,0a8,8,0,0,1,2.59-.71,5.63,5.63,0,0,0,1.69-.44c.89-.43,1.88-.58,2.79-.92a23.7,23.7,0,0,1,2.6-.81c1.31-.33,2.59-.82,3.9-1.12A25,25,0,0,1,84,21.46c.54,0,.86-.42,1.36-.47a2.07,2.07,0,0,1,.86,0c.1,0,.21.1.16.23a.17.17,0,0,1-.26.07c-.38-.28-.49,0-.73.25-.38.42-1,.39-1.53.63s-1.13.38-1.69.62-1.08.27-1.62.5a21.83,21.83,0,0,1-3.29,1.08c-2.33.58-4.56,1.47-6.86,2.17a9.14,9.14,0,0,1-1.53.35c-1,.1-1.81.79-2.78,1-.21,0-.21.25-.28.39-.48,1-.71,2-1.11,3-.72,1.73-.95,3.61-1.81,5.29-.4.79-.44,1.74-.78,2.59-.72,1.81-1,3.75-1.58,5.6-.23.72-.16,1.48-.39,2.22a31,31,0,0,1-.78,3.23c-.08.19-.18.48,0,.58s.34-.22.4-.37c.89-2,2.44-3.46,3.63-5.22a3.42,3.42,0,0,1,.75-.66c.06-.05.13-.11.22-.05a1.24,1.24,0,0,1-.14.18c-.07.07-.13.13-.06.22s.19,0,.27,0a.66.66,0,0,0,.29-.47c0-.09,0-.2,0-.25.91-1.13.9-2.68,1.87-3.83a9.43,9.43,0,0,0,1.29-2.19,1.44,1.44,0,0,1,1.4-1c.12,0,.24-.13.15-.18-.67-.35,0-.63.11-.75.66-.58,1.15-1.31,1.83-1.86a9,9,0,0,1,1.49-1.13,5.46,5.46,0,0,0,.87-.72A7.39,7.39,0,0,1,77.48,31c.8-.11,1.58.09,2.38,0a1,1,0,0,1,1.18.87c0,.41,1.18.72,1.57.46A1.58,1.58,0,0,0,83,32c.21-.23.42-.56.76-.29a.91.91,0,0,1,.3,1c-.07.26-.1.54-.16.8-.11.48.22.81.46,1.13s.39-.05.55-.18.37-.21.42-.45l0,0c.18.33-.23.45-.27.72,0,.43-.58.74-.36,1.26-.63.28-.39,1-.64,1.42a20,20,0,0,0-1.33,3.22c-.21.61-.56,1.15-.71,1.78A17.87,17.87,0,0,1,81.28,45c-.38,1-.9,1.9-1.3,2.88-.06.15-.32.33-.11.48s.25-.16.37-.27c1.9-1.61,3.58-3.45,5.46-5.09a4.55,4.55,0,0,1,1.09-.83,1.38,1.38,0,0,0,.55-.88,24.69,24.69,0,0,1,.81-3.18c.11-.26.15-.56.55-.28.23.16.39,0,.49-.21a1,1,0,0,0,0-1.13c-.27-.32,0-.6-.06-.89,0-.08.09-.18.17-.13.52.33.56-.27.56-.4a27.22,27.22,0,0,1,.51-3.13c0-.43.34-.9-.19-1.26-.11-.08,0-.24,0-.36a15.81,15.81,0,0,0,.16-2.48c-.05-.49-.37-.6-.78-.31a1.62,1.62,0,0,0-.18.19,14.1,14.1,0,0,0-2.57,3.45,22.11,22.11,0,0,0-1.24,2.15.13.13,0,0,1-.2.07c-.13-.07-.06-.17,0-.27.44-.83.83-1.69,1.32-2.5A15.66,15.66,0,0,1,88.15,28s0-.17.06-.17c.94.06.46-1.1,1.11-1.28,0,0,0,.07,0,.1s0,0,0,0a.14.14,0,0,1,0-.06c.34-.05.58-.31,1-.38.78-.14.87.4,1.07.83.53,1.11.13,2.23,0,3.35a41.23,41.23,0,0,1-1,4.56c0,.16-.17.41,0,.47s.33-.19.4-.32c.27-.6.5-1.21.74-1.82s.75-1.14,1-1.82a.55.55,0,0,1,.75-.27c.28.14.15.42,0,.61a7.84,7.84,0,0,1-.93,1.61c-.18.2-.21.59-.36.87s-.12.6-.49.68c-.1,0-.17.09-.08.17.54.48,0,.77-.21,1.1a1.31,1.31,0,0,0-.28.47c0,.21-.51.58.21.39.17,0,.14.17.13.29s0,.38-.07.56-.08.24,0,.27a.39.39,0,0,0,.28-.09,48.56,48.56,0,0,0,4.11-3.19A8,8,0,0,1,98,33.36a2.46,2.46,0,0,0,1.65-2c.07-.41.44-.58.55-.95s.31-.1.46,0l.11.12,0-.07-.16,0c-.05-.58,0-1.11.61-1.4l0,0v.05a.34.34,0,0,1-.18-.46c.55-1.64,1.39-3.16,2.05-4.75A20.83,20.83,0,0,1,104.53,21a22.09,22.09,0,0,0,.72-2.25c.56-1.24.85-2.58,1.37-3.83.69-1.67,1.29-3.37,1.87-5.08.26-.78.53-1.56.78-2.34,0,0,0-.11-.06-.17ZM51.94,41.61h0ZM84.73,63.37h0ZM97.45,36.13h0a2.69,2.69,0,0,1,.38-.19c.42-.21.09-.53,0-.76s-.3-.15-.46,0a11.89,11.89,0,0,1-2.11,1.47C93.74,37.61,92.52,39,91,40a.87.87,0,0,0-.44.8,5.24,5.24,0,0,0,.23,1.66c.31.66.6.88,1.27.6a6.36,6.36,0,0,0,3-1.88,8,8,0,0,0,.63-1.36,6.34,6.34,0,0,1,.75-1.52,1.58,1.58,0,0,0,.61-1.34c0-.18.22-.29.39-.37S97.61,36.28,97.45,36.13ZM78.84,34.28A6,6,0,0,0,81,34c.31-.13.31-.43,0-.57-1.61-.7-3.21-1.53-5-.8-.17.06-.47-.23-.49.13,0,.72-.61.95-1.08,1.28a4.79,4.79,0,0,1-1.19.82c-.79.24-1.53.46-1.87,1.31,0,0,0,0-.05,0a31.57,31.57,0,0,0-2.54,3c-.13.18-.47.37-.14.61s.48,0,.68-.25c.36-.37.3-1.19,1.13-1,0,0,.09-.09.1-.15.24-1.15,1.48-1.35,2.13-2.15a4.88,4.88,0,0,1,2.06-1c1.25-.43,2.59-.51,3.84-.93A.94.94,0,0,1,78.84,34.28ZM47,51.41a.14.14,0,0,0-.16.14c0,.14,0,.25.16.29s.18,0,.17-.11A.36.36,0,0,0,47,51.41ZM81.2,42.52c0-.08,0-.16-.08-.18s-.14,0-.18.1,0,.17.06.18S81.12,42.56,81.2,42.52Zm14.7-2c0-.17,0-.24-.08-.22a.37.37,0,0,0-.17.16.08.08,0,0,0,.09.11A.41.41,0,0,0,95.9,40.49Zm-6.82-1.64s-.08,0-.08.06a.11.11,0,0,0,0,.1c.08.05.11,0,.11-.08S89.1,38.88,89.08,38.85ZM68.15,40.41l0-.08-.09,0s0,0,0,0S68.13,40.39,68.15,40.41ZM97,38.22H97a.13.13,0,0,0,0,.06H97Zm.2-1.21-.06.09s.06,0,.09,0,0-.06.06-.09ZM80.57,42.28c0-.06,0-.06-.07,0l0,0Zm-.33,3.39.06-.07-.08-.05s0,0,0,0A.22.22,0,0,0,80.24,45.67ZM45.07,37.18s0,0,0,0h0l0,.07Z"/>
      <path d="M23,31.54c.81-1.19.45-2.4,0-3.6a.58.58,0,0,0-.29-.39,5.11,5.11,0,0,0-2.16-.65,9.9,9.9,0,0,0-4.14.78c-.72.33-1.44.67-2.17,1a.94.94,0,0,0-.28.15A47,47,0,0,0,9.1,32.33a18,18,0,0,0-2,1.91,3.59,3.59,0,0,1-.77.64c-.15.12-.33.33-.51.13a.46.46,0,0,1,.08-.68c.18-.15.29-.37.46-.51a16.45,16.45,0,0,0,2.08-2.26,26.09,26.09,0,0,1,2.4-1.94,23.88,23.88,0,0,1,2.64-1.94A4.23,4.23,0,0,1,15.33,27c.08,0,.18,0,.23-.06,1.84-1.44,4-1.37,6.13-1.18a3.34,3.34,0,0,1,2.49,1.57,3.08,3.08,0,0,1,.26,2.83,5.44,5.44,0,0,0-.27,1.24,10.56,10.56,0,0,1-1.55,3.07,16.37,16.37,0,0,1-2.35,3l-.26.28c-.09.11-.24.22-.09.37s.22,0,.33-.06a5,5,0,0,1,4.12,0,21.43,21.43,0,0,1,2.29,1,5.91,5.91,0,0,0,2,1A8.67,8.67,0,0,0,32.54,40c.72-.26,1.43-.63,2.16-.83a6.77,6.77,0,0,0,2.11-1.29,1.25,1.25,0,0,1,1-.39.29.29,0,0,0,.36-.2c.15-.7.75-1,1.21-1.47s.72-1.36,1.3-1.9c.16-.16.28-.42.5-.45s.47-.27.62,0,.2.54,0,.72c-.8.71-1.07,1.79-1.91,2.47A5,5,0,0,0,39,38a26.91,26.91,0,0,0-1.81,3.89c-1,2.23-1.53,4.59-2.4,6.84a17.4,17.4,0,0,0-.63,2.68,8.11,8.11,0,0,0-.35,2.22,19.55,19.55,0,0,0,.24,3.24c.08.33.29.69.65.7a1.06,1.06,0,0,0,1.06-.36,24.52,24.52,0,0,1,1.69-1.85c.33-.34.39-.83.65-1.2h0c.76.22.76.32.29.94s-.93,1.54-1.49,2.24a2.54,2.54,0,0,1-2.23,1.22,1.56,1.56,0,0,1-1.28-1,3.85,3.85,0,0,1-.48-1.73,16.65,16.65,0,0,1,.25-4.18c.26-1.06.62-2.1.88-3.16s.58-2.38,1-3.53c.56-1.59,1.19-3.15,1.83-4.71a9.18,9.18,0,0,1,.8-1.29c.07-.11.13-.24,0-.34s-.27,0-.33.06c-.79,1.17-2.2,1.28-3.28,2a12.47,12.47,0,0,1-2.31.75c-.49.19-1.17-.13-1.76-.23-.18,0-.38-.17-.49.08s0,.34.15.5a6.75,6.75,0,0,1,1.83,3c.18.71.34,1.43.49,2.14a9.4,9.4,0,0,1-.8,5.69,28,28,0,0,1-2.35,3.84c-.74,1.2-1.81,2.11-2.56,3.28a1.9,1.9,0,0,1-.69.63,5.65,5.65,0,0,0-1.17,1.12,17.57,17.57,0,0,1-4.15,3.1c-1.1.6-2.13,1.34-3.27,1.87a19.54,19.54,0,0,1-2.09.93,15.52,15.52,0,0,1-2.22.61c-.56.1-1.13-.14-1.67.13-.13.07-.26,0-.36-.18s-.33-.27-.55,0-.72,0-1.06,0-.51-.12-.79-.15a2,2,0,0,1-1.91-1.17A.66.66,0,0,0,6,66.21c-.66-.19-1.11-.73-1.73-1h0c.34,0,.36-.31.33-.57-.05-.42-.42-.33-.68-.41l0,0c0-.28-.17-.49-.4-.43-.53.15-.58-.22-.72-.53.17-.22.63.28.68-.28,0-.1-.08-.29.11-.29a.44.44,0,0,1,.3.21A8.14,8.14,0,0,0,6.1,65.07a6.44,6.44,0,0,0,2.08,1.26c.88.3,1.9.1,2.67.78A.23.23,0,0,0,11,67c.15-.33.47-.25.74-.34.47-.17,1,0,1.42-.16.76-.29,1.5-.63,2.27-.88a12.94,12.94,0,0,0,2.87-1.4c.77-.5,1.53-1,2.33-1.49A10.83,10.83,0,0,0,23,60.88c.77-.8,1.63-1.51,2.38-2.32a12.65,12.65,0,0,0,1.33-1.42c1.19-1.77,2.68-3.35,3.47-5.36A6.91,6.91,0,0,0,31,49.31a2,2,0,0,1,.15-1,.75.75,0,0,0,0-.67,10.74,10.74,0,0,1-.92-2.77A3.63,3.63,0,0,0,29.14,43a15.72,15.72,0,0,1-1.69-1.78c-.64-.92-1.68-1.18-2.51-1.77-.55-.39-1.26-.27-1.86-.48-1.52-.55-2.83.21-4.21.55a.59.59,0,0,0-.24.18c-.54.48-1.06,1-1.6,1.42S16,42,15.51,42.41a16.87,16.87,0,0,1-2.18,2c-1.05.68-2.07,1.39-3.06,2.15h-.06c-.05,0-.07,0,0,0s.07,0,.1,0c-.42.35-1,.53-1.37.86s-.56.27-.84,0-.53-.28-.72.13c-.32.66-.68,1.3-1,2a42.23,42.23,0,0,0-2.1,4.27c-.24.82-1,1.35-1.16,2.22-.13.71-.76,1.29-.54,2.09.14.46.33.91.45,1.37.08.31.32.72,0,.92s-.41-.33-.66-.46-.13-.38-.36-.25-.1.27-.1.41a1.07,1.07,0,0,0,.09.43,14.24,14.24,0,0,1,.81,2.85c-.55-.88-1.13-1.76-1.65-2.66C1,60.34.87,60.1.58,60.55c-.11.18-.29.14-.45.06S0,60.37.07,60.23c.68-1.15.45-2.33.3-3.59a4.86,4.86,0,0,1,1.24-3.89c.07-.07.17-.14.27,0A.31.31,0,0,1,2,53c-.17.63-.33,1.25-.48,1.89-.06.25-.3.61,0,.74s.45-.27.65-.47c1-1.09,1.17-2.61,1.83-3.87,1-2,1.94-4.09,3.05-6.06s1.91-3.74,3-5.53a10.66,10.66,0,0,0,1.22-3.09A1.7,1.7,0,0,1,11.6,36c.12-.16.36-.19.39,0,.09.63.5,1.23.09,1.92-.24.39-.37.52-.71.16,0-.15.05-.29.08-.43l.15,0v-.08l-.16,0c0,.14,0,.29-.08.43s.14.43-.27.62a.9.9,0,0,0-.32,1.2c.14.26.15.32-.14.44a1.51,1.51,0,0,0-.72,1.79.6.6,0,0,1-.11.65A6.86,6.86,0,0,0,9,44.28c-.06.09-.14.19-.05.28s.22,0,.32-.07A11.38,11.38,0,0,0,10.86,43c.09-.08.16-.22.27-.26,1.42-.47,2.31-1.7,3.51-2.48a12.13,12.13,0,0,1,1.52-.78,11.21,11.21,0,0,0,2.83-2c.4-.36.61-.94,1.14-1.22.05,0,.09-.12.14-.12.64,0,.89-.24.67-1-.08-.25.42-.7.62-1.09.38-.7.84-1.35,1.23-2,.12-.22.32-.26.49-.38v0l-.3-.15Zm-9.75,11,0,0h0l0,0Zm22.71,2.11-.16,0,0,.07.1-.14ZM13,43c0-.16-.11-.21-.22-.14-.56.34-1.29.43-1.65,1.06a2.86,2.86,0,0,1-.86.87l-1.14.9a1,1,0,0,0-.12.2c.06,0,.14.13.19.11s.45.08.6-.1a27,27,0,0,1,3-2.69ZM8.72,46.19s-.07-.1-.11-.11a.32.32,0,0,0-.35.07c-.06.07,0,.12.08.12S8.6,46.32,8.72,46.19Zm6-4.31v-.11a2.07,2.07,0,0,0-.24.17c-.05,0,0,.14,0,.12A.72.72,0,0,0,14.75,41.88Zm-1.42,1.67s-.05-.06-.08,0-.08,0-.08.06,0,.1.09.07S13.31,43.58,13.33,43.55Zm.54-1.23s0,0,0,0h0v.07Zm19.7,12.13V54.4h-.09s0,0,0,.05ZM36.12,44l.06-.08s0,0,0,0l-.08,0Z"/>
      <path d="M44,42.24a2.37,2.37,0,0,1-.23,1.59c-.6,1.22-.88,2.56-1.38,3.81-.29.73-.16,1.57-.66,2.24-.16.21,0,.54,0,.85a10.24,10.24,0,0,0-.42,3.12,4.53,4.53,0,0,0,.85,2.9c.34.35.57.42.93.06a16.3,16.3,0,0,0,2.44-3.33c.24-.4.58-.48.92-.67h0c0,.25.3.24.47.34v0c-.82,1.06-1.43,2.24-2.16,3.35A3.23,3.23,0,0,1,42.3,58a1,1,0,0,1-.87-.41,5,5,0,0,1-1.15-3.79,6.48,6.48,0,0,1,.24-1.62c.09-.28.17-.73-.34-.88-.15,0-.33-.25-.06-.36.71-.3.79-1,.9-1.56.22-1.23.62-2.42.87-3.64A.43.43,0,0,1,42,45.5c.74-.77.77-1.82,1.09-2.74,0-.14.07-.29.12-.43a1.22,1.22,0,0,1,.12-.19c0,.07,0,.17,0,.22.27.32.45.12.62-.12Zm-.71,1.82s.08,0,.08-.05a.13.13,0,0,0,0-.11c-.07,0-.11,0-.12.06S43.22,44,43.24,44.06Z"/>
      <path d="M58.36,25.91c-.31.29.14.65-.09.95-.06.07-.06.21-.2.19a.43.43,0,0,1,0-.23c.06-.39-.19-.71-.15-1.13a10.21,10.21,0,0,1,.9-2.82c.47-1.15.81-2.37,1.39-3.47a4.67,4.67,0,0,0,.43-1.14,7.74,7.74,0,0,1,.51-1.42c.06-.15.18-.35.07-.48s-.26,0-.38.09-.33.08-.37-.14,0-.54.29-.6c.63-.12.89-.66,1.28-1.06.15-.17.21-.43,0-.57s-.25.11-.32.25-.15.17-.25.1-.09-.21,0-.34c.3-.67.81-1.22,1.09-1.9a4.68,4.68,0,0,1,1-1.58c.34-.33.63-.65,1.12-.32a1.34,1.34,0,0,1,0,1.36,1.69,1.69,0,0,0-.42.9,6.26,6.26,0,0,1-1,2.13c-.25.4-.3.93-.52,1.38a21.55,21.55,0,0,0-1.31,2.8,12.44,12.44,0,0,1-.88,2.3c-.66,1.13-.78,2.52-1.74,3.48-.35.35-.27.87-.45,1.28Z"/>
      <path d="M32.18,20.14c-.33-.05-.38-.16-.17-.53,0,0,.05-.09,0-.12s-.18-.09-.28-.06-.45,0-.51-.2.24-.32.42-.36A15.59,15.59,0,0,0,35.21,18c.33-.15.62.17.94.23.89.15,1.73-.32,2.6-.14a3.74,3.74,0,0,0,.75,0c.13,0,.27,0,.3.16s-.12.22-.23.26a4.74,4.74,0,0,1-1.52.35,16.43,16.43,0,0,0-3.42.44c-.16,0-.37,0-.41.22s.17.2.29.25.18.12.15.25-.11.1-.2.1Zm.39-.62s0,.08.07.08.09,0,.1-.06,0-.11-.09-.1S32.6,19.49,32.57,19.52Zm.68.06s0-.09,0-.1-.07,0-.1,0a.23.23,0,0,0,0,.1S33.22,19.58,33.25,19.58Z"/>
      <path d="M14.39,31.73c-.1.95-.67,1.75-.85,2.69,0,.2-.24.44-.49.12-.07-.09-.14-.14-.26-.09-.75.32-.54-.13-.41-.51.25-.71.51-1.41.76-2.12a2.85,2.85,0,0,0,.13-.48c0-.23-.13-.59.24-.6a1.26,1.26,0,0,1,1,.39C14.62,31.29,14.41,31.52,14.39,31.73Zm-.8.62c0-.12-.06-.2-.18-.2s-.16.11-.17.21,0,.23.16.2A.23.23,0,0,0,13.59,32.35Zm-.26.53a2.62,2.62,0,0,0-.12.29.83.83,0,0,0,0,.15,2.14,2.14,0,0,0,.13-.19A1.09,1.09,0,0,0,13.33,32.88Z"/>
      <path d="M111.69,2.44c0,.07-.1.21-.14.2-.49-.05-.59.29-.71.65,0,.14-.25.29-.4.22s0-.26,0-.4A12.2,12.2,0,0,1,111.11,1c.06-.1,0-.28,0-.42s.11-.39.29-.51a.55.55,0,0,1,.6,0c.25.12.09.32.07.5a2.81,2.81,0,0,1-.37,1.19.53.53,0,0,0,0,.65Z"/>
      <path d="M60.09,38.46c.09.22-.27.59.26.7.08,0-.14.5-.32.65-.38.33-.44.82-.71,1.15-.41.51-.59,1.18-1.15,1.56l-.24.18c0-.1,0-.22,0-.3a12.19,12.19,0,0,1,1.51-2.61c.41-.43.24-1,.64-1.31Z"/>
      <path d="M70.34,10.72a7.69,7.69,0,0,0,.9-2.34.25.25,0,0,1,.26-.23c.15,0,.22.11.27.23a.36.36,0,0,1-.07.46,2.06,2.06,0,0,0-.55,2c0,.16,0,.21-.14.12s-.25-.17-.39,0-.07.29-.24.21S70.33,10.9,70.34,10.72Z"/>
      <path d="M57.69,27.22c-.23.73-.71,1.39-.88,2.17,0,0-.08.07-.12.1a.51.51,0,0,1,0-.24,21.13,21.13,0,0,1,.78-2.45c0-.09.1-.17.19-.12C57.89,26.81,57.6,27,57.69,27.22Z"/>
      <path d="M40.27,18.55c-.14,0-.25-.08-.27-.22s.09-.26.24-.32a4.53,4.53,0,0,1,1.22-.15c.06,0,.16.07.19.13s0,.14-.11.19A2.12,2.12,0,0,1,40.27,18.55Z"/>
      <path d="M39.45,52.58c.47-.12-.14-.61.29-.82s.4-.07.41.25-.59.59-.51,1.07c0,0-.09,0-.1,0S39.48,52.79,39.45,52.58Z"/>
      <path d="M3.78,37.71c0-.06-.1-.13-.09-.15.24-.42.13-1,.49-1.35.05-.05.13-.12.19-.12a.14.14,0,0,1,.1.2c-.16.44-.34.88-.52,1.32C3.93,37.65,3.85,37.67,3.78,37.71Z"/>
      <path d="M53.76,36.22c0-.35.18-.52.5-.47a.23.23,0,0,1,.2.32.67.67,0,0,1-.57.49C53.63,36.56,53.77,36.31,53.76,36.22Z"/>
      <path d="M4.26,65.22a.9.9,0,0,1-.69-.5c-.09-.15-.33-.29-.18-.49s.34.07.52,0l0,0c-.08.4.33.62.35,1Z"/>
      <path d="M39.33,53.79a.42.42,0,0,1-.32.27c0-.18-.08-.36-.11-.54s.05-.25.17-.2S39.22,53.64,39.33,53.79Z"/>
      <path d="M131.63,20.88c.1-.24,0-.58.36-.68s.21.23-.07.44l-.3.22Z"/>
      <path d="M44,42.24l.12,0c.16,0,.1-.33.31-.33,0,0,.07.1.06.15-.07.28-.27.28-.5.2Z"/>
      <path d="M54.5,34.48a.14.14,0,0,1,.13.18c0,.11-.06.21-.19.18s-.1-.08-.1-.13A.19.19,0,0,1,54.5,34.48Z"/>
      <path d="M15,31.6a1.57,1.57,0,0,1-.23.13c-.1,0-.14,0-.1-.13a.23.23,0,0,1,.24-.15C15,31.45,15.07,31.48,15,31.6Z"/>
      <path d="M10.77,41c-.06.05-.11.12-.15.11s-.11-.1-.11-.18.05-.17.15-.13S10.73,40.9,10.77,41Z"/>
      <path d="M38.13,54.12a1.21,1.21,0,0,1,.37-.5l0,0a1.14,1.14,0,0,1-.4.47Z"/>
      <path d="M111.48,3.27l-.09.06a.8.8,0,0,1,0-.15s.07-.07.09-.06S111.5,3.21,111.48,3.27Z"/>
      <path d="M70.65,13s-.05.09-.08.09-.1-.06-.07-.13.07,0,.1-.06Z"/>
      <path d="M55.36,32.66c0,.09.07.15.06.19s-.08,0-.13.08,0-.08,0-.11A.89.89,0,0,1,55.36,32.66Z"/>
      <path d="M43.61,41.57l-.09,0a.2.2,0,0,0,0-.05l.1,0Z"/>
      <path d="M55,33.6l0,0,.09,0,0,0Z"/>
      <path d="M85.28,34c-.06-.06-.19-.08-.14-.21s0,0,0,0,.08.15.07.25Z"/>
      <path d="M90,31.83s0,.08-.06.1-.07,0,0,0,.08,0,.12,0Z"/>
      <polygon points="61.54 35.39 61.57 35.41 61.54 35.43 61.54 35.39"/>
      <path d="M87.05,20.84l0,0c-.06,0-.06-.06,0-.08h.06S87.05,20.83,87.05,20.84Z"/>
      <polygon points="57.72 43.17 57.71 43.22 57.67 43.2 57.72 43.17"/>
      <polygon points="46.34 52.81 46.34 52.77 46.34 52.8 46.34 52.81"/>
      <polygon points="109.21 7.34 109.23 7.38 109.22 7.35 109.21 7.34"/>
      <polygon points="46.81 53.14 46.79 53.11 46.8 53.12 46.81 53.14"/>
      <path d="M77.54,77.42l0,0Z"/>
      <polygon points="111.7 2.46 111.67 2.41 111.69 2.44 111.7 2.46"/>
      <path d="M81.24,39.56v0Z"/>
      <polygon points="81.84 39.19 81.81 39.16 81.83 39.18 81.84 39.19"/>
      <path d="M90,31.85l0,0Z"/>
      <path d="M58.34,25.92h0Z"/>
      <polygon points="70.14 14.88 70.11 14.84 70.13 14.87 70.14 14.88"/>
      <path d="M23,31.52v0l0,0Z"/>
      <path d="M80.91,39.8v0Z"/>
      <path d="M81,39.66l-.12.14v0l.12-.15Z"/>
      <path d="M81,39.67l.2-.11v0l-.2.12Z"/>
      <path d="M97.45,36.13l0,.12s0,0,0,0a.13.13,0,0,1,0-.06Z"/>
      <path d="M3.19,61.87V62H3.1s0,0,0,0S3.16,61.89,3.19,61.87Z"/>
      <path d="M2.61,60.94s0,0,0,0,0,0,0,0H2.6S2.61,60.93,2.61,60.94Z"/>
    </g>
  </g>
</svg>
