<svg id="e6a0ac88-6477-4122-82d7-38ddc525f257" data-name="Layer 1" xmlns="http://www.w3.org/2000/svg" viewBox="0 0 20.57 20.57"><title>social--instagram</title><path d="M20.57,10.29c0,2,0,3.45-.06,4.24a6.3,6.3,0,0,1-1.67,4.31,6.2,6.2,0,0,1-4.31,1.66c-.79.05-2.2.07-4.24.07s-3.46,0-4.25-.07a6.2,6.2,0,0,1-4.31-1.66A6.25,6.25,0,0,1,.07,14.53c0-.79-.07-2.2-.07-4.24S0,6.83.07,6A6.25,6.25,0,0,1,1.73,1.73,6.25,6.25,0,0,1,6,.07C6.83,0,8.24,0,10.29,0s3.45,0,4.24.07a6.25,6.25,0,0,1,4.31,1.66A6.3,6.3,0,0,1,20.51,6C20.55,6.83,20.57,8.24,20.57,10.29ZM11.31,1.84H7.85l-1.3,0A9.52,9.52,0,0,0,5.18,2a5.58,5.58,0,0,0-1,.24,3.54,3.54,0,0,0-2,2,4.79,4.79,0,0,0-.24,1,9.68,9.68,0,0,0-.14,1.38c0,.54,0,1,0,1.29V9.26c0,.62,0,1,0,1s0,.4,0,1v1.41c0,.32,0,.76,0,1.3A9.37,9.37,0,0,0,2,15.39a4.79,4.79,0,0,0,.24,1,3.54,3.54,0,0,0,2,2,5.51,5.51,0,0,0,1,.25,11.42,11.42,0,0,0,1.37.13l1.3,0h4.87l1.3,0a11.82,11.82,0,0,0,1.38-.13,5.62,5.62,0,0,0,1-.25,3.54,3.54,0,0,0,2-2,4.79,4.79,0,0,0,.24-1A9.37,9.37,0,0,0,18.69,14c0-.54,0-1,0-1.3V11.31c0-.62,0-1,0-1s0-.41,0-1V7.85c0-.32,0-.75,0-1.29a9.68,9.68,0,0,0-.14-1.38,4.79,4.79,0,0,0-.24-1,3.54,3.54,0,0,0-2-2,5.69,5.69,0,0,0-1-.24A9.84,9.84,0,0,0,14,1.88l-1.3,0ZM14,6.55a5.08,5.08,0,0,1,1.54,3.74A5.07,5.07,0,0,1,14,14a5.07,5.07,0,0,1-3.73,1.54A5.08,5.08,0,0,1,6.55,14,5.07,5.07,0,0,1,5,10.29,5.08,5.08,0,0,1,6.55,6.55,5.08,5.08,0,0,1,10.29,5,5.07,5.07,0,0,1,14,6.55Zm-1.31,6.16a3.3,3.3,0,0,0,1-2.42,3.41,3.41,0,0,0-3.42-3.43,3.41,3.41,0,0,0-3.43,3.43,3.41,3.41,0,0,0,3.43,3.42A3.3,3.3,0,0,0,12.71,12.71Zm3.94-8.79a1.2,1.2,0,0,1,.36.87,1.22,1.22,0,0,1-.36.88,1.24,1.24,0,0,1-2.11-.88,1.17,1.17,0,0,1,.37-.87,1.23,1.23,0,0,1,1.74,0Z"/></svg>