<svg data-name="Layer 1" xmlns="http://www.w3.org/2000/svg" viewBox="0 0 304 245.5"><path d="M285 93.5a19 19 0 0 1 13.43 32.43A18.27 18.27 0 0 1 285 131.5h-2.23l-17.07 98.27A19.07 19.07 0 0 1 247 245.5H57a19.07 19.07 0 0 1-18.7-15.73L21.23 131.5H19a18.26 18.26 0 0 1-13.43-5.57 19 19 0 0 1 0-26.86A18.29 18.29 0 0 1 19 93.5zM114 19H89.21a18.19 18.19 0 0 0-11.8 4.16 19.44 19.44 0 0 0-6.75 10.68L56.85 95H37.26l15-65.46a36.09 36.09 0 0 1 13.2-21.3A37.19 37.19 0 0 1 89.21 0h125.58a37.19 37.19 0 0 1 23.75 8.24 36.14 36.14 0 0 1 13.21 21.3l15 65.46h-19.6l-13.81-61.16a19.49 19.49 0 0 0-6.75-10.68 18.19 18.19 0 0 0-11.8-4.16H114zM72 212.25A9.66 9.66 0 0 0 80.75 202L76 140.26a9.48 9.48 0 0 0-16.7-5.42 9.18 9.18 0 0 0-2.3 6.9l4.75 61.75a9.52 9.52 0 0 0 9.5 8.76zm61-9.5V141a9.5 9.5 0 0 0-19 0v61.75a9.5 9.5 0 0 0 19 0zm57 0V141a9.5 9.5 0 0 0-19 0v61.75a9.5 9.5 0 0 0 19 0zm52.25.74l4.75-61.75a9.53 9.53 0 0 0-19-1.48L223.25 202a9.66 9.66 0 0 0 8.75 10.25h.74a9.52 9.52 0 0 0 9.5-8.76z" fill="#2d2926"/></svg>