<svg data-name="Layer 1" xmlns="http://www.w3.org/2000/svg" viewBox="0 0 280.13 64.72"><g fill="#e2e2e2"><path d="M121 27.29a.89.89 0 0 0-.49.2.92.92 0 0 1-.21.12 10.91 10.91 0 0 0-1.52.79l-.25.15a56.46 56.46 0 0 1-9 4.21 5.83 5.83 0 0 1-1.39.32H108a1.42 1.42 0 0 1-1.14-.55c-.25-.33-.09-.66.26-1.25a6.79 6.79 0 0 1 1.29-1.5l.58-.57c.47-.46 1.11-1.08.62-1.76a.83.83 0 0 0-.71-.32 2.4 2.4 0 0 0-1.3.47 25.63 25.63 0 0 1-3.22 1.93l-1 .56-1.21.71a18.09 18.09 0 0 1-3.26 1.64 6.87 6.87 0 0 1-2.35.47 4.64 4.64 0 0 1-1.28-.18c-.33-.08-.54-.15-.59-.41s.06-.32.51-.51a29.67 29.67 0 0 0 2.95-1.58l1.1-.65a5.76 5.76 0 0 0 2.31-2.89 1.21 1.21 0 0 0 0-1.17 1.35 1.35 0 0 0-1.21-.52 2.73 2.73 0 0 0-1.22.24 13.07 13.07 0 0 0-5.72 5.53c-.49.86-.84 1.41-1.62 1.63a5.9 5.9 0 0 0-1.11.48l-.45.22A9.92 9.92 0 0 1 86 34.34a5.35 5.35 0 0 1-.79-.06 1.11 1.11 0 0 1-.83-.42.93.93 0 0 1 .05-.82A7.48 7.48 0 0 1 86 30.87l.37-.37a17.17 17.17 0 0 1 4.75-3.15 25.28 25.28 0 0 0 3.46-2l.24-.19c.28-.2.55-.4.84-.58A10.84 10.84 0 0 1 97 24l.5-.22a28.92 28.92 0 0 0 6.3-4.42c.71-.59 1.41-1.18 2.14-1.75l1-.81a18.65 18.65 0 0 0 4.25-4 3.72 3.72 0 0 0 .77-1.95 1.73 1.73 0 0 0-1.15-1.75 1.65 1.65 0 0 0-.46-.06L110 9a13.07 13.07 0 0 0-4.09 1.25 19.63 19.63 0 0 0-3.41 2.09 51.76 51.76 0 0 0-6.11 5.56Q95 19.42 93.6 21c-.4.45-.79.91-1.19 1.37-1 1.17-2 2.39-3.16 3.48-.71.7-1.46 1.39-2.19 2.06a7.3 7.3 0 0 1-2.32 1.47c-1.06.4-2.1.86-3.14 1.33a26.13 26.13 0 0 1-6.08 2.14l-1 .21a11.57 11.57 0 0 1-2.42.34 7.58 7.58 0 0 1-.83 0c-.24 0-.28 0-.3-.11s0-.09.15-.15l.22-.1a7.15 7.15 0 0 0 2.11-1.83q2-2.88 4.09-5.75a.65.65 0 0 0 0-.89.61.61 0 0 0-.45-.22.7.7 0 0 0-.48.23 27.31 27.31 0 0 1-3.92 3.1l-.88.61a56.92 56.92 0 0 1-5.19 3.19 2.72 2.72 0 0 1-1.18.46c-.34 0-.62-.19-1-.71-.12-.21-.28-.5-.63-.5a.88.88 0 0 0-.43.13.83.83 0 0 0-.42.48c-.06.27.09.5.3.84s.22.48.16.58-.28.18-.61.19a8.25 8.25 0 0 0-2.51.53 3.54 3.54 0 0 1-1.11.17 8.31 8.31 0 0 1-1.19-.21 11 11 0 0 0-1.14-.12c-.18 0-.26-.06-.28-.09s0-.15.18-.36a20.62 20.62 0 0 0 2.51-4.13 28.18 28.18 0 0 1 1.6-2.89.61.61 0 0 0-.07-.81.52.52 0 0 0-.38-.17 1.27 1.27 0 0 0-.73.38 1 1 0 0 1-.17.14c-.24.16-.49.31-.73.45a10.5 10.5 0 0 0-.9.57l-.62.44a15.39 15.39 0 0 1-3 1.84c-.52.21-1.06.36-1.6.52-.35.09-.69.19-1 .31a8.08 8.08 0 0 0-1.91 1 12.59 12.59 0 0 1-1.13.69c-.56.29-1.14.55-1.72.81s-1.24.56-1.93.92a2.62 2.62 0 0 1-1.22.42 2.5 2.5 0 0 1-.57-.09 1.35 1.35 0 0 1-.33 0c-.63 0-1-.39-1.18-1.2s.27-.84 1.09-1.09a11.2 11.2 0 0 0 2.65-1.41l.23-.15a7.37 7.37 0 0 0 2.37-2.13 1.12 1.12 0 0 0 .19-.93.66.66 0 0 0-.45-.41l-.18-.07a3.92 3.92 0 0 0-1.27-.29 1.5 1.5 0 0 0-.64.13A9.71 9.71 0 0 0 41 29.66a2 2 0 0 1-1.4 1.07 57.09 57.09 0 0 0-6.38 2 8.35 8.35 0 0 1-3 .6h-.28a1.87 1.87 0 0 1-1.6-1.22c-.25-.46.05-.83.55-1.34A10.86 10.86 0 0 1 31 29a8.52 8.52 0 0 0 3.11-2.89 1.16 1.16 0 0 0 .13-1.11 1.19 1.19 0 0 0-1.05-.54h-.25a6.34 6.34 0 0 0-.75.07 5.21 5.21 0 0 1-.7.06 10.6 10.6 0 0 0-5.18.93 8.17 8.17 0 0 0-1.95 1.65 9.27 9.27 0 0 1-1.81 1.56.58.58 0 0 0-.29.39.55.55 0 0 0 .07.43.63.63 0 0 0 .53.33.7.7 0 0 0 .38-.13c.14-.1.28-.2.43-.29a4.12 4.12 0 0 0 1.1-.93c1.82-2.53 4.48-2.63 7.29-2.74h.27c.16 0 .28 0 .31.1s0 .21-.15.43a5.12 5.12 0 0 1-1.11 1l-.34.24c-1.21.86-2.46 1.75-3.64 2.72a2.52 2.52 0 0 0 .8 4.1 8.64 8.64 0 0 0 1.9.21 9.51 9.51 0 0 0 3.46-.68c1.53-.6 3.13-1.09 4.67-1.56l1.22-.35a.59.59 0 0 1 .21 0c.09 0 .2 0 .26.46a2.25 2.25 0 0 0 1.48 2 5.46 5.46 0 0 0 1.71.3 4.17 4.17 0 0 0 1.89-.51c1.25-.66 2.52-1.29 3.79-1.93l1.71-.86a.82.82 0 0 1 .38-.13.46.46 0 0 1 .22.06c.2 2 3.34 2.74 4.68 3 .24.06.42.09.5.12a6.43 6.43 0 0 0 2.33.39 13.41 13.41 0 0 0 5-1.1 3.72 3.72 0 0 1 1.4-.38 1.64 1.64 0 0 1 1.22.59 1.57 1.57 0 0 0 .88.35 23.94 23.94 0 0 0 3.92.37 13.65 13.65 0 0 0 2.54-.22 21 21 0 0 0 6.16-1.8l.37-.21a8.73 8.73 0 0 1 .8-.42 5.65 5.65 0 0 1 1-.31l.81-.25a6.4 6.4 0 0 0 .87-.43 6.08 6.08 0 0 1 .62-.33l.17-.08a.28.28 0 0 1 .16-.07l.07.05a.63.63 0 0 0-.25.21 7.35 7.35 0 0 1-.78 1 2.32 2.32 0 0 0-.62 2.39 1.9 1.9 0 0 0 1.61 1.07h.94a8.83 8.83 0 0 0 4.83-1.28 9 9 0 0 1 1.13-.54 11.58 11.58 0 0 0 1.46-.69.45.45 0 0 1 .3.15 4 4 0 0 0 2.9 1.2 10 10 0 0 0 3.27-.76 15.4 15.4 0 0 0 3.2-1.77l.73-.48a19.66 19.66 0 0 1 3.61-2l.22-.14a.41.41 0 0 1-.07.27c-.14.16-.3.32-.46.47l-.5.5a2.45 2.45 0 0 0-.53 2.65 2.18 2.18 0 0 0 2.16 1.18h.21a9.67 9.67 0 0 0 3.59-.93l.28-.11.21-.12a.5.5 0 0 1 .19-.1 1.41 1.41 0 0 1-.35.24 43.33 43.33 0 0 0-6.3 6 2.16 2.16 0 0 1-1.13.67 33.49 33.49 0 0 0-7.79 2.93c-3.06 1.54-6.33 3.24-9.47 5.2a35.73 35.73 0 0 0-9 7.19 5 5 0 0 0-1.11 5.16c.61 1.71 1.62 2.58 3 2.58a5.32 5.32 0 0 0 2.38-.68 17.35 17.35 0 0 0 3.36-2.46c.47-.4.94-.8 1.54-1.27 1.5-1.16 3.06-2.37 4.49-3.68s2.76-2.72 4.05-4.1c.89-.94 1.77-1.88 2.69-2.79l1.24-1.2c.85-.82 1.7-1.63 2.5-2.5a20.31 20.31 0 0 0 1.63-2 3.33 3.33 0 0 1 1.47-1.39 22.15 22.15 0 0 1 4.57-1.3 7.78 7.78 0 0 0 1.15-.3 5.44 5.44 0 0 1 1.74-.33h.9a1.59 1.59 0 0 1 1.25.41.53.53 0 0 1 .12.14.63.63 0 0 0 .47.33l.23-.06a1.66 1.66 0 0 0 .59-1.34v-.22a.45.45 0 0 0-.1-.34.93.93 0 0 0-.64-.23h-1.38a9 9 0 0 0-3.57.61 7 7 0 0 1-1.83.4 10.14 10.14 0 0 0-1.34.23l-.09.19-.11-.16.19-.17.71-.73c.51-.55 1-1.09 1.56-1.59a34.57 34.57 0 0 1 7.77-5.58c.69-.36 1.35-.77 2-1.19.41-.26.82-.52 1.24-.76s.73-.82.51-1.21a.48.48 0 0 0-.37-.24zm-21.12-1.21l.12.18c.24 0 .42.08.44.44l-.36.45a8.8 8.8 0 0 1-.94 1.13 5.08 5.08 0 0 1-2.27 1.48 3.09 3.09 0 0 0-1 .57 3.24 3.24 0 0 1-.85.51.43.43 0 0 1-.17 0 .34.34 0 0 1-.15 0c0-.09 0-.25.11-.35.42-.41.81-.85 1.2-1.29a12.86 12.86 0 0 1 2.76-2.55 2.17 2.17 0 0 1 1.13-.4v-.16zM89.49 27l1.14-1.1c.94-.88 1.87-1.77 2.77-2.69a6.73 6.73 0 0 0 .94-1.27 10.18 10.18 0 0 1 .71-1 53 53 0 0 1 8.68-8.17 12.25 12.25 0 0 1 6.16-2.56.83.83 0 0 1 .69.31.92.92 0 0 1 0 .83 6.7 6.7 0 0 1-2.21 2.84c-2 1.55-4.09 3.23-6.11 5a34.17 34.17 0 0 1-6.46 4.2 25.14 25.14 0 0 0-2.19 1.35A19.21 19.21 0 0 1 91 26.26a3.17 3.17 0 0 0-.52.32 1.65 1.65 0 0 1-.9.4zm-20.64 6c-.11 0-.22 0-.22.05l-.34-.05-.45-.19a2.93 2.93 0 0 1-.88-.45 6 6 0 0 1 .79-.45l.43-.22.89-.48a18.73 18.73 0 0 0 4.65-3.11c.14-.13.29-.29.41-.29l.13.05a.32.32 0 0 1-.12.25 6.52 6.52 0 0 0-1.31 1.62 5.69 5.69 0 0 1-1.16 1.49 8.44 8.44 0 0 1-1 .7 6.61 6.61 0 0 0-1.3 1 .93.93 0 0 1-.52.08zm-15.43-2.74a12.22 12.22 0 0 0 3.79-2.12c.21-.2.72-.65 1-.65.16.14.06.34-.22.76a3.28 3.28 0 0 0-.24.37l-.25.5a17.5 17.5 0 0 1-1.3 2.31 2 2 0 0 1-1.81 1l-.29-.08a1.88 1.88 0 0 1-1.16-.64c-.29-.37-.4-.65-.34-.85s.32-.4.82-.6zm-7.12-2.93a1.61 1.61 0 0 0-.23.22 7.2 7.2 0 0 1-2.68 1.93c-.33.17-.66.34-1 .52a.35.35 0 0 1-.19.06A9.53 9.53 0 0 1 45.69 27a.77.77 0 0 1 .4-.12.44.44 0 0 1 .39.19c.04.03.04.06-.18.26zm49 22.54a31.49 31.49 0 0 1-4.17 4.22c-1.1.95-2.28 1.84-3.42 2.7s-2.13 1.62-3.15 2.48l-.57.5a7.33 7.33 0 0 1-2.78 1.8 2.53 2.53 0 0 1-.67.1 2.18 2.18 0 0 1-2.14-1.57 9.36 9.36 0 0 1-.22-1.38v-.39A4.54 4.54 0 0 1 79 56a26.8 26.8 0 0 1 6.89-6c1.52-1 3.17-2 4.77-2.83.72-.39 1.44-.79 2.15-1.2a48.32 48.32 0 0 1 7.37-3.55c.3-.11.61-.2.91-.29a8.26 8.26 0 0 0 2-.78.51.51 0 0 1 .17-.08c0 .05 0 .13-.13.24l-.67.77c-.51.6-1 1.19-1.5 1.81A24 24 0 0 1 98.12 47a25.43 25.43 0 0 0-2.81 2.87zM11.13 22.77a4.64 4.64 0 0 0 1.21-.21 10.9 10.9 0 0 0 4.1-2.66l.71-.63a.65.65 0 0 0 .09-.93.54.54 0 0 0-.43-.22.88.88 0 0 0-.49.21l-.21.2-.17.16a13.3 13.3 0 0 0-1 .95 6.45 6.45 0 0 1-2.36 1.7 2 2 0 0 1-.65.12 1.55 1.55 0 0 1-1-.33c-.4-.3-.32-.73-.18-1.27a5.79 5.79 0 0 1 1.95-2.79l.65-.63c1.05-1.05 2.14-2.13 3.3-3.09A32.35 32.35 0 0 1 27.94 7.6a78 78 0 0 1 12.55-2.45 30 30 0 0 1 3.82-.31 11.45 11.45 0 0 1 3.31.43 4.75 4.75 0 0 1 3 2.4 4 4 0 0 1 .13 3.26A8.08 8.08 0 0 1 48.38 14c-3.29 2.91-7.49 4.49-10.79 5.54a16.8 16.8 0 0 1-5.06 1 7.75 7.75 0 0 1-.84 0h-.2c-.52 0-.83.2-.85.54s.19.55.59.69a3.53 3.53 0 0 0 1.21.2 8.87 8.87 0 0 0 1.56-.24 35.25 35.25 0 0 0 9-3A22.43 22.43 0 0 0 50 14a8 8 0 0 0 2.41-5.55 4.28 4.28 0 0 0-1.61-3.09 7.15 7.15 0 0 0-3-1.42 14.63 14.63 0 0 0-2.18-.33c-.45 0-.9-.05-1.35-.05a37.71 37.71 0 0 0-6.42.73c-7.09 1.26-14.53 2.86-20.71 7.35a57.42 57.42 0 0 0-4.94 4.19c-1.38 1.27-3 2.94-3 4.59a2.43 2.43 0 0 0 .69 1.81 1.8 1.8 0 0 0 1.24.54z"/><path d="M26.39 20.19a35.18 35.18 0 0 1 3.77-3.65 33.77 33.77 0 0 0 4.06-3.85 13.86 13.86 0 0 1 4.17-3.24A3.81 3.81 0 0 1 40 9.06a2.37 2.37 0 0 1 1.14.27c.14.07.27.19.27.3a.48.48 0 0 1-.16.24A4.83 4.83 0 0 1 39 11.2a1.85 1.85 0 0 0-1.09.66.59.59 0 0 0 0 .5.71.71 0 0 0 .74.46 1.78 1.78 0 0 0 .7-.16 9.42 9.42 0 0 0 3.12-2.22A1.66 1.66 0 0 0 43 9.32a1.39 1.39 0 0 0-.63-1.05 3.18 3.18 0 0 0-2-.61 6.11 6.11 0 0 0-2.29.51 17.93 17.93 0 0 0-5 3.56c-1.9 1.76-3.73 3.66-5.5 5.5-1.58 1.64-3.21 3.34-4.9 4.93a44.25 44.25 0 0 1-7 5.57 31.57 31.57 0 0 1-4 2l-.82.37A22.65 22.65 0 0 1 5.73 32a7.74 7.74 0 0 1-1.31.13 4.67 4.67 0 0 1-2.61-.74 2.65 2.65 0 0 1-.2-.47 1.62 1.62 0 0 0-.08-.2 1.49 1.49 0 0 1 .34-1.06 4.35 4.35 0 0 1 2.05-1c.66-.17 1.17-.3 1.14-1.31a1.71 1.71 0 0 0-1.76-1.54h-.2C1.45 26 .32 28 .06 29.75a5.43 5.43 0 0 0-.06.55 2.79 2.79 0 0 0 .22 1.3 2.81 2.81 0 0 0 1.56 1.3 6.82 6.82 0 0 0 2.56.47A10.33 10.33 0 0 0 7.11 33a31.61 31.61 0 0 0 4.06-1.58l1.72-.75a27.43 27.43 0 0 0 5.5-3.23 53.54 53.54 0 0 0 5.93-5.06c.68-.73 1.39-1.46 2.07-2.19zM154.22 20.47a13.41 13.41 0 0 1 3-2.85 1.88 1.88 0 0 0 .44-.49.91.91 0 0 1 .35-.39 16.15 16.15 0 0 0 2.53-1.36 13.49 13.49 0 0 1 3-1.54 26.86 26.86 0 0 1 3.21-.72c.67-.12 1.34-.24 2-.39a5.22 5.22 0 0 1 1.13-.13 7.76 7.76 0 0 1 3.36.88c1.81.89 3.54 2 3.13 4.48a.69.69 0 0 0 .08.55.56.56 0 0 0 .45.18 1.28 1.28 0 0 0 .83-.3l.1-.17v-.09a3.63 3.63 0 0 1 .05-1 3.4 3.4 0 0 0 0-1.42A5.67 5.67 0 0 0 175 12.6c-.12-.07-.23-.16-.35-.24a2.4 2.4 0 0 0-1.14-.56 10.17 10.17 0 0 1-1.52-.29 8.77 8.77 0 0 0-2-.32 3.67 3.67 0 0 0-1.72.41v.19l-.15-.18a12.68 12.68 0 0 1-1.5.25 9.6 9.6 0 0 0-2.38.53l-.35.14c-.79.33-1.58.65-2.35 1a23.33 23.33 0 0 0-3.47 2 31.78 31.78 0 0 0-4.66 4.33l-.59.62a15.86 15.86 0 0 0-1.84 2.21l-.37.57a12.85 12.85 0 0 1-2 2.62l-.14.14a6.67 6.67 0 0 0-1 1.14c-.68 1-1.43 2-2.38 3.18a12.05 12.05 0 0 1-2.25 2c-.37.28-.75.57-1.11.87a4.64 4.64 0 0 1-2.21 1.17 15.51 15.51 0 0 1-2.51.25 7.76 7.76 0 0 1-1.17-.08h-1.51a.94.94 0 0 1-.73-.26.84.84 0 0 1-.08-.69 4.71 4.71 0 0 1 .56-1.51 6 6 0 0 1 .71-.95 6.46 6.46 0 0 0 .78-1.08 4.32 4.32 0 0 1 1-1.17l.16-.14a22.13 22.13 0 0 0 4.17-4.36 1.11 1.11 0 0 1 .41-.4 4.22 4.22 0 0 0 1.57-1.5 49 49 0 0 1 3.43-3.88l.32-.34a12.35 12.35 0 0 0 2.75-4.19 3.28 3.28 0 0 0 .15-1.4 4.52 4.52 0 0 1 0-.82c.16-1-.52-1.23-1.06-1.44a3.68 3.68 0 0 1-.49-.23 2.08 2.08 0 0 0-.4-.16.74.74 0 0 1-.35-.14 1.11 1.11 0 0 0-.74-.25 1.88 1.88 0 0 0-.55.08c-.84.24-1.68.5-2.52.75a10.1 10.1 0 0 0-1.79.84 10.34 10.34 0 0 1-1.33.67l-.36.15a9.18 9.18 0 0 0-3.2 1.87l-.71.63a15.29 15.29 0 0 0-1.61 1.61c-.28.33-.57.65-.86 1a7.14 7.14 0 0 0-2.06 3.25c-.19.76-.31 1.26-.05 1.66s.6.48 1.33.6a8.5 8.5 0 0 0 1.49.16 3.35 3.35 0 0 0 2.15-.68 8.81 8.81 0 0 0 2.15-3.14l.24-.51a.57.57 0 0 0 0-.46.6.6 0 0 0-.3-.33.93.93 0 0 0-.35-.08.55.55 0 0 0-.53.33 7.9 7.9 0 0 1-.74 1.25 9.37 9.37 0 0 0-.67 1.09 2.5 2.5 0 0 1-2.21 1.45 2.32 2.32 0 0 1-1.16-.31c-.28-.15-.35-.31-.27-.68a6.42 6.42 0 0 1 1.66-2.84 17.36 17.36 0 0 1 3.47-3.31l.52-.38a6 6 0 0 1 2.14-1.16l.42-.07a1.77 1.77 0 0 0 1.14-.45 2.63 2.63 0 0 1 1.39-.74l.53-.16a3.54 3.54 0 0 0 .87-.33 2.15 2.15 0 0 1 1.09-.31 2.3 2.3 0 0 1 1.06.28 5 5 0 0 0 .76.29.65.65 0 0 1 .52.53 3.77 3.77 0 0 1-.32 2.62 17.29 17.29 0 0 1-3.4 4.57l-.76.81c-1.13 1.2-2.3 2.43-3.37 3.7a18.08 18.08 0 0 1-1.5 1.53 16.9 16.9 0 0 0-1.66 1.72 7.17 7.17 0 0 1-1.06 1 4.94 4.94 0 0 0-1.59 1.82 3.87 3.87 0 0 1-.69.92 5.18 5.18 0 0 0-1.71 3.31c-.07 1.15.1 1.55 1.27 1.81a7.54 7.54 0 0 0 1.58.16c.63 0 1.27-.07 1.89-.12l.79-.08a8.19 8.19 0 0 0 5.19-2.34 3.85 3.85 0 0 1 .93-.73 6.39 6.39 0 0 0 1.95-1.77l.31-.38a21.16 21.16 0 0 0 1.52-2 15.29 15.29 0 0 1 2.3-2.85 1.71 1.71 0 0 1 .26-.21 3.69 3.69 0 0 0 .51-.47 11.64 11.64 0 0 0 .77-1.2 7.58 7.58 0 0 1 1.22-1.68c.59-.63 1.12-1.25 1.64-1.86z"/><path d="M159.64 20.74a2 2 0 0 0-.73.64 1.72 1.72 0 0 0-.36 1.31c.08.29.34.33.54.36h.26c.68 0 1-.54 1.27-1a2.9 2.9 0 0 1 .19-.29.76.76 0 0 0-.09-1 .73.73 0 0 0-.55-.27 1 1 0 0 0-.53.25zM280 28.62a.53.53 0 0 0-.37-.15.91.91 0 0 0-.5.19l-.42.31a3.8 3.8 0 0 1-.82.55 10.4 10.4 0 0 0-2.91 2 7.11 7.11 0 0 1-4.98 2.11c-.55 0-1.1.07-1.65.13l-.64.06-.21.07a.35.35 0 0 1 .07-.24 8.2 8.2 0 0 0 1.25-2.85l.2-.67a40.66 40.66 0 0 0 1.06-4.61c.11-.57 0-1-.38-1.17l-.22-.08h-.05a.71.71 0 0 0-.5.29.9.9 0 0 1-.19.16.67.67 0 0 0-.22.2c-.67.68-1.28 1.43-1.88 2.16a20.44 20.44 0 0 1-3.07 3.24l-.46.39a5.87 5.87 0 0 0-1.11 1.15c-.27.4-.41.48-.48.48s-.27-.18-.49-.54a2.36 2.36 0 0 0-1.81-1.12H259a.87.87 0 0 0-.87.52.94.94 0 0 0 .3 1.11l.25.24a2.07 2.07 0 0 1 .65.88c.05.18 0 .22 0 .24a6 6 0 0 0-1.27.46 7.71 7.71 0 0 1-.84.33 4.64 4.64 0 0 1-1.36.25h-.35a.53.53 0 0 0-.39-.16 2.31 2.31 0 0 1-1.12-1.13 3.51 3.51 0 0 1-.27-3 9.71 9.71 0 0 1 2.53-3.49c1.87-1.74 3.86-3.43 5.77-5.06l1.81-1.53a43.92 43.92 0 0 0 5-4.68c.56-.64 1.14-1.27 1.72-1.9a42.84 42.84 0 0 0 3.3-3.89l.66-.9A16.82 16.82 0 0 0 277 4.82a7.5 7.5 0 0 0 .51-3A1.71 1.71 0 0 0 275.69 0a2.74 2.74 0 0 0-.78.12A15.53 15.53 0 0 0 271 1.94l-.76.45a12.57 12.57 0 0 0-3 2.2c-.45.48-.88 1-1.3 1.48-.63.74-1.28 1.5-2 2.19l-.29.3a13.66 13.66 0 0 0-2.09 2.38l-.07.08a2.13 2.13 0 0 0-.29.31c-.35.52-.69 1.05-1 1.58-.7 1.08-1.42 2.2-2.22 3.21a16.84 16.84 0 0 0-1.91 3.26 21.91 21.91 0 0 1-1.32 2.42 4.69 4.69 0 0 0-.56 1.49c-.05.18-.1.37-.16.55-.14.47-.33.93-.51 1.39a15 15 0 0 0-.65 1.89c-.15.61-.38.86-.84.95a9.48 9.48 0 0 0-1.56.5l-.69.25a33.39 33.39 0 0 0-6.69 3.08 3.58 3.58 0 0 1-.77.41 12.84 12.84 0 0 0-3.43 1.86 5.74 5.74 0 0 1-1.81.87.85.85 0 0 1-.26.05.65.65 0 0 1-.53-.27.85.85 0 0 1-.08-.75 9.44 9.44 0 0 1 1.82-3.2 11.55 11.55 0 0 0 1.62-2.28 1.48 1.48 0 0 0 .06-1.45.92.92 0 0 0-.89-.44h-.42a5.78 5.78 0 0 1-.71.05 4.73 4.73 0 0 1-2.38-.62c-.26-.14-.27-.22-.27-.22s.14-.17.26-.29l.18-.09a1.24 1.24 0 0 0 .2-.1.94.94 0 0 0 .5-.86.84.84 0 0 0-.55-.72 2.07 2.07 0 0 0-.8-.15 2.14 2.14 0 0 0-2.23 2.08 1 1 0 0 1-.67 1 6.93 6.93 0 0 0-.76.54l-.38.29a12.58 12.58 0 0 0-1.27 1.14 7.54 7.54 0 0 1-1.83 1.47 7.59 7.59 0 0 0-1.85 1.23 15.45 15.45 0 0 1-4.37 2.75 1.12 1.12 0 0 1-.48.1 1.06 1.06 0 0 1-1.1-.92 4.29 4.29 0 0 1 .55-2.77c.23-.34.43-.69.63-1.05a5.61 5.61 0 0 1 1.93-2.29 4 4 0 0 0 1-1c.13-.17.25-.33.38-.48a1.09 1.09 0 0 0 .16-1.22.52.52 0 0 0-.49-.32 2 2 0 0 0-.57.14 1.94 1.94 0 0 0-1 .75 2.77 2.77 0 0 1-.42.42 3.12 3.12 0 0 0-1 1.2 2.45 2.45 0 0 1-.89 1.06.68.68 0 0 0-.25.47 1.84 1.84 0 0 1-.65 1 9 9 0 0 1-1.19.92 7.57 7.57 0 0 0-1.4 1.12 7.41 7.41 0 0 1-3.26 1.86l-.28.1a.69.69 0 0 1-.24.06c-.07 0-.22 0-.28-.36a1.59 1.59 0 0 1 .09-.88 11.74 11.74 0 0 1 2.61-4.11 3.85 3.85 0 0 1 1.91-1.17 1.94 1.94 0 0 1 .4 0c.53 0 .85.25 1 .87a.36.36 0 0 0 .41.3 1 1 0 0 0 .67-.73 1.06 1.06 0 0 0-.13-1 2.3 2.3 0 0 0-1.8-.78 3.11 3.11 0 0 0-.67.07 6.56 6.56 0 0 0-4.33 3.44l-.19.32a3.91 3.91 0 0 1-1.16 1.42l-.28.18a20.73 20.73 0 0 0-2.54 1.87 29.1 29.1 0 0 1-5 3.35q-1 .54-1.89 1.11a13.42 13.42 0 0 1-2 1 .9.9 0 0 1-.32.09.83.83 0 0 1 .13-.6l.7-1.05c.74-1.12 1.48-2.24 2.17-3.4a1 1 0 0 1 .27-.28 1.15 1.15 0 0 0 .39-.51 3.94 3.94 0 0 1 1-1.48 6.49 6.49 0 0 0 .72-.92 7.7 7.7 0 0 1 .93-1.17 5.61 5.61 0 0 0 1.38-2.1.56.56 0 0 1 .09-.17c.09-.16.3-.48 0-.72a.48.48 0 0 0-.3-.11 1.27 1.27 0 0 0-.69.33l-.56.43c-1.46 1.11-3 2.25-4.56 3.25a17.42 17.42 0 0 0-2 1.4 13.71 13.71 0 0 1-4.41 2.75 1.11 1.11 0 0 1-.3 0 1.44 1.44 0 0 1-.87-.41c-.19-.15-.15-.33 0-.71a5.41 5.41 0 0 1 .5-1 3.75 3.75 0 0 0 .68-1.78 1.14 1.14 0 0 1 .24-.24 6.13 6.13 0 0 0 1.09-2.16.53.53 0 0 0-.24-.71h-.13a.46.46 0 0 0-.35.22.81.81 0 0 0-.18.12l-.12.1a15 15 0 0 0-1.74 2.78l-.21.57-.23.51c-.41.26-.82.53-1.27.76s-1.14.55-1.72.81-1.23.56-1.93.92a2.59 2.59 0 0 1-1.22.42 2.32 2.32 0 0 1-.56-.08h-.34c-.63 0-1-.39-1.17-1.2s.26-.83 1.08-1.09a10.75 10.75 0 0 0 2.64-1.4l.24-.15a7.3 7.3 0 0 0 2.37-2.13 1.11 1.11 0 0 0 .19-.94.66.66 0 0 0-.44-.41l-.2-.07a3.8 3.8 0 0 0-1.26-.29 1.53 1.53 0 0 0-.64.13 9.76 9.76 0 0 0-4.59 3.88 2 2 0 0 1-1.4 1.07c-2.07.54-3.91 1.1-5.7 1.74h-.43a1.56 1.56 0 0 1-.36 0 .32.32 0 0 1-.32-.17 1.11 1.11 0 0 1 .14-1.12 12.47 12.47 0 0 1 1.74-2.39 2.47 2.47 0 0 0 .64-1.82c0-.62-.35-.72-.51-.73-.35 0-.7-.06-1.06-.06a3.89 3.89 0 0 0-1.85.39c-.68.35-1.38.67-2.07 1a34.55 34.55 0 0 0-5.59 3.1.61.61 0 0 1-.33.12h-.12a1.14 1.14 0 0 1 .23-.26 10.14 10.14 0 0 0 2.18-3.19 2.7 2.7 0 0 0-.27-2.41 1.6 1.6 0 0 0-1.19-.49 2.41 2.41 0 0 0-1.13.31 25.61 25.61 0 0 0-5.34 3.78 24 24 0 0 1-6.46 4.69 1 1 0 0 1-.37.1.5.5 0 0 1-.26-.08c-.1-.07-.11-.15-.05-.53a3.43 3.43 0 0 1 .51-1.3 4.09 4.09 0 0 0 .25-.46 15 15 0 0 1 1.19-1.86 13.79 13.79 0 0 0 1.41-2.34c.13-.23.33-.63-.08-.91a.62.62 0 0 0-.36-.12 1 1 0 0 0-.74.47 4.67 4.67 0 0 0-.54.9 4.86 4.86 0 0 1-.4.7 34 34 0 0 0-2.6 4.38 2.07 2.07 0 0 0-.14 1.69 1.1 1.1 0 0 0 .67.65 3.43 3.43 0 0 0 1 .2 1.67 1.67 0 0 0 .77-.17 12.11 12.11 0 0 0 2.65-1.62l.87-.73c.78-.65 1.55-1.3 2.34-1.92 1.55-1.23 3.21-2.45 5.19-3.82a2 2 0 0 1 1-.46.64.64 0 0 1 .42.17c.43.36.27.87 0 1.59l-.1.18a41.08 41.08 0 0 1-3.62 5.05l-.18.17c-.19.18-.53.49-.26.79a.65.65 0 0 0 .54.22 2.87 2.87 0 0 0 .74-.14c.11 0 .19-.1.31-.23l1-.75a32.34 32.34 0 0 1 5.89-3.82c.69-.32 1.37-.6 2.08-.87l.27-.11a4.17 4.17 0 0 1 1.7-.4 1.35 1.35 0 0 0 .29 0H176.47c.14.3-.11.66-.22.8l-.51.63c-.38.47-.75.94-1.17 1.38a2 2 0 0 0-.47 2.13 1.53 1.53 0 0 0 1.41 1.23 7 7 0 0 0 2.38-.57c1.42-.49 2.86-.93 4.46-1.43a.68.68 0 0 1 .21 0c.09 0 .21 0 .26.46a2.26 2.26 0 0 0 1.49 2 5.41 5.41 0 0 0 1.71.3A4.16 4.16 0 0 0 188 35c1.22-.63 2.44-1.25 3.67-1.86L192 33a1.58 1.58 0 0 0 .54 1.54 2.05 2.05 0 0 0 1.43.67 1.62 1.62 0 0 0 .61-.12 13.65 13.65 0 0 0 4.42-2.62 15.28 15.28 0 0 1 2.89-2.07c.62-.39 1.25-.77 1.84-1.2a4 4 0 0 1-.69.91 5.78 5.78 0 0 0-.58.71c-.35.53-.69 1.06-1 1.59-.64 1-1.27 2-2 3a14.4 14.4 0 0 0-2.21 3.94 1.41 1.41 0 0 1-1.18.82 10.56 10.56 0 0 0-3.05 1.2c-1.3.69-2.57 1.45-3.84 2.21-1 .57-1.91 1.14-2.88 1.68a32.34 32.34 0 0 0-5.51 4.2l-.67.59a35 35 0 0 0-5 5.85c-.35.48-.7 1-1.07 1.45a7.87 7.87 0 0 0-1.27 4.89c0 .41 2.52 2.49 2.82 2.5h.27a7.76 7.76 0 0 0 5.64-2.18c.71-.69 1.37-1.42 2-2.15l1.07-1.17c.28-.29.59-.56.89-.83a15.76 15.76 0 0 0 2.53-2.84l.89-1.24C190 52.86 191 51.42 192 50c.2-.29.43-.57.65-.85a7.53 7.53 0 0 0 1.27-2 5.16 5.16 0 0 1 1-1.74 5.35 5.35 0 0 0 1.14-1.73 6.68 6.68 0 0 1 2-2.65 30.29 30.29 0 0 1 6.11-3.91l.32-.18a6.09 6.09 0 0 1 1-.47 6.19 6.19 0 0 0 1.95-1.16c.39-.31.75-.65 1.11-1a15 15 0 0 1 1.89-1.55c.29-.18.56-.36.61-.37a3 3 0 0 1 .14.71c.13 1 .65 1.52 1.56 1.52h.33a5.13 5.13 0 0 0 1.85-.71l.54-.28a7.92 7.92 0 0 0 1.53-1.12 11.16 11.16 0 0 1 .95-.75 1.19 1.19 0 0 0 .18-.15.43.43 0 0 1 .28-.15h.07c.11.07.11.13 0 .41v.4a2.78 2.78 0 0 1-.11.5c-.39 1.23.38 1.86 1.06 2.42l.35.29a1.27 1.27 0 0 0 .89.34 2 2 0 0 0 1-.31c.4-.24.82-.46 1.23-.68a12.35 12.35 0 0 0 3.21-2.21 6.63 6.63 0 0 1 1.21-.94l.42-.29c.31-.22.65-.41 1-.6a6.18 6.18 0 0 0 1.89-1.43 10.9 10.9 0 0 1 2-1.78l.41-.32a.41.41 0 0 1 .26-.09.93.93 0 0 1 .29.06 11.34 11.34 0 0 0 3.61.69h.26a4.64 4.64 0 0 1 .65 0c.22 0 .27.09.28.1s0 .12-.09.38a7.13 7.13 0 0 1-1.38 1.8l-.22.24a10.1 10.1 0 0 0-2 3.77 1.55 1.55 0 0 0 .33 1.35 1.75 1.75 0 0 0 1.34.81 4.21 4.21 0 0 0 2.57-.86 10.55 10.55 0 0 1 2.61-1.75c.47-.22.93-.47 1.39-.72l.73-.4a4.17 4.17 0 0 0-.59.93l-.19.34c-.26.47-.76 1.34-.2 2.07a1.7 1.7 0 0 0 1.45.62 2.77 2.77 0 0 0 .49 0 8.64 8.64 0 0 0 4.4-2.47c.64-.57 1.23-1.21 1.82-1.84.31-.33.62-.67 1-1.09l.08-.09.07.35a3.6 3.6 0 0 1 .12 1 3.28 3.28 0 0 0 1 2.4l.16.19a1.64 1.64 0 0 0 1.25.83h.19c.33 0 .66-.08 1-.11a6.76 6.76 0 0 0 2.9-.73 3.29 3.29 0 0 1 1.51-.58 1.44 1.44 0 0 1 1 .44l.22.22.26.27a2.58 2.58 0 0 0 1.71.75A1.9 1.9 0 0 0 264 36a14.3 14.3 0 0 1 4.09-1.11h.69a11.65 11.65 0 0 0 1.44-.12 9.59 9.59 0 0 0 5.3-2.3 14.28 14.28 0 0 1 3.67-2.3 1.37 1.37 0 0 0 .81-.8.56.56 0 0 0 0-.75zM262.66 33c0-.1.1-.27.23-.44a1.81 1.81 0 0 0 .22-.32 6.25 6.25 0 0 1 1.57-1.59 19.21 19.21 0 0 0 2.76-2.8l.61-.72s.11-.14.14-.14.07 0 0 .34a18.87 18.87 0 0 1-1.71 5.79c-.29.53-.58.88-1.05.88a1.17 1.17 0 0 1-.35-.06 10.27 10.27 0 0 1-1.9-.59c-.4-.22-.5-.35-.52-.35zm13.28-31.5a1.49 1.49 0 0 1 .32 1.08 10.08 10.08 0 0 1-2.2 5.26c-.37.52-.79 1-1.2 1.51s-.86 1-1.25 1.57a9.06 9.06 0 0 1-1.07 1.19c-.29.29-.58.58-.84.89l-.31.36a31.77 31.77 0 0 1-2.93 3.22l-1 .9a23.38 23.38 0 0 1-2.29 2 22.67 22.67 0 0 0-2.08 1.81c-.47.43-.93.86-1.41 1.26l-.76.65c-.55.46-1.1.93-1.67 1.38-.87.71-1.69 1.5-2.48 2.26l-.7.56v-.26a14.45 14.45 0 0 0 .73-2.16 15.61 15.61 0 0 1 .69-2l.5-1.1a27.21 27.21 0 0 1 2.66-4.88c.28-.39.57-.77.85-1.15a26.18 26.18 0 0 0 1.7-2.42 33.24 33.24 0 0 1 5-6l.17-.18c.38-.39.73-.82 1.08-1.24A12.25 12.25 0 0 1 269 4.4a7 7 0 0 1 3.31-1.92 2.19 2.19 0 0 0 1.05-.48 3.36 3.36 0 0 1 1.79-.63l.37-.05.05-.18v.16a.55.55 0 0 1 .37.2zM244 34.81a3.63 3.63 0 0 1 .95-1.55 10.38 10.38 0 0 1 4.61-2.91 7.7 7.7 0 0 0 .88-.31 8.77 8.77 0 0 1 1.06-.35h.22l-.9 1c-.62.68-1.25 1.38-1.94 2l-.22.2a10.64 10.64 0 0 1-3.06 2.21 7.07 7.07 0 0 1-1.1.3.63.63 0 0 1-.48-.15.53.53 0 0 1-.02-.44zm-54.8-6.69a1.67 1.67 0 0 0-.23.23 7.09 7.09 0 0 1-2.67 1.93c-.33.16-.66.33-1 .51a.31.31 0 0 1-.18.05 9.42 9.42 0 0 1 3.47-3.09.81.81 0 0 1 .4-.12.44.44 0 0 1 .38.19c.07.07.08.1-.15.3zm.56 23c-.22.36-.44.71-.68 1l-.21.28c-1 1.43-2.09 2.9-3.26 4.23a35 35 0 0 1-2.5 2.52l-1.27 1.2a1 1 0 0 0-.3.34 4.25 4.25 0 0 1-1.89 1.86c-.23.15-.46.3-.68.46a2.69 2.69 0 0 1-1.62.38 4.19 4.19 0 0 0-1.18.14.66.66 0 0 1-.33-.09 3.07 3.07 0 0 1-1.6-1.89 3.59 3.59 0 0 1 .33-2.84 35.66 35.66 0 0 1 5.85-7.53 43.3 43.3 0 0 1 4.71-4 8.64 8.64 0 0 1 2.87-1.5 2.45 2.45 0 0 0 .93-.6 2.91 2.91 0 0 1 .61-.45c1.48-.71 2.92-1.57 4.31-2.39l1-.59a1.14 1.14 0 0 0 .59-.24.54.54 0 0 1 .28-.11.38.38 0 0 1 .17 0 .28.28 0 0 1 .07.17c0 .08-.17.19-.3.27a1.28 1.28 0 0 0-.36.29 4.18 4.18 0 0 0-.65 1.3l-.18.49a2.76 2.76 0 0 1-.45.79 7.23 7.23 0 0 0-1.46 2.25 10.24 10.24 0 0 1-1.48 2.37c-.31.41-.62.81-.89 1.24q-.19.36-.41.67z"/><path d="M254.6 30.57l.35.15.39.14-.19-.65-.22.17-.33.19z"/></g></svg>