<svg data-name="Layer 1" xmlns="http://www.w3.org/2000/svg" viewBox="0 0 327.85 196.02"><defs><linearGradient id="a" x1="116.44" y1="144.88" x2="272.1" y2="-10.78" gradientUnits="userSpaceOnUse"><stop offset="0" stop-color="#988447"/><stop offset=".05" stop-color="#9e8a4f"/><stop offset=".33" stop-color="#b9a775"/><stop offset=".59" stop-color="#ccbc90"/><stop offset=".82" stop-color="#d8c9a0"/><stop offset="1" stop-color="#dccda6"/></linearGradient></defs><path d="M62.16 116.94A19.79 19.79 0 0 0 65 124.3a3.72 3.72 0 0 0 1.8 1.74 19.32 19.32 0 0 1 3.26 1.73c.51.31 1 .61 1.52.9a9.6 9.6 0 0 0 2.8.91 10.19 10.19 0 0 0 1.88.17 20.85 20.85 0 0 0 7.23-1.75l.55-.19a9.07 9.07 0 0 0 2.09-.93 30.08 30.08 0 0 0 3.19-2.43c.61-.5 1.21-1 2.05-1.64 3.14-2.36 6.4-4.8 8.64-8.24.21-.3.44-.6.67-.9a6.24 6.24 0 0 0 1.55-3 7.15 7.15 0 0 1 1.31-3.36c.91-1.25.74-4.32-.29-5.22a4 4 0 0 0-2.64-1 4.61 4.61 0 0 0-3.18 1.42 3.67 3.67 0 0 0-1 1.8 4 4 0 0 1-.3.81c-.44.77-.85 1.54-1.28 2.31-.62 1.15-1.24 2.29-1.9 3.41-2.37 4.07-4.65 7.27-8.11 9.68a18.3 18.3 0 0 1-9.66 3.42 1.23 1.23 0 0 1-.63-.29 2.38 2.38 0 0 0-1.48-.47H73a3.12 3.12 0 0 1-.52 0c-1 0-1.76-.51-2.63-1.72a2.5 2.5 0 0 0-1.12-1c-1.33-.47-2-1.5-2.18-3.42-.38-3.64 1.06-6.82 2.58-10.19l.38-.86a14.12 14.12 0 0 1 2.29-3.25A14.36 14.36 0 0 0 74.4 99a6.37 6.37 0 0 1 1.6-2 52.81 52.81 0 0 0 5.8-6.88 28.73 28.73 0 0 1 4.37-4.52L88 84c1.56-1.36 3.12-2.73 4.76-4 .79-.61 1.51-1.31 2.24-2a23.69 23.69 0 0 1 2.49-2.18 116.35 116.35 0 0 1 13.94-9.08c3.27-1.72 6.64-3.5 10-5 2.31-1 4.55-2.22 6.72-3.38 1.87-1 3.74-2 5.66-2.88.29-.14.58-.25.87-.38s.42-.11.42-.25c0-.53 0-3.53-.08-4.65 0-.92-.36-.54-.66-.44l-2.18.89c-1.58.64-3.16 1.27-4.73 1.92-1.9.78-3.75 1.7-5.53 2.59l-2.08 1a71.05 71.05 0 0 0-10 6c-1 .69-2 1.32-3 2a40.36 40.36 0 0 0-5 3.44 27.85 27.85 0 0 1-3.59 2.4c-.71.43-1.42.87-2.1 1.32a35 35 0 0 0-5.24 4.6 33.2 33.2 0 0 1-5.43 4.68 14.52 14.52 0 0 0-3.36 3.32 23.85 23.85 0 0 1-1.75 2C79 87.17 77.8 88.62 76.61 90c-.52.62-1 1.24-1.58 1.84-1.72 2-3.34 4-4.89 6-.68.88-1.37 1.75-2.06 2.62a19.26 19.26 0 0 0-1.54 2.38 15.52 15.52 0 0 1-1.54 2.44c-1.32 1.54-2.45 3.11-1.81 5.37l-.16.41a10.53 10.53 0 0 0-.87 5.88zM315.34 77a24.63 24.63 0 0 0 3-3.7c.45-.66.91-1.31 1.39-1.94a22.52 22.52 0 0 0 2.27-3.77c.38-.72.75-1.43 1.28-2.32 2.36-3.93 4.81-8 4.56-12.92a11.09 11.09 0 0 0-1.19-6c-.9-1.87-1.64-3.88-2.36-5.82l-.12-.32a19.94 19.94 0 0 0-7.37-9.33 7.1 7.1 0 0 0-1.21-.66 3.79 3.79 0 0 1-1.35-.87c-1.84-2.08-4.45-3-6.76-3.84l-.43-.16a102.66 102.66 0 0 0-11.41-3.14l-1.4-.33c-.48-.11-1-.25-1.44-.39s-.88-.26-1.33-.37a9.15 9.15 0 0 0-2.22-.24h-2.62a8.61 8.61 0 0 1-1.24-.08c-.64-.09-1.28-.21-1.92-.32-.89-.17-1.78-.33-2.68-.43a37.5 37.5 0 0 0-4-.2c-1.49 0-3 .07-4.47.13-1.1.05-2.22.09-3.49.12-.56 0-1.11-.05-1.67-.1s-1.17-.1-1.75-.1a7.35 7.35 0 0 0-1.48.14 20.41 20.41 0 0 1-4.08.35c-1 0-2.05 0-3.08-.09l-1.84-.06c-.94 0-1.87.08-2.8.17s-1.78.16-2.68.16a10.87 10.87 0 0 1-1.14-.05h-1a21.09 21.09 0 0 0-3.58.39 21.81 21.81 0 0 1-3.43.37 46.56 46.56 0 0 0-10.3 1.56l-2.37.53c-1.39.3-2.77.56-4.16.82-2.41.45-4.91.92-7.34 1.57a5.07 5.07 0 0 0-.9.38 2.4 2.4 0 0 1-.77.3 53.52 53.52 0 0 0-7.1 1.48c-1.19.3-2.37.61-3.57.87-2 .43-4 1-5.94 1.55-1.57.43-3.13.87-4.71 1.25s-3 .67-4.48 1c-2.3.48-4.68 1-7 1.64-.57.16-1.15.29-1.73.41a17.73 17.73 0 0 0-2.72.73c-.44.17-.89.36-1.32.56a10.71 10.71 0 0 1-2.52.89 38 38 0 0 0-4.59 1.18 39.8 39.8 0 0 1-4 1.1c-1.56.32-3.08.77-4.61 1.22-.82.24-1.65.48-2.48.7l-2.11.55a19.16 19.16 0 0 1 2 4.65l1.72-.51 1.17-.34c3.4-1 6.94-1.94 10.5-2.8 1.48-.35 2.91-.83 4.34-1.32a35.67 35.67 0 0 1 6.12-1.65 19.15 19.15 0 0 0 3.07-.77 22.34 22.34 0 0 1 2.23-.61 26.29 26.29 0 0 0 3.53-1.06 25.88 25.88 0 0 1 3.1-1l1.55-.33a50 50 0 0 0 6-1.54 79.57 79.57 0 0 1 10.37-2.63l2.08-.43c2.12-.45 4.25-.86 6.39-1.27l3.49-.67c1.55-.3 3.1-.64 4.64-1a65.84 65.84 0 0 1 14.28-2 45.81 45.81 0 0 0 5.8-.5 45.65 45.65 0 0 1 5.61-.48h1.17a6.78 6.78 0 0 0 3.32-.76 21.11 21.11 0 0 0 3 .19c1.44 0 2.88-.11 4.3-.21l1.35-.1c1.38-.09 2.77-.1 4.15-.1a50 50 0 0 0 5.58-.22 6.79 6.79 0 0 1 .9-.05 12.12 12.12 0 0 1 2.8.38 23.08 23.08 0 0 0 5.3.82h.42a9.64 9.64 0 0 0 1.08-.12 6 6 0 0 1 1.05-.12 2.42 2.42 0 0 1 .45 0 87.52 87.52 0 0 1 9.49 2.2c.88.24 1.76.44 2.65.64a30.37 30.37 0 0 1 4.62 1.33 39.68 39.68 0 0 1 7.76 4.09c3.26 2.24 5.67 4.42 6.85 7.72a51.63 51.63 0 0 0 2.83 6.25 10.69 10.69 0 0 1 .63 8.41 38.83 38.83 0 0 1-3.39 7.34l-1 1.85a67.64 67.64 0 0 1-6.33 9.38 57.33 57.33 0 0 1-8.34 8.29l-1.13 1c-1.86 1.63-3.9 3.1-5.87 4.52-1.08.78-2.16 1.56-3.22 2.37a70.7 70.7 0 0 1-7.63 4.85l-1.87 1.08a27.55 27.55 0 0 1-2.95 1.42A23.19 23.19 0 0 0 278 99.5a79.54 79.54 0 0 1-7.72 4.37c-6 3-11.46 5.55-16.57 7.86a75.59 75.59 0 0 1-11 3.75c-1.14.32-2.26.69-3.39 1.06-1.53.51-3.11 1-4.71 1.37-1.73.6-3.43 1.11-5.13 1.57-.56.23-1.09.42-1.69.71a10.57 10.57 0 0 1-1 .35c-1.4.17-2.81.27-4.21.37a36.68 36.68 0 0 1-7.32.22h-.36c-.41 0-.82 0-1.22-.09-4.39-.43-9.8-2-13.77-1.25h-.37a3.56 3.56 0 0 0-.49.19 5.6 5.6 0 0 0-.82.33 1.86 1.86 0 0 0-.2.1c-2.22 1.23-2.32 3.64-.41 6.28a1.59 1.59 0 0 0 .82.59 6.86 6.86 0 0 0 .59.48 12.48 12.48 0 0 0 3.75 1c.58 0 1.15 0 1.72-.08l2.62-.22c6.22 0 12-1.76 18.12-2.71.1 0 .16-.07.25-.09h.06a2.34 2.34 0 0 0 .85-.24l1.31-.41c2.66-.83 5.4-1.68 8.13-2.34l1.28-.3a20.88 20.88 0 0 0 4.36-1.32c1.7-.81 3.43-1.53 5.17-2.24 1.19-.49 2.37-1 3.55-1.5.85-.37 1.74-.67 2.62-1a20.9 20.9 0 0 0 3.87-1.56c2-1.12 4.11-2.11 6.15-3.06 1.08-.5 2.16-1 3.23-1.53.75-.36 1.51-.7 2.27-1a30.68 30.68 0 0 0 4-2c1.49-.91 3-1.74 4.55-2.57 2.07-1.12 4.21-2.28 6.22-3.64a32.28 32.28 0 0 1 4.37-2.31c1.27-.59 2.59-1.21 3.84-2a81.86 81.86 0 0 0 8.57-5.91L301 90c2.37-1.85 4.82-3.76 7.14-5.76.46-.4.94-.79 1.43-1.18a24.68 24.68 0 0 0 3.71-3.47l.72-.94a13.77 13.77 0 0 1 1.34-1.65z" fill="#221f1f"/><path d="M200.33 84.2c.28-.18.56-.34.85-.51a7.29 7.29 0 0 0 3.37-3.29 2.71 2.71 0 0 1 .56-.94 27.45 27.45 0 0 0 4.26-4 32.39 32.39 0 0 1 3.41-3.32 18.09 18.09 0 0 0 1.58-1.46 12.42 12.42 0 0 1 2.07-1.78 30.45 30.45 0 0 0 4.89-4.07l.84-.8q.45-.44.9-.9a13.11 13.11 0 0 1 2.26-2 8.07 8.07 0 0 0 1.93-1.57 19.59 19.59 0 0 1 1.49-1.53l.71-.69a20.19 20.19 0 0 1 4.66-3.21c.75-.42 1.5-.84 2.23-1.3a27.24 27.24 0 0 1 7-2.87l1.38-.36a1.94 1.94 0 0 1 .14-.55c.66-1.36 1.25-2.75 1.94-4.09-.79.17-1.56.34-2.29.53a43.25 43.25 0 0 0-14.9 6.57 95.92 95.92 0 0 0-11.08 9.69l-.69.7a11.85 11.85 0 0 1-2 1.82 51.61 51.61 0 0 0-8.12 6.91l-1 1c-1.12 1.09-2.17 2.25-3.21 3.41a47.15 47.15 0 0 1-4.83 4.86L198 81a36.81 36.81 0 0 0-3.52 3.14l-.7.75c-2.41 2.54-4.91 5.18-7.48 7.63-1.61 1.53-3.39 3-5.11 4.35l-1.6 1.29a17.47 17.47 0 0 0-1.87 1.88 11 11 0 0 1-2.54 2.32 38.58 38.58 0 0 0-7 5.91c-.86.85-1.72 1.69-2.61 2.51a53.28 53.28 0 0 1-7.14 5.66 20.44 20.44 0 0 0-5.5 4.8 21.39 21.39 0 0 1-4.3 4.15 69.49 69.49 0 0 0-6.12 5.41l-2.3 2.17c-1.81 1.7-3.69 3.46-5.41 5.32a4.59 4.59 0 0 1-1 .75 4.83 4.83 0 0 0-1.62 1.46 11.92 11.92 0 0 1-2.46 2.56l-.8.68a35.24 35.24 0 0 1-4 3c-.88.59-1.76 1.18-2.61 1.81-2.22 1.65-4.3 3.47-6.6 5.49a47.42 47.42 0 0 1-4.3 3.24c-1.24.85-2.46 1.7-3.63 2.65a81.84 81.84 0 0 1-7.89 5.44l-1 .64a63.49 63.49 0 0 1-9.21 5l-.81.35a48.72 48.72 0 0 0-7.59 3.77 23.61 23.61 0 0 1-8 3.47 24.36 24.36 0 0 0-5.31 2c-.93.44-1.87.89-2.83 1.26-.71.27-1.42.57-2.13.88a30.88 30.88 0 0 1-3.79 1.44c-.8.22-1.6.47-2.39.72a32.55 32.55 0 0 1-5.86 1.43 9 9 0 0 0-2.49.82 7.56 7.56 0 0 1-1.92.66 13.84 13.84 0 0 0-2.78.73 9.88 9.88 0 0 1-3.4.69 2.72 2.72 0 0 0-.74.13 2.37 2.37 0 0 1-.34.08 10.58 10.58 0 0 0-2.94.87c-.45.18-.89.36-1.34.51a16.45 16.45 0 0 1-5.12.68c-1.12 0-2.23-.06-3.34-.12-.73 0-1.46-.08-2.18-.1a23.16 23.16 0 0 1-7.25-1.77 43.53 43.53 0 0 1-7.83-4.29l-.29-.18a6.14 6.14 0 0 1-1.53-1.91C6 181 5.55 178.47 6 175.1a10.09 10.09 0 0 1 .8-2.42l.28-.64.28-.73a6 6 0 0 1 1.35-2.4 33.3 33.3 0 0 1 9-6 11.39 11.39 0 0 1 4.84-1.35h.5c.52 0 1.05.06 1.58.06a12.44 12.44 0 0 0 6.66-1.62 2.72 2.72 0 0 0 1.61-2.75c-.3-2.45-1.85-3.92-4.65-4.13a7.21 7.21 0 0 0-3.42-.84 16.3 16.3 0 0 0-4.5.86c-.55.16-1.09.32-1.64.45-3 .73-5.24 2.63-7.44 4.47l-1.54 1.27a12.34 12.34 0 0 1-1 .71 11.17 11.17 0 0 0-1.71 1.3 24 24 0 0 0-6 9 19.28 19.28 0 0 0-.93 7.85c.14 2.36 1.43 4.43 2.55 6.27l.37.59c1.39 2.3 3 4.89 6.07 5.94a17.54 17.54 0 0 1 3.12 1.35c4.33 2.5 9.11 3 13.74 3.48l.69.07a19.65 19.65 0 0 0 2 .1 39.32 39.32 0 0 0 10.27-1.82c1.26-.34 2.53-.69 3.8-1 3.41-.78 6.85-1.73 10.18-2.65l3.17-.88a89.18 89.18 0 0 0 13.68-5.1l.76-.35a28.28 28.28 0 0 1 5.39-2.05 20.33 20.33 0 0 0 5.93-2.42 65.59 65.59 0 0 1 6.44-3.27c.86-.4 1.73-.77 2.6-1.14a40.48 40.48 0 0 0 6.55-3.28l2.71-1.76c2.54-1.64 5.16-3.33 7.62-5.2 1.37-1.05 2.8-2 4.23-3s3.16-2.14 4.66-3.31 3.11-2.52 4.63-3.81c2.1-1.77 4.27-3.61 6.54-5.23a61.94 61.94 0 0 0 7.91-7c4.7-4.73 9.68-9.33 14.51-13.78l2.55-2.37c.48-.44.93-.91 1.38-1.39a17.88 17.88 0 0 1 2.11-2l2.58-1.91c3-2.2 6.09-4.48 8.93-7l2.11-2a55.47 55.47 0 0 1 6.33-5.36 41.18 41.18 0 0 0 6-5.45c.89-.93 1.79-1.86 2.72-2.74a9.25 9.25 0 0 1 1.66-1.16 7.62 7.62 0 0 0 2.66-2.27 11.32 11.32 0 0 1 2.28-2.31c.29-.24.58-.48.86-.73a30.43 30.43 0 0 0 4.41-4.54 13.9 13.9 0 0 1 3.56-3.51zM257.11 62.18a9.86 9.86 0 0 0-1 1.63 7.2 7.2 0 0 1-2.58 3.31c-1.47.86-2.89 1.8-4.32 2.73a48.35 48.35 0 0 1-8.88 5 17.93 17.93 0 0 1-5.49 1.39c-1 .06-2 .07-3.06.09s-2.32 0-3.64.12a1.65 1.65 0 0 1-1.62-1.81v-1a5 5 0 0 0-.33-2.73 2.44 2.44 0 0 0-2.39-1.46c-1.24.06-1.63 1.17-1.84 1.76a2.6 2.6 0 0 0-.09 1.18 2 2 0 0 1 0 .73 9 9 0 0 0 2.9 7.13 6.73 6.73 0 0 0 2.9 1.27l.83.24a12.26 12.26 0 0 0 3.43.65 5.3 5.3 0 0 0 1.39-.17l.65-.16a61.65 61.65 0 0 0 7.78-2.31c.54-.21 1.08-.39 1.62-.58a12.88 12.88 0 0 0 4.63-2.26c.72-.62 1.47-1.22 2.21-1.82 1.18-1 2.41-1.93 3.52-3a13.87 13.87 0 0 1 2-1.51 11 11 0 0 0 3-2.57c.8-1.1 1.53-2.26 2.25-3.42s1.48-2.36 2.31-3.48a11.54 11.54 0 0 0 1.57-2.75l.5-1.31c.16-.4.32-.81.47-1.22a11.11 11.11 0 0 0-1.7-7.33 16.57 16.57 0 0 0-2.73-2.89 22.11 22.11 0 0 0-5.94-1.31c-.67-.06-1.34-.09-2-.09a27.91 27.91 0 0 0-3.06.2 1.89 1.89 0 0 1 .18 2.17c-.45.81-.83 1.64-1.21 2.48h.26c.55.07 1.1.11 1.66.14 1.65.11 3.2.2 4.51 1.22a4.51 4.51 0 0 1 1 1.22 8.34 8.34 0 0 0 .67 1c2 2.44 1.61 5.11.84 7.63a6.24 6.24 0 0 1-1.2 1.89z" fill="#221f1f"/><path data-name="rbcTwE" d="M225.1 189.94a9.18 9.18 0 0 1-2.68-2.31c-1.5-1.56-3.11-3-5.45-3.13a.48.48 0 0 1-.17-.05 19.09 19.09 0 0 1-4.06-3 15.68 15.68 0 0 0-3.45-2.45 5.38 5.38 0 0 1-2.58-2.37 11.14 11.14 0 0 0-1.72-2.8 4 4 0 0 1-.77-4.16 34 34 0 0 0 1.18-7.57 5.08 5.08 0 0 1 .54-2.6 2.93 2.93 0 0 0 .45-1.31c.14-1.32 1-2.35 1.44-3.52.39-1 1.16-1.81 1.11-2.92a3.32 3.32 0 0 1 .45-1.67c.48-.93 1.45-1.33 2.16-2a6.71 6.71 0 0 0 2.19-2.85 47.64 47.64 0 0 0 1.23-6.6 5.1 5.1 0 0 1 1.39-2.64c1.41-1.67 1.8-3.87 2.79-5.78l.3-.58h-.12l-1.84.51c-.66 1.17-1.05 2.48-1.8 3.61a14.77 14.77 0 0 0-1.66 3 8.77 8.77 0 0 0-.88 2.63 4 4 0 0 1-.55 2.28.21.21 0 0 0-.07.16c.35 1.39-.64 2.43-.94 3.65a1 1 0 0 1-.44.73A8.44 8.44 0 0 0 209 148a4.27 4.27 0 0 0-1.68 2.73 9 9 0 0 1-1.35 3.94 10.87 10.87 0 0 0-1 2.67c-.29 1.07-.7 2.11-1 3.18a16.83 16.83 0 0 0-.34 3.4 16 16 0 0 1-.9 4.69 9.94 9.94 0 0 0-.44 4.69c0 .26.08.57.32.71 1 .56 1.25 1.64 1.83 2.49a28.82 28.82 0 0 0 2 3c.14.15.4.35.2.61a.44.44 0 0 1-.64 0c-1-.82-2.45-.79-3.45-1.75a3.27 3.27 0 0 1-1.16-1.67c-.17-.91-.31-1.84-.39-2.78a26.67 26.67 0 0 0-.57-3.43 10.34 10.34 0 0 1-.1-1.75c0-.64-.41-.88-1-1s-.6.39-.74.78a6.73 6.73 0 0 0 0 2.45 1.71 1.71 0 0 1 0 .87c-.69 1.3-.41 2.69-.31 4a4.65 4.65 0 0 1-.31 2.17c-.44 1.13-1.45 2-1.42 3.35 0 .19-.14.42 0 .59.83 1.2.5 2.63.84 3.93.17.66.87 1.14.66 1.94.89.43 1.13 1.38 1.62 2.12.26.4 0 .73-.54.6a1.42 1.42 0 0 0-.78 0c-1 .53-1.59 0-2.15-.69-.15-.21-.41-.32-.25-.67a.5.5 0 0 0-.24-.61c-.84-.35-1.31-1.23-2.14-1.55a.8.8 0 0 1-.56-1 3.88 3.88 0 0 0-.09-2.16.64.64 0 0 1 0-.41 9.44 9.44 0 0 0 .41-3.12 1.64 1.64 0 0 1 1.3-1.72 2.32 2.32 0 0 0 1.73-2c.14-2.3.75-4.52 1-6.79a5.44 5.44 0 0 0 .06-1.65c-.35-1.52.61-2.41 1.44-3.38a5 5 0 0 0 1.34-3 3.15 3.15 0 0 1 .49-1.56c.53-.83.19-1.81.26-2.72a6.65 6.65 0 0 1 .28-1.72 3.28 3.28 0 0 1 2.16-2.88c1.19-.52 1.72-1.85 2.24-3 .07-.16 0-.38.13-.51 1.36-1.78 1.28-4 2-6a16.06 16.06 0 0 1 2-4.56 5.56 5.56 0 0 0 .87-1.8 4.64 4.64 0 0 1 1.52-2.32 1.67 1.67 0 0 0 .74-1.82c-.1-.32.09-.56.24-.81s.31-.56.45-.84c-.74.19-1.49.38-2.24.55a21 21 0 0 1-.93 1.91c-1.1 1.9-2.45 3.73-3 5.95a4.3 4.3 0 0 1-.24.92 19.07 19.07 0 0 0-1.66 5.31 8.53 8.53 0 0 1-1.32 3.13 4.26 4.26 0 0 1-1.32 1.11c-.2.15-.42 0-.64-.13-1.57-.69-2.29-2.25-3.34-3.43-1.66-1.86-1.69-4.45-2.07-6.78-.23-1.44-.27-2.95-.5-4.41-.47-.46-.49-1.15-.88-1.69-.59-.82-1-1.76-1.51-2.64-.81-1.42-1.59-2.85-2.47-4.22a4 4 0 0 1-.61-1.33 2.75 2.75 0 0 0-.68-1.4 5.68 5.68 0 0 1-.9-1.7 20.15 20.15 0 0 0-1-2.22 26.22 26.22 0 0 1-2.12-4.6 20.48 20.48 0 0 1-.65-3.66 23.51 23.51 0 0 0-1.84-6.6q-1.48 1.65-3.09 3.14a3.36 3.36 0 0 1-.66 2.15 3.35 3.35 0 0 0-.28 2.48 10.05 10.05 0 0 1 .13 3.72 19.12 19.12 0 0 1-.39 2.83c-.47 1.46 0 2.78.18 4.12a5.49 5.49 0 0 0 1 2.49c.14.18.34.4.33.59 0 2 1.18 3.77 1.43 5.74a34.52 34.52 0 0 0 .75 3.61c.15.68-.36 1.1-.63 1.57a3 3 0 0 0-.21 2.12c.27 1.41.52 2.83.72 4.25.12.88-.09 1-.91.73a4.06 4.06 0 0 1-3.05-3.91 6.94 6.94 0 0 0-1.16-3.56c-.27-.4-.1-.79-.18-1.23.22-1.2-.62-2.18-.92-3.3-.48-1.79-1-3.57-1.38-5.4a10.58 10.58 0 0 0-1.63-3.64c-.27-.41-.52-.57-1-.37-.66.27-1.23.28-1.28-.68 0-.47-.48-.71-.68-1.1a16.86 16.86 0 0 1-1.18-4c-.49.36-.94.74-1.42 1.1 0 .06 0 .12.07.17a6.76 6.76 0 0 1 .46 2 8.3 8.3 0 0 0 1.11 2.72 17.06 17.06 0 0 0 .75 1.77 1.21 1.21 0 0 0 1.25.61 1.91 1.91 0 0 1 1.93 1.58c.4 1.71.52 3.48 1.44 5.08a8.31 8.31 0 0 1 .53 2.7 9.47 9.47 0 0 1 1 3.48c.34 1.7.93 3.32 1.31 5a2.23 2.23 0 0 0 1.38 1.58c1.37.59 1.77 1.83 1.49 3.34a10 10 0 0 0-.29 2.95 22.24 22.24 0 0 1 0 2.45c0 .12 0 .27-.15.26a.42.42 0 0 1-.28-.17 1 1 0 0 1-.18-.4 13.47 13.47 0 0 0-3-6c-.68-.89-1.14-1.92-1.8-2.83-.46-.65-.17-1.55-.44-2.29-.05-.14 0-.32-.06-.43-1-1.69-1.43-3.63-2.79-5.11a9.25 9.25 0 0 1-2.17-3.83c-.61-2.27-2.45-4.31-2.7-6.68-.09-.84-1.59-2.8-1.78-3.62a7.66 7.66 0 0 0-.76-1.43c-.49.41-1 .85-1.46 1.27a25.25 25.25 0 0 1 2 4.16c.1.84 1.14 1.54 1.23 2.4 0 0 .1 0 .27.09.53 1.09.87 2.26 1.38 3.37.29.63.26 1.4.6 2.08a12 12 0 0 1 1.56 3 3.28 3.28 0 0 1 1.06 1.13c.43.71.85 1.45 1.29 2.14.85 1.35.63 3 1.38 4.33a25.26 25.26 0 0 0 1.6 3.1c1 1.4 2.3 2.59 2.65 4.42s1.16 3.38 1.45 5.17c.23 1.39.88 2.69 1 4.14s1.11 2.88 1.6 4.36A16.09 16.09 0 0 0 184 171a22.4 22.4 0 0 1 1.92 2.9c.26.53.08 1.22.56 1.64a1.21 1.21 0 0 1 .32 1.19 8.39 8.39 0 0 1-1.5 3.86 3.44 3.44 0 0 1-3.06 1.55 3.81 3.81 0 0 0-3.24 1.18c-.15.14-.27.4-.48.26-1.1-.68-2 .24-3 .4a2.25 2.25 0 0 0-1 .31 37 37 0 0 0-4.26 3.54c-.49.46-.69 1.26-1.37 1.44-1.52.42-2 2-3.26 2.76a1.31 1.31 0 0 0-.15 1.84c.44.59 1 .15 1.42 0 .3-.12.54-.36.83-.49.77-.35 1.51-1.13 2.28-1 1.47.27 2.56-.88 3.94-.79a1.23 1.23 0 0 0 .9-.25 2.43 2.43 0 0 1 2.87 0 4.79 4.79 0 0 0 4.81.11 2.3 2.3 0 0 1 1.35-.09c.8.07 1.35.83 2.19.76a1.82 1.82 0 0 0 .87.08 11.17 11.17 0 0 0 5.53-2.41c1-.81 1.45-.65 1.84.62s1.35 1.71 2.19 2.42c.18.15.4 0 .59 0 1.48-.59 2.71 0 3.85.87a14 14 0 0 1 2.25 1.66 1.21 1.21 0 0 0 .9.26c1.66.08 3.33-.38 5 .14a.33.33 0 0 0 .17 0 2.82 2.82 0 0 1 2.2.2 1 1 0 0 0 1.21-.27c.32-.33-.15-.56-.21-.85s-.32-.49-.48-.73a22.63 22.63 0 0 0-2.37-2.89c-.15-.16-.51-.33-.26-.65s.5-.16.8-.07a23.79 23.79 0 0 0 3.87 1 3.73 3.73 0 0 0 2.25-.16 3.41 3.41 0 0 1 3.54.13c1 .52 2.08.18 3.1.65a2.14 2.14 0 0 0 2.2-.58c.49-.54.67-1.29-.01-1.6zm-40.22-20.69a5.1 5.1 0 0 1-1-2.2c-.43-1.34-1.28-2.49-1.62-3.86-.18-.7 0-1.48-.49-2.11a39 39 0 0 0 .56-8.63 22 22 0 0 1 .34-4.36c.12-.59.6-.85 1-1.16a3.57 3.57 0 0 0 1.08-4.12c-.53-1.45-1.19-3.09-.56-4.54 1-2.34.34-4.44-.25-6.63a5.42 5.42 0 0 1-.17-1.13 8.36 8.36 0 0 0-.78-2.27 32.77 32.77 0 0 1-2-7.42 4 4 0 0 1 .17-1.73 11.33 11.33 0 0 0 .26-5.72 3.55 3.55 0 0 1 .37-2.54 18.15 18.15 0 0 0 1-2.3 8.28 8.28 0 0 1 .78 4.94 1.6 1.6 0 0 0 .11 1 14.28 14.28 0 0 1 .95 2.71c.32.94.92 1.72 1.3 2.62.82 2 1.81 3.82 2.73 5.72.08.16.18.36.06.49-.71.76-.13 1.49.13 2.11.55 1.36.41 2.81.77 4.17a43.68 43.68 0 0 1 .69 4.8c.11.71-.3 1.26-.31 1.95a15.45 15.45 0 0 0 .42 5.2c.14.41.17.93-.62.92-.63 0-1.33 1.2-1.21 1.91a21.21 21.21 0 0 0 1.14 5.42c.4.89 0 2 .36 3a.35.35 0 0 1-.23.43.42.42 0 0 1-.48-.13 2.62 2.62 0 0 0-1.62-.78 1.75 1.75 0 0 0-2.33 1.27v.18a2 2 0 0 0 .15 2 2.94 2.94 0 0 1 .31 1.77 21.54 21.54 0 0 0 .72 3.32c.3 1.51.79 3 1.14 4.48a18.14 18.14 0 0 1 .35 2.95c0 .65.27 1.26.29 1.91 0 .2 0 .45-.21.52s-.3-.17-.42-.33a27.56 27.56 0 0 0-2.88-3.83zm6.54 10.83a31 31 0 0 1 0 4.09 12.07 12.07 0 0 1-.46 2.63c-.1.53-.21 1-.84 1.23s-.71.73-1.16 1.06c-1.85 1.39-3.73.63-5.58.28a1.89 1.89 0 0 0-1.78.48c-.18.14-.32.51-.53.39-.77-.46-1.71-.06-2.43-.55a16.6 16.6 0 0 0-2.34-.9 1 1 0 0 0-1.08.15c-.67.89-1.76.66-2.59 1.1-.4.21-1 .41-1.31 0s.3-.62.49-.92c1.09-1.68 2.91-2.41 4.49-3.45a2 2 0 0 1 2 .1c.74.31 1.46.22 1.76-.57.4-1.05 1.22-1.13 2.08-1a4 4 0 0 0 1.91-.39 5.34 5.34 0 0 0 3.21-3c.22-.53.53-1 1.25-.88.37 0 .52-.26.55-.56.2-1.79 1.18-3.43 1.16-5.22a14.82 14.82 0 0 0-.52-4.87 3.25 3.25 0 0 1-.27-1.45c.16-1.12-.5-2.08-.55-3.15.14-.21 0-.38 0-.57-.84-1.8-.84-3.79-1.33-5.67-.1-.38-.16-.83.47-.91s.63.27.74.66a12.36 12.36 0 0 0 1.29 2.47 1.29 1.29 0 0 0 1.34.46 1.38 1.38 0 0 0 1.1-1 8.62 8.62 0 0 0-.14-4.25 16.18 16.18 0 0 1-.6-3.07 6.74 6.74 0 0 0-.6-2.47 4.46 4.46 0 0 1-.12-2.17c0-.18.07-.3.21-.33 1.64-.35 1.29-1.68 1.29-2.75a7.27 7.27 0 0 0-.51-2.47 6.43 6.43 0 0 1 .05-3.2 5.38 5.38 0 0 0 0-3.41 2.93 2.93 0 0 1-.08-1.39c.08-1.15-.47-2.23-.29-3.38v-.32c0-.03.27.08.33.19a12 12 0 0 0 .5 1.22 18.08 18.08 0 0 1 1.53 2.4 4.94 4.94 0 0 1 .37.88 27.12 27.12 0 0 1 .61 5v.17c.51 2.5.93 5.08 2.64 7.1.86 1 1.61 2.14 2.53 3.11a1.75 1.75 0 0 1 .12 2.44c-.53.79-.52 1.8-.95 2.64 0 .05.08.11.08.16a21.12 21.12 0 0 1-1.06 6.5 2.89 2.89 0 0 1-1.43 1.61c-.64.32-.76.84-.84 1.56a44.76 44.76 0 0 1-.55 5.93c-.33 1.32-.61 2.65-.94 4a1.42 1.42 0 0 1-1 1.12 3.55 3.55 0 0 0-2.22 3.14zm28.7 8.86c-.22.34-.5.15-.77 0a2.45 2.45 0 0 0-3.09.21c-.42.39-.85.25-1.3.16a3.73 3.73 0 0 1-2.92-.4 2.75 2.75 0 0 0-1.39-.47 6.06 6.06 0 0 1-1.91-.31c-1.2-.45-2.47-.13-3.7-.11a2.08 2.08 0 0 1-.61 0c-.43-.14-.66.11-.85.43a2.81 2.81 0 0 0 .57 2.33c.92.95 2.19 1 3.28 1.44a2 2 0 0 1 .72.47c.13.15.38.26.25.51s-.32.21-.51.28a5.86 5.86 0 0 1-4.91-.64c-.24-.59-.18-1.24-.44-1.86a7.56 7.56 0 0 0-2.54-2.88 3.9 3.9 0 0 1-1.3-3.18c0-1 .19-2.1-.43-3.06-.36-.56.09-1 .3-1.45a3.77 3.77 0 0 1 1.39-1.83 16.3 16.3 0 0 1 2.19 1.68c1.9 1.24 3.82 2.42 6.19 2.59.78.05 1.57.05 2.35.14a2 2 0 0 1 1.61 1 5.36 5.36 0 0 0 3.39 2.17 4.76 4.76 0 0 1 2.12.54l2.05 1.55c.22.16.47.37.26.69zM236.44 85a32.18 32.18 0 0 0-2.18 6.56c-.12.8-.57 1.47-.66 2.33s-.06 1.72-.19 2.58a22 22 0 0 0-1.55 3.79c-.08.23-.15.47-.22.7s-.42.72-.64 1.08-.47.7-.72 1a4.74 4.74 0 0 1-.54.29 2.88 2.88 0 0 0-.56.34c0-.26-.29-.33-.5-.39s-.31.22-.33.4c-.35 2-1.33 3.91-1.8 5.93a24.42 24.42 0 0 1-1.68 4.68A12.39 12.39 0 0 0 224 118c0 .15-.06.29-.08.43-.6 0-1.21.06-1.81.12a3.59 3.59 0 0 1 .39-1.44c-.56-1.56.46-2.85 1.08-4a13.07 13.07 0 0 0 1.36-3.61c.43-2.07 1.44-4 1.71-6a2.82 2.82 0 0 1 .45-1 5.81 5.81 0 0 0 .86-2.74 2.51 2.51 0 0 1 .24-.93c.22-.44.47-.92 1-.7s1.07.55.9 1.31c-.08.35-.16.69-.22 1 0 .18-.17.46.12.51s.38-.2.37-.41c0-1.19.68-2.17.86-3.29a2 2 0 0 0 .08-1 5.39 5.39 0 0 1 .43-3.09c.48-1.74 1.16-3.44 1.62-5.21a13.22 13.22 0 0 1 1.16-2.57c.65-.09 1.29-.23 1.92-.38zm-5.22.74c-.39.62-.79 1.25-1.21 1.87-1.12 1.68-2.3 3.4-2.51 5.52a4 4 0 0 1-.22.67 4.09 4.09 0 0 1-1.32 1.7c-.9.93-1.08 2.25-1.77 3.3a4.52 4.52 0 0 0-1 2.07c-.09 1.34-.92 2.52-.76 3.91a2.51 2.51 0 0 1-.54 1.46 8.62 8.62 0 0 0-1 2c-.49 1.78-.15 3.77-1.29 5.39a.39.39 0 0 0 0 .26 9.45 9.45 0 0 1-1.27 4.93h-2a20.45 20.45 0 0 0 1.44-4c.58-2.38.95-4.79 1.45-7.18a6 6 0 0 1 .92-2 7.87 7.87 0 0 0 .92-3.25c.16-1 .74-1.92.56-3a.51.51 0 0 1 .18-.38c1-.9 1.2-2.17 1.7-3.3 0-.08.05-.2.11-.23.62-.3.8-1 1.2-1.44a3.21 3.21 0 0 0 .81-1.55 10.56 10.56 0 0 1 1.7-4.24c.58-.8 1.12-1.62 1.66-2.44zm27.59-55.84c-.09.47-.14.95-.23 1.42a21.71 21.71 0 0 1-.39 3.32c-.3.83-.77 1.67-1.08 2.53-.63 1.8-2.11 3-3.15 4.48s-2.4 2.88-2.87 4.76a.44.44 0 0 1-.07.17 5.89 5.89 0 0 0-1.13 2.55 30.9 30.9 0 0 0-1.36 5.6 9.36 9.36 0 0 1-1.53 3.84 28.48 28.48 0 0 0-2.38 5.5c-.39.69.52 1.27.17 2-.39 1.16-.45 2.43-.93 3.52-.38.88-.71 1.79-1.1 2.68a6.93 6.93 0 0 0-2.12.41 40.16 40.16 0 0 0 2.1-5.31c.46-1.41-.31-2.83.4-4.24.63-1.25.74-2.7 1.69-3.89a16.64 16.64 0 0 0 1.65-3.23 9.18 9.18 0 0 0 .57-2.8 30.28 30.28 0 0 1 1.68-5.54 29 29 0 0 1 3.78-6.55c.55-.8 1.47-1.24 1.9-2.2a24.67 24.67 0 0 0 2.06-5c.21-1.09-.11-2.26.5-3.29 0-.2.06-.39.09-.59zm-3.43.12l-.1.22c-.84 1.59-2.21 2.93-2.38 4.85 0 .15-.18.3-.27.45-.62 1-1.29 2-1.86 3.06a8.5 8.5 0 0 0-.94 2.33 7.55 7.55 0 0 1-1.12 3.15 5.2 5.2 0 0 0-.88 1.72 29.68 29.68 0 0 1-1.76 4.62 10.56 10.56 0 0 1-2.95 3.58 3.68 3.68 0 0 0-1.63 3.2 12.88 12.88 0 0 1 0 3.72c-.1.56-.38 1.05-.46 1.59-.24 1.59-.79 3.09-1.14 4.65a4 4 0 0 0 .05 2.31c.43 1.2-.34 3-1.53 3.23a3.37 3.37 0 0 0-2.28 1.56 1.91 1.91 0 0 0-1.16-.42h-.76c.64-.93 1.07-2 2.13-2.62a2 2 0 0 1 1.12-.42c.62 0 .74-.38.63-.89a5.72 5.72 0 0 1 .22-3.76c.64-1.4.78-3 1.28-4.44a11.79 11.79 0 0 0 .27-3.05c0-.22-.15-.3-.31-.37a1.9 1.9 0 0 0 .21-1.17 1.5 1.5 0 0 1 .33-1.24c.06-.07.16-.15.15-.21-.17-1.82 1.41-2.51 2.39-3.51a14.93 14.93 0 0 0 3.42-5.8 10.07 10.07 0 0 1 1.63-3.59.29.29 0 0 0 .07-.16c0-1.35.85-2.46 1.11-3.73.19-.94 1-1.5 1.2-2.39.39-1.51 1.52-2.64 2.29-4 .4-.69.61-1.44 1-2.13l.15-.29c.57-.07 1.23-.07 1.88-.07zm30.07-26.16a3.25 3.25 0 0 1-2 1.66 3.63 3.63 0 0 0-2 1.37c-.67 1-1.86.86-2.8 1.27-1.84.82-3.58 0-5.37-.16a4.79 4.79 0 0 0-2.16.11 8.33 8.33 0 0 1-2.47.31c-1.26.1-1.56.92-1.89 1.73-.52 1.27-.86 2.61-1.3 3.91a19.54 19.54 0 0 1-1.07 3c-.12.22-.19.45-.3.67-.63 0-1.26.07-1.89.13.65-1.79 1.46-3.54 2-5.37.49-1.64 1.19-3.21 1.67-4.86s.92-1.83 2.52-1.46c1.14.26 2.27 1.11 3.53.27.24-.16.62 0 .94 0 1.5.14 3 .77 4.5.23A19.32 19.32 0 0 0 282.19 4c.46-.35.15-.64-.17-.67-1-.08-1.9-.59-2.92-.43a1.89 1.89 0 0 1-1-.05 14.77 14.77 0 0 0-4.1-.79 21.38 21.38 0 0 0-7.45.39c-2 .49-3.85-.13-5.77-.31-1.29-.13-2.48-.85-3.85-.61-.46.08-.8.42-1.32.4-1 0-2 .1-3 .12a1.07 1.07 0 0 0-.81.45c-.67.78-.36 2.36.64 3.26a1 1 0 0 0 1.11.23 3.14 3.14 0 0 1 1.8-.16 2.91 2.91 0 0 0 2.2-.34c1.53-1 3.27-.52 4.93-.6a2.13 2.13 0 0 1 .92.28c.41.21.84.64.52 1-.73.89-.34 2.14-1.13 3-.61.66-.57 1.64-.92 2.44-.94 2.11-1.82 4.24-2.58 6.42h-2a13.43 13.43 0 0 1 .8-1.88c1.32-2.54 2-5.36 3.2-8a1 1 0 0 0-1-1.58 4.67 4.67 0 0 0-2.1.51 4 4 0 0 1-2.91.39 2.67 2.67 0 0 0-2 0 3.68 3.68 0 0 1-2.71-.17c-.46-.13-.4-.86-.4-1.32a1.57 1.57 0 0 0-.36-1c-1.17-1.53-.59-3.15 1.17-4a12.77 12.77 0 0 1 5.38-.87 10.92 10.92 0 0 0 2.29-.11 1.92 1.92 0 0 1 1.1.14c1.17.43 2.45.11 3.63.5.13 0 .37-.05.43 0 .68.9 1.45.27 2.18.15 1-.17 2.08-.32 3.12-.5a3.8 3.8 0 0 1 1.54.19c1.25.29 2.52-.46 3.72.06a4.7 4.7 0 0 0 2.6.1A4.88 4.88 0 0 1 279 1a1.9 1.9 0 0 0 1.1.17 4.9 4.9 0 0 1 3 .49 3.83 3.83 0 0 0 1.3.34 1.3 1.3 0 0 1 1.05 1.86zM155.9 104.2c.64 1.79 1.27 3.57 1.75 5.4a10.31 10.31 0 0 0 .72 2.5l.11.19c.75-.53 1.5-1.06 2.26-1.58-.11-1-.23-2-.4-3s0-1.77.74-2.16a3 3 0 0 0 1.24-1.3 4.56 4.56 0 0 0 .67-3c-.15-1.28.18-2.58 0-3.86a.39.39 0 0 1 .09-.32c.12-.12.18 0 .26.12a1.57 1.57 0 0 0 1.64.46c.76-.21.74-.9.86-1.48a7.53 7.53 0 0 0-.45-3c-.44-2.19-1.55-4.2-1.84-6.41-.2-1.56-.34-3.12-.56-4.68-.09-.65-.69-1.1-.66-1.68 0-1.47-.65-2.84-.51-4.33a7.69 7.69 0 0 0-.44-1.92 27.15 27.15 0 0 1-.36-5.63 19.5 19.5 0 0 0-.74-4.83c-.41-1.72-.92-3.41-1.34-5.12a5.46 5.46 0 0 0-.84-1.79c-.81-1.22-1.28-2.6-2-3.86-.36-.66-.68-1.3-1.55-1.35-.46 0-.61-.39-.78-.74-.55-1.11-.87-2.3-1.32-3.44a13.22 13.22 0 0 0-3.62-5.28c-1.1-.94-2.36-1-3 .56a1 1 0 0 1-1.09.67c-.54 0-.79-.41-1-.86-1.08-2.77-.61-5.57-.15-8.37a.79.79 0 0 1 .4-.65c1.44-.57 1.64-1.89 1.76-3.13.24-2.38.76-4.74.52-7.16 0-.24 0-.6.28-.66s.39.26.53.49a22.69 22.69 0 0 1 2.29 5.81 6.74 6.74 0 0 1 .41 3.52 5.66 5.66 0 0 0 .16 2.68 3.4 3.4 0 0 0 1.27 1.62c1 .74 1.31 2 2.08 2.86.95 1.13 1 2.6 1.48 3.92.29.82.26 1.86 1.17 2.46.33.21.39.76.51 1.19a6.87 6.87 0 0 0 1.18 2.51c.89 1.13 1.66 2.36 2.56 3.51a22.58 22.58 0 0 1 .95 2.18c.48.82.41 1.85 1.07 2.63a3 3 0 0 1 .58 1.51 11 11 0 0 0 1.21 3.25c.7 1.57 1.13 3.26 1.91 4.76a36.15 36.15 0 0 1 2.35 6.84c.26.91.93 1.66 1 2.69a8.12 8.12 0 0 1 0 3.33 2.1 2.1 0 0 0 .09 1 1.63 1.63 0 0 1 0 1.21 3.61 3.61 0 0 0 0 2.72 14.29 14.29 0 0 1 .28 3.06 9.53 9.53 0 0 0 .37 2c.41 1.7 1.13 3.29 1.67 5a4.69 4.69 0 0 1 .25 3.24 2.78 2.78 0 0 0 0 1.22 3 3 0 0 1-.59 1.87 5 5 0 0 0-.49 1.28c1-.93 2-1.85 3-2.75a19.71 19.71 0 0 0 .11-3.52 9.8 9.8 0 0 0-1-3.23c-.6-1.43-.92-3-1.4-4.41-.59-1.76 0-3.64-.73-5.35-.25-.56.13-1.15.23-1.72 0-.06 0-.2.11-.14s.07.15.1.23a31.59 31.59 0 0 1 .87 3.31c.37 1.23.16 2.79 1.44 3.59s1.41 2.17 2.55 2.88c.41.25.4.82.61 1.24a21.24 21.24 0 0 1 1.59 3.91 15.37 15.37 0 0 1 1.43-.8 1.46 1.46 0 0 1 .2 0 18.05 18.05 0 0 1-.87-2.16 12.38 12.38 0 0 0-2.94-5.19c-.66-.73-1.55-1.23-1.93-2.24a48 48 0 0 1-1.28-5.26 5.53 5.53 0 0 0-.33-1.43 16.89 16.89 0 0 1-1.53-4.14c-.24-.93-.27-2-1.11-2.69a4.3 4.3 0 0 1-.74-1.06c-.27-.43 0-.86-.2-1.28-.75-1.8-1.44-3.64-2.18-5.45-.39-.94-.81-1.87-1.28-2.78-.74-1.45-.78-3.13-1.53-4.58a14.18 14.18 0 0 1-1.35-3 15.34 15.34 0 0 0-2.27-4.29c-.5-.82-1.32-1.42-1.6-2.36-.34-1.15-1-2.16-1.43-3.26a34.58 34.58 0 0 1-1.72-4.11c-.15-.63.09-1.42-.53-1.89a7.28 7.28 0 0 1-1.3-1.64 8.65 8.65 0 0 0-.71-1.1c-1.05-1-2.15-1.91-1.5-3.6a.8.8 0 0 0 0-.43c-.26-1.43-.57-2.84-.78-4.27a22.76 22.76 0 0 0-1.32-4.2 5.79 5.79 0 0 0-1.52-2.8 10 10 0 0 1-2.82-4.55c-.4-1.09-.63-2.3-1-3.46a5.17 5.17 0 0 1-.15-1.83c.06-.74.35-1.57 1.11-1.73a4.93 4.93 0 0 0 2.36-1.23 1.65 1.65 0 0 1 2.33-.1 1.35 1.35 0 0 0 1.06.35 5.23 5.23 0 0 1 2.52 0c1.05.25 2-.26 3-.3a11.44 11.44 0 0 0 3.4-.17c.59-.2 1.15-.44 1-1.19a4.28 4.28 0 0 1 .07-1.56 2 2 0 0 0-1.42-2c-.31-.05-.62-.11-.38-.55a.38.38 0 0 0 0-.41c-.31-.67-2.35-1.62-2.92-1.19-.76.58-1.31.21-1.92-.08a4.07 4.07 0 0 0-1.17-.36c-2-.32-4.14.23-6.17-.4a.25.25 0 0 0-.17 0 12.71 12.71 0 0 1-3.73.64 6 6 0 0 1-2.51.27 4 4 0 0 0-2.89.39 2.28 2.28 0 0 1-1.88 0c-.74-.26-1.44-.62-2.15-.89a6.79 6.79 0 0 0-4.57-.1c-.93.3-1.65 1.06-3 .7a6 6 0 0 0-4 .82 2.82 2.82 0 0 1-2.46.1 4.61 4.61 0 0 0-2.75-.07 3.86 3.86 0 0 1-2.79-.19 3.18 3.18 0 0 0-1.85-.69 21.08 21.08 0 0 0-5 .83c-1.85.66-3.79 1.12-5.41 2.43-1.38 1.12-1.68 2.84-.33 4.08a9.51 9.51 0 0 0 5.27 2.07c.23 0 .47 0 .69.08 1.22.64 2.62.31 3.89.72a.72.72 0 0 0 .43-.05 7.54 7.54 0 0 1 2.75-.56 2.33 2.33 0 0 1 1.6.45 9.5 9.5 0 0 0 1.17.73 9.22 9.22 0 0 1 2.72 2.15 20 20 0 0 1 3.35 6.87c.13.57.07 1.14.24 1.72a33.89 33.89 0 0 0 1.63 5.25c.16.33.19.77.47 1a3.2 3.2 0 0 1 1 2.54 3.33 3.33 0 0 0 .09.78c.4 1.42.81 2.83 1.22 4.24.11.39.26.76.4 1.14s.83.74.84 1.18a4.1 4.1 0 0 0 1.37 3 .7.7 0 0 1 .14.41c.15 2 1.4 3.54 2.38 5.14a28.91 28.91 0 0 0 1.61 2.89.54.54 0 0 1 .07.34c0 1.26.05 2.51 0 3.78a4.09 4.09 0 0 0 .63 2.44 3 3 0 0 1 .5 2.13 12.64 12.64 0 0 1-.43 1.32 1.58 1.58 0 0 0 1 2.14c.42.15.47.49.58.82a68.7 68.7 0 0 1 1.53 7.39 4.42 4.42 0 0 0 1.58 2.7c.26.22.53.37.47.85a1.39 1.39 0 0 0 .6 1.12 3.26 3.26 0 0 1 .83 1.08 4 4 0 0 0 1.36 1.8 2.4 2.4 0 0 1 1.28 2.19c.1 1.34 1 2.31 1.52 3.4a3.6 3.6 0 0 1 .6 1.28c0 .3.26.52.38.77.27.63 1.14.94 1.09 1.64s-.2 1.26.49 1.94.92 2 1.36 3a8.61 8.61 0 0 0 2 3 7.23 7.23 0 0 1 2.44 4.11 24.46 24.46 0 0 0 1.35 4.75zM144 2.31a4.63 4.63 0 0 1 2.8-.25c1.55.48 3.15.12 4.73.24a3 3 0 0 1 .83.11 6.85 6.85 0 0 0 3.17.53 1.42 1.42 0 0 1 1.56.69 1.34 1.34 0 0 0 .59.51 1 1 0 0 1 .57 1 1.14 1.14 0 0 1-.78 1 12.06 12.06 0 0 1-2.66.53 4.69 4.69 0 0 0-2.63 0 1.52 1.52 0 0 1-1.38-.42c-.8-.91-1.79-.44-2.67-.27A6.54 6.54 0 0 0 146 7.06c-.87.58-1.46.27-1.66-.75a15.3 15.3 0 0 0-.82-2.83c-.22-.57-.09-.98.48-1.17zm-16.6 23a.7.7 0 0 1 0 .35c-.13.34 0 .92-.38 1s-.43-.53-.64-.82c-1.17-1.63-1.07-3.62-1.53-5.44a19.77 19.77 0 0 0-2.73-6.12 23.79 23.79 0 0 0-3.31-3.68 7.64 7.64 0 0 0-3.47-1.78 3.91 3.91 0 0 0-2.4-.11c-1.8 1.06-3.48-.05-5.17.09a7.3 7.3 0 0 1-3.49-.94 4.05 4.05 0 0 1-1.74-.86c-.5-.54-.4-1.1.3-1.26s1.22-.42 1.4-1.29c.14-.63 1-.73 1.55-.77a6.53 6.53 0 0 0 2.29-.45 1.8 1.8 0 0 1 1.67-.1 1.1 1.1 0 0 0 .87 0 2.52 2.52 0 0 1 1.89.1 10 10 0 0 0 2.43.59 5.76 5.76 0 0 0 2.48-.12 3.41 3.41 0 0 1 2 .36 3.39 3.39 0 0 0 3.43-.61 3.19 3.19 0 0 1 3 0c1 .85 1.17 1 1.17 1.34 0 0-.06.2-.12.21-.49.07-.35.21-.1.45a2.25 2.25 0 0 1 .53 2.45 4.07 4.07 0 0 0 .91 3.75 8.69 8.69 0 0 1 2.76 8.86c0 .22-.18.57-.32.59a2.83 2.83 0 0 0-1.68 1.33c-.59.89-1.83 1.57-1.56 2.92zm3.18 10.23a8 8 0 0 0-.09 1c0 .27.11.66-.22.73s-.36-.33-.44-.59a29.06 29.06 0 0 1-1.32-4.81c-.08-.62.21-1.28.16-1.91a10.44 10.44 0 0 1 .17-3.48 3.67 3.67 0 0 1 1.24-2.69 3 3 0 0 1 1-.71 2.42 2.42 0 0 0 1.5-1.93c.17-.86.26-1.74.41-2.61a6.35 6.35 0 0 0-.3-3.31 12.83 12.83 0 0 0-1.84-3.86c-.27-.32-.47-.74-.8-.93-1-.55-.91-1.43-.92-2.36 0-1.66.15-3.36-.57-4.95-.22-.48-.06-.66.39-.83a5.52 5.52 0 0 1 4 .27 7.65 7.65 0 0 0 4.66.59 6.19 6.19 0 0 1 1.85-.45c1.44 0 1.79.28 2.27 1.63a16.64 16.64 0 0 1 .66 2.66c.22 1.14-.47 2.06-.84 3a7.46 7.46 0 0 0-.55 2.7c0 .71.26 1.69-1 1.94-.44.08-.67.72-.77 1.12-.23.92-1.27 1.48-1.08 2.55a.26.26 0 0 1 0 .17c-.95 1.64-1.22 3.59-2.46 5.12a3 3 0 0 0-.28 2.68 2.39 2.39 0 0 1 0 1.38 7.21 7.21 0 0 0 .19 4.31c.11.25.26.45.1.73a2.94 2.94 0 0 0-.13 2.6c.08.23.17.49-.07.64s-.37-.12-.52-.24c-.46-.39-.64-1-1.12-1.41a1.64 1.64 0 0 0-1.91-.44 2.42 2.42 0 0 0-1.33 1.73zm6 18.91c-.12-.06-.16-.36-.17-.56v-1.58a7.26 7.26 0 0 0-.79-3.68c-.85-1.87-2.25-3.42-2.93-5.37a2.81 2.81 0 0 1-.27-1.45 10.87 10.87 0 0 0-.27-4.68c-.13-.51-.08-1 .33-1.14s.71.33.86.66a14.41 14.41 0 0 1 .91 1.69c.19.61.8.68 1.36.33a3.61 3.61 0 0 0 1.56-2.67 18.85 18.85 0 0 0-.14-5.66 12.42 12.42 0 0 1 .1-2v-3.08a2.94 2.94 0 0 1 1.11-2.39c.62-.44.35-1.19.62-1.77.47-1 .73-2.08 1.15-3.1a8.76 8.76 0 0 1 2.44-2.91.52.52 0 0 1 .15-.06c0 .08.06.18 0 .23a3.29 3.29 0 0 0-.27 1.8c0 .51 0 1.08.7 1.2.27.05.38.34.48.59a14.24 14.24 0 0 1 .93 5.3c.06 2.19-.68 4.28-.48 6.46 0 .24 0 .52-.23.61-1.5.46-1.53 1.81-1.89 3s-.25 2.49-.65 3.68a3.74 3.74 0 0 0 0 2 23.44 23.44 0 0 0 1.18 4.59 1.3 1.3 0 0 0 .92.85 5 5 0 0 0 3.5-.25c.33-.15.36-.51.52-.79.24-.44.5-.49.73 0a3.63 3.63 0 0 0 .78.92 10.34 10.34 0 0 1 2 3.66c.55 1.56 1.25 3.07 1.91 4.59.14.33.52.37.84.37a1.19 1.19 0 0 1 1.18.82c.53 1.12 1.19 2.19 1.68 3.34a23.85 23.85 0 0 1 1.94 6.3 17.26 17.26 0 0 0 .58 2.22 10.47 10.47 0 0 1 .1 4.13 11.12 11.12 0 0 0 .43 3.95 23.85 23.85 0 0 1 .94 5.43 1.79 1.79 0 0 0 .07.61 25.5 25.5 0 0 1 1.16 5.8 33.6 33.6 0 0 0 1.05 4 13.87 13.87 0 0 0 .62 2.27c.11.26.28.71-.05.89s-.56-.25-.78-.45c-.67-.61-1.79-.6-1.82.06a10.41 10.41 0 0 0 0 1.37 12.58 12.58 0 0 0 .84 4.28s.07.13 0 .16c-.9 1.23.15 2.85-.83 4.07-.49.62-1.2 1-1.66 1.67a1.56 1.56 0 0 0-.42.84c0 .2.26.51-.1.58-.11 0-.4-.28-.45-.48-.37-1.54-1.05-3-1.53-4.49a2.28 2.28 0 0 0-.45-1c-.31-.3.08-.7 0-.86-.63-1 .21-1.43.61-2.06 1-1.65.86-3.42.74-5.29-.1-1.57-.75-3-.59-4.64a4.13 4.13 0 0 0-.6-1.81 22.27 22.27 0 0 1-1.23-3.73 4 4 0 0 1 .26-1.89 4.5 4.5 0 0 0-.14-2.74 26.73 26.73 0 0 1-.49-2.84c-.6-2-1.41-4-2.16-5.95-.37-1-.16-2.07-.46-3.1s-.27-2.27-.48-3.38c-.28-1.52-.34-3.19-1.9-4.22-.44-.29-.6-1-.95-1.45a3 3 0 0 0-3.48-1.36c-.49.15-1.58-.59-1.88-1.24a14.38 14.38 0 0 0-1.6-2.18c-.41-.56-1-.59-1.78-.33-1.57.5-2.06 1.83-2.87 3-.07.14-.14.48-.44.35zm10.43 26.05c0 .17.05.49-.19.52s-.23-.28-.32-.46a16 16 0 0 0-1.39-2.92c-1.11-1.5-2.2-3-3.29-4.52-.28-.4-.67-.89 0-1.35a.54.54 0 0 0 .14-.48c-.28-1-.05-2.13-.3-3.17a4.2 4.2 0 0 1 .1-2.14c0-.16.3-.57.43-.17.3.88 1 1.5 1.34 2.35a21.46 21.46 0 0 0 1.15 3c.23.37.44.73.87.78 1.06.14 1.38.85 1.48 1.78a5 5 0 0 0 .3 1.93c-.61 1.61-.2 3.26-.27 4.89zm4.62 10.95c-.55-1.47-1.33-2.84-1.78-4.35a5.25 5.25 0 0 1 .26-2.55c.19-1 .35-1.89-.6-2.61a.58.58 0 0 1-.09-.92c.25-.3-.39-.83.21-1.11l-.52-.37c-1-.72-.48-1.72-.4-2.58.22-2.21.3-4.37-1-6.33a1.41 1.41 0 0 0-.75-.57c-1.42-.36-1.61-1.65-2-2.71a26.35 26.35 0 0 0-2.33-4.19 1 1 0 0 0-1.13-.3 1.21 1.21 0 0 0-.84 1.13c-.18 1.27-.78 2.51-.27 3.83 0 .09 0 .23-.08.34-.11.27-.18.62-.57.55s-.23-.42-.25-.67a18.78 18.78 0 0 0-1.25-6.41 11.28 11.28 0 0 1-.72-3 3.79 3.79 0 0 1 .66-2.84 7.5 7.5 0 0 0 .64-1.44c.49-1.18 1.28-1.29 2.23-.44a14.56 14.56 0 0 1 2 2.47 2 2 0 0 0 2.35.68 1.93 1.93 0 0 1 2.38 1.22 3.07 3.07 0 0 0 1.22 1.6 3.26 3.26 0 0 1 .92 3c-.22.55.29.87.24 1.33-.14 1.39.56 2.68.49 4s.65 2.29 1.08 3.41a24.18 24.18 0 0 1 1.76 5.63 5 5 0 0 1-.41 3.08c-.45.82.11 1.61.37 2.34.54 1.53 1 3.08 1.56 4.59s.4 3 .9 4.41a4.21 4.21 0 0 1 0 1.66 4.74 4.74 0 0 0 0 1.13c.07.48.07 1-.52 1.24a.49.49 0 0 1-.68-.1 11.46 11.46 0 0 1-3.03-4.11zM149 79.86c.06-.08.13-.16.19-.25l-.07.3zm51 98.69l-.14-.32c.14.04.14.17.14.32zm57-147.93v-.05.09zm-17.51 27.63l-.11.06h.07zM186 192.14l-.18.18.18-.18zm-.19.17zM244.77 66zm-.18-1.94zm-78.14 65.44zM170 138zm28 49.9zm3.17-32.1zm-1.94.17zm-13.75.35zm-36-76.9h.2-.05l-.14-.07zm0 0zm.18.54zm66 106.19zm-.71 3.19z" fill="url(#a)"/></svg>