<svg data-name="Layer 1" xmlns="http://www.w3.org/2000/svg" viewBox="0 0 317.91 79.52"><path d="M6.16 20.07v10.7H0V.4h10.87c7 0 11.36 3.21 11.36 9.72s-4.32 10-11.36 10zM10 14.88c4.27 0 6.08-1.5 6.08-4.76 0-2.9-1.81-4.49-6.08-4.49H6.16v9.25zM60.12 30.77l-5.46-11.93h-4.93v11.93h-6.16V.4h10.87c7 0 11.36 3.12 11.36 9.28 0 4.1-1.89 6.78-5.19 8.15l6.29 12.94zm-6.25-17.12c3.65 0 5.77-.8 5.77-4s-2.12-4-5.77-4h-4.14v8zM107.26.4v5.23H94.49v6.83h11.45v5.19H94.49v7.92h12.77v5.2H88.33V.4zM144.93 8.27c-1.32-2.06-2.9-3.08-6-3.08-2.77 0-4.27 1.28-4.27 3.35 0 2.38 1.94 3.43 6 4.45 6.34 1.58 9.2 4 9.2 9.33 0 5-3.34 8.84-10.47 8.84-5.33 0-9-1.45-11.71-5l4.71-3.26a7.58 7.58 0 0 0 6.6 3c3.52 0 4.71-1.54 4.71-3.39 0-2.11-1.27-3.3-6.2-4.58-6-1.58-9-4.44-9-9.46 0-4.8 3.17-8.54 10.38-8.54 4.85 0 8.5 1.63 10.66 5zM187.85 8.27c-1.32-2.06-2.91-3.08-6-3.08-2.77 0-4.27 1.28-4.27 3.35 0 2.38 1.94 3.43 6 4.45 6.34 1.58 9.2 4 9.2 9.33 0 5-3.35 8.84-10.48 8.84-5.32 0-9-1.45-11.7-5l4.7-3.26a7.59 7.59 0 0 0 6.61 3c3.52 0 4.71-1.54 4.71-3.39 0-2.11-1.28-3.3-6.21-4.58-6-1.58-9-4.44-9-9.46 0-4.8 3.17-8.54 10.39-8.54 4.84 0 8.49 1.63 10.65 5zM221.12 25.57h12.76v5.2H215V.4h6.16zM273.67.4v5.23h-12.76v6.83h11.44v5.19h-11.44v7.92h12.76v5.2h-18.92V.4zM300 .4l5.41 11.31L310.82.4h7.09l-9.47 18v12.37h-6.16V18.35L292.82.4zM69.76 79.3h-3.05l-4-15.14H66l2.25 10.13 2.2-10.13h3.29zM89.62 64.16V79.3h-3.21V64.16zM110.81 79.3l-4.07-8.48v8.48h-3.21V64.16h2.88l4 8.44v-8.44h3.21V79.3zM136.11 64.16v2.9h-5.39v3.27h4.66v2.91h-4.66v3.16h5.52v2.9h-8.73V64.16zM155.74 72.58v6.72h-3.19v-6.64l-4.75-8.5h3.79l2.55 5.1 2.53-5.1h3.78zM178.32 75.74h-4l-1.12 3.56h-3.32l4.83-15.14h3.17l4.84 15.14h-3.32zm-3.16-2.88h2.3l-1.14-4.79zM200.42 64.16c3.14 0 4.42 2.52 4.42 5 0 2-.77 4-2.86 4.55l3.21 5.6h-3.45l-2.84-5.14h-.66v5.13H195V64.16zm-2.18 2.9v4.2h1.56c1.52 0 1.83-1.15 1.83-2.11s-.31-2.09-1.83-2.09zM218.22 79.3V64.16h5.37c3.87 0 6.11 3.29 6.11 7.6s-2.24 7.54-6.11 7.54zm5.37-2.9c1.87 0 2.9-2 2.9-4.64s-1-4.7-2.9-4.7h-2.16v9.34zM245.31 74.33c0 1.15.42 2.27 1.83 2.27a1.42 1.42 0 0 0 1.65-1.28 1.8 1.8 0 0 0-1.5-1.91l-1.41-.41a4.5 4.5 0 0 1-3.4-4.49 4.27 4.27 0 0 1 4.64-4.51c2.59 0 4.5 1.49 4.5 4.75h-3.21c0-1.19-.44-1.83-1.45-1.83a1.26 1.26 0 0 0-1.27 1.39 1.64 1.64 0 0 0 1.1 1.58l1.51.46a4.74 4.74 0 0 1 3.7 5.13c-.26 2.13-1.58 4-5 4-3.6 0-5-2.59-5-5.21h3.19z"/></svg>