<svg data-name="Layer 1" xmlns="http://www.w3.org/2000/svg" viewBox="0 0 452.62 138.67"><defs><linearGradient id="a" x1="354.45" y1="122.68" x2="436.11" y2="41.02" gradientUnits="userSpaceOnUse"><stop offset="0" stop-color="#988447"/><stop offset=".05" stop-color="#9e8a4f"/><stop offset=".33" stop-color="#b9a775"/><stop offset=".59" stop-color="#ccbc90"/><stop offset=".82" stop-color="#d8c9a0"/><stop offset="1" stop-color="#dccda6"/></linearGradient></defs><path d="M343.52 103a1.41 1.41 0 1 1 1.85.73 1.41 1.41 0 0 1-1.85-.73zm-1.89-14.9a1.39 1.39 0 0 0-1 1.64c.17 1 .91 1.37 2.49 1.1l1.17-.2c1.53-.26 2.15-.89 2-1.86a1.35 1.35 0 0 0-1.5-1.21l-.28-1.59a2.79 2.79 0 0 1 3.19 2.55c.32 1.86-.59 3.36-3.11 3.79l-1.17.2c-2.55.43-3.87-.68-4.19-2.53a2.88 2.88 0 0 1 2.15-3.49zm5.2-4.26l-8.31-3.05v-1.62l8.48-2.82v1.8l-1.59.49-.05 2.8 1.58.53zm-3-2.83v-1.89l-3 .9zm2.26-8.75l.61-3.47 1.41.24-.9 5.15-8.21-1.49.29-1.68zm3.3-7.37l-.52 1.62-8-2.52.51-1.62zm-4.24-11.38l1.31.62-1.46 3.14 1.88.88 1.35-2.85 1.29.61-1.35 2.86 3.1 1.46-.73 1.54-7.54-3.59zm10.67-1c-1.08 1.54-2.78 2-4.87.49l-1-.69c-2.11-1.49-2.26-3.22-1.18-4.76s2.77-2 4.88-.49l1 .69c2.13 1.42 2.35 3.16 1.2 4.7zm-3.89-.9c1.31.92 2.15.88 2.72.08s.33-1.63-1-2.55l-1-.69c-1.3-.92-2.16-.87-2.73-.07s-.32 1.62 1 2.54zm10.8-7.11l-3.37-1.31-1 .95 2.29 2.36-1.22 1.18-5.84-6 2.15-2.09c1.38-1.34 2.85-1.56 4-.35a2.23 2.23 0 0 1 .54 2.61l3.73 1.35zm-4.53-2.18c.73-.71 1-1.27.38-1.89s-1.19-.4-1.91.31l-.82.79 1.54 1.58zm8.49-11.14l4.62 7-1.19.78-5.57-2.52 2.85 4.32-1.34.89-4.62-7 1.18-.77 5.62 2.57-2.86-4.45zm9.12 4.82l-1.55.71-3.53-7.6 1.55-.72zm2.16-1l.41-8.87 1.56-.46 5.18 7.2-1.73.52-.94-1.38-2.7.8v1.67zm1.81-3.7l1.82-.53-1.75-2.57zm12.2.67l-.14-8.36 3-.05c1.89 0 3.23.92 3.27 3.59v1.09c0 2.65-1.26 3.65-3.15 3.69zm4.42-3.71v-1.19c0-1.44-.43-2.18-1.55-2.16h-1.28l.09 5.49h1.28c1.14-.02 1.52-.79 1.49-2.24zm11.1-3.49l-.24 1.43-3.47-.57-.3 1.85 3.11.51-.23 1.41-3.11-.51-.36 2.15 3.47.58-.23 1.41-5.14-.95 1.36-8.25zm3.29 8.13l3.34 1.12-.46 1.36-4.94-1.66 2.66-7.93 1.61.54zm13.38-1.68l-.66 1.29-2.06-1.06-3.17 6.18-1.51-.78 3.23-6.28-2.06-1.05.66-1.29zm-2.94 8l7.31-5 1.31 1-2.63 8.46-1.45-1.07.53-1.59-2.25-1.66-1.35 1zm4-.78l1.52 1.12 1-2.93zm14 12.27l-.61.47c-2 1.56-3.65 1.31-4.8-.18s-1.05-3.24 1-4.79l.85-.66c2.14-1.65 3.83-1.28 5 .21a2.88 2.88 0 0 1-.28 4.08l-1-1.29a1.38 1.38 0 0 0 .13-1.92c-.6-.78-1.44-.78-2.71.19l-.94.73c-1.27 1-1.48 1.8-.88 2.57s1.29.71 2.15.17l-.86-1.29 1.13-.87zm.17 9.17l2.25-2.84-.62-1.21-2.94 1.5-.77-1.51 7.46-3.83 1.37 2.67c.89 1.72.67 3.19-.85 4a2.22 2.22 0 0 1-2.65-.25l-2.39 3.18zm3.42-3.69c.47.9.93 1.32 1.7.92s.74-1 .27-1.93l-.52-1-2 1zm-1 10.49c-.53-1.81.18-3.4 2.64-4.13l1.14-.34c2.48-.74 3.93.21 4.47 2s-.16 3.4-2.64 4.14l-1.14.34c-2.4.61-3.87-.33-4.41-2.15zM445 64c-1.54.45-2 1.15-1.75 2.09s1.07 1.27 2.61.81l1.14-.3c1.54-.46 2-1.16 1.75-2.1s-1.07-1.26-2.61-.8zm-1.25 11.1l-.12-1.61 8.23-2.49.14 1.8-5.43 1.5 5.62 1.2.11 1.53-5.42 2 5.62.71.13 1.82-8.5-1.33-.13-1.59 5.63-2.18zm7.52 16.9L443 90.72l.21-1.4 5.61-2.45-5.12-.78.24-1.59 8.28 1.24-.21 1.4-5.69 2.45 5.2.79zm-3.56 10.22a1.41 1.41 0 1 1-.76-1.84 1.42 1.42 0 0 1 .76 1.81zM349.42 117l1.72-3.18-.82-1.08-2.62 2-1-1.35 6.68-5 1.8 2.39c1.15 1.54 1.19 3-.17 4a2.22 2.22 0 0 1-2.65.2l-1.8 3.53zm2.73-4.21c.6.8 1.13 1.14 1.82.61s.55-1.13-.06-1.94l-.68-.9-1.77 1.32zm2.58 10.21c-1.36-1.3-1.53-3 .24-4.89l.82-.86c1.79-1.87 3.51-1.76 4.87-.47s1.56 3-.23 4.9l-.82.86c-1.77 1.81-3.51 1.73-4.88.46zm1.47-3.72c-1.11 1.16-1.19 2-.48 2.68s1.56.57 2.66-.59l.82-.86c1.11-1.16 1.19-2 .47-2.69s-1.55-.56-2.65.6zm6.08 9.84c-1.56-1.06-2-2.75-.56-4.87l.67-1c1.46-2.14 3.18-2.32 4.74-1.26s2 2.74.57 4.88l-.67 1c-1.45 2.13-3.19 2.28-4.75 1.21zm.84-3.91c-.9 1.32-.85 2.17 0 2.72s1.63.31 2.53-1l.67-1c.91-1.32.84-2.18 0-2.73s-1.62-.3-2.53 1zm13.44 2.1l-.63 1.3-2.07-1-3 6.24-1.53-.73 3-6.25-2.08-1 .62-1.3zm5.09 3.91a1.7 1.7 0 0 0-1.33-1.3c-.73-.22-1.23 0-1.39.54s.23 1.06 1.22 1.66c1.54.92 2.11 1.78 1.67 3.2s-1.59 2.06-3.47 1.49a3.69 3.69 0 0 1-2.69-2.26l1.51-.48a2.06 2.06 0 0 0 1.49 1.33c.93.29 1.37 0 1.52-.51s-.08-1-1.27-1.71c-1.45-.9-2-1.89-1.61-3.22s1.53-2 3.43-1.41a3.24 3.24 0 0 1 2.41 2.17zm7.35 2.73l1.68.12.13-1.71 1.33.09-.12 1.71 1.69.12-.09 1.31-1.69-.12-.13 1.7-1.33-.1.12-1.69-1.68-.12zm16.12-1.8a1.72 1.72 0 0 0-1.76-.59c-.76.12-1.11.53-1 1.1s.67.85 1.81 1c1.8.16 2.68.69 2.91 2.15s-.55 2.56-2.49 2.86a3.69 3.69 0 0 1-3.4-.87l1.15-1.08a2.1 2.1 0 0 0 1.93.55c1-.15 1.21-.62 1.14-1.12s-.49-.85-1.89-1c-1.7-.18-2.63-.84-2.85-2.2s.51-2.47 2.48-2.77a3.26 3.26 0 0 1 3.11.91zm5.56-.13l2.76-.9-1-3.16 1.61-.52 2.58 8-1.61.52-1.11-3.44-2.76.9 1.11 3.43-1.61.53-2.58-8 1.62-.52zm12.14.57c-1.66.88-3.37.49-4.56-1.78l-.56-1.05c-1.2-2.29-.55-3.9 1.11-4.77s3.37-.52 4.58 1.77l.55 1c1.2 2.24.56 3.91-1.12 4.79zm-3.06-2.59c.75 1.42 1.52 1.77 2.39 1.3s1-1.3.29-2.71l-.56-1.06c-.75-1.41-1.53-1.75-2.4-1.3s-1 1.3-.27 2.72zm11.22-2.6c-1.5 1.13-3.24 1-4.79-1l-.71-1c-1.56-2.07-1.18-3.75.32-4.89s3.24-1 4.8 1l.71.94c1.55 2.08 1.18 3.78-.31 4.93zm-3.43-2c1 1.28 1.78 1.5 2.57.9s.8-1.44-.16-2.72l-.72-1c-1-1.28-1.8-1.49-2.58-.9s-.8 1.44.17 2.72zm6.3-12.09l1 1-1.6 1.65 5 4.83-1.18 1.21-5-4.83-1.61 1.66-1-1zm5.34-3.6a1.72 1.72 0 0 0-1.66.85c-.44.62-.4 1.16.07 1.49s1.08.12 2-.62c1.37-1.17 2.37-1.43 3.57-.57s1.45 2.18.3 3.78a3.68 3.68 0 0 1-3 1.82v-1.58a2.08 2.08 0 0 0 1.74-1c.57-.79.41-1.31 0-1.6s-.95-.25-2 .66c-1.31 1.08-2.44 1.29-3.57.49s-1.4-2.09-.24-3.71a3.26 3.26 0 0 1 2.83-1.59zm-57.56-36.24a1.45 1.45 0 0 0-.38.51 10.76 10.76 0 0 1-1.35 1.66c-1 1-2.07 2-3.06 3a12 12 0 0 1-1.73 1.61c-.52.36-1 .73-1.5 1.12a2.73 2.73 0 0 1-.61.32 16.4 16.4 0 0 0-1.55.94c-.34.19-.74.25-1.1.43-.86.42-1.72.83-2.57 1.27a6.07 6.07 0 0 1-1.9.54A14.73 14.73 0 0 1 364 85a3.29 3.29 0 0 1-.72-.16 6.06 6.06 0 0 1-2.91-.88 3.57 3.57 0 0 1-1.09-1.47 10.3 10.3 0 0 1-.43-1.63.39.39 0 0 1 .12-.46s.06 0 .06-.08a6.14 6.14 0 0 1 1.1-2.25 2.72 2.72 0 0 1 2.54-1.35 1.41 1.41 0 0 1 1.06 1 .91.91 0 0 1-.58.83 2.63 2.63 0 0 1-1 .13c-.53 0-.74.34-1 .63a2.21 2.21 0 0 0-.47 1.59 2.24 2.24 0 0 0 1.32 1.63c.23.07.42.23.65.3a4.2 4.2 0 0 0 1.17.18 6.07 6.07 0 0 0 2.6-.51 3.64 3.64 0 0 1 .67-.16A10.89 10.89 0 0 0 370 81c1.11-.62 2.11-1.44 3.2-2.1a14 14 0 0 0 1.48-1.26c.64-.52 1.13-1.19 1.74-1.75.33-.3.57-.73.91-1.06.57-.56 1-1.24 1.52-1.83s1.13-1.41 1.72-2.1a4.18 4.18 0 0 1 1-.94 1.48 1.48 0 0 0 .45-.51 3.31 3.31 0 0 1 .77-.77 16.58 16.58 0 0 0 2.05-2.14 9 9 0 0 1 1.34-1.06 3.16 3.16 0 0 0 .68-.58 2.88 2.88 0 0 1 1.17-1 6.4 6.4 0 0 0 1.46-1.07c.88-.69 1.91-1.13 2.75-1.88a2.5 2.5 0 0 1 1.17-.52 3.19 3.19 0 0 0 1-.55 10.15 10.15 0 0 1 1.79-.86 6.32 6.32 0 0 0 1.1-.56 1.22 1.22 0 0 1 .33-.14 9.82 9.82 0 0 0 2-.56 7.89 7.89 0 0 1 1.75-.45h.15a10.06 10.06 0 0 1 2.29-.61c.17-.06.12-.13.12-.24 0-.42-.39-.58-.61-.86a3.27 3.27 0 0 0-2.53-1.09c-.36 0-.72 0-1.08-.12a5.47 5.47 0 0 0-2.17 0c-1.22.24-2.47.32-3.7.55a30 30 0 0 0-3.52.83c-.84.27-1.65.66-2.49.85-1.07.24-2 .8-3.06 1.09a12.63 12.63 0 0 0-1.83.86 24.51 24.51 0 0 0-3.62 2.07 12.4 12.4 0 0 1-1.78 1.13 9.1 9.1 0 0 0-2.15 1.63 5.64 5.64 0 0 0-1.21 1.23c-.45.75-1.19 1.24-1.64 2-.27.46-.64.9-.93 1.36a2.3 2.3 0 0 0-.49 1.82c.18.73.38.9 1.1.68a9.3 9.3 0 0 0 1.71-.5 5.91 5.91 0 0 0 .95-.69 12.17 12.17 0 0 0 1.24-1.35 7.24 7.24 0 0 0 1.4-2.78c.09-.3.06-.61.29-.87a.79.79 0 0 1 .9-.24c.67.37.76.78.44 1.5s-.57 1.36-.89 2a5.05 5.05 0 0 1-1.19 1.73s-.08 0-.09.07c-.33.85-1.18 1.17-1.8 1.72a5 5 0 0 1-1.86 1.16 4.05 4.05 0 0 1-3.15-.1 2.93 2.93 0 0 0-.64-.25 1 1 0 0 1-.73-.85 2 2 0 0 1-.07-1.2 9.42 9.42 0 0 1 1-2.12 4.1 4.1 0 0 1 .83-1.07c.17-.12.17-.36.31-.53s.64-.54.82-.87.65-.79.91-1.23a1.67 1.67 0 0 1 .79-.74 1.31 1.31 0 0 0 .36-.3 9.62 9.62 0 0 1 1.74-1.57 9.46 9.46 0 0 1 1-.73A24.45 24.45 0 0 0 379 59a8.11 8.11 0 0 1 1.63-1 11.48 11.48 0 0 0 2.15-1.23 3.39 3.39 0 0 1 1.26-.49 2.34 2.34 0 0 0 .84-.33c.54-.31 1.13-.48 1.68-.77a2.64 2.64 0 0 1 .74-.16c.4-.07.64-.42 1-.52a4 4 0 0 1 1.14-.26 1.13 1.13 0 0 0 .43-.18 1.75 1.75 0 0 1 .68-.17 4.92 4.92 0 0 0 .77-.25c.46-.11.91-.25 1.36-.4a7.31 7.31 0 0 1 1.56-.18 1.89 1.89 0 0 0 .84-.2 2.26 2.26 0 0 1 1-.15c1.13-.13 2.27-.24 3.41-.33a5.92 5.92 0 0 1 1.49.23 8.69 8.69 0 0 0 1.34.21 5.1 5.1 0 0 1 1.36.47c.29.09.41.53.76.68a3.3 3.3 0 0 1 1.11.83c.26.28.25.66.49 1a1.17 1.17 0 0 1 .21.45c.06.22.27.29.5.27.81-.06 1.6-.22 2.4-.35a6.87 6.87 0 0 1 2.08-.1 12.69 12.69 0 0 0 2.05.16 3.27 3.27 0 0 1 .88.26 4.21 4.21 0 0 1 1.45.52c.08.06.23 0 .36 0a2.13 2.13 0 0 1 1.42.7.92.92 0 0 1 .26 1 1 1 0 0 1-.91.42 7.81 7.81 0 0 1-2.18-.58 7 7 0 0 0-2.76-.55 7.49 7.49 0 0 1-1.4-.15 8.79 8.79 0 0 0-2.05 0c-.43.06-.87.07-1.3.1-.23 0-.38.06-.45.32a3.61 3.61 0 0 0-.21 1 5.14 5.14 0 0 1-.67 2.2 11.18 11.18 0 0 1-2.14 3.12 35.22 35.22 0 0 1-2.93 2.93 12.63 12.63 0 0 1-2.22 1.69 1 1 0 0 0-.48.92 6.41 6.41 0 0 1-.51 3 6.52 6.52 0 0 1-1.08 1.76 3.39 3.39 0 0 0-.38.61c-.52.83-1.42 1.22-2.09 1.87l-.67.64a13 13 0 0 1-2.86 1.99 3.4 3.4 0 0 0-1.35.88c-.08.12-.29 0-.45.08a19.69 19.69 0 0 1-2.38.59 7 7 0 0 1-2.15-.12 5.63 5.63 0 0 1-1.17-.36 1.14 1.14 0 0 1-.63-.66 2.43 2.43 0 0 0-.31-.6 1.06 1.06 0 0 1-.18-.86c.06-.33-.07-.65 0-1a1.54 1.54 0 0 1 .82-1.1c.26-.15.73 0 1 .41l.57.8a2 2 0 0 0 1.13.89 1 1 0 0 1 .32.18 1.92 1.92 0 0 0 1.37.24 7.11 7.11 0 0 0 2.61-.82 13.22 13.22 0 0 0 3.11-2 23.43 23.43 0 0 0 2.08-1.9 4.42 4.42 0 0 0 1.34-2.51 7.24 7.24 0 0 0 .05-1.39c0-.24-.07-.3-.3-.18a11 11 0 0 1-2.2.94 19.14 19.14 0 0 1-2.58.56 3.86 3.86 0 0 1-1.91 0 1.78 1.78 0 0 1-1.15-2.76c.27-.62.84-.88 1.34-1.23.24-.17.46-.36.7-.52a1.2 1.2 0 0 1 .88-.18c.33.05.55-.21.86-.24.68-.08 1.33-.36 2-.41a2.55 2.55 0 0 1 .87.08 5.35 5.35 0 0 1 1.83.53c.36.26.82.39 1.06.82.08.16.22.14.34 0 .78-.6 1.64-1.09 2.37-1.77a26.11 26.11 0 0 0 1.91-1.88 7.94 7.94 0 0 0 .93-1.23 2 2 0 0 1 .36-.45c.18-.18.36-.33.31-.62a.13.13 0 0 1 .07-.15c.35-.16.39-.48.42-.82a.63.63 0 0 1 .12-.33 6 6 0 0 0 .84-2.49c.07-.25-.09-.34-.31-.3l-1.39.26c-.8.16-1.59.39-2.4.54a4.42 4.42 0 0 0-1.16.47 29.46 29.46 0 0 1-2.72 1.14c-.65.25-1.28.55-1.93.81a19.9 19.9 0 0 0-2.71 1.7 2.66 2.66 0 0 1-.78.37c-.27.07-.39.32-.58.48-.65.54-1.46.87-2.06 1.47-.39.38-.8.74-1.2 1.1-.87.79-1.66 1.67-2.59 2.39a2.81 2.81 0 0 0-.69.8 3.74 3.74 0 0 1-.67.77 5.52 5.52 0 0 0-.86 1.28 12.48 12.48 0 0 1-1.51 1.74zm-.94.44l-.17.11c.09 0 .15 0 .16-.11zm12.2-5.63a3.73 3.73 0 0 0-3.11 1.36c-.17.19-.35.46-.09.7a.82.82 0 0 0 1 .21.78.78 0 0 1 .7 0 1.5 1.5 0 0 0 .81.08 14.69 14.69 0 0 0 1.64-.46 3.53 3.53 0 0 0 .72-.22 5.87 5.87 0 0 1 1.18-.58c.12 0 .26 0 .23-.22s-.14-.28-.31-.23a.49.49 0 0 1-.34-.06c-.47-.14-.85-.51-1.38-.5s-.83-.07-1.05-.08zm38.58 20.08a2.75 2.75 0 0 0-1.49-.91 8.56 8.56 0 0 0-3.34-.29 1.75 1.75 0 0 1-.51 0 .36.36 0 0 1-.37-.45 3.23 3.23 0 0 0 0-1.45 1.17 1.17 0 0 1 0-.74.68.68 0 0 0-.21-.79c-.3-.27-.48-.7-.9-.83a18.32 18.32 0 0 0-2.55-.42 2.73 2.73 0 0 0-1.84.31 1.44 1.44 0 0 1-.62.19 7 7 0 0 0-1.2.4c-.25.07-.47.35-.66.32a.73.73 0 0 0-.62.12c-.38.24-.83.28-1.23.51s-.95.48-1.42.73a7.54 7.54 0 0 1-1.83 1c-.22 0-.33.27-.5.38a4.85 4.85 0 0 0-1.29.86.15.15 0 0 1-.13 0c-.4-.07-.64.25-.93.41a2.38 2.38 0 0 1-.52.31 4 4 0 0 0-1.21.78 15.26 15.26 0 0 1-1.91 1.2 11.05 11.05 0 0 0-1.53 1c-.34.27-.72.48-1.06.75s-1 .48-1.33 1.06a1.06 1.06 0 0 1-.52.42 3 3 0 0 0-1 .5 14.71 14.71 0 0 0-1.35 1 4.65 4.65 0 0 1-1.08.86 3.29 3.29 0 0 0-1 .81c-.31.4-.77.59-1.07 1s-.73.46-1 .74c-.83.73-1.66 1.47-2.44 2.26a11.48 11.48 0 0 0-1.46 1.41c-.6.87-1.48 1.48-2.12 2.31-.24.31-.62.54-.81.88-.53.95-1.21 1.8-1.8 2.71-.24.39-.39.82-.63 1.19a4.89 4.89 0 0 0-.82 2.63 3.22 3.22 0 0 0 1 2.71 3.91 3.91 0 0 0 2.15.85c2.5.25 5.33-1 7.59-1.93a58 58 0 0 0 6.92-3.57c3.23-1.91 6.46-4.35 10.22-4.92l.29-.08a3.87 3.87 0 0 1 2.59.18 3 3 0 0 0 1.77.22 2.1 2.1 0 0 0 1.49-.68.75.75 0 0 0 .08-1.1 1.08 1.08 0 0 0-.69-.47 8.91 8.91 0 0 0-1.35-.45c-.58-.08-1.17 0-1.75-.11a5.51 5.51 0 0 0-2.33.43 15.69 15.69 0 0 0-1.6.64 4.08 4.08 0 0 0-1.11.33 14.69 14.69 0 0 1-1.41.76 22.57 22.57 0 0 0-2.11 1.13 20.69 20.69 0 0 1-2.51 1.52c-1.14.55-2.16 1.3-3.27 1.88-.87.45-1.68 1-2.55 1.47-.4.21-.87.29-1.29.48-1 .45-1.95 1-2.95 1.4a18.94 18.94 0 0 0-1.89.83 7.28 7.28 0 0 1-2.73.65c-.56.07-1.28-.36-1.33-.78a5.65 5.65 0 0 1 0-2.65 7.14 7.14 0 0 0 .18-.77 4.86 4.86 0 0 1 .69-1.72c.09-.15.12-.35.27-.46a2.63 2.63 0 0 0 .68-.84 3.91 3.91 0 0 1 .59-.81 14.39 14.39 0 0 0 1.24-1.47 9.63 9.63 0 0 1 .76-.93c.54-.61 1.27-1 1.82-1.63a4.17 4.17 0 0 1 .81-.76 3.58 3.58 0 0 0 .89-.75 7 7 0 0 1 1.67-1.58c1-.72 1.78-1.8 2.9-2.4a.75.75 0 0 0 .27-.26c.17-.34.5-.47.79-.66l.28-.18c.52-.33.9-.89 1.57-1a.33.33 0 0 0 .2-.17 2.85 2.85 0 0 1 1.19-1 3.11 3.11 0 0 0 1.06-.75 2.83 2.83 0 0 1 .92-.73 6.83 6.83 0 0 0 1.07-.66c.59-.52 1.39-.68 2-1.18a4.49 4.49 0 0 1 .51-.38 10 10 0 0 1 1.91-.88 2.49 2.49 0 0 0 .79-.45 4.66 4.66 0 0 1 1.54-1.07 5.85 5.85 0 0 0 1.76-1 1.85 1.85 0 0 1 .68-.32c.69-.12 1.33-.44 2-.57a6.86 6.86 0 0 1 2.7-.27 1.69 1.69 0 0 1 1.24 1.27c0 .26 0 .51.09.76s-.1.35-.31.37l-1.21.07a1.2 1.2 0 0 0-1.06.25 2.93 2.93 0 0 1-.84.32 8.85 8.85 0 0 0-1.21.46c-.54.24-1.06.5-1.58.76-.17.08-.37.07-.49.23a1.11 1.11 0 0 1-.63.4c-.57.12-.91.58-1.36.87a6.05 6.05 0 0 0-1.55 1.22s-.09.08-.13.07c-.53-.08-.63.44-.85.7a9.82 9.82 0 0 1-.86 1.07 1.9 1.9 0 0 0-.55 1 1.67 1.67 0 0 0 .43 1.9c.08.06.07.17.12.23.24.29.35.74.78.81a5.11 5.11 0 0 0 1.17 0 8.33 8.33 0 0 0 2.22-.32 6 6 0 0 0 1.52-.64 13.66 13.66 0 0 1 1.35-.73 6.65 6.65 0 0 0 2-1.5 1.46 1.46 0 0 1 .37-.33 2.29 2.29 0 0 0 .74-.64c.56-.81 1.44-1.31 2-2.16.38-.64 1.05-1.09 1.32-1.82A.4.4 0 0 1 425 89a9.61 9.61 0 0 1 1.2 0 13.2 13.2 0 0 1 1.31.33 4.92 4.92 0 0 1 2.24 1 .75.75 0 0 0 .92 0 .58.58 0 0 1 .17-.06c.23 0 .91-.72.89-1a1.55 1.55 0 0 0-.26-.91zm-8.78 1.15a2.93 2.93 0 0 1-.32.51c-.57.68-1.06 1.41-1.68 2a4.5 4.5 0 0 1-.89.54 11.42 11.42 0 0 1-1 .76c-.66.33-1.18.88-1.85 1.23a7.15 7.15 0 0 1-1.53.6c-.31.08-.59.24-.91.29-.12 0-.21 0-.28-.09a1 1 0 0 1-.64.08.3.3 0 0 1-.27-.38 1.79 1.79 0 0 1 .24-.63 9.73 9.73 0 0 1 1.21-1.37 18.49 18.49 0 0 1 2.99-2.05 10.49 10.49 0 0 1 3.69-1.42c.35-.05.7-.18 1.05-.26s.3-.01.19.19zm-14-12.13zm3.88-1.38a.84.84 0 0 0-.75.56 1.8 1.8 0 0 1-.24.45c-.23.33-.45.65-.71 1a.59.59 0 0 0-.14.34 1.94 1.94 0 0 0-.77.59l.09.08-.36.18a2 2 0 0 1-1.36.54H408.04a3 3 0 0 1 .15-1c.12-.46.27-.91.43-1.36l.28-.8.14-.51a4.27 4.27 0 0 1 .25-.79 16.78 16.78 0 0 0 1.07-3.52.71.71 0 0 0-.07-.54l-.49-.26a.59.59 0 0 0-.56.56l-.09.36a2.24 2.24 0 0 0-.09.45 3.71 3.71 0 0 1-.25.95 5.58 5.58 0 0 0-.23.69 2.67 2.67 0 0 1-.18.49 3.39 3.39 0 0 0-.25.7 4.57 4.57 0 0 1-.28.93l-.16.38-.26.86-.4-.05c-.31.05-.6.12-.93.2a2.12 2.12 0 0 0-.51.24 1.63 1.63 0 0 1-.4.21 2.47 2.47 0 0 0-1 .6l-.54.53a10.34 10.34 0 0 0-.9 1 3.31 3.31 0 0 0-.67 1.77 1.56 1.56 0 0 1-.46 1 4.29 4.29 0 0 1-1.52 1.92 3.88 3.88 0 0 1-1.25.84l-.29.13a1.46 1.46 0 0 1-.48-.18 2.65 2.65 0 0 1-.05-.67 3.35 3.35 0 0 1 .16-.72 4.94 4.94 0 0 0 .19-.78 2 2 0 0 0-.3-1.39l-.48-.24a2.06 2.06 0 0 0-1.27.57c-.21.21-.41.45-.6.68a6.49 6.49 0 0 1-.7.78 1.68 1.68 0 0 0-.37.54l-.19.32a8.75 8.75 0 0 0-.8 1.13c-.15.24-.31.49-.48.72l-.3.43a1.42 1.42 0 0 0-.17-1.31.6.6 0 0 0-1.05-.11 5.88 5.88 0 0 0-.52.6l-.33.39a5.42 5.42 0 0 0-.64.81l-.44.73-.6 1c-.37.1-.51.4-.74.87a2.32 2.32 0 0 1-.17.32 4.24 4.24 0 0 0-.62.9 7.75 7.75 0 0 1-.59.9l-.28.44a2.4 2.4 0 0 0-.66.32l.06.1-.5-.06c-.06 0-.15-.12-.06-.35a1.58 1.58 0 0 0 .07-.65v-.46a5.11 5.11 0 0 1 .09-.75 7.16 7.16 0 0 1 .23-1c.14-.36-.05-.7-.54-.87-.32 0-.45.3-.65.68-.1.18-.22.39-.11.48a4.31 4.31 0 0 0-.64-.07 1.49 1.49 0 0 0-1 .35l-.32.24a2.67 2.67 0 0 0-1 1.15 10.24 10.24 0 0 0-.88 2.3l-.1.41a5.8 5.8 0 0 0-.18 1.13c0 .42.28.91.67.94l.44-.12a2.07 2.07 0 0 0 1.2-.86 4.71 4.71 0 0 0 .58-.85c.12-.23.25-.45.39-.67a10.1 10.1 0 0 0 .51-.91 1.16 1.16 0 0 0 .93 1h.51a1.29 1.29 0 0 0 .91-.35 2.2 2.2 0 0 1 .34-.27 3.27 3.27 0 0 0 1.17-1.34 3.78 3.78 0 0 0 .17-.35 1.87 1.87 0 0 1 .26-.47 3 3 0 0 0 .48-.84 1.32 1.32 0 0 1 .59-.69l.25-.26.13-.35v-.07c.15-.22.33-.42.66-.81s.62-.81.91-1.23l.23-.3a2.68 2.68 0 0 0-.42 1.32l-.05.35a7 7 0 0 1-.45 1.42l-.28.83.3.48.15.19a.69.69 0 0 0 .51-.32 3.29 3.29 0 0 0 .44-.71 5.25 5.25 0 0 1 .51-.89l.49-.72a4.24 4.24 0 0 0 .54-.87 4.63 4.63 0 0 1 1-1.51 1 1 0 0 0 .31-.44 4.18 4.18 0 0 1 .29-.54 6.61 6.61 0 0 1 .5-.7 1.08 1.08 0 0 0 .38-.41 2.38 2.38 0 0 1 .86-.9 2.67 2.67 0 0 1 .34-.15 2.7 2.7 0 0 0-.16.7 1.87 1.87 0 0 1-.12.58 2.77 2.77 0 0 0-.13 1.08 1.32 1.32 0 0 0 1 1.39.94.94 0 0 0 .64.23.71.71 0 0 0 .55-.2c.08-.09.18-.12.39-.16l.38-.22a3.1 3.1 0 0 1 .55-.52l.36-.3c.14-.13.27-.28.43-.46a4.52 4.52 0 0 1 .48-.5 2.88 2.88 0 0 0 .82-1 1.17 1.17 0 0 0 .6.21h.44l.25-.13.09.12.31-.15a2.65 2.65 0 0 1 .45-.41L405 83a10.75 10.75 0 0 0 1.5-1.74l.5-.72v-.06a1 1 0 0 0 .52.53 2.07 2.07 0 0 0 .64.12 1.48 1.48 0 0 0 .38 0 6 6 0 0 0 1.19-.52 4 4 0 0 0 1.24-1.1 1.18 1.18 0 0 1 .28-.22 1.7 1.7 0 0 0 .4-.36 7.55 7.55 0 0 0 .49-.66l.28-.4.27-.28a5.56 5.56 0 0 0 .41-.58.59.59 0 0 0 .06-.46c-.1-.22-.25-.37-.59-.55zm-9.21 6.63a.53.53 0 0 1-.18-.63l.08-.41a2.62 2.62 0 0 1 .5-1.09 3.92 3.92 0 0 1 1.12-1.18l.28-.23a4.58 4.58 0 0 1 1.87-.66v.12a2.94 2.94 0 0 1-.24.46 2.72 2.72 0 0 0-.3.62 5.41 5.41 0 0 0-.93 1.14c-.12.18-.25.35-.38.52a2.84 2.84 0 0 1-.86.83 3 3 0 0 0-.63.53l-.1.11v-.12zm-18.95 8.5c-.35.21-.45.56-.63 1.12-.16.31-.34.61-.57 1s-.44.72-.63 1.1a2.35 2.35 0 0 1-.9.91l.08-.2a1.58 1.58 0 0 1 .11-.61 3.17 3.17 0 0 0 .29-1.22 7.07 7.07 0 0 0 .38-.78 6.52 6.52 0 0 1 .43-.83 1.06 1.06 0 0 1 .42-.36 1 1 0 0 0 .39-.26l.19-.13V91h.07l.22-.08a1.84 1.84 0 0 1 .13.25z" fill="url(#a)"/><g fill="#221f1f"><path d="M7.34 23.91v12.75H0V.47h13c8.34 0 13.53 3.83 13.53 11.59S21.34 23.91 13 23.91zm4.56-6.18c5.09 0 7.24-1.79 7.24-5.67 0-3.46-2.15-5.35-7.24-5.35H7.34v11zM71.63 36.66l-6.5-14.21h-5.88v14.21h-7.34V.47h13c8.29 0 13.48 3.73 13.48 11.07 0 4.87-2.25 8.07-6.18 9.7l7.49 15.42zm-7.45-20.4c4.35 0 6.87-1 6.87-4.72s-2.52-4.83-6.87-4.83h-4.93v9.55zM127.79.47v6.24h-15.21v8.13h13.63V21h-13.63v9.44h15.21v6.19h-22.55V.47zM172.68 9.86c-1.58-2.46-3.47-3.67-7.14-3.67-3.3 0-5.08 1.52-5.08 4 0 2.84 2.3 4.09 7.13 5.3 7.55 1.89 11 4.72 11 11.12 0 5.92-4 10.54-12.48 10.54-6.35 0-10.75-1.73-13.95-5.93l5.61-3.88a9 9 0 0 0 7.87 3.62c4.19 0 5.61-1.84 5.61-4 0-2.52-1.52-3.93-7.4-5.45-7.13-1.89-10.69-5.3-10.69-11.28C153.12 4.46 156.89 0 165.49 0c5.77 0 10.12 1.94 12.69 5.93zM223.8 9.86c-1.57-2.46-3.46-3.67-7.13-3.67-3.3 0-5.08 1.52-5.08 4 0 2.84 2.3 4.09 7.13 5.3 7.55 1.89 11 4.72 11 11.12 0 5.92-4 10.54-12.48 10.54-6.35 0-10.75-1.73-13.95-5.93l5.61-3.88a9 9 0 0 0 7.86 3.62c4.2 0 5.61-1.84 5.61-4 0-2.52-1.52-3.93-7.39-5.45-7.13-1.89-10.7-5.3-10.7-11.28C204.24 4.46 208 0 216.62 0c5.77 0 10.12 1.94 12.69 5.93zM263.44 30.47h15.21v6.19H256.1V.47h7.34zM326.05.47v6.24h-15.2v8.13h13.63V21h-13.63v9.44h15.2v6.19h-22.54V.47zM357.36.47L363.81 14l6.5-13.53h8.45l-11.28 21.4v14.79h-7.34V21.87L348.87.47zM83.12 82.22h-3.64l-4.77-18h3.93l2.67 12.07 2.62-12.07h3.93zM106.77 64.18v18h-3.83v-18zM132 82.22l-4.84-10.11v10.11h-3.83v-18h3.44l4.74 10v-10h3.82v18zM162.16 64.18v3.45h-6.42v3.9h5.56V75h-5.56v3.77h6.58v3.46h-10.4v-18zM185.55 74.21v8h-3.8v-7.9l-5.66-10.13h4.51l3 6.07 3-6.07h4.51zM212.45 78h-4.82l-1.28 4.24h-4l5.76-18h3.78l5.76 18h-4zm-3.77-3.43h2.75l-1.36-5.71zM238.78 64.18c3.74 0 5.26 3 5.26 5.94 0 2.44-.91 4.82-3.4 5.42l3.82 6.68h-4.11L237 76.09h-.78v6.13h-3.83v-18zm-2.59 3.45v5h1.86c1.8 0 2.17-1.37 2.17-2.52s-.37-2.49-2.17-2.49zM260 82.22v-18h6.39c4.62 0 7.29 3.92 7.29 9.06s-2.67 9-7.29 9zm6.39-3.46c2.23 0 3.46-2.41 3.46-5.52s-1.23-5.61-3.46-5.61h-2.56v11.13zM292.27 76.3c0 1.37.49 2.7 2.17 2.7a1.7 1.7 0 0 0 2-1.52c.21-1.39-1-2-1.79-2.28l-1.65-.55a5.34 5.34 0 0 1-4.06-5.34c0-3.3 2.22-5.35 5.53-5.35 3.09 0 5.37 1.79 5.37 5.66H296c0-1.41-.52-2.17-1.73-2.17a1.5 1.5 0 0 0-1.52 1.65A1.94 1.94 0 0 0 294 71l1.81.55c2 .58 4.77 2.26 4.45 6.14-.31 2.54-1.88 4.82-5.92 4.82-4.29 0-5.92-3.1-5.92-6.21h3.8z"/></g></svg>