<svg data-name="Layer 1" xmlns="http://www.w3.org/2000/svg" viewBox="0 0 26.17 36.22"><path d="M26.17 11.47a4.88 4.88 0 0 0-3.67-4.74 3.88 3.88 0 0 0-5.78-3.32 4.49 4.49 0 0 0-8.77.21 6.25 6.25 0 0 0-1.49-.17A6.46 6.46 0 0 0 .03 9.91a6.78 6.78 0 0 0 3.19 5.7.69.69 0 0 0 0 .32l3.04 19.62a.76.76 0 0 0 .74.63h13.08a.74.74 0 0 0 .74-.63l3.1-19.66a.74.74 0 0 0 0-.21 5.19 5.19 0 0 0 2.25-4.21zM7.65 34.72L4.78 16.55h3.18l1.59 18.16zm5.14 0h-1.76L9.47 16.55h3.32zm1.5 0V16.55h3.53l-1.58 18.17zm5.15 0h-1.69l1.58-18.17h3zm1.83-19.66H6.46a5.13 5.13 0 0 1-5-5.15 5 5 0 0 1 5-5 4.85 4.85 0 0 1 1.88.37.74.74 0 0 0 .69-.04.73.73 0 0 0 .34-.69.25.25 0 0 0 0-.1 3 3 0 0 1 6 0 2.47 2.47 0 0 1-.05.43.76.76 0 0 0 .47.81.75.75 0 0 0 .89-.28 2.39 2.39 0 0 1 2-1 2.37 2.37 0 0 1 2.35 2.37 3 3 0 0 1 0 .43.71.71 0 0 0 .14.58.72.72 0 0 0 .52.3 3.39 3.39 0 0 1 3.05 3.38 3.59 3.59 0 0 1-3.47 3.59z" fill="#2d2a26"/><path d="M11.91 10.16a2.24 2.24 0 0 0-1 0 3.013 3.013 0 0 0-6 .55.63.63 0 0 0 1.25 0 1.79 1.79 0 1 1 3.58 0 .4.4 0 0 0 0 .15 2.23 2.23 0 0 0-.54 1.07.62.62 0 0 0 .49.73.63.63 0 0 0 .74-.49 1 1 0 0 1 .44-.66 1 1 0 0 1 1.6 1.07.64.64 0 0 0 .49.74h.13a.63.63 0 0 0 .61-.5 2.3 2.3 0 0 0-1.79-2.66zM18.87 8.93a1.92 1.92 0 0 0-2.32 1.41.622.622 0 1 0 1.21.29.68.68 0 0 1 .81-.49.67.67 0 0 1 .41.31.65.65 0 0 1 .08.51.62.62 0 0 0 .46.75h.15a.63.63 0 0 0 .61-.48 1.9 1.9 0 0 0-.25-1.43 1.87 1.87 0 0 0-1.16-.87z" fill="#2d2a26"/></svg>