<svg data-name="Layer 1" xmlns="http://www.w3.org/2000/svg" viewBox="0 0 25.19 28.38"><path d="M13.06 28.38a24.82 24.82 0 0 1-12.47-3.5c-.66-.39-.74-.67-.38-1.35L12.16.63c.17-.32.34-.63.79-.63s.6.32.76.65l11.27 22.89c.35.7.29.9-.39 1.35a20.32 20.32 0 0 1-11.53 3.49zm0-5.16a19.21 19.21 0 0 0 8.61-2c.33-.17.47-.28.27-.69q-4.4-8.9-8.77-17.79c-.07-.14-.08-.37-.27-.36s-.18.22-.24.35L3.39 20.46c-.18.34-.16.48.22.64a24.07 24.07 0 0 0 9.45 2.12zm.05 3.76a18.65 18.65 0 0 0 9.32-2.42c1.17-.65 1.15-.65.6-1.83-.19-.42-.34-.5-.78-.27a18.7 18.7 0 0 1-6.05 1.93A23.47 23.47 0 0 1 3.81 22.7c-1.35-.55-1.33-.54-2 .77-.18.35-.07.46.22.61a23.73 23.73 0 0 0 11.08 2.9z" fill="#2d2a26"/><path d="M13.27 8.15v.94a.63.63 0 0 1-.62.67.62.62 0 0 1-.73-.55 16.15 16.15 0 0 1 0-2.2.67.67 0 0 1 1.33.07v1.07zM14.36 12.56a2.52 2.52 0 0 1 .05-.6.57.57 0 0 1 .63-.41.58.58 0 0 1 .65.49 17.89 17.89 0 0 1 .21 1.95.62.62 0 0 1-.63.66.64.64 0 0 1-.74-.61c-.07-.48-.11-.97-.17-1.48zM7.69 18.82v.82a.6.6 0 0 1-.61.6c-.4 0-.7-.16-.73-.53a12.42 12.42 0 0 1 0-1.83.61.61 0 0 1 .7-.58.64.64 0 0 1 .65.64v.88zM17.68 18.76v-.82a.65.65 0 0 1 .66-.64.62.62 0 0 1 .69.52 6.24 6.24 0 0 1 0 1.88.68.68 0 0 1-1.35-.07v-.82zM14.39 18.24a5.26 5.26 0 0 1 0 .9.64.64 0 0 1-.71.58.63.63 0 0 1-.67-.61c0-.55-.05-1.1 0-1.64a.68.68 0 0 1 1.35-.09c0 .31.01.63.03.86zM11 20.32c-.05.41-.1.83-.16 1.25a.66.66 0 0 1-.78.63.64.64 0 0 1-.61-.74c0-.44.1-.88.16-1.31s.3-.72.75-.68.68.37.64.85zM10.99 13.11c-.11.37-.23.88-.41 1.36a.61.61 0 0 1-.77.39.62.62 0 0 1-.51-.75 12.58 12.58 0 0 1 .39-1.48.59.59 0 0 1 .75-.41c.36.1.58.34.55.89z" fill="#2d2a26"/></svg>