<svg data-name="Layer 1" xmlns="http://www.w3.org/2000/svg" viewBox="0 0 25.86 32.69"><defs><linearGradient id="a" x1="19.2" y1="23.89" x2="19.2" y2="23.89" gradientUnits="userSpaceOnUse"><stop offset="0" stop-color="#988447"/><stop offset=".05" stop-color="#9e8a4f"/><stop offset=".33" stop-color="#b9a775"/><stop offset=".59" stop-color="#ccbc90"/><stop offset=".82" stop-color="#d8c9a0"/><stop offset="1" stop-color="#dccda6"/></linearGradient></defs><path d="M12.23 20v-9.41c0-.66-.15-.94-.87-.9-1 .06-2 0-2.95 0-.49 0-1-.12-.94-.75s.5-.62 1-.62h3c.32 0 .86.2.82-.41s.36-1.2-.48-1.49a3.13 3.13 0 0 1-1.93-1.64A3.28 3.28 0 0 1 11.5.36a3.4 3.4 0 0 1 4.48 1.58 3.29 3.29 0 0 1-1.62 4.43c-.34.17-.74.19-.78.76-.08 1.17 0 1.25 1.15 1.25h2.75c.45 0 .83.13.86.63s-.37.74-.85.74h-3.14c-.53 0-.77.13-.77.72v19.27c0 .48.06.77.66.69a11.91 11.91 0 0 0 8.53-4.65 8 8 0 0 0 1.67-4.51c0-.54 0-1.17.75-1.12s.69.73.64 1.28a10.58 10.58 0 0 1-5.37 8.26 13.6 13.6 0 0 1-6 2c-.42 0-.79 0-1 .57a.6.6 0 0 1-1.14 0c-.21-.57-.58-.53-1-.58a13 13 0 0 1-9.64-5.43 9.2 9.2 0 0 1-1.71-5.27c0-.45.13-.82.64-.85s.69.3.72.76c.36 4.88 3.38 7.48 7.69 9a15.67 15.67 0 0 0 2.34.48c.68.12.86-.1.85-.75.01-3.22.02-6.42.02-9.62zm.65-14.72a2 2 0 0 0 2-1.93 2 2 0 0 0-4-.12 2 2 0 0 0 2 2.05z" fill="#2d2a26"/></svg>