<svg data-name="Layer 1" xmlns="http://www.w3.org/2000/svg" viewBox="0 0 37.68 28.09"><path d="M0 .74a.85.85 0 0 1 1-.5c.5.16.54.58.53 1v2.93c0 .28 0 .56.4.57s.39-.3.39-.56V1.27c0-.55.13-1 .8-1s.79.5.79 1v2.92c0 .28 0 .57.41.56s.47-.32.47-.58v-3.1c0-.5.24-.87.81-.86a.75.75 0 0 1 .76.83c0 2.31.23 4.63-.3 6.92a4.57 4.57 0 0 1-1.8 3c-.4.26-.27.64-.27 1v14.47c0 .61.18 1.45-.79 1.45s-.8-.82-.8-1.44V11.88a1.22 1.22 0 0 0-.53-1.11 5.29 5.29 0 0 1-1.7-3.38c0-.21 0-.45-.17-.62zm3.17 5.55c-1.75 0-1.8 0-1.22 1.73.23.67.4 1.62 1.22 1.61s1-.94 1.21-1.61c.59-1.73.57-1.73-1.21-1.73zM37.68 27.7c-.35.27-.72.56-1.19.29s-.37-.71-.37-1.12V16.18c0-.58-.09-.9-.74-1a2.44 2.44 0 0 1-2.06-2.24c-.63-4.41-.12-8.6 2.65-12.28.59-.8.91-.83 1.7-.25zm-1.56-19V4.19c0-.12.08-.31-.09-.36s-.18.16-.23.27a15.33 15.33 0 0 0-.94 8.57 1.16 1.16 0 0 0 .51.83.68.68 0 0 0 .62.15c.21-.1.13-.35.13-.53z" fill="#2d2a26"/><path d="M19.12 26.7a12.65 12.65 0 1 1 12.67-12.51A12.64 12.64 0 0 1 19.12 26.7zm0-1.54a11.2 11.2 0 0 0 11.19-11 11.11 11.11 0 1 0-11.19 11z" fill="#2d2a26"/><path d="M19.17 23.02a9 9 0 1 1 9-8.92 9 9 0 0 1-9 8.92zm-7.4-9a7.41 7.41 0 1 0 7.39-7.34 7.47 7.47 0 0 0-7.37 7.3z" fill="#2d2a26"/></svg>