<svg data-name="Layer 1" xmlns="http://www.w3.org/2000/svg" viewBox="0 0 25.19 28.38"><g data-name="9SpbCl" fill="#2d2a26"><path d="M13.06 28.38a24.92 24.92 0 0 1-12.47-3.5c-.66-.39-.74-.67-.38-1.35q6-11.46 12-22.9C12.34.3 12.5 0 13 0s.6.32.76.65Q19.35 12.1 25 23.54c.35.7.29.9-.39 1.35a20.32 20.32 0 0 1-11.55 3.49zm0-5.16a19.21 19.21 0 0 0 8.61-2c.33-.17.48-.28.27-.69q-4.39-8.88-8.77-17.77c-.07-.14-.08-.37-.27-.36s-.17.22-.24.34Q8 11.59 3.39 20.45c-.18.34-.15.49.22.65a24.07 24.07 0 0 0 9.45 2.12zm0 3.76a18.69 18.69 0 0 0 9.33-2.42c1.17-.65 1.14-.65.6-1.83-.2-.42-.35-.5-.79-.27a18.7 18.7 0 0 1-6.05 1.93A23.5 23.5 0 0 1 3.81 22.7c-1.34-.55-1.32-.54-2 .77-.18.35-.06.46.22.61A23.73 23.73 0 0 0 13.11 27z"/><path d="M13.27 8.15v.94a.63.63 0 0 1-.62.67.6.6 0 0 1-.72-.55 16.15 16.15 0 0 1 0-2.2c0-.38.33-.57.73-.54a.61.61 0 0 1 .61.6v1.08zM14.36 12.56a2.52 2.52 0 0 1 .05-.6.68.68 0 0 1 1.28.08A18 18 0 0 1 15.9 14a.61.61 0 0 1-.62.67.64.64 0 0 1-.75-.61c-.07-.5-.11-.99-.17-1.5zM7.69 18.82v.82a.6.6 0 0 1-.61.6.61.61 0 0 1-.73-.53 12.42 12.42 0 0 1 0-1.83.6.6 0 0 1 .65-.58.63.63 0 0 1 .65.64v.88zM17.68 18.76v-.82a.63.63 0 0 1 .65-.64.6.6 0 0 1 .69.52 5.93 5.93 0 0 1 0 1.88.69.69 0 0 1-1.36-.12v-.82zM14.39 18.24a5.26 5.26 0 0 1 0 .9.64.64 0 0 1-.7.58.63.63 0 0 1-.69-.62v-1.63a.68.68 0 0 1 1.36-.09c0 .31.01.62.03.86zM11 20.32c-.05.41-.09.83-.16 1.25a.66.66 0 0 1-.78.63.63.63 0 0 1-.6-.74c0-.44.09-.88.15-1.31s.31-.73.76-.68.63.37.63.85zM11 13.11a13 13 0 0 1-.41 1.36.61.61 0 0 1-.77.39.62.62 0 0 1-.51-.75 14.25 14.25 0 0 1 .39-1.46.59.59 0 0 1 .75-.41c.36.07.55.32.55.87z"/></g></svg>