<svg data-name="Layer 1" xmlns="http://www.w3.org/2000/svg" viewBox="0 0 44.1 21.43"><path d="M34 10.57a1 1 0 0 0 1.34.19l2.11-1.6a1 1 0 0 0 .19-1.34 1 1 0 0 0-1.35-.19l-2.11 1.6a1 1 0 0 0-.18 1.33zM36.73 16.72a1 1 0 0 0 1.11.76l2.61-.45a1 1 0 0 0 .78-1.13v-.06a1 1 0 0 0-1.13-.76l-2.59.52a1 1 0 0 0-.78 1.12zM22.26 4.57a1 1 0 0 0 1-.94V.98a1 1 0 0 0-.94-1 1 1 0 0 0-1 1v2.64a1 1 0 0 0 .94.95zM28.8 6.21a1 1 0 0 0 1.29-.4l1.23-2.35a1 1 0 0 0-.42-1.3h-.05a1 1 0 0 0-1.29.43l-1.19 2.37a1 1 0 0 0 .43 1.25zM14.38 5.51a1 1 0 0 0 1.27.46 1 1 0 0 0 .47-1.27L15 2.29a1 1 0 0 0-1.28-.48h-.05a.94.94 0 0 0-.43 1.35zM3.61 16.32l2.57.59a1 1 0 0 0 1.16-.75 1 1 0 0 0-.71-1.15l-2.57-.63a1 1 0 0 0-1.16.78 1 1 0 0 0 .71 1.16zM9 10.27a1 1 0 0 0 1.32-.11 1 1 0 0 0-.14-1.35l-2-1.67a1 1 0 0 0-1.35.14 1 1 0 0 0 .15 1.35z" fill="#2d2a26"/><path d="M43.35 19.93h-9.42a11.9 11.9 0 0 0-23.75 0H.75a.75.75 0 0 0 0 1.5h42.6a.75.75 0 0 0 0-1.5zm-31.68 0a10.41 10.41 0 0 1 20.77 0z" fill="#2d2a26"/></svg>