<svg data-name="Layer 1" xmlns="http://www.w3.org/2000/svg" viewBox="0 0 27.96 33"><path d="M27.8 2.85a3.93 3.93 0 0 0-4-2.85H3.72A4 4 0 0 0 .07 3.36a10.7 10.7 0 0 0-.06 1.69v23.71a4 4 0 0 0 4.26 4.18h19.74a4 4 0 0 0 4-4.15V4.11a4.48 4.48 0 0 0-.21-1.26zm-7.53 7.09V8.03v-6.4a.38.38 0 0 1 .05-.24.38.38 0 0 1 .19 0h.09c.62 0 .62 0 .62.66v13.73c0 .01 0 0-.15 0h-.14c-.65 0-.65 0-.65-.76v-1.65l-.01-3.43zM9.18 1.39h9.7c.01 0 0 0 0 .18v9.08c0 .01 0 0-.16 0H9.33c-.17 0-.18 0-.18-.22V1.54c0-.1.02-.14.03-.15zm-2.33.3a2.12 2.12 0 0 1 0-.31.65.65 0 0 1 .2 0h.1c.62 0 .62 0 .62.61V15.6a.36.36 0 0 1 0 .21h-.23c-.66 0-.66 0-.66-.71zm-2.67-.33H5.46a.38.38 0 0 1 0 .19v8.84a.34.34 0 0 1-.05.26H3.83a2.56 2.56 0 0 1-2.44-2.56v-4a2.61 2.61 0 0 1 2.79-2.73zm17 29.5a.16.16 0 0 1-.22.22H6.9c-.03 0-.06-.11-.06-.24V23.2c0-.42 0-.42.45-.42h13.7a.38.38 0 0 1 .19 0v.21c.03 2.64.03 5.26.04 7.87zm5.38-2.05a2.66 2.66 0 0 1-1.39 2.51 2.43 2.43 0 0 1-1.08.28h-1.55a8.23 8.23 0 0 0 0-1.31v-.55-2.62-4.14a3 3 0 0 0 0-.42c-.1-.84-.46-1.17-1.3-1.17H6.84c-1 0-1.36.38-1.36 1.39v8.81h-.92a5.61 5.61 0 0 1-.87-.06 2.55 2.55 0 0 1-2.3-2.59V11.09a4.26 4.26 0 0 0 3 1h.78c.27 0 .27 0 .27.52v3.73c0 .65.22.87.88.87h1.91c.68 0 .88-.22.88-.9v-.97-3.06-.21a.46.46 0 0 1 .23 0h9.47c.02 0 0 .1 0 .22v3.97a1 1 0 0 0 .19.7.92.92 0 0 0 .73.21h2a.67.67 0 0 0 .76-.77v-4.12-.21c0-.02.06 0 .17 0h1.46a4 4 0 0 0 2.27-.89l.08-.08v17.71zm0-20.67a2.57 2.57 0 0 1-2.47 2.53h-1.4a.29.29 0 0 1-.12 0v-.17-5.74-3.12c0-.17 0-.23.05-.25a.26.26 0 0 1 .16 0h1.06a3.21 3.21 0 0 1 .66.05 2.59 2.59 0 0 1 2.09 2.5c.03 1.45.03 2.85 0 4.2z" fill="#2d2a26"/></svg>