<svg data-name="Layer 1" xmlns="http://www.w3.org/2000/svg" viewBox="0 0 34.94 34.94"><path d="M31.47 0H14.81a3.47 3.47 0 0 0-3.47 3.47v.24L2.82 5.35A3.48 3.48 0 0 0 .06 9.42l4.36 22.7a3.47 3.47 0 0 0 3.41 2.79 3.05 3.05 0 0 0 .67-.07l16.36-3.15a3.41 3.41 0 0 0 2.31-1.65h4.3a3.47 3.47 0 0 0 3.47-3.48V3.47A3.47 3.47 0 0 0 31.47 0zm-6.89 30.25L8.21 33.4a2 2 0 0 1-1.47-.3 2 2 0 0 1-.84-1.26L1.54 9.13A2 2 0 0 1 3.1 6.82l8.24-1.58v21.35a3.47 3.47 0 0 0 3.47 3.48h10.3a2.07 2.07 0 0 1-.53.18zm8.84-3.66a2 2 0 0 1-2 2H14.81a2 2 0 0 1-2-2V3.47a2 2 0 0 1 2-2h16.66a2 2 0 0 1 2 2z" fill="#2d2a26"/><path d="M5.09 8.78a1.4 1.4 0 0 0-1.08 1.13 1.44 1.44 0 0 0 .58 1.51l2.64 1.79h.11l1.8-2.65a1.49 1.49 0 0 0-2.48-1.65c-.05.07-.08.18-.15.19s-.15-.07-.22-.12a1.48 1.48 0 0 0-1.2-.2zM16.42 3.8a1.47 1.47 0 0 0-1 2.49l2.25 2.26h.11l2.27-2.27a1.47 1.47 0 0 0-2.13-2c-.06.06-.12.16-.19.17s-.13-.11-.19-.17a1.58 1.58 0 0 0-1.12-.48zM29.97 26.46a1.41 1.41 0 0 0 1.27-.89 1.44 1.44 0 0 0-.28-1.59c-.75-.76-1.51-1.51-2.26-2.26h-.11c-.76.75-1.52 1.51-2.27 2.27a1.47 1.47 0 0 0 2.13 2c.06-.06.12-.16.19-.16s.13.1.19.16a1.5 1.5 0 0 0 1.14.47z" fill="#332e20" data-name="vi20RU"/></svg>