<svg data-name="Layer 1" xmlns="http://www.w3.org/2000/svg" viewBox="0 0 28.26 37.12"><path d="M6.08 37.12c-.63-.37-.61-.87-.37-1.48 1.4-3.54 2.77-7.09 4.18-10.63.21-.51.19-.78-.31-1.11a11.64 11.64 0 0 1-4.72-6.34.79.79 0 0 0-.93-.66h-3c-.55 0-1-.16-1-.81s.47-.79 1-.79h2.64c.48 0 .67-.08.65-.62-.05-1.84 0-1.84 1.84-1.84h20.45c1.21 0 1.46.27 1.35 1.46a12.34 12.34 0 0 1-5.62 9.75c-.31.2-.41.37-.26.72.63 1.52 1.24 3 1.85 4.57a.6.6 0 0 0 .58.45c2.21.21 3.67 1.37 3.82 3.21.22 2-.82 3.41-3.07 4.12H23.78a3.94 3.94 0 0 1-2.81-2.5c-.16-.56-.42-.7-1-.69H9.12a1.21 1.21 0 0 0-1.37.91c-.29.8-.39 1.73-1.16 2.29zm10-22.63H6.61c-.62 0-.74.21-.66.75.76 4.63 4.28 8.83 9.82 9a10.18 10.18 0 0 0 10.31-8.72c.16-1 .16-1-.92-1zm-1.21 17.83h4.7c.85 0 1.52-.05 1.86-1a1.69 1.69 0 0 1 .67-.71c.35-.24.33-.47.19-.82-.6-1.42-1.17-2.84-1.73-4.27-.15-.37-.27-.48-.71-.34a11.68 11.68 0 0 1-7.59 0c-.5-.17-.67-.06-.84.39-.77 2-1.54 4-2.36 6-.22.54-.18.7.45.69 1.79.04 3.57.06 5.36.06zm11.77 1.13a2.14 2.14 0 0 0-2.12-2.07 2.18 2.18 0 0 0-2.16 2.05 2.1 2.1 0 0 0 2.14 2 2.07 2.07 0 0 0 2.14-1.98zM17.01 0c.62.81.58 1.08-.24 1.73-1.26 1-1.42 1.79-.62 3.2a7.76 7.76 0 0 1 1.28 3 4.1 4.1 0 0 1-2.29 3.71.77.77 0 0 1-.93-.31.67.67 0 0 1 0-.91 4.15 4.15 0 0 1 .49-.44c1.3-1.07 1.43-1.77.6-3.27-.27-.48-.57-.94-.81-1.43a3.46 3.46 0 0 1 .9-4.51c.3-.28.63-.52.95-.77zM12.08 8.93a3.32 3.32 0 0 1-1.86 2.71.76.76 0 0 1-.93-.32.68.68 0 0 1 .07-1c.41-.45 1.09-.72 1.06-1.47a3.83 3.83 0 0 0-.79-1.68 3 3 0 0 1 1-4.22c.44-.29.9-.39 1.25 0s.17.89-.26 1.26c-1 .9-1.08 1.2-.38 2.37a4.83 4.83 0 0 1 .84 2.35zM23.13 8.93a3.29 3.29 0 0 1-1.77 2.68.76.76 0 0 1-1-.22.74.74 0 0 1 0-1c.41-.45 1.08-.72 1-1.48a4 4 0 0 0-.78-1.69A2.91 2.91 0 0 1 21.62 3c.44-.32.91-.46 1.31 0s.15.9-.28 1.26c-1 .84-1.06 1.16-.41 2.29.75 1.35.84 1.7.89 2.38z" fill="#2d2a26"/><path d="M7.91 16.66c0-.52.12-.95.73-1s.81.31.87.85a2.71 2.71 0 0 0 1.57 2.27.79.79 0 0 1 .47 1.14c-.24.54-.74.49-1.21.33a4.48 4.48 0 0 1-2.43-3.59z" fill="#2d2a26"/></svg>