<svg data-name="Layer 1" xmlns="http://www.w3.org/2000/svg" viewBox="0 0 263.36 62.28"><g data-name="qG4saj"><path d="M79.77 50.73c.18.22.06.31-.15.39s-.6.28-.9.42c-.12.05-.19.21-.09.24.7.17-.19.23 0 .35a2.25 2.25 0 0 1-2.06.46c-.37-.14-.73.11-1 .25A55.53 55.53 0 0 1 69.85 55a14.27 14.27 0 0 1-4.34.83 2 2 0 0 1-2-2.65 7.88 7.88 0 0 1 .89-2.74c.21-.3-.1-.19-.19-.16a3.18 3.18 0 0 1-2.21-.15 5.5 5.5 0 0 1-.6-.28 10.53 10.53 0 0 0-2.29-1.23 3.78 3.78 0 0 0-2.42.08 9.49 9.49 0 0 0-2.42 1.17C53.16 50.54 52 51.19 51 52a11.08 11.08 0 0 1-1.52 1.19c-1.9 1-3.74 2.08-6 2.07-1 0-2 .15-3 .13a5.55 5.55 0 0 1-2.4-.83 2.19 2.19 0 0 1-.78-.56.46.46 0 0 0-.61-.07c-1.1.63-2.26 1.15-3.39 1.71-1.5.74-3.09 1.33-4.65 1.94-1.16.45-2.3.93-3.49 1.31a62.89 62.89 0 0 1-9.91 2.62 32.57 32.57 0 0 1-7.43.72 19 19 0 0 1-4.24-.57 5 5 0 0 1-1.67-1.13 5.37 5.37 0 0 1-1.65-2.72 9.34 9.34 0 0 1 0-4.55 13.27 13.27 0 0 1 .93-2.88c.42-.85.81-1.72 1.22-2.57a23.17 23.17 0 0 1 3.19-4.58c1.81-2.19 3.71-4.3 5.66-6.37 1.55-1.64 3.18-3.19 4.83-4.72.66-.61 1.37-1.19 2.09-1.75s1.3-1.22 2-1.81c1.08-1 2.2-1.85 3.33-2.74.83-.65 1.63-1.35 2.49-2 1.52-1.1 3.1-2.11 4.63-3.19s3.25-2 4.87-3.05c1.34-.84 2.87-1.4 4.25-2.2A46.62 46.62 0 0 1 44 13.34c1.56-.7 3.17-1.28 4.77-1.89a2.32 2.32 0 0 1 1.23-.24c.76.14 1.39-.31 2.11-.31a2.69 2.69 0 0 1 2.11.52c.05 0 .05.12.08.19.91.23.94 1.06 1.08 1.73a5.84 5.84 0 0 1-.49 3.21 24 24 0 0 1-3.52 5.74 51.54 51.54 0 0 1-5.4 6 8.35 8.35 0 0 1-2.39 2.11.94.94 0 0 1-1.21-.24.39.39 0 0 1 .26-.64 2.87 2.87 0 0 0 1.7-.92c.66-.74 1.51-1.27 2.1-2.05.73-.95 1.59-1.79 2.4-2.67a33.59 33.59 0 0 0 3.42-4.46 30.32 30.32 0 0 0 1.72-3 6.55 6.55 0 0 0 .68-2.58 2.18 2.18 0 0 0-.77-1.9.77.77 0 0 0-1.11-.05c-.28.24-.83.16-1.26.22-.08 0-.13-.05-.11-.14a.23.23 0 0 1 .23-.2h.71a.26.26 0 0 0 .21-.15c0-.12-.12-.11-.2-.12a4.44 4.44 0 0 0-1.09-.12c-.08-.05-.2-.11-.25 0-.3.48-.47.55-1 .45a.9.9 0 0 0-.85.26 3.71 3.71 0 0 1-1.47.7 32.37 32.37 0 0 0-5.13 2.15c-1.25.61-2.46 1.29-3.72 1.89s-2.68 1.5-4 2.26c-1.79 1-3.5 2.16-5.21 3.3-1.5 1-2.95 2.06-4.39 3.13a58.19 58.19 0 0 0-4.53 3.88 31.18 31.18 0 0 1-2.95 2.53 28.11 28.11 0 0 0-3.06 2.83c-1.08 1.06-2.19 2.11-3.2 3.23-1.74 1.91-3.49 3.82-5.11 5.83-.68.86-1.4 1.68-2 2.57a21.35 21.35 0 0 0-1.29 2.14 19.49 19.49 0 0 0-1.36 2.93A9.42 9.42 0 0 0 1 54.6c0 .51-.05 1-.06 1.54a4.94 4.94 0 0 0 3.79 4.74 20.5 20.5 0 0 0 7 .17c1.39-.21 2.81-.3 4.19-.58a56.34 56.34 0 0 0 6.6-1.65c1.2-.4 2.44-.72 3.64-1.15 1.79-.64 3.53-1.38 5.29-2.09 1-.4 1.92-.94 2.9-1.37.62-.27 1.2-.68 1.82-1 .18-.08.27-.23.15-.4a3.87 3.87 0 0 1-.59-2.76 9.85 9.85 0 0 1 .66-3.37 18 18 0 0 1 2.61-3.9c.92-1.18 2-2.21 3-3.29.32-.33.68-.62 1-.93l4.66-4.24c1.57-1.43 3.13-2.88 4.76-4.25.82-.69 1.64-1.38 2.51-2 1.22-.92 2.31-2 3.46-3.05s2-2 3.09-2.95c1.21-1.15 2.43-2.3 3.67-3.43 1.58-1.42 3.13-2.88 4.7-4.31 1.31-1.21 2.64-2.4 4-3.6.13-.12.26-.41.47-.25s-.06.33-.12.49l-.12.15-.1.11.1-.12.12-.14a10.47 10.47 0 0 0 1.7-1.17c.24-.15.42-.4.73-.43a1.84 1.84 0 0 1-.6.61c-1.08.84-2 1.87-3.06 2.73s-2 1.84-3 2.71c-1.23 1-2.33 2.23-3.52 3.33-1.54 1.41-3 2.86-4.6 4.26-1.26 1.14-2.42 2.39-3.76 3.44-1.09.85-2 1.87-3.14 2.73-.8.63-1.59 1.27-2.37 1.93-.48.41-.93.87-1.38 1.32-1.45 1.42-3 2.76-4.51 4.08-1.12 1-2.16 2-3.26 3a38.41 38.41 0 0 0-3.53 3.69 12.54 12.54 0 0 0-3 5.22 6.25 6.25 0 0 0 .1 3.56c.2.55.45.68 1 .38 1.61-1 3.33-1.7 4.92-2.71a21.11 21.11 0 0 1 2.23-1.12c.81-.38 1.54-.91 2.31-1.35a35 35 0 0 0 3.08-1.81c1-.73 2-1.45 3-2.19 1.26-1 2.5-1.94 3.72-3 2-1.67 3.8-3.55 5.7-5.33.74-.69 1.33-1.54 2.06-2.25 1.19-1.16 2.21-2.48 3.33-3.7a23.79 23.79 0 0 0 1.86-2.55c.76-1.09 1.57-2.15 2.24-3.3.88-1.5 1.66-3.07 2.46-4.62.63-1.22 1.08-2.51 1.59-3.77.29-.71.42-1.44.67-2.15s.43-1.55.63-2.32a.94.94 0 0 1 .35-.66 5.33 5.33 0 0 1 .49-1.71c.07-.13.22-.27.09-.39s-.26.1-.39.16c-.44.19-.62.61-.87 1 0 .08-.1.2-.19.16s0-.15 0-.23.1-.36 0-.53a.27.27 0 0 1 .11-.29A19.75 19.75 0 0 0 79 6.05c.17-.15.32-.37.61-.18s.23.44.14.69c-.21.59-.46 1.17-.66 1.77-.56 1.59-1 3.22-1.53 4.83a34.15 34.15 0 0 1-1.94 5.32 50 50 0 0 1-3.78 6.64c-.48.66-.85 1.39-1.34 2a61.2 61.2 0 0 1-4.14 5.11c-1.77 1.87-3.67 3.6-5.38 5.53-.83.93-1.87 1.66-2.79 2.51A51.08 51.08 0 0 1 53.73 44c-1.06.76-2 1.67-3.15 2.32s-2.41 1.64-3.7 2.32L40 52.27c-.5.27-1 .47-1.55.7s-.51.41-.12.75a3.5 3.5 0 0 0 2.32.92 21.62 21.62 0 0 0 4.82-.35 10 10 0 0 0 2.57-1.09 23.31 23.31 0 0 0 3.22-1.94c.94-.7 1.9-1.35 2.86-2a9.21 9.21 0 0 1 3.52-1.59 5 5 0 0 1 1.69 0 2.29 2.29 0 0 1 1 .49c.5.44 1.18.4 1.69.91a2.13 2.13 0 0 0 2.09.28 4.42 4.42 0 0 1 .78-.25.91.91 0 0 0 .67-.44 24 24 0 0 1 2.5-3.45c.93-1.12 1.84-2.28 2.8-3.38A41.71 41.71 0 0 1 75 37.46c1.45-1.23 2.71-2.67 4.2-3.86 1.3-1 2.54-2.14 3.85-3.15 1.5-1.16 3.05-2.25 4.5-3.47a.55.55 0 0 1 .29-.13c.09.26-.38.41-.19.58s.37-.24.58-.31a11.64 11.64 0 0 0 2.08-1.21c.46-.24.62-.78 1-1.15a1.75 1.75 0 0 1 .93-.5 4.15 4.15 0 0 1 1.85.11.64.64 0 0 1 .46.72 5.78 5.78 0 0 1-1.31 3.28 17.64 17.64 0 0 1-3.7 3.63 15.58 15.58 0 0 0-2.37 2.16 17.26 17.26 0 0 1-2.94 2.57c-1.52 1.07-2.88 2.37-4.38 3.47-1.69 1.22-3.3 2.54-5 3.77-1.11.81-2.29 1.55-3.39 2.38S69.15 48.07 68 48.9a5.48 5.48 0 0 1-.52.31c-1.93.9-2.59 2.6-2.86 4.54-.11.72.17 1 .9 1.08a10.25 10.25 0 0 0 3.68-.47 55.72 55.72 0 0 0 7.5-2.87c1-.42 1.84-1 2.77-1.52.35-.19.71-.37 1.07-.54s.63-.07.48-.53c0-.1.13-.11.21-.15l2.44-1c.33-.13.69-.17.89.16s-.06.59-.31.84a6.45 6.45 0 0 1-2 1.09c-.79.38-1.7.43-2.47.87zm6.73-22l.13-.15a.33.33 0 0 0 .32-.13v-.07l-.25.18zm-.32.21zM74.82 52.76zM88 27.75l-.24.07-.11.14c-.28 0-.24.17-.14.35a.27.27 0 0 1-.07.08c-1.27 1.05-2.66 1.93-3.88 3.05a5.09 5.09 0 0 1-.91.67 20.31 20.31 0 0 0-3 2.47C78.43 35.63 77.55 37 76.3 38a31.5 31.5 0 0 0-3 2.93c-.93 1-1.78 2-2.64 3a51.54 51.54 0 0 0-3.39 4c-.09.13-.28.31-.2.4s.29 0 .43-.13a55.91 55.91 0 0 0 4.65-3.36 45.82 45.82 0 0 1 4.28-3.29c2.16-1.54 4.28-3.12 6.31-4.82 1-.84 2.08-1.6 3.06-2.48s1.72-1.86 2.72-2.62c.55-.42 1.17-.76 1.69-1.22a12.42 12.42 0 0 0 3.18-4 1.39 1.39 0 0 0 .25-.82c0-.14.18-.32 0-.44a.5.5 0 0 0-.57.06 3 3 0 0 1-1.18.54 6.94 6.94 0 0 0-2.65 1.35c-.59.41-1.15.88-1.78 1.23l.13-.37.11-.14.24-.07zM73.6 53.16a.8.8 0 0 0 .64-.21l-.66.22zM81.93 49l-.06.07h.08V49zM42.45 29.85zM121.48 51.77a2.52 2.52 0 0 0 1.53-.64c.76-.56 1.63-.93 2.38-1.49.89-.71 1.77-1.45 2.69-2.11a31.29 31.29 0 0 0 3.36-2.94c1-.93 2-1.78 3.09-2.63a45.7 45.7 0 0 0 3.68-3.42c.08-.08.21-.13.17-.25s-.23-.12-.32-.1a15.82 15.82 0 0 1-2.57.21 34 34 0 0 1-4.16.19 8.84 8.84 0 0 0-1.15.16c-1.55.2-3.11.13-4.66.22a32.62 32.62 0 0 0-5.23.62 12.75 12.75 0 0 0-3.53 1.27 3.15 3.15 0 0 0-1.28 1.67c-.08.18 0 .46-.36.46-.06 0-.12.14-.07.18.52.3 0 .71.12 1.06a.21.21 0 0 1-.25.23c-.14 0-.16-.15-.16-.25a4.1 4.1 0 0 1 .47-2.49 6.06 6.06 0 0 1 1.67-1.82 6.79 6.79 0 0 1 2.4-.87c.57-.08 1.11-.32 1.68-.44a43.3 43.3 0 0 1 4.37-.5c2.17-.26 4.35-.29 6.52-.43 1.57-.1 3.15-.18 4.72-.24.86 0 1.72-.17 2.58-.2a1.22 1.22 0 0 0 .78-.36c.74-.73 1.47-1.46 2.15-2.25 1.82-2.08 3.61-4.18 5.29-6.36s3.46-4.49 5.16-6.76c.88-1.18 1.65-2.46 2.56-3.62 1.17-1.49 2.3-3 3.38-4.57s2.25-3.11 3.34-4.68c.79-1.15 1.25-2.47 2.09-3.58 0 0 .09-.09.09-.14s.26-.45.11-.54-.29.2-.43.34A22.77 22.77 0 0 0 160 9.47c-.31.53-.53 1.11-.82 1.66-.14.27-.36.51-.51.78-.06.11-.06.28-.24.21a.21.21 0 0 1-.08-.33 4.5 4.5 0 0 0 .53-1.11A13 13 0 0 1 160 8.75a21.15 21.15 0 0 1 2.85-4 5.84 5.84 0 0 1 1.22-1.36c.39-.23.74-.45 1.14-.07s.05.76-.07 1.1a28 28 0 0 1-1.42 2.92 20.14 20.14 0 0 1-2.13 3.66c-1 1.26-1.92 2.52-2.8 3.84a30.62 30.62 0 0 1-2.09 2.61c-1 1.18-1.69 2.54-2.58 3.79-.63.87-1.27 1.74-1.94 2.58-1 1.19-1.77 2.46-2.73 3.63s-2 2.48-3.15 3.65a11.48 11.48 0 0 0-1.39 1.87 13.57 13.57 0 0 1-2.07 2.46 6.61 6.61 0 0 1-1.09 1.09.36.36 0 0 0-.1.29c0 .16.18.1.27.09 1.4-.14 2.81-.28 4.2-.54.24 0 .36-.25.48-.42 1.12-1.59 2.18-3.21 3.34-4.77a31.1 31.1 0 0 1 2.54-3.09c.69-.72 1.29-1.53 2-2.28 1.32-1.47 2.68-2.9 4.06-4.33 1.73-1.79 3.62-3.4 5.44-5.1a57.22 57.22 0 0 1 5.95-4.82c1.7-1.2 3.37-2.44 5.11-3.59 2.15-1.41 4.36-2.73 6.53-4.12 1-.66 2.09-1.34 3.2-1.91.29-.15.51-.38 1-.22.25.09.76-.4 1.07-.71a3.66 3.66 0 0 1 1.7-.88 4.47 4.47 0 0 1 .82-.08 1 1 0 0 1 1 1.42c-.26.54-.58 1.05-.87 1.58-.84 1.57-1.66 3.15-2.53 4.71-1 1.73-1.81 3.52-2.74 5.27-.6 1.14-1.28 2.23-1.91 3.35a19.51 19.51 0 0 1-1.42 2.19c-.4.53-.7 1.14-1.07 1.71a27.24 27.24 0 0 1-3.14 4 25.69 25.69 0 0 1-3 2.69 41.35 41.35 0 0 1-6.68 4.16 34.27 34.27 0 0 1-4.89 2c-1.59.49-3.13 1.09-4.71 1.58-1 .31-2 .47-3.05.73-1.27.33-2.55.63-3.84.91-1.06.23-2.13.48-3.21.65a.77.77 0 0 0-.61.47 24.51 24.51 0 0 0-2.58 5.69 10.05 10.05 0 0 0-.57 3.08c0 .1 0 .22-.06.25s-.14-.13-.18-.21a4.08 4.08 0 0 1 0-2.54 20.61 20.61 0 0 1 1.93-5.31 2.17 2.17 0 0 1 .33-.57c.12-.13.28-.3.18-.48s-.31-.08-.46-.06c-.89.13-1.79.22-2.67.41-.52.11-1.05.14-1.58.2a2.37 2.37 0 0 0-1.52.86 34 34 0 0 1-4.17 3.7 40.65 40.65 0 0 0-4.06 3.57 39.05 39.05 0 0 1-3.37 2.77 41 41 0 0 1-3.95 2.5 8.3 8.3 0 0 1-4 1.46 5.3 5.3 0 0 1-2.89-.28 2.57 2.57 0 0 1-.81-.73c0-.07-.12-.17 0-.23a.33.33 0 0 1 .26 0 3.8 3.8 0 0 0 3 .7.44.44 0 0 1 .48.29s-.09-.06-.11 0h.1c.12-.06.32.09.27-.28s.43-.41.75-.32.41.05.5-.21zm68.23-50.56c0-.26 0-.43-.33-.33-.84.29-1.69.55-2.5.9a16.62 16.62 0 0 0-1.9 1c-1.46.86-2.78 1.91-4.27 2.74s-3 1.9-4.5 2.88c-1.63 1.09-3.2 2.26-4.86 3.29A53 53 0 0 0 165.7 16c-1 .81-1.81 1.81-2.77 2.66s-2.11 1.8-3.1 2.77c-2.33 2.3-4.54 4.72-6.74 7.15a31.92 31.92 0 0 0-2.31 2.85c-.6.86-1.27 1.68-1.87 2.55-.41.6-.78 1.22-1.24 1.79a.29.29 0 0 0-.06.25c0 .11.15 0 .24 0 .32-.05.65-.06 1-.13 1.33-.31 2.68-.58 4-.87a25.17 25.17 0 0 0 3.25-.76c1.21-.43 2.45-.73 3.67-1.09a43.76 43.76 0 0 0 5.81-2.17c1.19-.55 2.35-1.2 3.5-1.84a30.78 30.78 0 0 0 5.28-3.68 26 26 0 0 0 4.7-5.24c.47-.71 1.06-1.35 1.5-2.08a25.29 25.29 0 0 0 1.81-3c.31-.72.87-1.31 1.18-2 .81-1.77 1.73-3.47 2.63-5.18 1.13-2.15 2.18-4.35 3.46-6.42a.94.94 0 0 0 .07-.35zM261.42 33.51c0 .32-.25.32-.45.37-1.25.28-2.51.49-3.77.69l-4.39.71c-2.43.37-4.85.77-7.29 1-.89.1-1.77.31-2.66.41-1.84.2-3.64.61-5.49.74-1.46.1-2.92.3-4.37.5a41.08 41.08 0 0 1-6.92.32 30.92 30.92 0 0 0-5.09.4c-1.91.26-3.84.43-5.77.62-2.41.25-4.82.45-7.22.73-1.2.13-2.4.25-3.6.43s-2.63.21-4 .33c-1.56.14-3.12.34-4.69.43a38.71 38.71 0 0 1-5.7.23 28.73 28.73 0 0 0-4.73 0c-.73.05-1.47 0-2.2 0a4.37 4.37 0 0 0-1.92.35c-.22.11-.5.19-.7-.07s-.11-.51.17-.68c.08 0 .15-.12.11-.23s-.18-.08-.28-.05c-.36.12-.72.26-1.09.37-1.4.46-2.81.91-4.22 1.35-.7.23-1.07.06-1.25-.63-.09-.37-.25-.26-.47-.18-1 .33-1.94.72-2.91 1.08s-2 .54-2.94.87c-.41.13-.58-.24-.74-.52-.07-.12.08-.2.21-.26 1.24-.53 2.59-.75 3.85-1.23s2.23-.88 3.37-1.29c.26-.09.51-.19.76 0a.49.49 0 0 1 0 .76c-.05.06-.1.12 0 .18a.32.32 0 0 0 .36 0 9.62 9.62 0 0 1 1.47-.46c1.87-.56 3.7-1.25 5.52-1.94a6.77 6.77 0 0 0 2.71-2.11c.82-1 1.71-1.84 2.6-2.73 1.4-1.41 3-2.63 4.4-4s2.62-2.41 3.9-3.63a27 27 0 0 1 2.12-1.89c1.26-1 2.21-2.28 3.48-3.24.27-.2.55-.36.82-.55a.42.42 0 0 1 .51 0 .52.52 0 0 1 .17.51 2.51 2.51 0 0 1-.9 1.67 2.49 2.49 0 0 0-.56 1.17 4 4 0 0 1-.85 1.39c-.76.92-1.58 1.8-2.41 2.67a32 32 0 0 1-2.71 2.63 23.08 23.08 0 0 1-2.43 2.27c-.78.48-1.37 1.25-2.13 1.78-.95.67-1.87 1.39-2.83 2-1.54 1.06-3.29 1.8-4.77 3l-.09.08c-.2.17-.54.35-.44.61s.43 0 .66 0c.75 0 1.51.07 2.26.05 1.88-.07 3.77-.19 5.66-.25 2.09-.06 4.17-.24 6.24-.47l5.13-.55c2.88-.3 5.75-.69 8.64-.87s5.65-.58 8.49-.73c1.48-.08 2.94-.35 4.42-.47 1.11-.1 2.23-.11 3.35-.16 2.69-.13 5.37-.36 8.06-.63s5.57-.66 8.36-.91c2.19-.2 4.36-.59 6.55-.81s4.1-.55 6.16-.78c1.31-.14 2.62-.26 3.93-.46a2.45 2.45 0 0 1 .54 0zm-62.5-8.78c.16 0 .28 0 .33-.21.22 0 .45-.36.56-.2s-.27.25-.34.45a.88.88 0 0 1-.17.28c-.89.82-1.76 1.65-2.67 2.45-1.33 1.16-2.67 2.31-4 3.51-1.7 1.59-3.49 3.09-5.18 4.69-.18.16-.63.25-.44.57.09.15.48-.07.72-.18a15.16 15.16 0 0 0 2.46-1.66c.93-.67 1.87-1.31 2.72-2.06l1.6-1.37a17.93 17.93 0 0 1 1.91-1.68c.56-.53 1.14-1.05 1.67-1.61.26-.29.67-.49.64-1a.52.52 0 0 1 .67-.43 4.62 4.62 0 0 1 .3-.76c.17-.29.23-.11.22.1-.07.08-.29.17-.09.26a.34.34 0 0 0 .43-.31c0-.27-.33-.54 0-.81s.4-.89.67-1.29a.36.36 0 0 0 0-.42c-.13-.13-.3 0-.39.07-.41.31-.8.66-1.18 1-.14.12-.07.27 0 .41a.35.35 0 0 0-.33.21zm3.08-2c.12 0 .27 0 .3-.15v-.05c-.16 0-.2.12-.27.22zm-3.86 2.81a.33.33 0 0 0 .24-.2c0-.06 0-.12-.07-.08a.7.7 0 0 0-.26.19s.02.1.09.1zm-.32.37v-.07h-.08v.08zm1-.9z"/><path d="M117.05 24.31a23.21 23.21 0 0 1 2.67-4.76 32.79 32.79 0 0 1 2.6-3.56 21.26 21.26 0 0 1 3.29-3.14c.82-.62 1.58-1.3 2.44-1.87 1.06-.69 2.2-1.23 3.31-1.81a14.33 14.33 0 0 1 3.75-1.33 11.33 11.33 0 0 1 5.58 0 3.51 3.51 0 0 1 1.68.83 3 3 0 0 1 .65 1.35 9.92 9.92 0 0 1-.37 4.81 11.85 11.85 0 0 1-1.21 3 36.32 36.32 0 0 1-2.25 3.69 24.85 24.85 0 0 1-2.43 2.81c-.9.91-1.77 1.84-2.66 2.76a14.14 14.14 0 0 1-2.8 2.06 25.38 25.38 0 0 1-3.77 1.95c-1.28.55-2.54 1.2-3.85 1.64s-2.67.9-4.05 1.25a7.5 7.5 0 0 0-3.1 1.27 3.11 3.11 0 0 0-.56.86 24.68 24.68 0 0 1-1.66 2.42 7.93 7.93 0 0 0-.79 1.19 22.75 22.75 0 0 1-1.9 2.6c-.64.88-1.23 1.79-1.82 2.71a14.27 14.27 0 0 1-3.8 3.85.38.38 0 0 1-.5 0 .51.51 0 0 1-.2-.47 2.57 2.57 0 0 1 .41-1c.34-.69.73-1.35 1.1-2 .05-.08.07-.23.22-.2s.09.16.1.26.14.23.23.07a34.75 34.75 0 0 0 1.74-3c.1-.11.25-.2.19-.39l-.31.16c-.08-.67.42-1.1.68-1.62.51-1 .92-2.06 1.36-3.11a1.59 1.59 0 0 1 .15-.29c.45-.74.42-.8-.42-.83h-.27c-.13 0-.24-.08-.23-.2s.16-.11.26-.09.22.06.24 0-.13-.07-.2-.08c-1.13 0-1.65-.75-1.51-1.89a4.24 4.24 0 0 1 1.12-2.63c.06-.06.11-.2.2-.14s0 .18 0 .27a9.93 9.93 0 0 0-.54 1.62c0 .09 0 .21.07.31l-.06.07h.06v-.09c.14 0 .18-.35.37-.22s0 .25-.08.39a6 6 0 0 0-.14 1 .75.75 0 0 0 .65.76c.45.08 1 .45 1.32-.24.53-1.21 1-2.43 1.58-3.64q1.41-3.18 2.87-6.34a6.94 6.94 0 0 1 .61-.95zm-1.86 10.37h.08-.12a1.18 1.18 0 0 0 .75-.65c.74-1.32 1.43-2.67 2.22-3.95s1.69-2.6 2.57-3.87a23.63 23.63 0 0 1 3-4.2c.45-.42.76-1 1.32-1.31a.66.66 0 0 1 1 .49 4.43 4.43 0 0 1 0 1.26 19.51 19.51 0 0 1-.75 3.47c-.05.21-.2.67-.38.56s.13-.36.19-.57.11-.13.05-.19-.17 0-.22.09c-.5.7-.75 1.53-1.21 2.24a.42.42 0 0 0-.06.27 1.11 1.11 0 0 1-.33.84 6.24 6.24 0 0 1-.9.88c-.16.13-.33.38-.49.24s.08-.38.2-.54l.91-1.22a14 14 0 0 0 1.36-2.71 10.82 10.82 0 0 0 .84-3.58c0-.11.11-.29-.07-.34s-.21.13-.3.22a2.94 2.94 0 0 1-1 .8 1.45 1.45 0 0 0-.9 1.32 1.08 1.08 0 0 1-.1.41c-.61 1-1.23 2-1.87 3s-1.4 2.12-2.09 3.18c-.57.88-.81 1.92-1.45 2.76-.07.08-.12.21 0 .29a.36.36 0 0 0 .41 0 2.17 2.17 0 0 1 .88-.45 26.43 26.43 0 0 0 3.47-1.11 23.86 23.86 0 0 0 3.49-1.42c1.32-.64 2.71-1.15 4-1.86a23.21 23.21 0 0 0 3.2-2.19 27.38 27.38 0 0 0 4.42-4.58 23.59 23.59 0 0 0 3.69-5.97 13.22 13.22 0 0 0 1.09-5.06 2.11 2.11 0 0 0-1-2.08 6.37 6.37 0 0 0-3.15-.57 15.93 15.93 0 0 0-3.87.61 19.8 19.8 0 0 0-3.43 1.33 23.1 23.1 0 0 0-4.64 3.12c-1.08 1-2.2 1.92-3.21 3a26.74 26.74 0 0 0-2.48 3.12 31.6 31.6 0 0 0-1.55 2.52c-.6 1.09-1.18 2.21-1.69 3.36s-1.21 2.28-1.67 3.49-1 2.29-1.52 3.44c-.35.81-.67 1.62-1 2.44-.12.32 0 .51.38.45s.62-.42 1-.38a1.19 1.19 0 0 0 .93-.4zm-8.19 12a1.92 1.92 0 0 1 .21-.16 6.56 6.56 0 0 0 1.57-1.79c.64-.87 1.22-1.79 1.8-2.72.3-.48.7-.87 1-1.32.44-.61.9-1.21 1.28-1.86.58-1 1.22-1.93 1.84-2.89a.7.7 0 0 0 0-.14.67.67 0 0 0-.2 0 15.93 15.93 0 0 1-1.93.46.5.5 0 0 0-.39.35c-.47 1.09-.9 2.21-1.42 3.28a79.61 79.61 0 0 1-3 5.62c-.16.27-.3.58-.74.5-.22 0-.28.19-.3.39s.13.27.28.33zm2.55-5l-.06-.1s-.09.06-.11.11 0 .11.07.1.07-.02.1-.06zM165.67 42.81c.23.15.4.37.74.38a.49.49 0 0 1 .49.44c0 .28-.2.38-.4.46a8.8 8.8 0 0 1-1 .35.66.66 0 0 1-.75-.21.67.67 0 0 1-.05-.81c.09-.17.36-.34.2-.53s-.41 0-.63 0c-1.15.38-2.33.67-3.52.95a12.58 12.58 0 0 1-1.61.27 1.19 1.19 0 0 1-1.14-.71 1.48 1.48 0 0 1 .28-1.53 19.8 19.8 0 0 1 2.45-2.22 7.15 7.15 0 0 1 3.87-1.37c1.11 0 1.46.58.94 1.56-.2.36-.35.73-.83.88-.23.07-.39.37-.57.57s-.09.24-.23.19a.27.27 0 0 1-.14-.33 3.37 3.37 0 0 1 1.23-1.67l.4-.2c.1-.05.07-.15 0-.24s0-.14-.14-.12c-.66.14-1.43 0-2 .33s-1.06.61-1.6.91a11.58 11.58 0 0 0-2.32 2 1.36 1.36 0 0 0-.28.46c-.17.41.08.78.48.63.72-.28 1.49 0 2.22-.32.2-.08.65.23 1 .09 1-.38 2-.6 3-.89.2-.06.53-.36.64 0s-.3.38-.55.47a2.58 2.58 0 0 0-.26.08l-.47.25a.53.53 0 0 0 .53-.08zM90.08 50.21a4.59 4.59 0 0 1 2-.75c.29 0 .34-.47.66-.6a1.71 1.71 0 0 1 .79-.31.32.32 0 0 0 .37-.26c0-.23-.19-.14-.32-.19s-.17-.05-.17-.08.12-.1.2-.12a10.74 10.74 0 0 1 1.14-.06c.43 0 .3.39.17.61a2.32 2.32 0 0 1-1.11.95c-.69.28-1.29.68-1.94 1a19.15 19.15 0 0 1-4.25 1.36 1.22 1.22 0 0 1-.33 0 .66.66 0 0 1-.62-.59c0-.32.27-.43.57-.48l2.85-.5c-.1.12-.25.12-.38.18a4.21 4.21 0 0 0-.61.43c.21 0 .42 0 .63-.06a1.09 1.09 0 0 0 .52-.14c.16-.13.54-.08.48-.34s-.36 0-.55 0a.38.38 0 0 0-.1-.05zM90.06 47.35c.32.38.71.26 1.07.12.13 0 .24-.17.39-.12s.08.18 0 .27.07.43-.23.48a.47.47 0 0 1-.16 0c-.73-.14-1.47.06-2.19 0s-1-.52-.72-.94a2 2 0 0 1 .74-.72 5.7 5.7 0 0 1 1.22-.44 4 4 0 0 1 1.89-.45c.41.06.89 0 1.1.53.08.2.22.22.38 0s.2 0 .23.1-.06.15-.18.17c-.37.07-.78-.42-.93-.26a1.11 1.11 0 0 1-.73.41 4.06 4.06 0 0 0-1.89.78zM112.15 27.66c-.26-.19-.05-.25.09-.32s.19-.07.19 0 0 .47-.1.5c-.45.15-.44.66-.78.89-.09.07-.22.2-.17.32.16.34.08.41-.25.26a.09.09 0 0 0-.09 0c-.09.1-.06.4-.22.3s.07-.31.13-.45a3 3 0 0 1 1-1.25c.05-.04.24-.08.2-.25zM261.42 33.52a2 2 0 0 1 .32-.06c.18 0 .35-.11.53 0v.09a.82.82 0 0 1-.57.12.88.88 0 0 1-.23-.14zM81 50.51a.44.44 0 0 1-.37.17c-.06 0-.09-.08 0-.1a1.36 1.36 0 0 1 .33-.14s.04-.01.04.07z"/><path d="M108.69 42.73a.48.48 0 0 1-.21.46c-.06 0-.11 0-.1-.06a.57.57 0 0 1 .32-.39zM94.47 46.71c0 .08 0 .16-.13.15a.17.17 0 0 1-.14-.19c0-.05.1-.1.16-.1s.09.09.11.14zM166 41.75h.12a1.48 1.48 0 0 1-.27.16h-.14c-.05 0 .15-.15.29-.16zM77.14 8c0 .18-.13.24-.29.24s-.12 0-.07-.1a.34.34 0 0 1 .38-.14z"/><path d="M108.7 42.74c0-.22.21-.31.32-.46l.12.23c-.19 0-.31.14-.45.23zM113 26.4l.11-.07a.32.32 0 0 1 0 .09c0 .06 0 .1-.1.08s.05-.05-.01-.1zM87.92 26.82l.24-.13-.26.07zM112.64 26.91s0 .05-.07.05 0 0 0-.06zM263.36 33.24v.03l-.02-.01.02-.02zM162.63 42.71zM74.72 10.08v-.09h.05-.08zM114.93 44.68l.01.05-.03-.01.02-.04z"/><path d="M74.71 10.07l-.07.1v-.06h.12zM121.49 51.76zM165.68 42.81l.03.01-.04-.01h.01zM51.25 11.41l-.02-.01.03.01h-.01zM163.36 42.49zM163.38 42.48l.02.01h-.04l.02-.01zM199.89 25.63zM196.41 29.36l-.03.01.02-.01h.01zM128.68 19.58s.11-.1.14-.08c.57.21 1.13-.09 1.7 0a.78.78 0 0 1 .43.17v.09a.36.36 0 0 1-.41 0 .68.68 0 0 0-.63-.06 1.5 1.5 0 0 1-1.21-.1zM124.23 27.74l.18-.27a.65.65 0 0 1 .09.1 1.08 1.08 0 0 1-.21.3c-.05.05-.06-.03-.06-.13zM124.66 27h.08s0 .06-.07.07 0 0-.07 0zM131.76 19.63zM128.67 19.57l-.02-.01.03.02-.01-.01z"/></g></svg>