<svg data-name="Layer 1" xmlns="http://www.w3.org/2000/svg" viewBox="0 0 746.78 212.52"><path d="M167.98 98.88c-1.36-2 2.07-6-.64-5.33-.55.12-3.61 3.37-4.17 3.94-2.13 2.18-4 4.62-6.14 6.84-3.11 3.26-6.76 6.55-11 8.32a9.43 9.43 0 0 1-6.56.62c-1.82-.57-3.46-3.38-4.93-3.69-2.4-.52-6.46 5.44-9 6.54-3.41 1.48-8.62 1.27-11.34-1.46-6.33-6.33-3.22-18.09-.12-25 1.89-4.23 5.31-8.53 6.59-13 .53-1.86 1.3-1.06-.34-2-.93-.5-9 .29-10 .63-3.5 1.16-3.93 6.53-5.44 9.94a93.25 93.25 0 0 1-7.67 14.74c-2.63 3.9-6.08 7.12-8.93 10.61-.88 1.07-1.22 2.53-2.06 3.7-1.49 2.08-3.66 3.47-5.52 5.2-7.48 7-14.53 13.94-23.86 18.34-2.9 1.37-5.64 3.12-8.75 4s-5.63.16-8.53.47c-3.14.33-3.16 1.09-6.58-.07-3-1-5.82-2.24-8.77-3.2-2.65-.87-5-1.45-7.37-3-.75-.48-1.84-1.89-2.63-1.95s-.35 1.38-1.09 1.36a12.46 12.46 0 0 1-4.33-.68c-1.26-.73-1.5-1.68-2.43-2.55 1.07-5.18-3.71-6.42-5.43-10.41s-1.17-6.62 2-9.23c1.51-1.24 1.39-2.41 3.13-1.18-1.15-.81.73 3.24.48 2.2 0 .1.88.08 1 .47s-.47 1.16-.47 1.6c0 1.74-.91 2.12.26 3.58 3.39 4.23 5.77-2.93 7.08-4.88 2.5-3.7 4.4-7.67 6.57-11.63 2.3-4.19 5.27-8 7.54-12.2 1.42-2.59 2.67-6.92 5.14-9.19A30.7 30.7 0 0 1 36 77.19c1.84-2.73 3.37-5.51 5-8.34 2.75-4.69 5.58-9.22 6.62-14.59-1.16 0-4.23 2.89-4.65.33-.23-1.32 2.27-3.35 3.07-4.7 3.49-5.87 7.65-10.67 11.92-16 1.63-2 3.14-4.95 5.22-6.5 1.76-1.31 4.37-2.31 6.3-3.53a56.32 56.32 0 0 1 16.82-7.38c5.14-1.25 13-1.06 16.82 3.33 4 4.56-.39 13.11-3.22 17.25-3.11 4.54-7.65 8-10.86 12.42-.84 1.14-1.94 1.7-.37 2.64s7.77-.91 10-.65c4.67.55 7.53 4.46 9.37 8.39a24 24 0 0 1 1.63 4.48c.17.65-.34 2.06.13 2.61 1.57 1.84 6.44 1.27 8.52.78 5.15-1.23 10.45-2.46 14.42-6.22 2.6-2.45 10.06-8.14 9.54-.08-.22 3.3-6.32 7.51-8.73 10.59a130.79 130.79 0 0 0-10.33 16c-2.67 4.73-6.09 12.14-5.78 17.71.5 9.14 8.89 1.41 11.94-1.5 2.64-2.51 4.23-3.94 5.24-7.37a51.87 51.87 0 0 1 3.27-8.09c3-6.38 5.66-13 9.58-19 1.54-2.34 2.86-5.58 4.91-7.47 1.41-1.29 6.2-3.29 8-1.42 3.57 3.67-3.19 10.09-2.82 13.75-.75.48-2.74 3.63-3.17 4.69s0 2-.84 3.32c-.56.88-1.92 1.6-2.59 2.51a58.42 58.42 0 0 0-5.35 9.34c-.79 1.76-1.55 3.35-2.43 5-.64 1.19-1.37 1.52-1.43 3.1-.29 7.37 12.39-5.48 14.43-7.24 5.71-4.94 10.45-11 15.08-17 2.41-3.14 5-5.73 6.73-9.31 1.94-4 3.7-8.32 6.09-12.06a88.31 88.31 0 0 0 5.61-9.6c2.48-5.18-.77-2.41-4.57-3.78-2.28-.83-5.1-4.27-2.79-6.58 1.92-1.93 8.1-.26 10.6-.71 3.7-.67 4.86-3.5 6.8-6.71s3.8-6.93 5.7-10.33c.94-1.68 1.67-3.41 2.52-5.13s1.74-2.31 2.57-3.7c1.57-2.63 1.2-4.84 5.09-5.77 1.59-.37 2.19-.52 3.52.65 2 1.73.95 2.19.62 3.9-.61 3.17-2.37 6.63-3.76 9.7-1.48 3.28-2.49 6.33-4.21 9.4-.53.94-.57 1.92-1.1 2.94s-2.56 2.21-2.4 3.38c.21 1.53 8.74 1 10.69 1.1 4.76.21 9 1.53 11.32-3.25 3.67-7.74 6-15.24 10.75-22.38 1.45-2.19 2-6.43 5.56-5.71 3.06.62 3.19 4.81 2.57 7.3-1.89 7.52-7.31 13.37-10.17 20.64-1.84 4.67-.17 4.4 4.12 4.57 4.51.18 9.11 1.13 13.61 1.63s9.13 1.08 13.72 1.28c4.76.21 9.38 1.72 14.18 1.53s9.8-.25 14.71-.56c3.14-.19 8.78-2.34 11.73-1.12 9.2 3.8-10.19 7-10.17 7-.38.6 4 6.08 4.48 7.46s1.72 5.83 1.6 6.45c.7-3.69 4.27-7.22 6.15-10.52 1.71-3 4.58-4.59 6.93-.73s-1 6-2.76 9c-2.43 4-3.81 8.75-5.54 13.07-1.41 3.53-7.78 21.22.52 19.71 3.12-.57 6.69-5.15 8.77-7.48 1.52-1.7 2-3.54 3.15-5.34 1-1.54 2.52-2.35 3.41-4 1.92-3.64 3.2-8.45 4.67-12.34 1.54-4.09 2.6-8.41 3.88-12.59 2.55-8.35 5.36-16 6.89-24.61.45-2.58.94-9.46 2.74-11.39s4.63-.76 5.75 1.76c1.32 3-.1 8.85-.63 12-.37 2.25-1.18 5.7-3 6.25 1.43 2-1 1.41-1.38 2.76-.27 1 1.25 1.89.72 3.46-.46 1.37-1.93 1.4-2 3.31-.05 3.18-.26-.32.84 1.9.77 1.52-2.58 3.41-2.59 3.45-.12.47 0 1.33-.14 1.65.71-2.45.6 2.7.55 1.61.07 1.71-6.8 20.28-7.76 20.1-.81-.15 1.36-4.84.95-4.57s-1.69 3.42-1.93 4c-.76 1.89-1.18 3.86-1.89 5.77a29.36 29.36 0 0 0-1.25 5.9c-.11.59-1.76 3.74-1.22 4.13 1.17.83 9.32-3.8 10.78-4.6a100 100 0 0 1 14.3-6.14c1.43-.53 9.78-4.49 10.79-1.65.41 1.12-9.07 4.23-10.31 4.49-5 1-7.65 3-11.78 6-3.65 2.63-7.89 4.5-11.75 6.83-2 1.21-4 2.41-5.87 3.71-.36.25-2.07 1.28-2.14 1.38s.11 1.09.37.78.23.66.12.81c-.29.36-1 .18-1.29.65s-2.2 2.58-1.36 3.06c.53.3 1.42-1.7 1.74-2 .08 1.2-1.1 5.45-2.26 6a16.62 16.62 0 0 1-.16-2.68c-.47.27-2.58 5.31-2.28 5.56s1.31-1.13 1.6-1.21a17.29 17.29 0 0 1-2.51 4.87c-.26.28-.74-.4-1.35.36a5.8 5.8 0 0 0-1.21 2.48c-.54 2.16-.37 2.82-1.66 5-1.41 2.39-2.17 6.17-4.42 7.89-.44-.58.84-1.32-.27-1.64-.51-.15-1.25 1.55-.61 1.8a3.69 3.69 0 0 0 .93-.21c-.73 1.54-1.46 1.52-2.6 2.81-1.58 1.78-2.55 4.22-3.72 6.27s-3.41 5.68-2.6 7.32c-.77.66-1.16 2.34-2 3.06.05 0-3.82 1.2-2.24 1.81.13.05.95-.81 1-.1.11 1.33-1.6 1.18-2 1.86s-.11 1.26-.63 2.37c-1 2.16-4.43 7.72-6.45 8.82.11-.84 1.33-4.06 2.26-4.2-1 .15-2 3-2.28 3.66a32.37 32.37 0 0 1-4.31 7.62 258 258 0 0 1-16.55 20.37c-10.87 11.86-25.83 25.89-43.56 21.74-16.42-3.84-12-25.92-7.76-37.6 2.71-7.45 8.93-14.54 14.62-19.91 5.13-4.83 10-10.23 15.63-14 6.38-4.31 12-9.86 18.55-13.61 3.57-2 6.78-4.94 10.29-7.13a85.81 85.81 0 0 0 10.27-7c.88-.74 2 .51 1.26-1.36-.14-.36-1.84-1-2.2-1.35-2.64-2.47-1.06-5.55.07-8.68 1.28-3.57 1.8-6.63 3.67-10 2.17-3.9 3.06-8.44 4.45-12.66 1.22-3.7 2.79-7.14 3.48-11 .63-3.47 2.55-9.06 1.22-12.49-3.1-8-12.41-.14-15.15 3.76-4.49 6.21-7.25 12.87-10.73 19.21-1.52 2.78-2.21 6.13-3.59 9a16.11 16.11 0 0 0-1.35 3.09c-.19 1.09 1.13.52.77 1.76-.43 1.49-2.09 3.1-2.6 4.92s-.92 3.81-1.59 5.64c-.92 2.53-3.77 8.88-7.68 6.72-2.52-1.39-.68-5.72-3.08-5.28-2.11.4-3.54 3.93-4.9 5-3.41 2.63-10.84 4.9-15 5.25s-10.45-1.22-13.63-4.22c-3-2.8-4.88-7.42-5.87-11.31a14.23 14.23 0 0 1-.06-6.92c.08-.45 1.29-5.15.32-4.89-4.81 1.26-5.66 12-11.56 9.92-3.12-1.11-1.87-3.34-5-2.11-2.38.94-5.63 4.76-7.55 6.49-3.62 3.28-11.5 9.37-16.9 7.22-1.53-.61-4.05-3-4.54-4.64-.5-1.27.99-4.06-.41-4.73zm151.34 11.91c-.17.06.03-.55 0 0zm18.3-44.42a3.5 3.5 0 0 1 .91-2.3c-.64-.24-.94 1.9-.91 2.3zm-51.34 99.73a13.26 13.26 0 0 0-1.11.73l1.11-.73zm24.52-40.65c.14.08.09.15 0 0zm-12.4 21.36c.71.15 1.41-.67 1.07-1.25-.06.07-1.03 1.53-1.07 1.25zm41.33-86.66c.52-.56 2.11-3.26 1.33-3.67-.14.08-.17 0-.08-.11-.41.61-1.6 5.54-1.67 5.55a1.58 1.58 0 0 0 .42-1.77zM224.62 45.62c.56-3.24.15-3.31-2.86-3.49-4.54-.26-10.09-.53-14.56.17-3.1.48-4 1.39-5.6 3.93-1.4 2.24-2.67 4.61-4.21 6.91-8.71 13-18.17 25.88-21 41.8-2 11 9.91 1.41 13.72-1.52 6.22-4.79 11.24-10.87 15.9-17.11 3.75-5 6.49-10.06 9.76-15.1a35.1 35.1 0 0 0 3.69-7.35c1.15-3.02 3.77-5.44 5.16-8.24zm67.9 100.09c1.92-4.86 6.34-10.58 8.89-15.75 3.36-6.83 7.53-13.23 10.86-20.09.64-1.33 4.26-6.2 2.28-6.85-2.45-.79-8.08 4-10.21 5.31-6.47 3.82-12.89 8-19.13 12.15-10.48 7-20.85 14.64-31.25 22.43a140.24 140.24 0 0 0-15.86 13.47 59.11 59.11 0 0 0-7.15 8.18c-1 1.47-3.86 4.94-4.14 6.29a38 38 0 0 0-6.84 17.58c-.48 4.21-.32 9.83 1.47 13.81 5.2 11.54 23.33-.22 29.42-4.84 9.11-6.88 16.66-17.37 23.65-26.34 3.81-4.88 6.72-10.28 10.63-15.09 2.83-3.48 4.66-6.75 7.38-10.26zM97.62 83.82c1.43-.62 2.19-5.13 2.8-6.54 1.55-3.64 1.19-3.11-.48-6.64-2-4.31 2.25-5.25 1.67-7.71a24.2 24.2 0 0 0-3.18-3.5c-1.86-1.3-4.27-.61-6.31-.34-6 .77-11.42 2.3-16.33 6-8.85 6.72-16.2 15.39-24.54 22.59-2.67 2.3-7.29 3.51-8-1.35-.62-4.59 6.2-10.44 9.1-13.4A77.66 77.66 0 0 1 67.72 61.3c5.32-3.24 9.32-8.18 13.36-12.88 2-2.29 3.61-4.87 5.58-7.17 1.37-1.6 3.41-2.81 4.62-4.51.66-.91-.08-1.67.34-2.39.62-1 1.89-2 2.59-3.05 1-1.51 3.4-5.14 2.14-6.78-1.64-2.14-8-1.18-10-.7a33.36 33.36 0 0 0-6.71 2.79 64.7 64.7 0 0 0-16.07 11.27c-1.16 1.11-2.76 2-3.83 3.15-2 2.12-.94 2.27-.91 4.84.07 5.31-3.28 11.31-5.53 16-5.34 11.1-12.23 21.28-18.76 31.66-3.07 4.87-4.72 10.55-7.51 15.44-3.45 6-8.61 11.42-10.78 18.25 3.27 1.84 6.4 3.83 9.56 5.72 3.78 2.25 8.2 2.23 12.39 2.4 11.12.46 19.94-6.12 28.37-12.58a29 29 0 0 0 5.1-4.86c.37-.47.39-1.24.83-1.67.62-.63 1.45-.11 1.93-.5a67 67 0 0 0 8.73-9.25c3-3.65 5.59-7.33 8.45-11.1s3.98-7.66 6.01-11.56zm135 23.56c12.44 0 20.28-11.28 26-20.7a31.34 31.34 0 0 0 4.2-10.43c.73-3.65 2.48-6.93 3.53-10.52.31-1.07 1.26-3.21.73-4.2-.37-.7-1.28.29-1.91-.21-2.44-2-4.43-2.43-7.59-2.66a20.4 20.4 0 0 0-9.69 1.46c.94-.37-3 1.26-2.91 1.21-.8.53-.26 1.31-1.26 1.82-.8.4-2.23.15-3.21.58-1.65.72-3 2.39-4.35 3.54a34 34 0 0 0-6.36 7c-3.88 5.68-7.48 12.21-8.19 19.2-.39 3.86.3 8.09 3 11s4.78 1.66 7.98 2.91zm3.71-64.94c-2.49 1.42-2.64.17-4 3.42a69.65 69.65 0 0 1-4.54 8.8c-1.51 2.59-2.85 5.36-4.32 8-1.58 2.84-4.39 7.06-4.88 10.17 1.8-.14 5.8-4.37 7.19-5.69 3-2.84 4.48-5.46 8-7.93a35 35 0 0 0 4-3.05 11 11 0 0 1 4.47-2.87c3.25-1.41 5.62-3.39 9.32-3.62 4-.25 7.61-.45 11.36 1.14s6.38 3.67 10.24 4.38c3.25.6 3.5 1.89 5.66-1.24.75-1.08 5.77-5.95 5.65-6.61-.27-1.37-20.54-1.44-22.65-1.72-4.26-.57-8.55-.8-12.82-1.36-4.02-.53-8.91-.29-12.71-1.82zm56.72 66.07c2.06-.94 17.31-8.79 17-10.61-.1-.65-5-1.45-6-2.42-1.55-1.57-1.37-4.4-3.56-2.73-1.59 1.22-3.39 6.15-4.35 8-.51 1.1-4.6 7.42-3.12 7.76zm38.08-24.54c.21-1.65-2.82 2.53-1.28 2.29.69-.1.66-1.92 1.28-2.29zm-36.61 69.75c.44-1.51-2.08 2.19-1.33 1.89.47-.64.92-1.23 1.33-1.88zm48.17-101.65c.45-.35.55-.7.29-1.05s-.86 1.13-.29 1.05zm-27.24 66c.11-.32 0-.48-.28-.48a1 1 0 0 0-.48.71c.25.28.51.2.76-.21zm-3.39 5.06a1 1 0 0 0-.48 1.19 1.15 1.15 0 0 0 .48-1.17zm32.45-76.34c0-.4-.13-.45-.39-.16.04.57.17.62.39.18zm-30.49 73.18c-.13.35.42 0 0 0zm-36.82 57.91zm52.21-90.56c-.15-.41-.25.24 0-.04zM143.27 37.4c.59 6 6.93 2.54 9.9 3.41.68.21 2 1.38 2.55 1.4s.92-.93 1.51-1.07c1.46-.37 4.24-.91 3.88-3.05-.49-2.85-7.15-3.55-9.08-3.75-3.14-.31-9.25-1.94-8.76 3.06zm190.85 40.83c-.86.56-.66 2.19-.86 2.38a5.48 5.48 0 0 0 .86-2.38zm-28.23 57.44c.34-.14 1.48-1.33.94-1.71 2.49-4.67-1.15 2.18-.94 1.71zm-1.4 3.05c-.36.07-.4.27-.11.58a.34.34 0 0 0 .12-.58zm31.57-65.54c-.07-.45-.18-.47-.32-.07.08.48.15.5.33.07zm-18.24 41.11zm3.83-7.76q.24 1.55-.42 1.26c.3-.25.36-1.03.43-1.26zm24.9-65.26zM6.33 132.13zm299.56 3.59c.22.1 0-.02 0 0zm-4.56 9c-.16-.12-.1.03-.02-.01zm20.8-38.63l-.52.43c-.02.16.55-.49.5-.44zm12-27.9zm-176.62-3.5c-.08.37.01-.12.01-.01zm-59.9 9.14c-.57-.05.14-.15.01-.01zm129.18 87a.6.6 0 0 0 .25.69c.38.15-.15-.84-.24-.67zm-2.17-125.21c.14-.29.02-.05 0 0zM647.4 24.97c-2.42 4.23-5.22 8.24-7.48 12.55-1.13 2.15-1.92 4.48-3.14 6.57-.76 1.29-3.94 4-3.14 5.78s12.28 1.22 13.92.64c3-1.05 3.77-4.89 5.07-7.68 2.26-4.82 4.48-9.64 6.88-14.4a20.44 20.44 0 0 0 2.12-4.87 5.71 5.71 0 0 0 .64-2.09 2 2 0 0 1-.75-1.66c.09-.34 2.86-3.57 3.27-4.13 1.13-1.53 1.19-2.24 3.33-2.07 3.55.29 5.29 2.65 4.46 6-1.17 4.74-4.57 9.36-6.71 13.74-1.16 2.36-2.23 4.76-3.29 7.17-.64 1.45-3.48 5.74-3.27 7.22.42 3 5.59 1.77 8.32 1.78 5.78 0 11.46.46 17.24.17a98.62 98.62 0 0 0 15.52-1.77c2.56-.54 3.93-1.27 5.76 1.15.89 1.18 1.57 2.6.76 4-1.64 2.79-21 2.71-20.82 3.73.06.42 8.09 1 9.11 1.26a33 33 0 0 1 11.49 6c2.66 2.12 4.18 5.27 7.28 2.37 2.78-2.6 5.25-7 7.47-10.16s4.14-5.84 6.53-8.65 4.91-8.66 8.6-10.13c6.37-2.52 9.35 5.53 9.84 10.1 1 9.47-.23 19.63-1.69 29-.62 4-1.61 8-1.65 12 0 3.75-1.33 7.17-1.62 10.89-.23 3 0 5.8-2 8.18-1.09 1.3-.35 1.13-2 1.67-1 .33-4 .34-4.56-.84-.81-1.64 1.75-10 2.08-11.94.77-4.46.78-8.78 1.31-13.29s.75-8.9 1.6-13.32c.94-4.87.43-9.85.73-14.79.1-1.6 1-8.82-1.29-9.1-1.6-.2-5.74 6-6.74 7.3-4.28 5.62-8.69 10.79-12.69 16.72-5.19 7.59-9.46 15.66-15.33 22.78-9.47 11.49-24.36 23.7-40 15.09-16.53-9.08-6.29-30.5 4.47-40 1.89-1.67 8.13-5.92 2.27-4.77a25.65 25.65 0 0 0-11.41 5.29c-3.44 3-6.39 5.6-8.88 9.37-2.64 4-4.79 8.18-7.29 12.25-2.3 3.75-5.33 7.47-7.09 11.51-1.35 3.11-1.4 6.79-5.86 6.63-11.67-.43 1.9-15.13-1-16.33-1.35-.56-6.47 8-7.39 9.07a55 55 0 0 1-9.9 8.89c-3.91 2.67-7.55 4.45-12 2-2.37-1.32-2-2.19-3.23-3.91-.66-.89-2.66-2.57-1.45-2.44-.95-.14-7.45 6.33-9.32 7.25-1.62.79-4.05 2-5.91 1.54-2.18-.5-4.28-3.34-6.65-3.39-2.94-.06-6.27 5.41-8.95 7.25-4.32 3-10 3.06-11.94-2.64-3.36-9.75 3.69-21.66 7.91-29.86 2.05-4 5.43-10.05 5.52-14.67.11-5.89-5.82 4.08-7.09 6a75.67 75.67 0 0 0-7.48 15c-1.78 4.5-4.82 8.82-7.06 13.25-1.2 2.38-2 5-3.29 7.28-1.17 2-1.66 4.52-2.93 6.43-2.12 3.22-7.88 4.92-9.51.37-1.24-3.46 2.21-6 2.82-8.79.15-.67-.74-.9-.48-1.73.17-.54 1.5-1 1.88-1.46 1.45-1.79 1.79-4 2.86-6a41.14 41.14 0 0 0 4-11.92c.62-3.07.63-6.15 1.08-9.24s1.52-5.78 1.41-8.77c-.13-3.45-1.43-12.38-5.82-11-3.73 1.17-7.14 7.79-9.43 10.59-3.16 3.83-4.56 8-7 12.08-3 5-3.49 11-6.53 15.87 0-.23 0-.25-.13 0 1.19-.11-2.51 6.11-2.55 6.25a4.79 4.79 0 0 0 .68 1.45c-.37.76-1.47 1.45-1.73 2.08-1.77 4.24-.08 13.34-6.6 14.51-2.45.45-6.16-1.23-6.44-4-.21-2.08 2.53-6.23 3.36-8.2 1.24-2.92 2.17-5.71 3.16-8.73.31-1 2.92-7.87 2.17-8.48-1.17-1-4.23 6.85-4.64 7.64a64.24 64.24 0 0 1-7 10.28c-5.36 6.75-13.74 13.38-22.85 12.64a17.92 17.92 0 0 1-16-13.24c-1.43-5-1.28-10.14-.78-15.23.09-.86 2.32-8.79 1.91-9-1.35-.64-7.51 12.57-8.35 14.22-1.32 2.6-2.83 5.17-4.3 7.69-.76 1.32-1.95 2.49-2.61 3.85-.49 1-.21 2.13-.81 3.12a6.3 6.3 0 0 1-6.49 2.18c-3.31-.87-3.06-3-2.89-6 .08-1.53 1.56-16.48 1.23-16.55-1.44-.29-6.6 11.64-7.56 13.12-3 4.62-6.79 8.17-10.39 12.18-1.19 1.32-1.7 4.09-2.73 5-.06 0-4.75 1.95-5.05 2a9.3 9.3 0 0 1-5.66-.34c-1.61-.56-3.46-2.86-5-2.86-1.91 0-4.37 4.87-5.46 6.31a65.76 65.76 0 0 1-5.74 7c-3.12 3.11-7.39 8.24-12 8.9-5 .72-11.65-.63-13.13-6.17-1.57-5.9.07-13.13 2.3-18.6 1.41-3.49 2.7-10.26 7.8-9.15 6.17 1.32 2.11 8.08.8 11.88-.78 2.25-5.2 14-.79 15.07 1.22.29 5.68-3.7 6.54-4.37a33.67 33.67 0 0 0 6.68-6.86c3.26-4.5 8.27-9.1 10.07-14.43 2.23-6.56 1.15-13.93 3.09-20.59 3.19-10.92 5.33-21.92 9.29-32.35 4.6-12.19 8.41-24.7 13.83-36.71 2.31-5.12 5-10.22 7.53-15.2 1.14-2.24 3-4.79 6-4.1 3.45.81 2.87 3.59 2.33 6.14-1 4.69-2.46 9.15-3.06 13.82a98.59 98.59 0 0 1-3.43 15.56c-1.58 5.47-3.83 11.1-5 16.65-.91 4.45-2.79 7.7-3.81 12.53-.83 3.92-1.3 8-3.11 11.68-2.75 5.7-5.24 11.85-7.47 17.94a63.46 63.46 0 0 1-3.37 8.08c-1.09 2-3.24 3.79-3.95 6-.26.82-.87 5.73 0 6.61 1.73 1.69 5.5-2.27 6.57-3.25 9.83-9 15.5-20.38 21.07-32.18 5-10.69 9.89-21.38 14.15-32.31 4.65-11.94 9.16-23.43 13-35.6 1.31-4.1 3.54-15 8.12-16.58 2.06-.69 4.76 0 5.66 2.22 1 2.53-1.37 7.09-2.33 9.38-.62 1.47-2.23 4.39-2.1 5.87 0-.2.66 3.93 1.07 1.74-.22 1.16-.91.92-1.36 1.87-.19.4-1.28 1.17-1.61 1.63-1.2 1.69-1.6 4.21-2.29 6.15-1.26 3.59-2.58 7.15-3.84 10.74-1.12 3.19-1.85 6.73-3.21 9.83-.88 2-2.23 3.56-2.75 5.47-.45 1.66.43 3.72-1 5.27-.16.18-2 .88-1.51.13-.22.32-1 2-.78 2.34a1.24 1.24 0 0 0 1.37-.53c-.05 0-1.31 6.17-1.82 7s-1.41 1.26-1.8 2.07c-.53 1.09-.05 2.26-.42 3.21-.15.39-.51 1.69-.5 1.65.18-.44-1.24 1.32-1.33 1.46-.31.54-2.63 8.63-1.93 8.77 1.38.28.45-4.53 1.82-4.33 1.73.25-1.48 5-1.52 5.19-.09.38-.38 3.63-.68 3.45-1.26-.78-1.27-.61-1.15 1.56-.05-.9 1.38 2.37 1 1.77.24.36-.39 1.43.2 1.76.88.5 4.28-7.12 4.86-7.95a97.77 97.77 0 0 1 7.65-9.45c3.11-3.43 5.67-7.39 9.09-10.49 3.14-2.85 6.74-5.14 9.71-8.17 5.72-5.84 12.9-11.25 21.5-8.51 6.54 2.09 10.46 7 14.55 12.2.62.79.39 3 2.16 2.11.75-.36 1.45-3.31 1.7-4.12.83-2.71.92-7.76 5.15-6.81a9.37 9.37 0 0 1 4.09 3.54c.63 1.65-.23 1.7-.24 3.27 0 4.92 1.47 2.48 3.52.06a79.41 79.41 0 0 1 8.38-7.91c2.84-2.47 5.8-2 9 .17 3 2 4.7 5.82 5.81 9.15.54 1.63 1.25 12.64 2.27 12.9.53.14 8.13-12.29 9.56-13.55 3.77-3.31 9.33-8.23 13.43-2.25 2.85 4.16.19 12.58-1.09 16.95a125.51 125.51 0 0 1-6.82 18.23c-1.08 2.27-7.66 12.15-5.68 14.72 1.62 2.1 9.55-7.28 10.36-9.21 1.82-4.36 2.59-9.5 4.65-13.94 2.36-5.08 5.23-10.18 7.4-15.32 1.21-2.88.92-8.81 5.86-8.88 6.95-.11 3.14 11.29 2 14.54-2 5.59-3.91 11-6.41 16.42-1.15 2.47-9.43 15.45-1.28 11.35 10.51-5.28 17.81-16.49 23.12-26.52 5.62-10.62 11.81-21.3 18.26-31.43 7.24-11.37 13.93-22.56 21.24-33.95 1.27-2 2.55-5.72 5.16-6.1 1.76-.27 5.64 1.85 6.11 3.84 1.24 4.87-7.73 9.64-7.55 14.17zM445.89 68.33c0 .08.46-1.1-.06-1.16.49-.02.51.37.06 1.16zm205.7-4.48a2.35 2.35 0 0 0 .3-2.26c1.39 3.09 4.1-.47 5.75-1.55 1-.62 5.84-2.21 5.77-3.18-.12-1.6-8.47-.12-9.21.63-.88.93-2.74 5.48-2.59 6.36zm-234.5-12.5c-2.63-1.67-8.92 15.6-9.48 18.56-.65 3.4-8.72 24.35-6.49 25.53 1.59.85 8.18-18.43 9.16-21a111.64 111.64 0 0 0 4.23-13.8c.47-2 1.25-8.67 2.58-9.29zm225.66 9.07c.75.16 2.23-.83 2.17-1.72-.1-1.38-2.3-.63-2.93-.64-3.52-.06-6.94-.37-10.45-.14-3 .2-3.56.13-5.41 2.35a38 38 0 0 0-4.89 8.18c-2.42 5.08-6.23 9.53-9.25 14.25a66.54 66.54 0 0 0-3.82 7.47c-.35.73-.63 1.53-1 2.24a1.87 1.87 0 0 1-1.51.71 4.31 4.31 0 0 1 0 2c-.92 1.66-2.18 4.33-1.85 6.23.23 1.33-1.22 2.63 1.26 2.58 1.19 0 2.5-2.1 3.26-2.79 2.53-2.32 5.32-4.1 7.63-6.69 1.16-1.31 2.11-3.19 3.42-4.34.91-.78 1.8-.72 2.68-1.55 2.06-1.93 3.83-5.27 5.59-7.57 2.3-3 4.88-6 7-9.14s4.93-9.44 8.1-11.43zm60.95 19.65a37.58 37.58 0 0 0 3.27-3.86c.72-2.38-1.39-3.69-3.32-4.46-4.36-1.74-8.08-4.63-12.61-6.27-9.58-3.48-19.47 10-24.65 16-7.35 8.43-6 24.12 8.16 22.07 6.32-.92 11.82-4.64 16.18-9.1s9.72-9.29 12.97-14.38zm-204.81 7.36c-1-2.53 5.13-8.67 4.61-12.38-.64-4.58-12.25-4.77-15.71-5.82-3.28-1-6.56-3.16-10.25-2.58-3.34.53-3.91 3-6 5.2-3.82 3.89-6.09 10.58-8.29 15.92-3.6 8.72-6.09 34.43 10.39 28.9 5.6-1.87 10.56-6.8 14.23-11.3a73.71 73.71 0 0 0 6.22-9.32c.69-1.25 3.41-8.29 4.8-8.62zm-8.13-29c-.93.3-7.42.37-7.22 2 .08.71 13.42 4.57 13.91 4.23 1.06-.72-2.22-2.61-2.74-3.14s-.57-1.57-1.37-2.18-1.88-.37-2.62-.95zm-74.52-10.75c.75 2.83 1.27 1.18 2.16-.64 1-2 2.33-5.84 1.66-7.94-2.17 1.79-1.94 6.33-3.82 8.58zm21.47 48.29l.4 1.46c0-.14 1.32-3.22.41-3a1.4 1.4 0 0 0-.81 1.54zm11.43-38.41c-.95-1.12-.84.72-.51.72a.6.6 0 0 0 .51-.73zm-48.42 40.11c-.1.25.5-1.45-.18-.82-.34.43-.28.7.18.82zm58.79 2.49zm156-63.94c-.31-2.42-1.65-1.78-3.05-2.91a37.5 37.5 0 0 1-2.76-2.92c-2.13-2.11-5.06-3.86-7.13-1.08-5.68 7.66 13.52 11.71 12.9 6.91zm32.67 13.93c-.43.16.15-.07-.04 0zm-.72-25.77c-.1 1.35-.04.03-.04 0zm56.33 55.64zM642.81 60.4c-.33.13-.07.03 0 0zm-230.76-1c-.36.17-.09.21 0-.02z"/></svg>