<svg data-name="Layer 1" xmlns="http://www.w3.org/2000/svg" viewBox="0 0 20.57 20.57"><path d="M20.57 10.29c0 2 0 3.45-.06 4.24a6.3 6.3 0 0 1-1.67 4.31 6.2 6.2 0 0 1-4.31 1.66c-.79.05-2.2.07-4.24.07s-3.46 0-4.25-.07a6.2 6.2 0 0 1-4.31-1.66 6.25 6.25 0 0 1-1.66-4.31c0-.79-.07-2.2-.07-4.24S0 6.83.07 6a6.25 6.25 0 0 1 1.66-4.27A6.25 6.25 0 0 1 6 .07C6.83 0 8.24 0 10.29 0s3.45 0 4.24.07a6.25 6.25 0 0 1 4.31 1.66A6.3 6.3 0 0 1 20.51 6c.04.83.06 2.24.06 4.29zm-9.26-8.45H6.55A9.52 9.52 0 0 0 5.18 2a5.58 5.58 0 0 0-1 .24 3.54 3.54 0 0 0-2 2 4.79 4.79 0 0 0-.24 1 9.68 9.68 0 0 0-.14 1.38V13.97a9.37 9.37 0 0 0 .2 1.42 4.79 4.79 0 0 0 .24 1 3.54 3.54 0 0 0 2 2 5.51 5.51 0 0 0 1 .25 11.42 11.42 0 0 0 1.37.13h7.47a11.82 11.82 0 0 0 1.38-.13 5.62 5.62 0 0 0 1-.25 3.54 3.54 0 0 0 2-2 4.79 4.79 0 0 0 .24-1 9.37 9.37 0 0 0-.01-1.39v-2.69-1-2.46-1.29a9.68 9.68 0 0 0-.14-1.38 4.79 4.79 0 0 0-.24-1 3.54 3.54 0 0 0-2-2 5.69 5.69 0 0 0-1-.24A9.84 9.84 0 0 0 14 1.88h-1.3zM14 6.55a5.08 5.08 0 0 1 1.54 3.74A5.07 5.07 0 0 1 14 14a5.07 5.07 0 0 1-3.73 1.54A5.08 5.08 0 0 1 6.55 14 5.07 5.07 0 0 1 5 10.29a5.08 5.08 0 0 1 1.55-3.74A5.08 5.08 0 0 1 10.29 5 5.07 5.07 0 0 1 14 6.55zm-1.31 6.16a3.3 3.3 0 0 0 1-2.42 3.41 3.41 0 0 0-3.42-3.43 3.41 3.41 0 0 0-3.43 3.43 3.41 3.41 0 0 0 3.43 3.42 3.3 3.3 0 0 0 2.44-1zm3.94-8.79a1.2 1.2 0 0 1 .36.87 1.22 1.22 0 0 1-.36.88 1.24 1.24 0 0 1-2.11-.88 1.17 1.17 0 0 1 .37-.87 1.23 1.23 0 0 1 1.74 0z"/></svg>